<svg xmlns="http://www.w3.org/2000/svg" xmlns:xlink="http://www.w3.org/1999/xlink" width="64" height="64" viewBox="0 0 64 64"><linearGradient id="a" x1="-74.929" x2="-75.26" y1="52.199" y2="2.356" gradientTransform="matrix(1.0749904 0 0 1.0292896 56.688954 -.015285)" gradientUnits="userSpaceOnUse"><stop offset="0" stop-color="#197cf1"/><stop offset="1" stop-color="#20bcfa"/></linearGradient><g transform="translate(56.391766 -.176777)"><rect width="44" height="7.699" x="-46.392" y="54.477" fill="#0b3969" ry="2.5"/><rect width="44" height="52.832" x="-46.392" y="1.646" fill="url(#a)" ry="2.5"/><path fill="#0b3969" d="m-46.391766 51.264462h44v7.911841h-44z"/><g fill="#fff"><path d="m-27.508822 59.067692h-.727944v-5.665306h.727944z"/><path d="m-25.593023 60.776778h-.751682l.902018-1.954372-1.598312-3.631809h.791244l1.155216 2.785178h.01582l1.123566-2.785178h.791244l-2.429119 5.586181z"/><path d="m-19.460512 59.067692h-.854544l-.957405-1.432152-.94158 1.432152h-.854543l1.368852-1.970197-1.337202-1.906898h.822893l.957405 1.368852.909931-1.368852h.854543l-1.353027 1.906898z"/></g><path fill="#fff" stroke="#fff" stroke-width="2.029" d="m-36.475828 27.104959v-19.9714146h2.566159v17.5168276h8.646842v2.454587z" transform="matrix(.94972289 -.31309174 .31309174 .94972289 -.400428 0)"/></g></svg>