<svg xmlns="http://www.w3.org/2000/svg" xmlns:xlink="http://www.w3.org/1999/xlink" viewBox="0 0 48 48"><linearGradient id="a"><stop offset="0" stop-color="#3889e9"/><stop offset="1" stop-color="#5ea5fb"/></linearGradient><linearGradient id="b" x1="399.571" x2="399.571" y1="545.798" y2="517.798" gradientUnits="userSpaceOnUse" xlink:href="#a"/><linearGradient id="c" x1="400.512" x2="400.699" y1="546.074" y2="517.773" gradientUnits="userSpaceOnUse"><stop offset="0" stop-color="#30cf41"/><stop offset="1" stop-color="#47f383"/></linearGradient><linearGradient x1="-.5" x2="536" y1="267.75" y2="267.75" gradientUnits="userSpaceOnUse" xlink:href="#a"/><g transform="matrix(1.406155135841 0 0 1.406155135841 -539.359078591465 -723.854469766371)"><circle cx="400.571" cy="531.798" r="0" fill="url(#b)"/><g transform="matrix(1.117536624128 0 0 1.117536624128 -47.015292188816 -62.460177851153)"><circle cx="400.571" cy="531.798" r="14" fill="url(#c)"/><circle cx="400.571" cy="531.798" r="14" fill="none"/></g></g><path fill="#195c28" d="m391.84218 540.91306c-.42081-.32855-.94932-.52413-1.52328-.52413-1.35134 0-2.45088 1.08433-2.48542 2.43509-1.39488.52618-2.38765 1.87965-2.38765 3.46634 0 1.87433 1.38537 3.42322 3.18243 3.66739v.0335h12.72968v-.006c1.77487-.10355 3.18242-1.58396 3.18242-3.39503 0-1.74659-1.30911-3.18565-2.9943-3.37879.007-.10647.0108-.21389.0108-.32212 0-2.70685-2.27081-4.90117-5.07199-4.90117-2.07343 0-3.85626 1.20226-4.64268 2.9247z" transform="matrix(1.491598046386 0 0 1.4996113297 -564.93024694826 -792.773085168203)"/></svg>