<svg xmlns="http://www.w3.org/2000/svg" xmlns:xlink="http://www.w3.org/1999/xlink" viewBox="0 0 48 48"><linearGradient id="a"><stop offset="0" stop-color="#3889e9"/><stop offset="1" stop-color="#5ea5fb"/></linearGradient><linearGradient id="b" x1="399.571" x2="399.571" y1="545.798" y2="517.798" gradientUnits="userSpaceOnUse" xlink:href="#a"/><linearGradient id="c" x1="400.556" x2="400.556" y1="546.927" y2="516.475" gradientUnits="userSpaceOnUse"><stop offset="0" stop-color="#d5dbff"/><stop offset="1" stop-color="#f9ffff"/></linearGradient><linearGradient id="d" x1="399.571" x2="399.571" y1="545.798" y2="517.798" gradientTransform="matrix(1.4219286 0 0 1.4228558 -545.60675 -732.81701)" gradientUnits="userSpaceOnUse" xlink:href="#a"/><circle cx="23.977" cy="23.855" r="0" fill="url(#d)"/><g transform="matrix(1.4942343 0 0 1.4952086 -574.5475 -771.14881)"><circle cx="400.571" cy="531.798" r="14" fill="url(#c)" stroke="url(#c)" stroke-width="1.427"/><circle cx="400.571" cy="531.798" r="0" fill="url(#b)" transform="matrix(1.55822993102 0 0 1.55822993102 -264.298285246431 -296.910724934234)"/></g><g stroke-width=".105"><path fill="#70a6ea" stroke="#4a89dc" d="m9.1767161 29.045045c1.4209729 2.547714 3.5239199 4.757863 6.2278729 6.325951 2.713077 1.563526 5.675907 2.276293 8.593121 2.231816-1.425535-2.547715-3.510236-4.779531-6.21875-6.344197-2.713078-1.568088-5.68389-2.258047-8.6068056-2.21357m.00456 0" opacity=".8"/><path fill="#a9d57a" stroke="#8cc152" d="m13.025658 18.594168c-.0536 3.750866.859882 7.555331 2.873877 11.039338 2.013995 3.479444 4.846816 6.174273 8.120983 8.005799.05816-3.746303-.832512-7.564454-2.841945-11.048459-2.013994-3.484007-4.873046-6.165151-8.16546-7.994397m.01369 0" opacity=".8"/><path fill="#ee6c7a" stroke="#da4453" d="m38.818704 29.049607c-2.918354-.03991-5.880043.668291-8.588558 2.236377-2.713077 1.563527-4.811463 3.773675-6.232436 6.321389 2.922915.04448 5.889167-.645481 8.606805-2.213569 2.713077-1.568087 4.797778-3.795342 6.218751-6.344197m-.0046 0" opacity=".8"/><path fill="#fbd169" stroke="#f6bb42" d="m23.979463 10.277032c-2.392617 4.00518-3.773674 8.677512-3.773674 13.685128s1.381057 9.675386 3.773674 13.685129c2.392616-4.009743 3.813589-8.67295 3.813589-13.685129 0-5.007616-1.420973-9.679948-3.813589-13.685128m0 0" opacity=".8"/><path fill="#fa8168" stroke="#e9573f" d="m35.245745 18.220108c-3.33689 1.862318-6.236997 4.61531-8.281784 8.160899-2.053909 3.554711-2.98906 7.435586-2.930898 11.257158 3.341453-1.862317 6.258666-4.595922 8.312576-8.160898 2.053909-3.554712 2.958268-7.448131 2.900106-11.275406m0 .01825" opacity=".8"/></g></svg>