<svg xmlns="http://www.w3.org/2000/svg" xmlns:xlink="http://www.w3.org/1999/xlink" width="48" height="48" viewBox="0 0 48 48"><linearGradient id="a" x1="29.347" x2="30.057" y1="1028.584" y2="1007.409" gradientUnits="userSpaceOnUse"><stop offset="0" stop-color="#85cfd6"/><stop offset="1" stop-color="#daedff"/></linearGradient><linearGradient x1="0" x2="47" y1="23.5" y2="23.5" gradientUnits="userSpaceOnUse"><stop offset="0" stop-color="#a9a3d4"/><stop offset=".47" stop-color="#87baff"/><stop offset="1" stop-color="#89ec85"/></linearGradient><clipPath id="b"><circle cx="286" cy="26" r="10"/></clipPath><linearGradient id="c" x1="24.616" x2="25.285" y1="1051.877" y2="1019.768" gradientUnits="userSpaceOnUse"><stop offset="0" stop-color="#587ea7"/><stop offset="1" stop-color="#7db2eb"/></linearGradient><linearGradient id="d" x1="26.878" x2="2.657" y1="1051.823" y2="1002.695" gradientUnits="userSpaceOnUse"><stop offset="0" stop-color="#79a4cb"/><stop offset="1" stop-color="#98ceff"/></linearGradient><circle cx="286" cy="26" r="10" stroke-width=".455" clip-path="url(#b)" opacity="0" transform="matrix(2 0 0 2 -604.90584 -28.884)"/><circle cx="286" cy="26" r="10" stroke-width=".909" clip-path="url(#b)" opacity="0" transform="matrix(2 0 0 2 -604.90584 -28.884)"/><g transform="matrix(.96610092 0 0 .96610092 .286565 -969.939835)"><circle cx="24" cy="1028.362" r="20" fill="url(#a)" transform="matrix(1.167803299383 0 0 1.167803299383 -3.12687367997 -172.480789294329)"/><path fill="url(#d)" d="m35.370129 1047.4336c-11.323052 6.5381-25.803648 2.6578-32.340539-8.6652-6.538137-11.3243-2.658369-25.8037 8.665181-32.3418 13.342933-.061 21.814973 28.7705 23.675358 41.007z"/><path fill="url(#c)" d="m49.537718 1027.6486c0 13.6917-11.100282 24.792-24.791987 24.792-13.691706 0-24.791995-11.1003-24.791995-24.792 6.930407-12.1323 37.512899-4.7193 49.583982 0z"/></g></svg>