<svg xmlns="http://www.w3.org/2000/svg" xmlns:xlink="http://www.w3.org/1999/xlink" width="48" height="48"><linearGradient id="a"><stop offset="0" stop-color="#3889e9"/><stop offset="1" stop-color="#5ea5fb"/></linearGradient><linearGradient id="b" x1="399.571" x2="399.571" y1="545.798" y2="517.798" gradientTransform="matrix(2.4341952 0 0 2.4357825 -630.0574 -771.61672)" gradientUnits="userSpaceOnUse" xlink:href="#a"/><linearGradient id="c" x1="399.571" x2="399.571" y1="545.798" y2="517.798" gradientTransform="matrix(1.4865618 0 0 1.4875311 -186.92651 -267.4198)" gradientUnits="userSpaceOnUse" xlink:href="#a"/><linearGradient id="d" x1="395.743" x2="395.422" y1="546.37" y2="521.051" gradientTransform="matrix(2.4403254 0 0 2.4435089 -556.45567 -788.16012)" gradientUnits="userSpaceOnUse" xlink:href="#e"/><linearGradient id="e"><stop offset="0" stop-color="#1d9ff6"/><stop offset="1" stop-color="#46f281"/></linearGradient><linearGradient id="f" x1="1" x2="47" gradientTransform="matrix(0 -1 1 0 -.000002 47.999998)" gradientUnits="userSpaceOnUse"><stop offset="0" stop-color="#e4e4e4"/><stop offset="1" stop-color="#eee"/></linearGradient><linearGradient id="g" x1="399.571" x2="399.571" y1="545.798" y2="517.798" gradientUnits="userSpaceOnUse" xlink:href="#a"/><linearGradient id="h" x1="399.571" x2="399.571" y1="545.798" y2="517.798" gradientTransform="matrix(1.4865618 0 0 1.4875311 -240.71112 -270.3736)" gradientUnits="userSpaceOnUse" xlink:href="#a"/><linearGradient id="i" x1="400.95" x2="405.05" y1="546.734" y2="512.422" gradientTransform="matrix(1.5621541 0 0 1.5631727 -217.05967 -307.74007)" gradientUnits="userSpaceOnUse" xlink:href="#e"/><linearGradient id="j" x1="399.571" x2="399.571" y1="545.798" y2="517.798" gradientTransform="matrix(2.4341952 0 0 2.4357825 -683.84201 -774.57052)" gradientUnits="userSpaceOnUse" xlink:href="#a"/><linearGradient id="k" x1="257.203" x2="254.797" y1="667.312" y2="-175.874" gradientTransform="matrix(.05078124 0 0 .05078124 395.57143 510.7979)" gradientUnits="userSpaceOnUse" xlink:href="#f"/><clipPath id="l"><path d="m45.8701 23.99998c0 12.0864-9.79158 21.88437-21.8701 21.88436-12.07852 0-21.87009-9.79796-21.87009-21.88436 0-12.08639 9.79157-21.88435 21.87009-21.88435 12.07852-.00001 21.8701 9.79795 21.8701 21.88435z"/></clipPath><linearGradient id="m" x1="257.203" x2="254.797" y1="667.312" y2="-175.874" gradientTransform="matrix(.05078124 0 0 .05078124 11 10.9999)" gradientUnits="userSpaceOnUse" xlink:href="#f"/><g transform="translate(-384.57143 -499.798)"><path fill="url(#k)" d="m430.44153 523.79798c0 12.0864-9.79158 21.88437-21.8701 21.88436-12.07852 0-21.87009-9.79796-21.87009-21.88436 0-12.08639 9.79157-21.88435 21.87009-21.88435 12.07852-.00001 21.8701 9.79795 21.8701 21.88435z"/><circle cx="408.548" cy="523.646" r="0" fill="url(#c)"/><circle cx="345.012" cy="523.727" r="0" fill="url(#b)"/><circle cx="408.548" cy="523.646" r="0" fill="url(#c)"/><path fill-opacity=".078" d="m17.623047 10.753906-1.625 1.625 4.929687 4.929688c-3.069572.107752-5.999358.369139-8.716796.759765-.69905 2.73523-1.087891 5.758157-1.087891 8.935547 0 3.17738.38899 6.198414 1.087891 8.933594l35.355468 35.355469c3.64716.52437 7.67553.816406 11.91211.816406 4.23657 0 8.267002-.292036 11.914062-.816406.69911-2.73518 1.085938-5.756214 1.085938-8.933594 0-3.17739-.386828-6.200317-1.085938-8.935547l-3.925781-3.925781.949219-.951172-1.625-1.625-35.355469-35.355469-5.701172 5.701172c-.53336-.009-1.070868-.013672-1.611328-.013672z" clip-path="url(#l)" transform="translate(384.57143 499.798)"/><ellipse cx="408.571" cy="523.798" fill="none" stroke="url(#d)" stroke-width="2" rx="21.87" ry="21.884"/><circle cx="345.012" cy="523.727" r="0" fill="url(#b)"/><g transform="matrix(1.486561756133 0 0 1.487531109285 -240.711123956573 -270.373603839155)"><circle cx="400.571" cy="531.798" r="0" fill="url(#g)"/><circle cx="400.571" cy="531.798" r="0" fill="url(#g)" transform="matrix(1.637466546304 0 0 1.637466546304 -298.091124770527 -338.94880206143)"/></g><circle cx="354.763" cy="520.692" r="0" fill="url(#h)"/><circle cx="291.227" cy="520.774" r="0" fill="url(#j)"/><path fill="url(#i)" d="m402.19397 510.55257-1.625 1.625 4.93164 4.92968c-3.07029.10771-6.00073.36906-8.71875.75977-.69905 2.73523-1.08789 5.75816-1.08789 8.93555 0 3.17738.38899 6.19841 1.08789 8.93359 3.64716.52437 7.67553.81641 11.91211.81641 4.23657 0 8.267-.29204 11.91406-.81641.69911-2.73518 1.08594-5.75621 1.08594-8.93359 0-3.17739-.38683-6.20032-1.08594-8.93555-2.25479-.32419-4.65616-.55928-7.16211-.69141l4.18555-4.18554-1.625-1.625-5.70117 5.70117c-.53336-.009-1.07087-.0137-1.61133-.0137l-6.5-6.5zm6.5 9.75c3.17728 0 6.20031.19344 8.93554.54297.52447 1.82345.81446 3.83869.81446 5.95703 0 2.11829-.29009 4.13163-.81446 5.95508-2.73533.34953-5.75816.54492-8.93554.54492-3.17744 0-6.19837-.19539-8.9336-.54492-.52426-1.82345-.8164-3.83679-.8164-5.95508 0-2.11834.29209-4.13358.8164-5.95703 2.73523-.34953 5.75616-.54297 8.9336-.54297z"/></g></svg>