<svg xmlns="http://www.w3.org/2000/svg" xmlns:xlink="http://www.w3.org/1999/xlink" width="48" height="48"><linearGradient id="a" x1="332.137" x2="332.137" y1="536.667" y2="515.883" gradientUnits="userSpaceOnUse"><stop offset="0" stop-color="#3889e9"/><stop offset="1" stop-color="#5ea5fb"/></linearGradient><linearGradient id="b"><stop offset="0" stop-color="#cdd0d1"/><stop offset="1" stop-color="#f6f6f7"/></linearGradient><linearGradient id="c" x1="304.471" x2="304.578" y1="535.111" y2="529.004" gradientTransform="matrix(1.0406604 0 0 1.0496705 1.740822 -27.945645)" gradientUnits="userSpaceOnUse" xlink:href="#b"/><linearGradient id="d" x1="309.275" x2="311.707" y1="530.316" y2="524.423" gradientUnits="userSpaceOnUse" xlink:href="#b"/><linearGradient id="e" x1="218.228" x2="218.044" y1="577.371" y2="565.112" gradientUnits="userSpaceOnUse"><stop offset="0" stop-color="#30cf41"/><stop offset="1" stop-color="#47f383"/></linearGradient><g fill="#3de467" opacity=".9" transform="matrix(2.1390321 0 0 2.1390321 -642.45315 -1101.3998)"><circle cx="332.879" cy="526.275" r="0" fill="url(#a)" opacity="1"/><rect width="16.715" height="12.579" x="296.816" y="522.157" fill="#16a085" opacity="1" ry=".52" transform="matrix(.99990504 -.01378077 .01378077 .99990504 0 0)"/><rect width="16.715" height="12.579" x="209.857" y="565.074" fill="url(#e)" opacity="1" ry=".52" transform="matrix(.9859804 -.16686119 .16686119 .9859804 0 0)"/><path fill="url(#d)" fill-rule="evenodd" d="m306.7524 524.72249c-.0272.009-.0528.0219-.0762.0395-.0935.0702-.10696.18574-.0296.25888l1.32236 1.24904c-1.04273.78119-1.65104 2.04445-1.18288 3.7107 2.27497.68478 5.6783-.0401 7.60395-1.44166-.0673-1.76508-1.19774-2.74776-2.5752-3.0615l.7304-1.59996c.0442-.0969-.0115-.19892-.12463-.22883-.11305-.03-.23969.0243-.28395.12119l-.74596 1.63394c-1.04108-.13146-2.16834.0922-3.06691.62875l-1.33909-1.26562c-.058-.0549-.15055-.0699-.23233-.0444z" opacity="1"/><path fill="url(#c)" d="m321.85265 530.5395a3.2473972 3.2473972 0 0 1 -3.2474 3.24739 3.2473972 3.2473972 0 0 1 -3.2474-3.24739 3.2473972 3.2473972 0 0 1 3.2474-3.2474 3.2473972 3.2473972 0 0 1 3.2474 3.2474z" opacity="1"/><path fill="#818181" fill-opacity=".902" d="m313.23592 536.8948-.50914-2.83489 2.70966.97652z" opacity="1" transform="matrix(.92011471 .15786627 -.15822536 .91616329 114.57593 -9.449411)"/></g></svg>