<svg xmlns="http://www.w3.org/2000/svg" xmlns:xlink="http://www.w3.org/1999/xlink" width="32" height="32" viewBox="0 0 32 32"><linearGradient id="a" x1="399.571" x2="399.571" y1="545.798" y2="517.798" gradientUnits="userSpaceOnUse"><stop offset="0" stop-color="#3889e9"/><stop offset="1" stop-color="#5ea5fb"/></linearGradient><linearGradient id="b" x1="400.512" x2="400.699" y1="546.074" y2="517.773" gradientUnits="userSpaceOnUse"><stop offset="0" stop-color="#74cb32"/><stop offset="1" stop-color="#abeb6b"/></linearGradient><linearGradient id="c"><stop offset="0" stop-color="#e3e3e3"/><stop offset="1" stop-color="#fffcff"/></linearGradient><linearGradient x1="226.909" x2="205.127" y1="358.155" y2="7.441" gradientUnits="userSpaceOnUse"><stop offset="0" stop-color="#f3f3f3"/><stop offset="1" stop-color="#fffcff"/></linearGradient><linearGradient x1="173.095" x2="205.127" y1="358.155" y2="7.441" gradientUnits="userSpaceOnUse" xlink:href="#c"/><linearGradient x1="238.073" x2="205.127" y1="372.358" y2="7.441" gradientUnits="userSpaceOnUse"><stop offset="0" stop-color="#e8e8e8" stop-opacity=".925"/><stop offset="1" stop-color="#fffcff"/></linearGradient><linearGradient id="d" x1="24.444" x2="25.086" y1="54.574" y2="0" gradientUnits="userSpaceOnUse" xlink:href="#c"/><g transform="translate(-384.57143 -515.798)"><ellipse cx="400.571" cy="531.798" fill="url(#a)"/><g transform="matrix(1.117536624128 0 0 1.117536624128 -47.015292188816 -62.460177851153)"><circle cx="400.571" cy="531.798" r="14" fill="url(#b)"/><circle cx="400.571" cy="531.798" r="14" fill="none"/><g fill="url(#d)" opacity=".9" transform="matrix(.351125362668 0 0 .351125362668 391.62536120636 523.372455896254)"><path fill="url(#d)" d="m26.12 14.488c.879-1.468 2.27-3.569 4.027-5.585h.002c1.488-1.711 4.402-3.907 4.402-3.907.438-.331.391-.792-.107-1.024l-3.522-1.646c-.498-.233-1.175-.063-1.505.376 0 0-2.605 3.737-5.671 11.692-9.48-4.288-18.491 1.718-18.491 12.162 0 10.909 8.393 27.48 19.743 22.478 11.954 5.173 19.749-11.568 19.749-22.478 0-10.534-8.1-16.71-18.627-12.068z"/><path fill="url(#d)" d="m23.997 10.955c.548-.046 1.032-.531 1.076-1.078 0 0 .352-4.266-2.621-7.242-2.982-2.977-7.24-2.622-7.24-2.622-.548.046-1.032.531-1.077 1.078 0 0-.358 4.268 2.619 7.245 2.975 2.974 7.243 2.619 7.243 2.619z"/></g></g></g></svg>