<svg xmlns="http://www.w3.org/2000/svg" xmlns:xlink="http://www.w3.org/1999/xlink" width="32" height="32" viewBox="0 0 32 32"><linearGradient id="a" x1="399.571" x2="399.571" y1="545.798" y2="517.798" gradientUnits="userSpaceOnUse"><stop offset="0" stop-color="#3889e9"/><stop offset="1" stop-color="#5ea5fb"/></linearGradient><linearGradient id="b" x1="397.571" x2="397.571" y1="544.798" y2="517.798" gradientUnits="userSpaceOnUse"><stop offset="0" stop-color="#2971c3"/><stop offset="1" stop-color="#83bbff"/></linearGradient><linearGradient x1="412.037" x2="412.037" y1="542.201" y2="526.201" gradientUnits="userSpaceOnUse"><stop offset="0" stop-color="#d0d0d0"/><stop offset="1" stop-color="#f1eeee"/></linearGradient><linearGradient id="c" x1="412.037" x2="412.037" y1="542.201" y2="526.201" gradientUnits="userSpaceOnUse"><stop offset="0" stop-color="#e3e3e3"/><stop offset="1" stop-color="#fffcff"/></linearGradient><g transform="translate(-384.57143 -515.798)"><ellipse cx="400.571" cy="531.798" fill="url(#a)"/><g transform="matrix(1.117536624128 0 0 1.117536624128 -47.015292188816 -62.460177851153)"><circle cx="400.571" cy="531.798" r="14" fill="url(#b)"/><circle cx="400.571" cy="531.798" r="14" fill="none"/><path fill="url(#c)" d="m410.94535 526.89581.11062.0234c1.28736-.42738 4.17669 1.25604 3.53301 2.75631-.1631.2355-.13546.65417.0612.91731l-3.61311 3.60819c-.20243-.20208-.65243-.19772-.85924 0l-5.97525 5.72484c-.54468.5219-.11647.96528.11362 1.19934l1.07183 1.06996c.23449.23257.85342.54659 1.29322.0815l5.63883-5.93272c.19662-.20644.19809-.64984 0-.85335 0 0 .003-.003 0-.003l3.62769-3.61983c.38301.34455.74475.37433 1.08789.28059.6627-.18106 1.03212.46616 1.42864.93912l-.17913.17589c-.26505.2675-.2403.71815.0568 1.01471.29708.29658.75.32129 1.01506.0568l1.18543-1.18191c.26503-.26749.2403-.71816-.0582-1.01327-.26795-.26894-.65679-.30384-.92768-.1119-.81262-.91004-.38591-1.0467-1.45777-2.2315l-2.00827-2.04833c-1.4461-1.41594-3.32476-1.41449-5.14515-.85189z" opacity=".9" transform="translate(-11.46564 -2.90259)"/></g></g></svg>