<svg xmlns="http://www.w3.org/2000/svg" xmlns:xlink="http://www.w3.org/1999/xlink" width="48" height="48"><linearGradient id="a" x1="23.745" x2="23.745" y1="44.097" y2="3.384" gradientUnits="userSpaceOnUse" xlink:href="#d"/><linearGradient id="b" x1="23.995" x2="24.175" y1="45.277" y2="3.915" gradientTransform="matrix(.95652175 0 0 .95652175 1.043482 1.043472)" gradientUnits="userSpaceOnUse" xlink:href="#g"/><linearGradient id="c" x1="356.749" x2="356.749" y1="566.73" y2="522.771" gradientTransform="matrix(.95652175 0 0 .95652175 -366.80746 -477.02419)" gradientUnits="userSpaceOnUse" xlink:href="#g"/><linearGradient id="d"><stop offset="0" stop-color="#d3d3d3"/><stop offset="1" stop-color="#fcf9f9"/></linearGradient><linearGradient id="e" x1="22.382" x2="23.805" y1="34.843" y2="12.805" gradientUnits="userSpaceOnUse" xlink:href="#d"/><linearGradient id="f" x1="23.737" x2="23.737" y1="44.756" y2="2.708" gradientUnits="userSpaceOnUse" xlink:href="#d"/><linearGradient id="g" x1="356.749" x2="356.749" y1="566.73" y2="522.771" gradientTransform="translate(-384.57143 -499.798)" gradientUnits="userSpaceOnUse"><stop offset="0" stop-color="#8d3aff"/><stop offset="1" stop-color="#ff3680"/></linearGradient><circle cx="24" cy="24" r="0" fill="url(#a)" stroke-width=".957"/><circle cx="-25.306" cy="44.31" r="0" fill="none" stroke="url(#c)" stroke-width="1.952"/><circle cx="24" cy="24" r="0" fill="url(#a)" stroke-width=".957"/><circle cx="24" cy="24" r="20.356" fill="url(#b)"/><path fill-opacity=".078" stroke-width=".917" d="m30.687001 13.433291-9.453125 2.558431c-.710086.199274-1.281902.991911-1.281902 1.761719v12.203125c-.72004-.394763-1.644483-.554504-2.603189-.293621-1.72996.470626-2.814676 1.992798-2.443847 3.398113.103106.390683.309678.732213.59082 1.013345l10.199706 10.199707a20.356318 20.356318 0 0 0 18.431803-17.400552z"/><path fill="url(#e)" stroke-width=".917" d="m21.166637 15.964642c-.710087.199274-1.281683.991687-1.281683 1.761494v12.204097c-.720042-.394763-1.644757-.5544-2.603462-.293508-1.72996.470626-2.814065 1.991706-2.443237 3.39702.370847 1.405232 2.07504 2.190136 3.805065 1.7194 1.380142-.375457 2.331542-1.437892 2.48324-2.558214l.04042-11.533133 8.971865-2.516332v9.10073c-.720032-.39479-1.644738-.554409-2.60348-.293617-1.729942.470653-2.81402 1.991806-2.44321 3.397038.370865 1.405314 2.075058 2.190118 3.805028 1.719474 1.38017-.375458 2.33156-1.437866 2.483278-2.558197l.0406-15.01411c0-.577252-.340743-1.009131-.801048-1.090366l-9.452491 2.558224z" opacity=".9"/><circle cx="24" cy="24" r="21.024" fill="none" stroke="url(#f)" stroke-width="1.952"/></svg>