<svg xmlns="http://www.w3.org/2000/svg" xmlns:xlink="http://www.w3.org/1999/xlink" width="48" height="48"><linearGradient id="a"><stop offset="0" stop-color="#fff"/><stop offset="1" stop-color="#ececec"/></linearGradient><linearGradient id="b" x1="399.571" x2="399.571" y1="545.798" y2="517.798" gradientUnits="userSpaceOnUse"><stop offset="0" stop-color="#3889e9"/><stop offset="1" stop-color="#5ea5fb"/></linearGradient><linearGradient id="c" x1="-321.182" x2="-325.132" y1="656.028" y2="242.447" gradientUnits="userSpaceOnUse"><stop offset="0" stop-color="#197dec"/><stop offset="1" stop-color="#3fcffb"/></linearGradient><linearGradient id="d" x1="-320.962" x2="-324.916" y1="656.015" y2="242.022" gradientUnits="userSpaceOnUse" xlink:href="#a"/><circle cx="400.571" cy="531.798" r="0" fill="url(#b)" transform="matrix(1.637466544097 0 0 1.637466544097 -644.580187175317 -848.719334054169)"/><g transform="matrix(.104976954815 0 0 .104976954815 57.813567976924 -23.136613403255)"><circle cx="-322.323" cy="449.237" r="209.757" fill="url(#c)"/><path fill-opacity=".118" d="m35.357422 12.652344-11.542969 11.445312.0059.0059-11.541015 11.443359 11.414062 11.414063a22.977005 22.977005 0 0 0 .3066.015584 22.977005 22.977005 0 0 0 22.962891-22.71875z" transform="matrix(9.1289875 0 0 9.1289875 -541.41905 230.14167)"/><path fill="#f44a4a" d="m-218.83993 346.24828-125.72528 83.90645 20.3492 20.5622z"/><path fill="#f32d2c" d="m-303.66196 470.73698-20.33975-20.56462 105.37608-104.46865z"/><path fill="#f6f6f6" d="m-429.02388 554.55776 105.37585-104.47193-.007-.007c-8.34093-8.43071-16.68533-16.86491-20.34273-20.56167l-85.02617 125.04059z"/><path fill="#e0e0e0" d="m-323.81612 449.95722-105.37584 104.47189 125.71191-83.91401c-8.34096-8.43069-16.68538-16.8649-20.34277-20.56165l.007.004z"/><circle cx="-322.105" cy="449.019" r="209.966" fill="none" stroke="url(#d)" stroke-linecap="round" stroke-linejoin="round" stroke-width="18.259"/></g></svg>