<svg xmlns="http://www.w3.org/2000/svg" xmlns:xlink="http://www.w3.org/1999/xlink" width="32" height="32" viewBox="0 0 32 32"><linearGradient id="a" x1="399.571" x2="399.571" y1="545.798" y2="517.798" gradientUnits="userSpaceOnUse"><stop offset="0" stop-color="#3889e9"/><stop offset="1" stop-color="#5ea5fb"/></linearGradient><linearGradient id="b" x1="400.512" x2="400.699" y1="546.074" y2="517.773" gradientUnits="userSpaceOnUse"><stop offset="0" stop-color="#3f4952"/><stop offset="1" stop-color="#67747f"/></linearGradient><linearGradient id="c" x1="41.165" x2="54.039" y1="89.364" y2="20.836" gradientUnits="userSpaceOnUse"><stop offset="0" stop-color="#e3e3e3"/><stop offset="1" stop-color="#fffcff"/></linearGradient><g transform="translate(-384.57143 -515.798)"><ellipse cx="400.571" cy="531.798" fill="url(#a)"/><g transform="matrix(1.117536624128 0 0 1.117536624128 -47.015292188816 -62.460177851153)"><circle cx="400.571" cy="531.798" r="14" fill="url(#b)"/><circle cx="400.571" cy="531.798" r="14" fill="none"/><path fill="url(#c)" d="m72.766 74.275c-13.366-10.451-3.933-53.438-3.933-53.438h16.336c1.705 0 8.389-1.072 8.389-9.076 0-9.846-8.168-9.241-8.168-9.241s-44.774 0-60.147 0c-9.873 0-18.784 11.304-23.899 19.389-2.723 4.318-1.183 5.528 3.493 3.493 16.392-7.178 21.012-4.593 21.012-4.593 1.155 5.528 1.54 30.473-2.667 40.318-4.263 9.269-12.128 21.012-.578 27.915 9.021 5.115 18.481-5.391 17.546-23.268-.44-9.461-1.183-44.938-1.183-44.938h15.072c-.469 5.528-3.025 33.745-.357 50.467 2.777 27.915 33.112 22.497 38.777 6.685 1.402-4.373 1.073-7.729.027-10.26-1.926-4.702-5.144-4.949-4.785-2.75.221 1.402.083 2.777-.138 4.016-.661 3.823-8.471 9.817-14.797 5.281z" opacity=".9" transform="matrix(.14253951 0 0 .14253951 393.4505 525.46117)"/></g></g></svg>