<svg xmlns="http://www.w3.org/2000/svg" xmlns:xlink="http://www.w3.org/1999/xlink" width="32" height="32" viewBox="0 0 32 32"><linearGradient id="a" x1="403.663" x2="402.652" y1="545.753" y2="517.443" gradientUnits="userSpaceOnUse"><stop offset="0" stop-color="#d3d3d3"/><stop offset="1" stop-color="#fcf9f9"/></linearGradient><g transform="matrix(1.0508504 0 0 1.0508504 -404.951596 -542.701903)"><circle cx="400.619" cy="531.729" r="14.875" fill="url(#a)"/><g fill-rule="evenodd" stroke-width=".095"><path fill="#48cfad" stroke="#37bc9b" d="m400.45318 543.89266c4.64415-3.42667 5.20954-7.03873.16524-10.90579-5.89802 4.30687-3.73848 7.68757-.16524 10.90579z" opacity=".85"/><path fill="#ed5565" stroke="#da4453" d="m400.45318 519.86982c4.64415 3.42666 5.20954 7.03873.16524 10.90578-5.89802-4.30686-3.73848-7.68757-.16524-10.90578z" opacity=".85"/><path fill="#ffce54" stroke="#f6bb42" d="m412.68063 531.72839c-3.42666 4.64415-7.03873 5.20954-10.90578.16524 4.30686-5.89802 7.68757-3.73848 10.90578-.16524z" opacity=".85"/><path fill="#ac92ec" stroke="#967adc" d="m388.64347 531.80587c3.42667 4.64414 7.03874 5.20954 10.90579.16523-4.30687-5.89802-7.68757-3.73847-10.90579-.16523z" opacity=".85"/><path fill="#ec87c0" stroke="#d770ad" d="m399.98671 531.11579c-5.75771.39858-8.52857-1.98658-7.19146-8.20038 7.2831-.54045 7.82835 3.4339 7.19146 8.20038z" opacity=".85"/><path fill="#5d9cec" stroke="#4a89dc" d="m392.66437 540.9007c5.75772.39858 8.52857-1.98659 7.19146-8.20038-7.2831-.54045-7.82835 3.4339-7.19146 8.20038z" opacity=".85"/><path fill="#fc6e51" stroke="#e9573f" d="m401.40959 531.18189c5.75771.39859 8.52857-1.98658 7.19146-8.20038-7.2831-.54045-7.82835 3.43391-7.19146 8.20038z" opacity=".85"/><path fill="#a0d468" stroke="#8cc152" d="m408.73194 540.91819c-5.75772.39858-8.52858-1.98658-7.19147-8.20038 7.2831-.54045 7.82836 3.4339 7.19147 8.20038z" opacity=".85"/></g></g></svg>