<svg xmlns="http://www.w3.org/2000/svg" xmlns:xlink="http://www.w3.org/1999/xlink" width="32" height="32" viewBox="0 0 32 32"><linearGradient id="a" x1="399.571" x2="399.571" y1="545.798" y2="517.798" gradientUnits="userSpaceOnUse"><stop offset="0" stop-color="#3889e9"/><stop offset="1" stop-color="#5ea5fb"/></linearGradient><linearGradient id="b" x1="400.512" x2="400.699" y1="546.074" y2="517.773" gradientUnits="userSpaceOnUse"><stop offset="0" stop-color="#2fae61"/><stop offset="1" stop-color="#4bdf88"/></linearGradient><linearGradient x1="226.909" x2="205.127" y1="358.155" y2="7.441" gradientUnits="userSpaceOnUse"><stop offset="0" stop-color="#f3f3f3"/><stop offset="1" stop-color="#fffcff"/></linearGradient><linearGradient x1="173.095" x2="205.127" y1="358.155" y2="7.441" gradientUnits="userSpaceOnUse"><stop offset="0" stop-color="#e3e3e3"/><stop offset="1" stop-color="#fffcff"/></linearGradient><linearGradient id="c" x1="238.073" x2="205.127" y1="372.358" y2="7.441" gradientUnits="userSpaceOnUse"><stop offset="0" stop-color="#e8e8e8" stop-opacity=".925"/><stop offset="1" stop-color="#fffcff"/></linearGradient><g transform="translate(-384.57143 -515.798)"><ellipse cx="400.571" cy="531.798" fill="url(#a)"/><g transform="matrix(1.117536624128 0 0 1.117536624128 -47.015292188816 -62.460177851153)"><circle cx="400.571" cy="531.798" r="14" fill="url(#b)"/><circle cx="400.571" cy="531.798" r="14" fill="none"/><g fill="url(#c)" transform="matrix(.040130471056 0 0 .040130471056 390.591872125215 522.816383427074)"><path d="m241.897 306.471 242.109-116.626v-10.659l-242.109-116.625-241.897 116.522v10.863z"/><path d="m83.808 251.571v69.7l145.836 70.25h24.506l145.435-70.057c.14-.307.271-.613.402-.922v-68.972l-158.09 76.152z"/><path d="m470.981 396.203-12.475-38.008v-135.596l-19.147 9.656v125.94l-12.476 38.008 18.859 25.242h6.381z"/></g></g></g></svg>