<svg xmlns="http://www.w3.org/2000/svg" xmlns:xlink="http://www.w3.org/1999/xlink" width="48" height="48"><linearGradient id="a" x1="369.157" x2="369.248" y1="611.673" y2="552.127" gradientTransform="matrix(1.3109496 0 0 1.0535533 -51.755898 -76.850188)" gradientUnits="userSpaceOnUse"><stop offset="0" stop-color="#e00c1e"/><stop offset="1" stop-color="#ff5f5f"/></linearGradient><linearGradient id="b" x1="408.889" x2="409.245" y1="546.305" y2="500.486" gradientTransform="matrix(.79674686 .08806114 -.08806114 .79674686 88.360402 125.77444)" gradientUnits="userSpaceOnUse"><stop offset="0" stop-color="#dbdada"/><stop offset="1" stop-color="#f8f5f5"/></linearGradient><rect width="44.43" height="44.472" x="387.865" y="501.278" fill-opacity=".667" ry="1.835" transform="matrix(1.005462760546 .001871048779 -.002896984536 1.005460327322 -386.804329 -502.534611)"/><g transform="matrix(.695985623017 -.07791743264 .07791743264 .695985623017 -277.247814000303 -353.316415705961)"><rect width="63.788" height="63.848" x="399.803" y="505.178" fill="url(#a)" ry="2.634" transform="matrix(.99358284 .11310673 -.11412048 .99346692 0 0)"/><path fill-opacity=".078" fill-rule="evenodd" d="m24.140625 8.0371094c-.109376-.02908-.241911.030703-.380859.3027344l-13.423828 26.2656252c-.3427113.560777-.3961088.805107-.308594.875l14.376953 11.480469 20.574219.039062c1.049487.002 1.897366-.84114 1.90039-1.890625l.054688-18.894531-22.691406-18.1230471c-.03084-.024628-.06511-.045018-.101563-.054687z" transform="matrix(1.3817311 .15468845 -.15468845 1.3817311 338.18299 545.54693)"/><path fill="url(#b)" fill-rule="evenodd" d="m348.13088 595.53911c23.58708-19.58544 14.71563.85468 34.95915 4.47003 2.32656.68381 1.79699-.66684 1.03548-2.66709l-13.48327-36.49072s-.32127-1.0116-.91978-.10571l-22.61035 34.21659c-1.80095 2.32023 1.01876.57706 1.01876.57706z"/></g></svg>