<svg xmlns="http://www.w3.org/2000/svg" xmlns:xlink="http://www.w3.org/1999/xlink" width="48" height="48"><linearGradient x1="0" x2="47" y1="23.5" y2="23.5" gradientUnits="userSpaceOnUse"><stop offset="0" stop-color="#a9a3d4"/><stop offset=".47" stop-color="#87baff"/><stop offset="1" stop-color="#89ec85"/></linearGradient><linearGradient id="a" x1="408.571" x2="408.571" y1="543.798" y2="503.798" gradientUnits="userSpaceOnUse"><stop offset="0" stop-color="#e4e4e4"/><stop offset="1" stop-color="#eee"/></linearGradient><g stroke-width="1.317" transform="matrix(1.000000004476 0 0 1.000000004476 -486.760340300875 -502.725834528142)"><rect width="40" height="40" x="388.571" y="503.798" fill="url(#a)" ry="20" transform="matrix(1.150000002498 0 0 1.150000002498 40.903177912701 -75.641874010362)"/><g><path fill="#283751" fill-opacity=".859" d="m24.026 12.005066c2.735.006 5.5083.85839 7.6746 2.5456 1.5229 1.7544-1.3789 3.6333-2.6858 1.9226-3.9343-2.3806-9.4829-1.5424-12.443 2.0167-1.5749 1.7662-2.4622 4.1231-2.4518 6.4891h2.6l-4.16 6.24-4.1599998-6.24h2.5999998c-.083-5.649 3.98-11.023 9.435-12.486 1.17-.321 2.376-.501 3.591-.488zm11.414 6.76 4.16 6.24h-2.6c.0737 5.7169-4.093 11.151-9.6433 12.537-3.7452 1.0459-7.9801.2827-11.058-2.1101-1.5705-1.7837 1.3716-3.6445 2.6907-1.9181 3.8119 2.3127 9.1499 1.5792 12.159-1.724 1.742-1.795 2.744-4.283 2.731-6.785h-2.6l4.16-6.24z" transform="matrix(1.2309779 0 0 1.2309779 481.21687 495.94867)"/></g></g></svg>