<svg xmlns="http://www.w3.org/2000/svg" xmlns:osb="http://www.openswatchbook.org/uri/2009/osb" xmlns:svg="http://www.w3.org/2000/svg" xmlns:xlink="http://www.w3.org/1999/xlink" id="svg5453" width="48" height="48" version="1.1"><defs id="defs5455"><linearGradient id="linearGradient4174" x1="409.571" x2="409.571" y1="543.798" y2="503.798" gradientTransform="matrix(0.94517261,0,0,0.94517261,22.303822,28.427286)" gradientUnits="userSpaceOnUse" xlink:href="#linearGradient4191"/><linearGradient id="linearGradient4207" osb:paint="gradient"><stop id="stop3371" offset="0" stop-color="#3498db" stop-opacity="1"/><stop id="stop3373" offset="1" stop-color="#3498db" stop-opacity="0"/></linearGradient><style id="current-color-scheme" type="text/css"/><style id="current-color-scheme-8" type="text/css"/><style id="current-color-scheme-7" type="text/css"/><style id="current-color-scheme-0" type="text/css"/><style id="current-color-scheme-8-6" type="text/css"/><style id="current-color-scheme-7-6" type="text/css"/><style id="current-color-scheme-4" type="text/css"/><style id="current-color-scheme-8-0" type="text/css"/><style id="current-color-scheme-7-7" type="text/css"/><clipPath id="clipPath-097322657"><g id="g4210" transform="translate(0,-1004.3622)"><path id="path4212" fill="#1890d0" d="m -24 13 c 0 1.105 -0.672 2 -1.5 2 -0.828 0 -1.5 -0.895 -1.5 -2 0 -1.105 0.672 -2 1.5 -2 0.828 0 1.5 0.895 1.5 2 z" transform="matrix(15.333333,0,0,11.5,414.99999,878.8622)"/></g></clipPath><linearGradient id="linearGradient4191"><stop id="stop4193" offset="0" stop-color="#2e3e46" stop-opacity="1"/><stop id="stop4195" offset="1" stop-color="#435a64" stop-opacity="1"/></linearGradient></defs><metadata id="metadata5458"/><g id="layer1" transform="translate(-384.57143,-499.798)"><g id="g4441" transform="matrix(1.1638089,0,0,1.1638089,-66.814664,-85.463857)"><rect id="rect4166" width="37.807" height="37.807" x="389.571" y="504.603" fill="url(#linearGradient4174)" fill-opacity="1" stroke="none" stroke-dasharray="none" stroke-miterlimit="4" stroke-opacity=".55" stroke-width="2.567" opacity="1" ry="18.903"/><path id="path4252" fill="#b9d543" fill-opacity=".388" fill-rule="nonzero" stroke="none" stroke-width=".84" d="m 408.4721,511.51973 c -6.56751,0 -11.88975,5.32392 -11.88975,11.88975 0,6.56752 5.32392,11.88976 11.88975,11.88976 6.56752,0 11.88976,-5.32392 11.88976,-11.88976 0,-6.56499 -5.32392,-11.88975 -11.88976,-11.88975 m -0.0689,6.33476 c 3.04932,0 5.52391,2.47122 5.52391,5.5239 0,3.04933 -2.47122,5.52391 -5.52391,5.52391 -3.04932,0 -5.5239,-2.47458 -5.5239,-5.52391 0,-3.04932 2.47458,-5.5239 5.5239,-5.5239 m 0,0"/><path id="path4250" fill="#ffce02" fill-opacity=".847" fill-rule="nonzero" stroke="none" stroke-width=".978" d="M 23.96875 9.2285156 C 15.866778 9.2285156 9.2988281 15.794512 9.2988281 23.896484 C 9.2988281 31.994534 15.866778 38.560547 23.96875 38.560547 C 32.0668 38.560547 38.632812 31.994534 38.632812 23.896484 C 38.632812 15.794512 32.0668 9.2285156 23.96875 9.2285156 z M 23.994141 10.048828 C 31.637479 10.048828 37.832031 16.245347 37.832031 23.886719 C 37.832031 31.530057 31.635524 37.724609 23.994141 37.724609 C 16.350814 37.724609 10.15625 31.528102 10.15625 23.886719 C 10.15625 16.246325 16.352769 10.048828 23.994141 10.048828 z M 23.998047 14.503906 C 18.837625 14.503906 14.650391 18.686257 14.650391 23.847656 C 14.650391 29.008078 18.836648 33.191406 23.998047 33.191406 C 29.158469 33.191406 33.337891 29.009056 33.337891 23.847656 C 33.337891 18.687234 29.159446 14.503906 23.998047 14.503906 z M 23.998047 15.527344 C 28.612805 15.527344 32.355469 19.271968 32.355469 23.890625 C 32.355469 28.505383 28.612805 32.248047 23.998047 32.248047 C 19.3833 32.248047 15.634766 28.505383 15.634766 23.890625 C 15.634766 19.275878 19.37939 15.527344 23.998047 15.527344 z" transform="matrix(0.8592476,0,0,0.8592476,387.85242,502.88484)"/></g></g></svg>