<svg xmlns="http://www.w3.org/2000/svg" xmlns:xlink="http://www.w3.org/1999/xlink" width="48" height="48"><linearGradient id="a"><stop offset="0" stop-color="#ccc"/><stop offset="1" stop-color="#fff"/></linearGradient><linearGradient id="b" x1="409.52" x2="409.52" y1="547.376" y2="500.43" gradientUnits="userSpaceOnUse"><stop offset="0" stop-color="#ff8c1e"/><stop offset="1" stop-color="#ffff9d"/></linearGradient><linearGradient id="c" x1="409.523" x2="409.523" y1="547.42" y2="500.386" gradientUnits="userSpaceOnUse" xlink:href="#a"/><linearGradient id="d" x1="409.558" x2="409.558" y1="548.307" y2="499.507" gradientUnits="userSpaceOnUse"><stop offset="0" stop-color="#00a199"/><stop offset="1" stop-color="#00f89a" stop-opacity=".988"/></linearGradient><linearGradient id="e" x1="407.196" x2="407.9" y1="544.649" y2="501.612" gradientUnits="userSpaceOnUse"><stop offset="0" stop-color="#e6e6e6"/><stop offset="1" stop-color="#fff"/></linearGradient><linearGradient x1="406.35" x2="428.016" y1="535.991" y2="535.991" gradientUnits="userSpaceOnUse" xlink:href="#a"/><linearGradient id="f" x1="395.415" x2="428.016" y1="535.991" y2="535.991" gradientUnits="userSpaceOnUse" xlink:href="#a"/><linearGradient id="g" x1="408.108" x2="408.035" y1="546.304" y2="524.074" gradientUnits="userSpaceOnUse"><stop offset="0" stop-color="#333"/><stop offset="1" stop-color="#4d4d4d"/></linearGradient><g transform="translate(-384.57143 -499.798)"><path fill="#1a1a1a" d="m430.83318 542.68732-18.46337 3.57529.0969-8.72785 12.54989-6.34752z"/><circle cx="408.571" cy="523.798" r="0" fill="url(#d)" stroke="url(#d)" stroke-width="2.262"/><circle cx="408.571" cy="523.798" r="22" fill="url(#b)"/><path fill="url(#c)" d="m408.57143 500.798c-12.6912 0-23 10.3088-23 23s10.3088 23 23 23 23-10.3088 23-23-10.3088-23-23-23zm0 1.91667c11.65512 0 21.08333 9.42821 21.08333 21.08333s-9.42821 21.08146-21.08333 21.08146-21.08146-9.42634-21.08146-21.08146 9.42634-21.08333 21.08146-21.08333z"/><path fill-opacity=".078" d="m30.927734 10.109375c-1.54053-.0127-3.461271.866397-5.613281 2.591797-.46822.37592-.985982.848495-1.513672 1.353516l-1.6875-1.6875c-.1708-.1708-.454313-.378371-.908203-.681641-.71164-.47907-1.509879-.87623-2.162109-1.068359-.64212-.192161-1.587681-.216604-2.056641-.058594-1.15026.39438-1.870111 1.245149-2.269531 2.662109-.21415 1.05386-.203996 1.003733-.228516 2.695313.033 1.27793.046703 1.333155.251953 2.697265v.001953c-2.44451.60434-4.26534 1.462802-5.3691402 2.576172-.5233201.5233-.8143019.982887-.9824219 1.560547-.11881.4007-.11881 1.194204 0 1.589844.18918.63062.5776569 1.239776 1.1542969 1.816406l4.2109372 4.210938c-.34134 1.22015-.556205 2.360702-.609375 3.351562-.1087 1.90616.236852 3.268911 1.076172 4.113281l.001953.001954 5.044922 5.042968h-1.558594l4.00586 4.00586a23 23 0 0 0 2.285156.115234 23 23 0 0 0 22.177734-17.009766h-2.15039a21.002953 21.002953 0 0 0 .845703-5.859375 21.002953 21.002953 0 0 0 -.050781-1.443359l-11.728516-11.728516c-.22118-.22118-.473662-.401029-.757812-.537109-.423451-.20477-.894694-.30827-1.408204-.3125z" transform="translate(384.57143 499.798)"/><path fill="url(#e)" d="m415.49983 509.90699c-1.54053-.0127-3.46136.86697-5.61337 2.59237-1.5004 1.20461-3.47583 3.24941-4.83846 4.99755l-.0656.0768c-.004.00016-.002-.00015-.006 0-.67625.0392-1.77735.14841-3.05655.30135-.55424.0875-.85027.14336-1.21289.219-.16346-.89136-.29181-1.78308-.32943-2.66537 0-1.13128.0149-1.3487.12353-1.80249.26672-1.1452.7953-1.85675 1.49178-2.00464.95814-.20224 2.14797.27549 3.81649 1.51425.53342.40068 1.18209.0592 1.10246-.57275-.0341-.27555-.28672-.51246-1.13615-1.08001-.71164-.47907-1.50963-.87476-2.16186-1.06689-.64212-.19215-1.58622-.21791-2.05518-.0599-1.15026.39438-1.871 1.24466-2.27042 2.66162-.21415 1.05386-.20383 1.00373-.22835 2.69531.033 1.27793.0474 1.33309.25268 2.6972v.002c-2.44451.60434-4.26624 1.46402-5.37004 2.57739-.52332.5233-.81455.98338-.98267 1.56104-.11881.4007-.11881 1.19347 0 1.58911.32611 1.08707 1.24608 2.10973 2.69718 3.01351 1.00743.62191 1.30792.69111 1.63404.36499.15296-.15295.18717-.22663.18717-.40991 0-.35519-.10998-.49753-.58398-.76929-2.97168-1.67361-3.49498-3.35257-1.51046-4.84412.98756-.74098 2.36605-1.32759 4.20581-1.78752.31106 1.3576.75035 2.7948 1.299 4.21142l-.22087.42489c-1.7178 3.31807-2.81902 6.7016-2.95175 9.17529-.1087 1.90616.23694 3.26786 1.07626 4.11223.91768.91895 2.21292 1.11553 3.87638.58211.62695-.20223 1.87057-.83283 2.59612-1.32707.52331-.35013.63804-.45499.70752-.63826.0695-.18329.0695-.24213 0-.43425-.10365-.28693-.3219-.44547-.61768-.44547-.19213 0-.32372.0606-.81795.39681-1.1212.76093-2.17377 1.23533-3.04721 1.38322-1.20967.2073-1.98635-.32696-2.34155-1.59098-.15292-.54859-.1419-2.30496.0262-3.21379.2566-1.44605.70553-2.94773 1.34766-4.52775.31998-.78878.81637-1.86194 1.04631-2.29663.0967.21284.18187.43597.28263.64388.95492 2.22448 2.22397 4.50165 3.46272 6.34334 1.47891 2.19561 3.02732 4.00835 4.5184 5.32325 1.49107 1.3149 2.92515 2.13117 4.17212 2.33593l-.0262.004c1.09591.17696 2.01917-.0951 2.73463-.81048.58271-.59282.96926-1.42636 1.18668-2.58674.13272-.72554.13272-2.75498 0-3.74723-.40449-2.95782-1.48171-6.34999-3.09587-9.72746-.25154-.52837-.3945-.65699-.72061-.65699-.3653-.005-.66073.27746-.66073.63266 0 .12387.124.45854.3313.89843 1.98958 4.2408 3.0567 8.34302 2.948 11.31095-.0335.88418-.16232 1.59237-.38558 2.13005-.22325.53768-.88374 1.07549-1.30086 1.28028-1.47561.17823-2.4761-.48832-3.70419-1.3982-1.2281-.90989-2.34209-2.23289-3.36165-3.7098-1.01957-1.47691-2.11669-3.03861-2.96671-4.56144-.78965-1.41549-1.73308-3.29434-2.56617-5.37753l.13102-.2583c.83128-1.42012 1.71988-2.80092 2.67098-4.14591l.37623-.5035.0748-.0955.79362-.0299h.98641c6.00032 0 11.94006 1.3572 15.09 3.43653.64212.4247 1.41671 1.20084 1.64901 1.65462.16815.316.18343.40016.18343.81982 0 .41081-.0157.5084-.15348.75993-.38552.74073-1.40202 1.51034-2.71029 2.05893-.60673.2566-.76928.42477-.76928.77489 0 .29579.19218.5442.4829.63266.18834.0543.2515.0448.58773-.088 2.11345-.83552 3.56188-2.13444 3.85766-3.44776.0827-.35519.0778-1.02316-.006-1.36824-.158-.67752-.72105-1.54546-1.36824-2.12818-2.88323-2.58746-9.00182-4.25538-16.25985-4.42854 0 0-.92596.0287-1.31957.0355l.54093-.60644c.32612-.38048.90893-1.01243 1.30835-1.41692 2.06416-2.09828 3.9791-3.47223 5.65267-4.04483.53342-.18708.6424-.2059 1.19604-.2059.51446 0 .63668.0135.85914.12729.3021.14283.64104.49425.81421.82544.33998.67623.45504 1.86178.29198 3.1258-.0543.43483-.0992.93677-.0992 1.10995 0 .29199.01.33634.17781.47917.13778.12894.23169.16471.40991.16471.28694 0 .55301-.15394.63265-.36125.23645-.61179.35884-2.77907.2059-3.69295-.23764-1.40307-.83876-2.35065-1.79688-2.80949-.42345-.20477-.89404-.30835-1.40755-.31258zm-11.56925 9.0218-.10669.13851c0 .0253-.22539.37528-.50725.78988-.28188.40954-.68178 1.01198-.88908 1.35327-.20224.33117-.40076.63143-.43985.6757l-.17969.32756c-.31746-.91659-.60862-1.8543-.83854-2.80949.42623-.0912.68083-.14705 1.13614-.2452 1.00779-.15411 1.40162-.19933 1.82496-.23023zm5.07991 3.91757c-1.04661 0-1.89608.85509-1.89608 1.90169 0 1.04662.84947 1.89608 1.89608 1.89608s1.89608-.84946 1.89608-1.89608c0-1.0466-.84947-1.90169-1.89608-1.90169z"/><path fill="url(#g)" d="m402.28098 529.78874h28.56013v12.88734h-28.56013z"/><g fill="url(#f)"><path d="m406.3502 539.31573v-6.64945h2.17386q1.08236 0 1.62583.44756.54803.44756.54803 1.32441 0 .46583-.26488.82661-.26489.35623-.72158.55261.5389.1507.84945.57543.31511.42016.31511 1.00472 0 .89512-.57999 1.40661-.58.5115-1.63953.5115zm.87685-3.11008v2.39307h1.44772q.61197 0 .96362-.31512.35622-.31968.35622-.87685 0-1.2011-1.30614-1.2011zm0-.7033h1.32441q.57543 0 .91795-.28772.34709-.28771.34709-.78095 0-.54803-.31969-.79464-.31968-.25118-.97275-.25118h-1.29701z"/><path d="m415.93618 536.24219h-2.88173v2.35653h3.34756v.71701h-4.22441v-6.64945h4.17874v.72158h-3.30189v2.13732h2.88173z"/><path d="m422.17917 533.38786h-2.13732v5.92787h-.87228v-5.92787h-2.13276v-.72158h5.14236z"/><path d="m426.48122 537.58029h-2.78583l-.62567 1.73544h-.90425l2.53921-6.64945h.76725l2.54378 6.64945h-.89969zm-2.52095-.72157h2.26063l-1.1326-3.11007z"/></g></g></svg>