<svg xmlns="http://www.w3.org/2000/svg" xmlns:xlink="http://www.w3.org/1999/xlink" width="48" height="48"><linearGradient id="a" x1="467.876" x2="468.524" y1="139.745" y2="-52.903" gradientTransform="matrix(.94189216 0 0 .96200619 180.1393 -405.25197)" gradientUnits="userSpaceOnUse"><stop offset="0" stop-color="#e3203a"/><stop offset="1" stop-color="#fd5420"/></linearGradient><clipPath id="b"><rect width="46.52" height="46.465" x="20.961" y="48.968" ry="2.87" transform="matrix(.00648364 .99997898 -.99997898 .00648364 0 0)"/></clipPath><linearGradient id="c" x1="379.561" x2="379.336" y1="670.499" y2="573.623" gradientUnits="userSpaceOnUse"><stop offset="0" stop-color="#c52828"/><stop offset="1" stop-color="#ff5454"/></linearGradient><g fill="#fff" fill-opacity=".855" transform="matrix(.248537059565 -.000000000325 .000000000325 .248537059565 -66.616602303774 -130.794604675482)"><rect width="173.628" height="177.126" x="534.624" y="-456.145" fill="url(#a)" fill-opacity="1" ry="10.94" transform="matrix(-.00420847 .99999114 -.99999186 -.00403433 0 0)"/><path fill="#1a1a1a" fill-opacity=".353" fill-rule="evenodd" d="m365.4919 537.38453-.62246 172.57195-70.42142 4.39657s-11.51164 2.05763-11.50293-10.3611l.10259-160.74314c-.20684-13.69924 12.14583-11.55937 12.14583-11.55937z"/><path fill="#fff" fill-opacity="1" d="m438.17037 536.38145-71.96618-.26603-2.56805 173.77858 73.73637.26998c5.5944.0205 10.12132-4.74235 10.14851-10.68166l.69604-152.34222c.0274-5.93931-4.45229-10.73838-10.04669-10.75865z"/><path fill="#b3b3b3" fill-opacity="1" fill-rule="evenodd" d="m366.89387 536.22207-.62668 173.74087-70.42142 4.39656s-11.51165 2.05764-11.50294-10.3611l.10259-160.74314c-.20685-13.69923 12.14585-11.55938 12.14585-11.55938z"/><g fill="#000" fill-opacity=".078" clip-path="url(#b)" transform="matrix(3.8118554 .03957793 -.04042315 3.7321528 640.88865 458.98087)"><path fill="#000" fill-opacity=".078" fill-rule="evenodd" d="m-71.652102 21.455987.326955 46.548986 353.553387 353.553397-.32695-46.54899z"/><path fill="#000" fill-opacity=".078" fill-rule="evenodd" d="m-71.325147 68.004973-15.521534 2.652305 353.553391 353.553392 15.52153-2.6523z"/></g><path fill="#fff" fill-opacity="1" fill-rule="evenodd" d="m366.89387 536.22207-.63534 173.74087-59.27307 9.2845s-9.6829 2.21128-9.63257-10.90103l.64284-169.72034c-.12642-14.46358 10.24886-12.24579 10.24886-12.24579z"/><path fill="#000" fill-opacity=".157" fill-rule="evenodd" d="m366.89387 536.22207-.63534 173.74087-59.27307 9.2845s-9.6829 2.21128-9.63257-10.90103l.64284-169.72034c-.12642-14.46358 10.24886-12.24579 10.24886-12.24579z"/><path fill="url(#c)" fill-opacity="1" d="m392.61903 573.00544-43.77601 11.84449c-3.28825.92281-5.939 4.59398-5.939 8.15878v56.50843c-3.33434-1.82808-7.61431-2.56512-12.0539-1.35702-8.01108 2.17938-13.03399 9.22347-11.31677 15.73123 1.71736 6.50734 9.61296 10.14602 17.62434 7.96612 6.39114-1.73865 10.7902-6.66489 11.49266-11.85286l.19267-53.4007 39.24428-11.0152v40.50914c-2.90739-1.03466-6.27589-1.31598-9.75871-.36858-8.01103 2.17949-13.02556 9.22388-11.30839 15.73122 1.7174 6.5077 9.60481 10.14556 17.61595 7.96613 5.68936-1.54772 9.7847-5.61787 11.11573-10.15242 1.43484-2.64621 2.08576-5.63031 2.08576-6.81853 0-.37536.0462-1.26611.0503-1.65856v-1.48266c.20046-1.45777.91455-2.63863 2.83129-2.63863 1.94215 0 2.69331 1.18765 2.98206 2.63863h.067v6.60074c0 2.18606 1.31591 3.95375 2.94018 3.95375 1.62426 0 2.94017-1.76769 2.94017-3.95375v-14.51662c0-1.16584 1.08774-5.27724 1.96013-5.27724.87216 0 1.96011 4.1114 1.96011 5.27724v1.32351c0 2.18605 1.3243 3.95374 2.94856 3.95374 1.62427 0 2.94018-1.76769 2.94018-3.95374v-11.878c0-1.16614 1.08795-2.63862 1.96012-2.63862.87238 0 1.96012 1.47277 1.96012 2.63862v1.32351c0 2.18605 1.31591 3.95374 2.94017 3.95374 1.62427 0 2.94018-1.76769 2.94018-3.95374v-3.96213h8.82055c1.62427 0 2.94018-1.76769 2.94018-3.95374 0-2.18606-1.31591-3.96213-2.94018-3.96213h-8.82055v-3.95375c0-2.18575-1.31591-3.96212-2.94018-3.96212-1.62426 0-2.94017 1.77607-2.94017 3.96212v1.31513c0 1.16586-1.08774 2.63862-1.96012 2.63862-.87217 0-1.96012-1.47306-1.96012-2.63862v-11.86962c0-2.18605-1.31613-3.96212-2.94018-3.96212-1.62426 0-2.94856 1.77607-2.94856 3.96212v1.31513c0 1.16615-1.08795 5.27724-1.96011 5.27724-.87239 0-1.96013-4.11139-1.96013-5.27724v-14.50824c0-2.18606-1.31591-3.96213-2.94017-3.96213-1.62427 0-2.94018 1.77607-2.94018 3.96213v6.59236c-.20287 1.45778-.94524 2.63863-3.04908 2.63863-1.91653 0-2.53869-1.18085-2.73915-2.63863l-.58634-2.68049c-.004-.39215-.47309-5.99435-.59474-6.34944-.31497-.91943-.39818-1.89474-.57798-2.81453-.26466-2.29288-1.67437-3.99053-3.60194-4.3307z"/></g></svg>