<svg xmlns="http://www.w3.org/2000/svg" xmlns:xlink="http://www.w3.org/1999/xlink" width="48" height="48"><linearGradient id="a" x1="399.571" x2="399.571" y1="545.798" y2="517.798" gradientUnits="userSpaceOnUse"><stop offset="0" stop-color="#3889e9"/><stop offset="1" stop-color="#5ea5fb"/></linearGradient><linearGradient id="b" x1="400.556" x2="400.556" y1="546.927" y2="516.475" gradientUnits="userSpaceOnUse"><stop offset="0" stop-color="#197cf1"/><stop offset="1" stop-color="#20bcfa"/></linearGradient><g transform="matrix(1.486561752901 0 0 1.487531106051 -571.49794341344 -767.217803628247)"><circle cx="400.571" cy="531.798" r="0" fill="url(#a)"/><g transform="matrix(1.0508504 0 0 1.0508504 -20.353166 -26.940048)"><circle cx="400.571" cy="531.798" r="14" fill="url(#b)" stroke="url(#b)" stroke-width="1.427"/><circle cx="400.571" cy="531.798" r="0" fill="url(#a)" transform="matrix(1.55822993102 0 0 1.55822993102 -264.298285246431 -296.910724934234)"/></g></g><path fill="#fff" fill-opacity=".847" d="m-90.962113 1061.1381 4.153839-11.0154h1.599997l4.153839 11.0154h-1.569228l-1.061537-2.9846h-4.630761l-1.076921 2.9846zm3.123071-4.3077h3.661532l-1.799997-4.9692h-.06154l-1.799997 4.9692z" transform="matrix(2.178767952223 0 0 2.178767952223 211.392074447061 -2275.97367685033)"/></svg>