<svg xmlns="http://www.w3.org/2000/svg" xmlns:xlink="http://www.w3.org/1999/xlink" width="48" height="48"><linearGradient id="a"><stop offset="0" stop-color="#197cf1"/><stop offset="1" stop-color="#20bcfa"/></linearGradient><linearGradient id="b" x1="412.178" x2="411.362" y1="529.714" y2="508.094" gradientUnits="userSpaceOnUse" xlink:href="#a"/><linearGradient id="c" x1="408.571" x2="408.571" y1="546.798" y2="500.798" gradientUnits="userSpaceOnUse"><stop offset="0" stop-color="#b3b3b3"/><stop offset="1" stop-color="#fff"/></linearGradient><linearGradient id="d" x1="384.571" x2="432.571" y1="523.798" y2="523.798" gradientUnits="userSpaceOnUse" xlink:href="#a"/><g transform="matrix(.95833333 0 0 .95833333 -367.548425 -477.973879)"><rect width="46" height="46" x="385.571" y="500.798" fill="url(#c)" ry="23"/><path fill-opacity=".078" d="m27.705078 8.5175781c.20654.20651.311419.50443.261719.8125l-2.111328 13.1093749c.30767.40112.506812.881493.570312 1.408203l15.085938 15.085938c2.699858-3.166182 4.556913-7.075316 5.21875-11.390625zm-6.191406 17.7246099 16.226562 16.226562c1.380242-1.026644 2.635911-2.208207 3.751954-3.513672l-8.00586-8.005859c-.205084.315899-.611272.424914-.949219.265625l-.08594-.08594-8.039063-4.177734c-.27055.08372-.551759.140625-.849609.140625-.79898 0-1.524108-.324899-2.048828-.849609z" transform="translate(384.57143 499.798)"/><path fill="url(#b)" d="m411.04033 523.82005c-.0635-.52672-.26365-1.00708-.57132-1.4082l2.11232-13.10924c.0787-.48776-.23428-.9528-.71558-1.06398l-.0237-.005c-.48129-.11132-.96632.16974-1.10954.64255l-3.84809 12.70827c-.94832.47684-1.60662 1.44885-1.60662 2.58091 0 1.59844 1.29982 2.89904 2.89818 2.89904.29785 0 .57951-.0582.85006-.14191l8.03911 4.17771c.4423.22977.98673.0863 1.25815-.33178l.0115-.0184c.2715-.41791.18124-.97374-.20884-1.28424zm-4.29579.34496c0-.78925.64239-1.43162 1.43161-1.43162.78994 0 1.43231.64237 1.43231 1.43162 0 .78982-.64237 1.4323-1.43231 1.4323-.78922 0-1.43161-.64239-1.43161-1.4323z"/><path fill="url(#d)" d="m408.57227 499.79883c-13.27871 0-24 10.7213-24 24s10.72129 24 24 24c13.2787 0 24-10.7213 24-24s-10.7213-24-24-24zm0 2c12.20529 0 22 9.7947 22 22s-9.79471 22-22 22c-12.2053 0-22-9.7947-22-22s9.7947-22 22-22z"/></g></svg>