<svg xmlns="http://www.w3.org/2000/svg" xmlns:xlink="http://www.w3.org/1999/xlink" width="48" height="48"><linearGradient x1="0" x2="47" y1="23.5" y2="23.5" gradientUnits="userSpaceOnUse"><stop offset="0" stop-color="#a9a3d4"/><stop offset=".47" stop-color="#87baff"/><stop offset="1" stop-color="#89ec85"/></linearGradient><linearGradient id="a"><stop offset="0" stop-color="#fa345d"/><stop offset="1" stop-color="#f76a8d"/></linearGradient><linearGradient id="b"><stop offset="0" stop-color="#dbc9ee"/><stop offset="1" stop-color="#faf7fd"/></linearGradient><linearGradient id="c" x1="407.527" x2="407.738" y1="537.308" y2="509.62" gradientUnits="userSpaceOnUse" xlink:href="#a"/><linearGradient id="d" x1="408.775" x2="408.509" y1="535.356" y2="512.408" gradientUnits="userSpaceOnUse"><stop offset="0" stop-color="#ff1142"/><stop offset="1" stop-color="#fa365f"/></linearGradient><linearGradient id="e" x1="407.527" x2="407.738" y1="537.308" y2="509.62" gradientUnits="userSpaceOnUse"><stop offset="0" stop-color="#f0f0f0"/><stop offset="1" stop-color="#d2d2d2"/></linearGradient><linearGradient id="f" x1="407.526" x2="407.737" y1="537.308" y2="509.619" gradientUnits="userSpaceOnUse" xlink:href="#b"/><linearGradient id="g" x1="17.05" x2="17.05" y1="1047.379" y2="1006.351" gradientUnits="userSpaceOnUse" xlink:href="#b"/><linearGradient id="h" x1="-44.78" x2="-44.586" y1="1032.771" y2="1007.393" gradientUnits="userSpaceOnUse" xlink:href="#a"/><g stroke-width="1.317"><g><g fill="url(#c)" stroke-width="1.317" transform="matrix(1.161737206319 0 0 1.161737206319 3.892122362618 -1168.867803048244) matrix(.95833334 0 0 .95833334 .721187 42.783187) matrix(.95642207 0 0 .95642207 -437.24711 519.13683)"><circle cx="408.571" cy="523.798" r="11.5" fill="url(#d)" transform="matrix(1.8 0 0 1.8 -260.16187 -412.04589)"/></g><path fill-opacity=".078" d="m20.896484 1.2363281a23 23 0 0 0 -.896484.1171875v6.8613282l-5.244141-5.2441407a23 23 0 0 0 -.755859.3378907v30.6914062c0 .553916.222497 1.054483.583984 1.416016l11.47461 11.472656a23 23 0 0 0 20.705078-19.785156z" transform="matrix(1.161737206319 0 0 1.161737206319 3.892122362618 -1168.867803048244) matrix(.95833334 0 0 .95833334 .721187 42.783187) matrix(.86077987 0 0 .86077987 -3.350261 1006.1379)"/><path fill="url(#g)" d="m13.865334 1006.4304v28.974c0 .9537-.767815 1.7215-1.721559 1.7215h-1.72156c-.9537442 0-1.7215598-.7678-1.7215598-1.7215v-27.36zm2.589071 10.0368c.143604 0 .284623.042.410213.1178l15.494038 9.3912c.589312.3581.589312 1.2828 0 1.6409l-15.494038 9.3912c-.573318.3461-1.276834-.1056-1.277724-.8204v-18.7825c.000506-.5211.389841-.9421.867511-.9381z" transform="matrix(1.161737206319 0 0 1.161737206319 3.892122362618 -1168.867803048244) matrix(.95833334 0 0 .95833334 .721187 42.783187)"/><g stroke="url(#e)" stroke-width="1.8" transform="matrix(1.161737206319 0 0 1.161737206319 3.892122362618 -1168.867803048244) matrix(.95833334 0 0 .95833334 .721187 42.783187) matrix(.95642207 0 0 .95642207 -437.24711 519.13683)"><path fill="url(#f)" stroke="none" d="m408.57143 511.798c-6.6215 0-12 5.3785-12 12 0 6.62149 5.3785 12 12 12 6.62149 0 12-5.37851 12-12 0-6.6215-5.37851-12-12-12zm0 1c6.08105 0 11 4.91894 11 11 0 6.08105-4.91895 11-11 11-6.08106 0-11-4.91895-11-11 0-6.08106 4.91894-11 11-11z" transform="matrix(1.8 0 0 1.8 -260.16187 -412.04589)"/></g></g></g></svg>