<svg xmlns="http://www.w3.org/2000/svg" xmlns:xlink="http://www.w3.org/1999/xlink" width="48" height="48"><linearGradient id="a" x1="399.571" x2="399.571" y1="545.798" y2="517.798" gradientUnits="userSpaceOnUse"><stop offset="0" stop-color="#3889e9"/><stop offset="1" stop-color="#5ea5fb"/></linearGradient><linearGradient id="b" x1="-318.579" x2="-318.579" y1="653.957" y2="301.298" gradientUnits="userSpaceOnUse"><stop offset="0" stop-color="#0a80fd"/><stop offset="1" stop-color="#56c5fa"/></linearGradient><linearGradient id="c" x1="-315.388" x2="-315.388" y1="617.486" y2="285.984" gradientUnits="userSpaceOnUse"><stop offset="0" stop-color="#ecf5ff"/><stop offset="1" stop-color="#fefeff"/></linearGradient><circle cx="400.571" cy="531.798" r="0" fill="url(#a)" transform="matrix(1.637466544097 0 0 1.637466544097 -644.580187175317 -848.719334054169)"/><g transform="matrix(.111361506212 0 0 .111361506212 59.887097814307 -26.022587445081)"><circle cx="-325.887" cy="478.747" r="173.447" fill="url(#b)" transform="matrix(1.242537 0 0 1.242537 82.651446 -144.23268)"/><circle cx="-322.258" cy="452.787" r="163.042" fill="url(#c)"/><g fill="#32a4fb" stroke="#30a2fc"><path fill="#32a4fb" stroke="#30a2fc" d="m345.441 248.292-194.287 194.281c-12.359 12.365-32.397 12.365-44.75 0-12.354-12.354-12.354-32.391 0-44.744l171.914-171.909-171.909-171.903c-12.354-12.359-12.354-32.394 0-44.748 12.354-12.359 32.391-12.359 44.75 0l194.287 194.284c6.177 6.18 9.262 14.271 9.262 22.366 0 8.099-3.091 16.196-9.267 22.373z" transform="matrix(.88692965 0 0 .88692965 -22.17395 82.712193) matrix(-.357721944486 -.001293331621 -.001293331621 .357721944486 -328.791220395078 340.647118262321)"/><path fill="#32a4fb" stroke="#30a2fc" d="m345.441 248.292-194.287 194.281c-12.359 12.365-32.397 12.365-44.75 0-12.354-12.354-12.354-32.391 0-44.744l171.914-171.909-171.909-171.903c-12.354-12.359-12.354-32.394 0-44.748 12.354-12.359 32.391-12.359 44.75 0l194.287 194.284c6.177 6.18 9.262 14.271 9.262 22.366 0 8.099-3.091 16.196-9.267 22.373z" transform="matrix(.88692965 0 0 .88692965 -22.17395 82.712193) matrix(.357721944486 -.001293331621 .001293331621 .357721944486 -351.948379604923 340.648718262321)"/></g></g></svg>