<svg xmlns="http://www.w3.org/2000/svg" xmlns:xlink="http://www.w3.org/1999/xlink" width="48" height="48"><linearGradient id="a"><stop offset="0" stop-color="#95a5a6"/><stop offset="1" stop-color="#b3bdbe"/></linearGradient><linearGradient id="b" x1="23.782" x2="23.641" y1="46.374" y2="37.257" gradientUnits="userSpaceOnUse"><stop offset="0" stop-color="#95a5a6"/><stop offset="1" stop-color="#eff0f1"/></linearGradient><linearGradient id="c" x1="20" x2="20" y1="38" y2="13" gradientUnits="userSpaceOnUse"><stop offset="0" stop-color="#e4bd27"/><stop offset="1" stop-color="#fff360"/></linearGradient><linearGradient id="d" x1="24.05" x2="25.772" y1="44.321" y2="34.31" gradientUnits="userSpaceOnUse" xlink:href="#a"/><linearGradient id="e" x1="23.744" x2="22.812" y1="45.77" y2="37.695" gradientUnits="userSpaceOnUse" xlink:href="#a"/><linearGradient id="f" x1="23.544" x2="24" y1="34.452" y2="18" gradientUnits="userSpaceOnUse" xlink:href="#g"/><linearGradient id="g"><stop offset="0" stop-color="#2a2c2f"/><stop offset="1" stop-color="#424649"/></linearGradient><linearGradient id="h" x1="22" x2="26" y1="42.5" y2="42.5" gradientUnits="userSpaceOnUse" xlink:href="#g"/><linearGradient id="i" x1="35.738" x2="31.304" y1="-4.943" y2="-12.292" gradientUnits="userSpaceOnUse"><stop offset="0" stop-color="#1c7865"/><stop offset="1" stop-color="#00b993"/></linearGradient><linearGradient id="j" x1="6.348" x2="10.433" y1="20.151" y2="10.818" gradientUnits="userSpaceOnUse"><stop offset="0" stop-color="#258e52"/><stop offset="1" stop-color="#009f44" stop-opacity=".784"/></linearGradient><linearGradient id="k" x1="19" x2="29" y1="-7" y2="-7" gradientUnits="userSpaceOnUse"><stop offset="0" stop-color="#ffa452"/><stop offset="1" stop-color="#d96905"/></linearGradient><linearGradient id="l" x1="19.025" x2="28.975" y1="-41.025" y2="-41.025" gradientUnits="userSpaceOnUse"><stop offset="0" stop-color="#c99adb"/><stop offset="1" stop-color="#763e8c"/></linearGradient><linearGradient id="m" x1="29.455" x2="33.57" y1="23.505" y2="30.432" gradientUnits="userSpaceOnUse"><stop offset="0" stop-color="#ff4c39"/><stop offset="1" stop-color="#c0392b"/></linearGradient><linearGradient id="n" x1="7.565" x2="10.922" y1="54.103" y2="48.488" gradientUnits="userSpaceOnUse"><stop offset="0" stop-color="#2574a8"/><stop offset="1" stop-color="#329ee4"/></linearGradient><path fill="url(#h)" d="m22 41h4v3h-4z"/><circle cx="8.584" cy="15.644" r="5.256" fill="url(#j)" transform="matrix(.8660254 -.5 .5 .8660254 0 0)"/><circle cx="9.245" cy="50.963" r="3.488" fill="url(#n)" transform="matrix(.8660254 -.5 .5 .8660254 0 0)"/><circle cx="33.429" cy="-8.612" r="4.256" fill="url(#i)" transform="matrix(.8660254 .5 -.5 .8660254 0 0)"/><circle cx="31.629" cy="26.758" r="4.012" fill="url(#m)" transform="matrix(.8660254 .5 -.5 .8660254 0 0)"/><circle cx="24" cy="-41.025" r="4.975" fill="url(#l)" transform="rotate(90)"/><circle cx="24" cy="-7" r="5" fill="url(#k)" transform="rotate(90)"/><path fill="url(#c)" d="m24 14c-5.522847 0-10 4.477153-10 10 .002 3.974408 2 6.320312 4 8.160156s1 4.839844 2 5.839844h8c1-1 0-4 2-5.847656s3.994912-4.180772 4-8.152344c0-5.522847-4.477153-10-10-10z"/><path fill="url(#b)" d="m20 38h8l-1 1v3l-1 1h-4l-1-1v-3z"/><rect width="8" height="1" x="19.838" y="41.093" fill="url(#e)" ry=".5" transform="matrix(.99999239 -.00390154 .00390154 .99999239 0 0)"/><rect width="8" height="1" x="20.687" y="38.575" fill="url(#d)" ry=".5" transform="matrix(.99984731 .0174742 -.0174742 .99984731 0 0)"/><path fill="url(#f)" fill-rule="evenodd" d="m25 18-5 8h3v6l5-8h-3z"/></svg>