<svg xmlns="http://www.w3.org/2000/svg" xmlns:xlink="http://www.w3.org/1999/xlink" width="48" height="48"><linearGradient x1="404.334" x2="412.171" y1="516.973" y2="516.973" gradientUnits="userSpaceOnUse"><stop offset="0"/><stop offset="1" stop-opacity="0"/></linearGradient><linearGradient id="a"><stop offset="0" stop-color="#235ea2"/><stop offset="1" stop-color="#1992f1"/></linearGradient><linearGradient id="b" x1="3.365" x2="36.074" y1="1046.22" y2="1007.718" gradientUnits="userSpaceOnUse" xlink:href="#a"/><linearGradient id="c" x1="400.571" x2="400.794" y1="545.798" y2="517.627" gradientUnits="userSpaceOnUse" xlink:href="#d"/><linearGradient id="d"><stop offset="0" stop-color="#69159f"/><stop offset="1" stop-color="#b92ff5"/></linearGradient><linearGradient id="e"><stop offset="0" stop-color="#3889e9"/><stop offset="1" stop-color="#5ea5fb"/></linearGradient><linearGradient id="f" x1="407.618" x2="407.618" y1="542.029" y2="505.196" gradientUnits="userSpaceOnUse" xlink:href="#e"/><linearGradient id="g" x1="3.365" x2="36.074" y1="1046.22" y2="1007.718" gradientUnits="userSpaceOnUse"><stop offset="0" stop-color="#d3d3d3"/><stop offset="1" stop-color="#fcf9f9"/></linearGradient><linearGradient id="h" x1="406.332" x2="406.332" y1="550.543" y2="503.472" gradientUnits="userSpaceOnUse" xlink:href="#e"/><linearGradient id="i" x1="408.556" x2="415.144" y1="553.74" y2="517.596" gradientUnits="userSpaceOnUse" xlink:href="#d"/><linearGradient id="j" x1="403.886" x2="403.41" y1="545.695" y2="502.445" gradientUnits="userSpaceOnUse"><stop offset="0" stop-color="#faf7f7"/><stop offset="1" stop-color="#fcf9f9"/></linearGradient><linearGradient id="k" x1="407.075" x2="408.095" y1="513.767" y2="500.696" gradientUnits="userSpaceOnUse"><stop offset="0" stop-color="#abcd03"/><stop offset="1" stop-color="#b3ff80"/></linearGradient><linearGradient id="l" x1="444.603" x2="444.603" y1="541.929" y2="506.067" gradientUnits="userSpaceOnUse" xlink:href="#e"/><linearGradient id="m" x1="-174.958" x2="-126.869" y1="1280.075" y2="1223.469" gradientUnits="userSpaceOnUse" xlink:href="#a"/><g transform="matrix(1.021445582807 0 0 1.021445582807 -393.778990059974 -511.015325259519)"><g fill="url(#b)" stroke-width="1.3" transform="matrix(1.470178821008 0 0 1.470178821008 -179.904023676278 -258.055573229429)"><circle cx="400.571" cy="531.798" r="14" fill="url(#b)"/><circle cx="400.571" cy="531.798" r="14" fill="url(#c)"/><circle cx="400.571" cy="531.798" r="0" fill="url(#b)"/></g><path fill-opacity=".157" d="m30.033203 3.8691406c-1.589792.8258388-3.05313 1.718278-4.275391 2.7480469l-.902343-.9023437c-1.139086 1.4120872-2.019531 2.8570044-2.572266 4.2968752l-1.363281-.5664065c.938259 2.4206525 1.106859 4.2934075.138672 5.1406255-3.812648 3.146675-10.199219 6.68631-10.199219 12.011718 0 1.807714.35033 3.660826 1.101563 5.361328.156076.353339.333481.697027.52539 1.035157.01522.025842.029907.05218.044922.078125.189264.327393.396815.645702.621094.955078.19338.26674.398998.526303.61914.777344l.021485.023437c.029928.033401.061562.06631.091797.099609.114187.126159.232178.249757.353515.371094l9.722657 9.722656a21.023843 21.023843 0 0 0 .039062.001954 21.023843 21.023843 0 0 0 21.023438-21.023438 21.023843 21.023843 0 0 0 -2.06836-9.048828l-9.890625-9.8906251a21.023843 21.023843 0 0 0 -.207031-.0996094c-.247259.0629226-.483615.1376137-.728516.203125l-.863281-.8632813a21.023843 21.023843 0 0 0 -1.232422-.4316406z" transform="matrix(.97900467 0 0 .97900467 385.51147 500.28639)"/><g fill="none" stroke="url(#g)" stroke-width="1.3" transform="matrix(1.470178821008 0 0 1.470178821008 -179.904023676278 -258.055573229429)"><circle cx="400.571" cy="531.798" r="14"/><circle cx="400.571" cy="531.798" r="14"/><circle cx="400.571" cy="531.798" r="0"/></g><circle cx="408.933" cy="523.612" r="0" fill="url(#f)"/><circle cx="445.883" cy="523.998" r="0" fill="url(#l)"/><g transform="matrix(.76187153 0 0 .76187153 97.740737 122.48606)"><circle cx="408.013" cy="527.007" r="0" fill="url(#h)"/><path fill="url(#k)" d="m409.54021 503.22717-1.39584 3.85697c1.97723-2.72409 5.11747-4.77395 8.72327-6.58128-2.63637 2.13083-5.03995 4.26186-6.51327 6.39267 2.48137-2.42766 5.81549-3.77619 9.57602-4.66632-5.00135 3.10192-8.97117 6.43043-11.99529 9.77508l-2.40359-.72816c.42609-2.67039 1.87622-5.40542 4.0087-8.04897z"/><path fill="#fffcdb" d="m404.48164 507.9851 4.58809 1.90343c0 1.16668-.0948 4.72506.6347 5.77472 7.63056 9.82729 6.34678 29.52632-1.54573 30.03165-12.01873 0-16.60241-8.16467-16.60241-15.66887 0-6.84315 8.20369-11.39222 13.10295-15.4357 1.24411-1.08868 1.02807-3.49469-.1776-6.60523z"/><path fill="url(#i)" d="m409.0711 509.82008 1.6535.84348c-.15544 1.08837.0777 3.49944 1.1661 4.1212 4.82156 2.99382 9.37036 6.2598 11.15908 9.5258 6.37652 11.50896-4.47137 22.16213-13.84173 21.15117 5.09344-3.77159 6.57098-11.50866 4.66583-19.94608-.77751-3.30499-1.98318-6.29882-4.12178-9.68153-.92644-1.66045-.60299-3.71971-.681-6.01404z"/><path fill-opacity=".157" d="m406.50429 508.82561v.0214.0278.015c0 .004-.003.004-.003.009v36.72334c.54035.0364 1.08282.0727 1.65679.0727 7.8925-.50531 9.17603-20.20464 1.54548-30.03195-.72952-1.04965-.63575-4.60856-.63575-5.77522l-2.56439-1.0617zm-13.53258 28.12686c.0188.0425.0407.0838.0599.12638-.0193-.0424-.041-.0838-.0599-.12638zm.64433 1.28006c.0283.0503.0588.0997.0878.14982-.0288-.0502-.0595-.0993-.0878-.14982zm.77488 1.22438c.0362.0513.0746.10112.11117.15198-.037-.0509-.0753-.10081-.11117-.15198zm.90758 1.15165c.0469.0533.0956.10555.14341.15837-.0478-.0526-.0966-.10492-.14341-.15837zm1.02104 1.04029c.0736.0677.14906.13469.22476.20123-.0756-.0665-.15102-.13342-.22476-.20123zm1.188.97395c.0803.0586.16189.11604.24403.17339-.0822-.0574-.1637-.11463-.24403-.17339zm1.34213.86479c.0842.0479.16886.0947.25472.14128-.0857-.0466-.17068-.0933-.25472-.14128zm1.49625.74063c.0864.0371.1712.0756.259.11119-.0876-.036-.17276-.0743-.259-.11119zm1.67819.61435c.0738.0225.14567.0468.22048.0685-.0748-.0217-.14665-.0459-.22048-.0685zm1.88797.46663c.0403.007.0792.0161.11986.0235-.0405-.007-.0795-.0157-.11986-.0235z"/><path fill="url(#j)" d="m404.48309 508.02134c1.20567 3.11054 1.42179 5.51706.17767 6.60574-4.89925 4.04349-13.10447 8.59238-13.10447 15.43554 0 7.14582 4.17276 14.87264 14.94749 15.59606v-36.79825z"/></g><circle cx="409.008" cy="523.782" r="0" fill="url(#m)"/></g></svg>