<svg xmlns="http://www.w3.org/2000/svg" xmlns:xlink="http://www.w3.org/1999/xlink" width="48" height="48"><linearGradient id="a" x1="409.571" x2="409.571" y1="542.798" y2="507.798" gradientTransform="matrix(1.0523327 0 0 1.0276135 -21.151387 -14.039869)" gradientUnits="userSpaceOnUse"><stop offset="0" stop-color="#2e3436"/><stop offset="1" stop-color="#555753"/></linearGradient><g transform="matrix(.939161673122 0 0 .939161673122 -377.761516077473 -455.002152976328)"><rect width="46.303" height="34.939" x="385.65" y="507.78" fill="url(#a)" ry="1.644" transform="matrix(1.1038121 0 0 1.1038121 -23.304884 -69.47145)"/><g fill="#76e049"><circle cx="449.517" cy="495.063" r="2.069"/><circle cx="444.434" cy="495.107" r="2.069"/><circle cx="439.437" cy="495.156" r="2.069"/></g><g fill="#353535"><path fill="#76e049" d="m133.523 78.097c-.488-.489-1.113-.733-1.873-.733h-78.215c-.76 0-1.385.244-1.874.733-.488.489-.732 1.113-.732 1.874v5.215c0 .76.244 1.385.732 1.873.489.488 1.114.733 1.874.733h78.215c.76 0 1.385-.245 1.873-.733s.732-1.113.732-1.873v-5.215c.001-.761-.243-1.385-.732-1.874z" transform="matrix(.11488639 0 0 .10931174 407.6586 498.26363)"/><path fill="#76e049" d="m8.38 1.022c-.543-.543-1.168-.815-1.874-.815s-1.33.272-1.873.815l-4.074 4.074c-.543.543-.814 1.167-.814 1.874s.271 1.331.814 1.874l32.02 32.019-32.02 32.02c-.543.543-.814 1.168-.814 1.873 0 .707.271 1.331.814 1.874l4.074 4.073c.543.544 1.167.814 1.873.814s1.331-.271 1.874-.814l37.967-37.966c.543-.543.814-1.169.814-1.875s-.271-1.331-.814-1.874z" transform="matrix(.11488639 0 0 .10931174 407.6586 498.26363)"/></g></g></svg>