<svg xmlns="http://www.w3.org/2000/svg" xmlns:xlink="http://www.w3.org/1999/xlink" width="48" height="48"><linearGradient id="a"><stop offset="0" stop-color="#222c35"/><stop offset="1" stop-color="#545e67"/></linearGradient><linearGradient id="b" x1="391.571" x2="390.878" y1="531.798" y2="507.673" gradientTransform="matrix(.91666565 0 0 1.2986122 -350.52339 -649.37967)" gradientUnits="userSpaceOnUse"><stop offset="0" stop-color="#d3d3d3"/><stop offset="1" stop-color="#fcf9f9"/></linearGradient><linearGradient id="c" x1="428.571" x2="428.361" y1="504.798" y2="501.387" gradientTransform="matrix(3.0555632 0 0 3.1068319 -1282.4717 -1552.2216)" gradientUnits="userSpaceOnUse" xlink:href="#a"/><linearGradient id="d" x1="4.781" x2="4.781" y1="17.137" y2="12.753" gradientUnits="userSpaceOnUse" xlink:href="#a"/><linearGradient id="e" x1="9.176" x2="8.998" y1="11.014" y2="8.128" gradientUnits="userSpaceOnUse" xlink:href="#a"/><linearGradient id="f" x1="408.524" x2="409.266" y1="506.485" y2="533.195" gradientTransform="matrix(-.78571598 0 0 -.78571565 345.0211 434.96637)" gradientUnits="userSpaceOnUse" xlink:href="#a"/><linearGradient id="g" x1="398.305" x2="419.771" y1="509.531" y2="530.998" gradientTransform="matrix(.61734879 0 0 .61734853 -228.11125 -294.06382)" gradientUnits="userSpaceOnUse"><stop offset="0" stop-color="#18222a"/><stop offset="1" stop-color="#566069"/></linearGradient><linearGradient id="h" x1="407.38" x2="407.505" y1="529.562" y2="509.977" gradientTransform="matrix(.78571598 0 0 .78571565 -296.86777 -381.57163)" gradientUnits="userSpaceOnUse"><stop offset="0" stop-color="#ffce69"/><stop offset="1" stop-color="#ffce54"/></linearGradient><clipPath id="i"><ellipse cx="342.058" cy="547.284" rx="8.571" ry="8.571"/></clipPath><clipPath id="j"><ellipse cx="342.058" cy="547.284" rx="8.571" ry="8.571"/></clipPath><rect width="5.077" height="2.538" x="5.791" y="8.476" fill="url(#e)" stroke-width=".917" ry=".846"/><rect width="18.333" height="9.321" x="14.833" y="6.78" fill="url(#c)" stroke-width=".917" ry="3.107"/><rect width="44" height="31.167" x="2" y="10.053" fill="url(#b)" stroke-width=".846" ry="1.458"/><g stroke-width=".917"><path fill="url(#f)" d="m12.999988 26.553028a11.000003 10.999998 0 0 1 11-11 11.000003 10.999998 0 0 1 11 11 11.000003 10.999998 0 0 1 -11 11 11.000003 10.999998 0 0 1 -11-11z"/><circle cx="6.973" cy="14.945" r="2.192" fill="url(#d)" fill-rule="evenodd"/><ellipse cx="24.12" cy="26.833" fill="url(#g)" rx="8.643" ry="8.643"/><ellipse cx="24.153" cy="26.842" fill="url(#h)" rx="7.857" ry="7.857"/></g><g fill="#ff7f2a" transform="matrix(.91666667 0 0 .91666667 -335.85716 -471.01178)"><ellipse cx="334.125" cy="546.825" clip-path="url(#i)" rx="3.776" ry="3.776" transform="translate(50.681199 -4.171285)"/><ellipse cx="393.123" cy="548.516" rx="2.171" ry="2.171"/><ellipse cx="347.609" cy="545.98" clip-path="url(#j)" rx="3.836" ry="3.836" transform="translate(50.681199 -4.171285)"/></g></svg>