<svg xmlns="http://www.w3.org/2000/svg" xmlns:xlink="http://www.w3.org/1999/xlink" width="48" height="48"><linearGradient id="a" x1="409.571" x2="409.571" y1="543.798" y2="503.798" gradientUnits="userSpaceOnUse"><stop offset="0" stop-color="#197cf1"/><stop offset="1" stop-color="#20bcfa"/></linearGradient><g transform="matrix(1.200000330887 0 0 1.200000330887 -466.248858881076 -604.442748595101)"><rect width="40" height="40" x="388.571" y="503.798" fill="url(#a)" ry="20"/><path fill="#fff" fill-opacity=".851" d="m363.30019 530.14047q-.21375.225-.54.225-.32625 0-.55125-.225-.21375-.225-.21375-.54 0-.315.21375-.54.225-.225.55125-.225.32625 0 .54.225.225.225.225.54 0 .315-.225.54zm-.0112-2.34h-1.0575v-.52875q0-.50625.21375-.86625.21375-.37125.75375-.86625.30375-.28125.4275-.41625.135-.14625.25875-.39375.135-.25875.135-.52875 0-.5175-.3375-.8325-.32625-.315-.91125-.315-.9675 0-1.3275 1.08l-.9675-.405q.23625-.64125.81-1.1475.585-.5175 1.485-.5175 1.02375 0 1.665.6075.64125.59625.64125 1.53 0 .405-.21375.82125-.21375.41625-.3825.59625-.1575.16875-.45.43875-.0337.0337-.0562.0562-.68625.61875-.68625 1.2375v.45z" transform="matrix(2.798814396992 0 0 2.710026421409 -607.222019308395 -901.518961523478)"/></g></svg>