<svg xmlns="http://www.w3.org/2000/svg" xmlns:xlink="http://www.w3.org/1999/xlink" width="48" height="48"><linearGradient id="a"><stop offset="0" stop-color="#d6c240"/><stop offset="1" stop-color="#fff360"/></linearGradient><linearGradient id="b"><stop offset="0" stop-color="#258e52"/><stop offset="1" stop-color="#00c253"/></linearGradient><linearGradient id="c"><stop offset="0" stop-color="#ff4c39"/><stop offset="1" stop-color="#cf3d2e"/></linearGradient><linearGradient id="d" x1="399.571" x2="399.571" y1="545.798" y2="517.798" gradientUnits="userSpaceOnUse"><stop offset="0" stop-color="#3889e9"/><stop offset="1" stop-color="#5ea5fb"/></linearGradient><linearGradient id="e" x1="399.994" x2="399.994" y1="545.139" y2="518.139" gradientUnits="userSpaceOnUse"><stop offset="0" stop-color="#dbdada"/><stop offset="1" stop-color="#fff"/></linearGradient><linearGradient id="f" x1="314.934" x2="314.934" y1="487.854" y2="492.428" gradientUnits="userSpaceOnUse" xlink:href="#c"/><linearGradient id="g" x1="315.574" x2="315.574" y1="487.854" y2="492.428" gradientUnits="userSpaceOnUse" xlink:href="#c"/><linearGradient id="h" x1="315.3" x2="315.3" y1="487.854" y2="492.428" gradientUnits="userSpaceOnUse" xlink:href="#c"/><linearGradient id="i" x1="309.445" x2="309.445" y1="498.832" y2="494.258" gradientUnits="userSpaceOnUse" xlink:href="#b"/><linearGradient id="j" x1="309.445" x2="309.445" y1="505.235" y2="499.747" gradientUnits="userSpaceOnUse" xlink:href="#b"/><linearGradient id="k" x1="322.252" x2="322.252" y1="497.917" y2="494.258" gradientUnits="userSpaceOnUse" xlink:href="#a"/><linearGradient id="l" x1="322.252" x2="322.252" y1="504.321" y2="499.779" gradientUnits="userSpaceOnUse" xlink:href="#a"/><linearGradient id="m" x1="309.536" x2="309.536" y1="492.977" y2="487.521" gradientUnits="userSpaceOnUse" xlink:href="#a"/><linearGradient id="n" x1="310.451" x2="309.536" y1="491.788" y2="489.043" gradientUnits="userSpaceOnUse"><stop offset="0" stop-color="#2574a8"/><stop offset="1" stop-color="#329ee4"/></linearGradient><g stroke-width="1.3" transform="matrix(1.714290829385 0 0 1.714290829385 -662.615844059147 -887.447283489445)"><circle cx="400.571" cy="531.798" r="14" fill="url(#e)"/><circle cx="400.571" cy="531.798" r="0" fill="url(#d)"/></g><g transform="matrix(1.393499798173 0 0 1.393499798173 -416.114183610664 -667.075918495612)"><g fill="url(#f)"><ellipse cx="309.902" cy="490.233" fill="url(#f)" rx="2.287" ry="2.287"/><ellipse cx="316.032" cy="490.233" fill="url(#h)" rx="2.287" ry="2.287"/><ellipse cx="321.978" cy="490.233" fill="url(#g)" rx="2.287" ry="2.287"/></g><ellipse cx="309.902" cy="496.545" fill="url(#i)" rx="2.287" ry="2.287"/><ellipse cx="309.902" cy="502.583" fill="url(#j)" rx="2.287" ry="2.287"/><ellipse cx="321.978" cy="496.362" fill="url(#k)" rx="2.287" ry="2.287"/><ellipse cx="321.978" cy="502.4" fill="url(#l)" rx="2.287" ry="2.287"/><ellipse cx="309.719" cy="490.324" fill="url(#m)" rx="2.287" ry="2.287" transform="translate(6.312183 12.25867)"/><ellipse cx="309.719" cy="490.324" fill="url(#n)" rx="2.287" ry="2.287" transform="translate(6.312183 6.129437)"/></g></svg>