<svg xmlns="http://www.w3.org/2000/svg" xmlns:xlink="http://www.w3.org/1999/xlink" width="48" height="48"><linearGradient id="a" x1="409.199" x2="408.493" y1="545.912" y2="501.537" gradientUnits="userSpaceOnUse" xlink:href="#b"/><linearGradient id="b"><stop offset="0" stop-color="#3889e9"/><stop offset="1" stop-color="#5ea5fb"/></linearGradient><linearGradient id="c" x1="409.421" x2="410.708" y1="545.647" y2="502.361" gradientUnits="userSpaceOnUse"><stop offset="0" stop-color="#dbdada"/><stop offset="1" stop-color="#fff"/></linearGradient><linearGradient id="d" x1="354.45" x2="354.45" y1="554.208" y2="506.208" gradientUnits="userSpaceOnUse" xlink:href="#b"/><g transform="matrix(.97777778 0 0 .97777778 -375.49205 -488.64694)"><rect width="44" height="44" x="386.571" y="502.798" fill-opacity=".667" rx="2"/><rect width="44" height="44" x="386.571" y="501.798" fill="url(#c)" rx="2"/><g fill="url(#a)"><ellipse cx="400.306" cy="515.861" rx="3.187" ry="3.187"/><ellipse cx="408.847" cy="515.861" rx="3.187" ry="3.187"/><ellipse cx="417.133" cy="515.861" rx="3.187" ry="3.187"/><ellipse cx="400.306" cy="524.657" rx="3.187" ry="3.187"/><ellipse cx="400.306" cy="533.071" rx="3.187" ry="3.187"/><ellipse cx="417.133" cy="524.402" rx="3.187" ry="3.187"/><ellipse cx="417.133" cy="532.816" rx="3.187" ry="3.187"/><ellipse cx="408.847" cy="533.071" rx="3.187" ry="3.187"/><ellipse cx="408.847" cy="524.53" rx="3.187" ry="3.187"/></g><circle cx="356.164" cy="530.208" r="0" fill="url(#d)"/></g></svg>