<svg xmlns="http://www.w3.org/2000/svg" xmlns:xlink="http://www.w3.org/1999/xlink" width="48" height="48"><linearGradient id="a" x1="409.571" x2="409.571" y1="542.798" y2="507.798" gradientTransform="matrix(.93793686 0 0 .87065184 19.936597 61.677518)" gradientUnits="userSpaceOnUse"><stop offset="0" stop-color="#0a80fd"/><stop offset="1" stop-color="#56c5fa"/></linearGradient><linearGradient id="b" x1="422.951" x2="422.951" y1="544.231" y2="528.651" gradientUnits="userSpaceOnUse"><stop offset="0" stop-color="#79a8ca"/><stop offset="1" stop-color="#9ecbda"/></linearGradient><linearGradient id="c" x1="417.805" x2="417.771" y1="543.43" y2="532.631" gradientUnits="userSpaceOnUse"><stop offset="0" stop-color="#0f9d58"/><stop offset="1" stop-color="#00d455"/></linearGradient><linearGradient id="d" x1="427.371" x2="427.371" y1="544.631" y2="533.031" gradientUnits="userSpaceOnUse"><stop offset="0" stop-color="#ffcd40"/><stop offset="1" stop-color="#fee145"/></linearGradient><linearGradient id="e" x1="422.171" x2="422.171" y1="535.031" y2="528.631" gradientUnits="userSpaceOnUse"><stop offset="0" stop-color="#db4437"/><stop offset="1" stop-color="#fd5757"/></linearGradient><linearGradient id="f" x1="422.587" x2="422.587" y1="540.008" y2="533.01" gradientUnits="userSpaceOnUse"><stop offset="0" stop-color="#f2f6f7"/><stop offset="1" stop-color="#ecf0f1"/></linearGradient><linearGradient id="g" x1="422.587" x2="422.587" y1="539.578" y2="533.852" gradientUnits="userSpaceOnUse"><stop offset="0" stop-color="#2566d3"/><stop offset="1" stop-color="#429aff"/></linearGradient><linearGradient id="h" x1="390.997" x2="455.372" y1="541.566" y2="489.927" gradientUnits="userSpaceOnUse"><stop offset="0" stop-color="#2980b9"/><stop offset="1" stop-color="#ba174e" stop-opacity=".996"/></linearGradient><g transform="translate(-384.57143 -499.798)"><path fill-opacity=".667" fill-rule="evenodd" d="m2.3847656 5.3300781c-.7717446-.0013791-1.38943383.6188933-1.3847656 1.390625l.1621094 26.8144529c.0046682.771732.6305991 1.395105 1.4023437 1.396485l2.8046875.005859v5.771484c0 .992366.7986497 1.791016 1.7910156 1.791016h24.5820318c1.46338 1.830052 3.716362 3 6.257812 3 2.53529 0 4.784377-1.171036 6.248047-3h .759765c.992366 0 1.792969-.79865 1.792969-1.791016v-28.43164c0-.992366-.800603-1.792969-1.792969-1.792969h-2.716796l-.021485-3.6914062c-.004668-.7717318-.6306-1.3931521-1.402343-1.3945313z" transform="translate(384.57143 499.798)"/><rect width="41.269" height="29.602" x="382.516" y="503.793" fill="url(#a)" ry="1.393" transform="matrix(.9999984 .00178706 .00604892 .99998171 0 0)"/><rect width="41.431" height="32.015" x="389.94" y="509.664" fill="url(#h)" rx="1.791"/><circle cx="403.733" cy="513.767" r="1.943" fill="#fff"/><circle cx="398.959" cy="513.809" r="1.943" fill="#fff"/><circle cx="394.266" cy="513.855" r="1.943" fill="#fff"/><rect width="15.2" height="15.2" x="414.971" y="529.031" fill="url(#b)" ry="7.6"/><path fill="#649cc1" d="m422.76049 532.91102c-.10464 0-.18906.0844-.18906.18906 0 .10464.0844.18906.18906.18906h6.82188c.0138 0 .0261-.005.0391-.008l.0928-.25-.3428-.12031z" opacity=".8"/><g fill-rule="evenodd"><path fill="url(#c)" d="m416.17299 531.83133c-1.00179 1.33604-1.60156 3.01918-1.60156 4.825 0 4.432 3.568 7.975 8 7.975l2.8-5.735-5.2-1.065z"/><path fill="url(#d)" d="m422.97143 533.03133 2.4 5.84-2.8 5.76c4.432 0 8-3.568 8-8 0-1.29811-.31279-2.51807-.85703-3.6z"/><path fill="url(#e)" d="m422.56987 528.63133c-2.62618 0-4.94157 1.25858-6.39844 3.20156l3.99844 5.99844 5.2 1.04-2.4-5.84h6.74297c-1.31389-2.61198-4.00909-4.4-7.14297-4.4z"/></g><path fill="url(#f)" d="m422.5874 533.0098c2.05249 0 3.70487 1.65237 3.70487 3.70487 0 2.05249-1.65238 3.70486-3.70487 3.70486-2.05249 0-3.70486-1.65237-3.70486-3.70486 0-2.0525 1.65237-3.70487 3.70486-3.70487z"/><path fill="url(#g)" d="m422.5874 533.85182h.00001c1.58601 0 2.86284 1.27682 2.86284 2.86284 0 1.58602-1.27683 2.86285-2.86284 2.86285h-.00001c-1.58602 0-2.86285-1.27683-2.86285-2.86285 0-1.58602 1.27683-2.86284 2.86285-2.86284z"/></g></svg>