<svg xmlns="http://www.w3.org/2000/svg" xmlns:xlink="http://www.w3.org/1999/xlink" width="48" height="48"><linearGradient id="a" x1="330.199" x2="348.21" y1="524.473" y2="515.186" gradientUnits="userSpaceOnUse"><stop offset="0" stop-color="#db4437"/><stop offset="1" stop-color="#fd5757"/></linearGradient><linearGradient id="b" x1="326.444" x2="338.647" y1="541.488" y2="529.996" gradientUnits="userSpaceOnUse"><stop offset="0" stop-color="#0f9d58"/><stop offset="1" stop-color="#00d455"/></linearGradient><linearGradient id="c" x1="346.461" x2="348.21" y1="536.76" y2="522.999" gradientUnits="userSpaceOnUse"><stop offset="0" stop-color="#ffcd40"/><stop offset="1" stop-color="#fee145"/></linearGradient><linearGradient id="d" x1="405.66" x2="409.447" y1="529.884" y2="521.181" gradientUnits="userSpaceOnUse"><stop offset="0" stop-color="#3889e9"/><stop offset="1" stop-color="#5ea5fb"/></linearGradient><linearGradient id="e" x1="409.421" x2="410.708" y1="545.647" y2="502.361" gradientUnits="userSpaceOnUse"><stop offset="0" stop-color="#dbdada"/><stop offset="1" stop-color="#fff"/></linearGradient><g transform="matrix(.97777778 0 0 .97777778 -375.49205 -488.64694)"><rect width="44" height="44" x="386.571" y="502.798" fill-opacity=".667" rx="2"/><rect width="44" height="44" x="386.571" y="501.798" fill="url(#e)" rx="2"/><g fill="url(#a)" transform="matrix(1.0931221 0 0 1.0931221 33.310366 -50.486049)"><ellipse cx="335.732" cy="518.101" rx="2.915" ry="2.915"/><ellipse cx="343.545" cy="518.101" rx="2.915" ry="2.915"/><ellipse cx="351.125" cy="518.101" rx="2.915" ry="2.915"/></g><g fill="url(#b)" transform="matrix(1.0931221 0 0 1.0931221 33.310366 -50.486049)"><ellipse cx="335.732" cy="526.147" fill="url(#b)" rx="2.915" ry="2.915"/><ellipse cx="335.732" cy="533.844" fill="url(#b)" rx="2.915" ry="2.915"/></g><g fill="url(#c)" transform="matrix(1.0931221 0 0 1.0931221 33.310366 -50.486049)"><ellipse cx="351.125" cy="525.914" rx="2.915" ry="2.915"/><ellipse cx="351.125" cy="533.611" rx="2.915" ry="2.915"/><ellipse cx="343.545" cy="533.844" rx="2.915" ry="2.915"/></g><ellipse cx="408.847" cy="524.53" fill="url(#d)" rx="3.187" ry="3.187"/></g></svg>