<svg xmlns="http://www.w3.org/2000/svg" xmlns:xlink="http://www.w3.org/1999/xlink" width="48" height="48"><linearGradient id="a" x1="399.571" x2="399.571" y1="545.798" y2="517.798" gradientUnits="userSpaceOnUse"><stop offset="0" stop-color="#3889e9"/><stop offset="1" stop-color="#5ea5fb"/></linearGradient><linearGradient id="b" x1="-537.297" x2="-115.265" y1="442.595" y2="454.244" gradientUnits="userSpaceOnUse"><stop offset="0" stop-color="#a986d4"/><stop offset=".47" stop-color="#5abaff"/><stop offset="1" stop-color="#2cec85"/></linearGradient><circle cx="400.571" cy="531.798" r="0" fill="url(#a)" transform="matrix(1.637466544097 0 0 1.637466544097 -644.580187175317 -848.719334054169)"/><g transform="matrix(.111361506212 0 0 .111361506212 59.887097814307 -26.022587445081)"><circle cx="-322.276" cy="450.628" r="215.514" fill="url(#b)"/><g fill="#e6e6e6"><rect width="20.87" height="163.977" x="-414.32" y="369.624" ry="10.435"/><rect width="20.87" height="77.516" x="-451.706" y="414.778" ry="10.435"/><rect width="20.87" height="44.721" x="-489.377" y="431.409" ry="10.435"/><rect width="20.87" height="77.516" x="-377.75" y="414.778" ry="10.435"/><rect width="20.87" height="44.721" x="-337.3" y="431.409" ry="10.435"/><rect width="20.87" height="77.516" x="-299.293" y="414.778" ry="10.435"/><rect width="20.87" height="163.977" x="-260.444" y="369.624" ry="10.435"/><rect width="20.87" height="44.721" x="-183.767" y="431.409" ry="10.435"/><rect width="20.87" height="77.516" x="-221.872" y="414.778" ry="10.435"/></g></g></svg>