<svg xmlns="http://www.w3.org/2000/svg" xmlns:xlink="http://www.w3.org/1999/xlink" width="48" height="48"><linearGradient id="a"><stop offset="0" stop-color="#197cf1"/><stop offset="1" stop-color="#21c9fb"/></linearGradient><linearGradient x1="392.152" x2="392.152" y1="555.299" y2="507.299" gradientUnits="userSpaceOnUse"><stop offset="0" stop-color="#333"/><stop offset="1" stop-color="#515151"/></linearGradient><linearGradient x1="367.684" x2="414.681" y1="531.394" y2="531.394" gradientUnits="userSpaceOnUse" xlink:href="#a"/><linearGradient id="b" x1="412.846" x2="412.846" y1="545.521" y2="500.808" gradientUnits="userSpaceOnUse"><stop offset="0" stop-color="#7cbaf8"/><stop offset="1" stop-color="#f4fcff"/></linearGradient><linearGradient id="c" x1="392.152" x2="392.152" y1="555.299" y2="507.299" gradientUnits="userSpaceOnUse" xlink:href="#a"/><linearGradient id="d" x1="387.181" x2="387.181" y1="555.637" y2="507.637" gradientUnits="userSpaceOnUse" xlink:href="#a"/><circle cx="391.212" cy="531.731" r="22.498" fill="url(#c)" stroke="url(#d)" stroke-linecap="round" stroke-linejoin="round" stroke-width="2" transform="matrix(1.0213371 0 0 1.0213371 -375.527241709546 -518.983679493139)"/><g fill="url(#b)" fill-rule="evenodd" transform="matrix(.685267965652 0 0 .685267965652 -257.888194446235 -335.532606871328)"><path d="m428.57143 503.798-10 20 5 1zm-34 14-9 8 10-4 7 22 5-3 23 2-8-15-4-1-13 9-7-17z"/><path d="m403.57143 527.798 3 5 11-6-8-2z"/><path d="m394.57143 517.798-1.41992 4.9668 2.41992-.9668z"/><path d="m405.42299 535.43862-1.77929 7.7168 3.92773-2.35742.14648.0137-1.85937-5.21094-.28711.19727-.14844-.35938z"/><path d="m409.57143 524.798-6 3 3 5 .4082-.22266z"/><path d="m418.57143 526.798-4.68359 3.24219 16.64062 12.67773-7.95703-14.91992z"/></g></svg>