<svg xmlns="http://www.w3.org/2000/svg" xmlns:xlink="http://www.w3.org/1999/xlink" width="48" height="48"><linearGradient id="a" x1="72.093" x2="71.562" y1="42.65" y2="7.276" gradientUnits="userSpaceOnUse"><stop offset="0" stop-color="#6a82d4"/><stop offset="1" stop-color="#90b0e0"/></linearGradient><linearGradient id="b" x1="72.093" x2="71.562" y1="42.65" y2="7.276" gradientUnits="userSpaceOnUse"><stop offset="0" stop-color="#16a085"/><stop offset="1" stop-color="#2ecc71"/></linearGradient><linearGradient id="c" x1="11.661" x2="10.416" y1="56.928" y2="32.881" gradientUnits="userSpaceOnUse"><stop offset="0" stop-color="#cdd0d1"/><stop offset="1" stop-color="#f6f6f7"/></linearGradient><linearGradient id="d" x1="14.428" x2="5.506" y1="47.468" y2="39.642" gradientUnits="userSpaceOnUse"><stop offset="0" stop-color="#16a085"/><stop offset="1" stop-color="#2dcb72"/></linearGradient><g transform="matrix(.800313154128 -.011029996061 .011029996061 .800313154128 31.328981200809 -2.990980703993)"><rect width="48.232" height="36.296" x="47.936" y="7.164" fill="url(#a)" ry="1.5" transform="translate(-79.137894 2.18613)"/><rect width="48.232" height="36.296" x="47.936" y="7.164" fill="url(#b)" ry="1.5" transform="matrix(.98570591 -.16847515 .16847515 .98570591 -87.874765 22.846708)"/><path fill="#ddf2e9" d="m-4.1034787 28.913566-1.743304-.873426c-.2171962-.108822-.6247283.239828-1.0379458.832081l-.746958-.374239c.2269888-.685564.2622015-1.220743.044965-1.329582l-4.2704525-2.13957c-2.192018-.209141-4.403026.09834-6.454469.898714l-1.035044.404191c-.17247.067-.289091.229808-.29801.414717-.0084.184762.09301.357636.258252.440425.0677.03391.142489.0508.21744.04952l1.321375-.02173c1.497522-.02419 2.933348.594597 3.94318 1.700576l.06463.07079 1.040413.521263-3.602988 7.191342c-.235381-.08093-.510923.02277-.659263.268355l-5.240776 7.760709c-.443604.735093-.596169 1.607202-.421994 2.402987.174433.796453.660295 1.443441 1.339222 1.783595.678871.340125 1.488411.342155 2.230689.005.741777-.336877 1.348575-.981408 1.671794-1.776816l3.078787-8.843903c.107978-.265797.0261-.548605-.180049-.688857l3.602986-7.191342 1.4116226.707248c.217187.108808.6248199-.239775 1.0380438-.832031l.7469562.374237c-.2269959.685562-.262305 1.220691-.045061 1.329535l1.7433064.873425c.3091517.15489 1.003737-.605102 1.5514153-1.698234.5474356-1.092775.7403675-2.104093.4312156-2.258985z"/><g transform="matrix(.75805453 0 0 .75805453 2.008248 11.856072)"><circle cx="11.184" cy="45.123" r="12.349" fill="url(#c)"/><path fill="url(#d)" d="m14.428456 47.271288-8.9226783.196284 4.2913527-7.825408z" transform="matrix(-.01774298 1.1631677 -1.1631677 -.01774298 62.760227 34.349575)"/></g></g></svg>