<svg xmlns="http://www.w3.org/2000/svg" xmlns:xlink="http://www.w3.org/1999/xlink" width="48" height="48"><linearGradient id="a" x1="17.387" x2="17.387" y1="1045.869" y2="1006.869" gradientUnits="userSpaceOnUse"><stop offset="0" stop-color="#e42238"/><stop offset="1" stop-color="#fd6820"/></linearGradient><linearGradient x1="0" x2="47" y1="23.5" y2="23.5" gradientUnits="userSpaceOnUse"><stop offset="0" stop-color="#a9a3d4"/><stop offset=".47" stop-color="#87baff"/><stop offset="1" stop-color="#89ec85"/></linearGradient><g stroke-width="1.317" transform="matrix(1.199999650171 0 0 1.199999650171 3.176860870631 -1208.208316863007)"><circle cx="17.387" cy="1026.869" r="20" fill="url(#a)"/><path fill="#fff" fill-opacity=".851" d="m428.92363 524.46159c-.56004.15717-1.01086.78214-1.01086 1.38928v9.62532c-.56789-.31135-1.29721-.43725-2.05334-.23149-1.36441.37118-2.21944 1.57085-1.92697 2.67922.29249 1.1083 1.63658 1.72735 3.00104 1.35608 1.08851-.29612 1.83888-1.13406 1.95852-2.01765l.0319-9.09613 7.07607-1.98462v7.1777c-.56789-.31137-1.2972-.43726-2.05335-.23157-1.3644.3712-2.21941 1.57093-1.92695 2.67923.2925 1.10836 1.63659 1.72733 3.00101 1.35614 1.08853-.29612 1.83889-1.13404 1.95855-2.01764l.032-11.84156c0-.45528-.26874-.7959-.63178-.85997l-7.45514 2.01766z" opacity=".9" transform="matrix(1.180357657945 0 0 1.180357657945 -491.798345816551 399.835158863305)"/></g></svg>