<svg xmlns="http://www.w3.org/2000/svg" xmlns:xlink="http://www.w3.org/1999/xlink" viewBox="0 0 48 48"><linearGradient id="a" x1="407.234" x2="407.234" y1="545.953" y2="501.953" gradientUnits="userSpaceOnUse"><stop offset="0" stop-color="#3889e9"/><stop offset="1" stop-color="#5ea5fb"/></linearGradient><linearGradient id="b" x1="407.898" x2="407.898" y1="544.917" y2="502.489" gradientUnits="userSpaceOnUse"><stop offset="0" stop-color="#54b60f"/><stop offset="1" stop-color="#92dc41"/></linearGradient><linearGradient x1="25.425" x2="23.119" y1="1043.017" y2="1015.555" gradientUnits="userSpaceOnUse"><stop offset="0" stop-color="#dfe2e3"/><stop offset="1" stop-color="#fdfdfe"/></linearGradient><g transform="matrix(1.00000000118 0 0 1.00000000118 -384.805200199944 -499.953230967353)"><circle cx="408.805" cy="523.953" r="22" fill="url(#b)"/><circle cx="408.805" cy="523.953" r="0" fill="url(#a)"/><path fill="#fff" fill-opacity=".855" fill-rule="evenodd" d="m408.85101 510.70808c-4.20353 0-7.93253 1.99196-10.34164 5.06985l1.65095 1.05171c2.06038-2.53051 5.20779-4.14284 8.71607-4.14284 6.20322 0 11.23886 5.04778 11.23886 11.26865 0 6.21647-5.03564 11.26424-11.23886 11.26424-3.49614 0-6.63251-1.6035-8.69511-4.12076l-1.65095 1.0517c2.41794 3.06906 6.1348 5.04778 10.34165 5.04778 7.28142 0 13.18667-5.93174 13.18667-13.24296 0-7.3068-5.90967-13.23854-13.18667-13.23854m-13.32021 5.50907v15.45012l13.39856-7.80231m-.0993-7.99213c-2.37049 0-4.5004 1.03074-5.9792 2.66404l1.71166 1.06938c1.09916-1.09034 2.60775-1.75911 4.27195-1.75911 3.36702 0 6.09949 2.75895 6.09949 6.15577 0 3.40123-2.72916 6.16018-6.09949 6.16018-1.69399 0-3.22466-.69415-4.32824-1.8187l-1.65095 1.05171c1.47879 1.6333 3.60429 2.66405 5.97919 2.66405 4.45846 0 8.0738-3.62968 8.0738-8.09587 0-4.4706-3.61643-8.09586-8.0738-8.09586m-.005.005"/></g></svg>