<svg xmlns="http://www.w3.org/2000/svg" xmlns:xlink="http://www.w3.org/1999/xlink" width="48" height="48"><linearGradient id="a"><stop offset="0" stop-color="#2a2c2f"/><stop offset="1" stop-color="#54595d"/></linearGradient><linearGradient id="b" x1="407.871" x2="407.871" y1="533.798" y2="512.798" gradientUnits="userSpaceOnUse" xlink:href="#a"/><linearGradient id="c" x1="409.493" x2="408.422" y1="542.467" y2="504.979" gradientUnits="userSpaceOnUse"><stop offset="0" stop-color="#e4bd27"/><stop offset="1" stop-color="#fff360"/></linearGradient><linearGradient id="d" x1="412.706" x2="411.635" y1="543.538" y2="506.05" gradientUnits="userSpaceOnUse" xlink:href="#a"/><g><path fill="url(#c)" stroke="url(#d)" stroke-width="1.5" d="m389.77394 522.71124c-.6845.68459-.68386 1.79526 0 2.47912l17.6095 17.60951c.68459.68451 1.79526.68386 2.47914 0l17.60949-17.60951c.68449-.6846.68387-1.79525 0-2.47912l-17.60949-17.6095c-.68461-.68451-1.79527-.68387-2.47914 0z" transform="matrix(1.1597905 0 0 1.1597905 -449.733456 -583.388311)"/><path fill="url(#b)" d="m408.87143 512.798v6.98633l-4 4 .0137.0137h-.0137v10h2v-9.18555l2-2v11.18555h2v-13.18555-2.82812-4.98633h-2z" transform="matrix(1.1597905 0 0 1.1597905 -449.733456 -583.388311)"/></g></svg>