<svg xmlns="http://www.w3.org/2000/svg" xmlns:xlink="http://www.w3.org/1999/xlink" width="48" height="48"><linearGradient id="a" x1="391.571" x2="391.571" y1="531.798" y2="501.699" gradientTransform="matrix(1.0833321 0 0 1.3356131 -34.047105 -170.45106)" gradientUnits="userSpaceOnUse"><stop offset="0" stop-color="#bfc1c1"/><stop offset="1" stop-color="#f1f2f3"/></linearGradient><linearGradient id="b" x1="414.08" x2="414.205" y1="533.589" y2="514.004" gradientUnits="userSpaceOnUse"><stop offset="0" stop-color="#3872a8"/><stop offset="1" stop-color="#1cbfff"/></linearGradient><linearGradient id="c" x1="408.524" x2="409.266" y1="506.485" y2="533.195" gradientTransform="matrix(-1 0 0 -1 823.84266 1043.6233)" gradientUnits="userSpaceOnUse"><stop offset="0" stop-color="#1e1e1e"/><stop offset="1" stop-color="#6b6969"/></linearGradient><linearGradient id="d" x1="407.205" x2="424.071" y1="515.759" y2="532.625" gradientUnits="userSpaceOnUse"><stop offset="0" stop-color="#18222a"/><stop offset="1" stop-color="#566069"/></linearGradient><linearGradient id="e" x1="390.562" x2="390.562" y1="509.104" y2="504.104" gradientUnits="userSpaceOnUse"><stop offset="0" stop-color="#2f3943"/><stop offset="1" stop-color="#808c9b"/></linearGradient><linearGradient id="f" x1="543.948" x2="543.743" y1="484.808" y2="427.538" gradientUnits="userSpaceOnUse"><stop offset="0" stop-color="#86d0fb"/><stop offset="1" stop-color="#2794f5"/></linearGradient><linearGradient id="g" x1="521.714" x2="523.394" y1="448.963" y2="434.107" gradientUnits="userSpaceOnUse"><stop offset="0" stop-color="#eefefe"/><stop offset="1" stop-color="#d6fefe"/></linearGradient><linearGradient id="h" x1="542.834" x2="543.255" y1="484.294" y2="463.625" gradientTransform="matrix(1.0228371 .00280688 .00280688 1.0003448 -13.960481 -.737729)" gradientUnits="userSpaceOnUse"><stop offset="0" stop-color="#132e51"/><stop offset="1" stop-color="#2767b9"/></linearGradient><g><g transform="translate(-497.09233 -499.970844) matrix(.542026875225 -.066767221872 .066619791338 .54322638831 195.377075227878 309.391112342398)"><rect width="76.809" height="58.987" x="504.257" y="426.464" fill="url(#f)" ry="2.3"/><path fill="url(#h)" fill-rule="evenodd" d="m504.07372 478.78868 15.36965-4.4603 4.90301 3.1214 11.28643-3.56172 11.18449 3.58441 8.05166 1.68305 6.15624-1.94286 7.58944-1.72813 12.26513-10.6352.058 20.75988-73.67528-.20215s-3.16906.50627-3.1766-2.21999z"/><circle cx="522.662" cy="442.288" r="6.976" fill="url(#g)" opacity=".811"/></g><g transform="translate(-497.09233 -499.970844) matrix(.603734284512 0 0 .605070356959 282.886652846286 218.510546570653)"><rect width="6" height="3" x="386.562" y="506.104" fill="url(#e)" ry="1"/><rect width="52" height="32.055" x="382.571" y="507.771" fill="url(#a)" ry="1.5"/><path fill="url(#c)" d="m401.27124 523.8253a13.999973 13.999973 0 0 1 13.99997-13.99997 13.999973 13.999973 0 0 1 13.99997 13.99997 13.999973 13.999973 0 0 1 -13.99997 13.99998 13.999973 13.999973 0 0 1 -13.99997-13.99998z"/><circle cx="415.271" cy="523.825" r="11" fill="url(#d)"/><circle cx="415.271" cy="523.825" r="10" fill="url(#b)"/></g></g></svg>