<svg xmlns="http://www.w3.org/2000/svg" xmlns:svg="http://www.w3.org/2000/svg" xmlns:xlink="http://www.w3.org/1999/xlink" id="svg55" width="48" height="48" version="1.1"><metadata id="metadata61"/><defs id="defs59"><linearGradient id="linearGradient1022" x1="10.79" x2="10.297" y1="43.787" y2="4.536" gradientTransform="matrix(-1.382991,0,0,1.382991,8.3958483,984.39486)" gradientUnits="userSpaceOnUse" spreadMethod="pad"><stop id="stop1018" offset="0" stop-color="#e9c6af" stop-opacity="1"/><stop id="stop1020" offset="1" stop-color="#d38d5f" stop-opacity="1"/></linearGradient><linearGradient id="a-3" x1="409.537" x2="409.537" y1="544.228" y2="502.984" gradientUnits="userSpaceOnUse"><stop id="stop2-6" offset="0" stop-color="#0bac83"/><stop id="stop4-7" offset="1" stop-color="#10da96"/></linearGradient><linearGradient id="a-3-5" x1="409.537" x2="409.537" y1="544.228" y2="502.984" gradientTransform="matrix(0.87285666,0,0,0.87285666,-308.25228,540.56003)" gradientUnits="userSpaceOnUse" xlink:href="#a-3"><stop id="stop2-6-3" offset="0" stop-color="#0bac83"/><stop id="stop4-7-5" offset="1" stop-color="#10da96"/></linearGradient><linearGradient id="b-6" x1="10.79" x2="10.297" y1="43.787" y2="4.536" gradientTransform="matrix(-1.382991,0,0,1.382991,8.3958483,984.39486)" gradientUnits="userSpaceOnUse" spreadMethod="pad"><stop id="stop3" offset="0" stop-color="#fbd340"/><stop id="stop5" offset="1" stop-color="#ffe791"/></linearGradient><linearGradient id="a-2" x1="23.961" x2="23.641" y1="50.212" y2="9.585" gradientTransform="matrix(1.5,0,0,1.5,-62.123568,978.01336)" gradientUnits="userSpaceOnUse" xlink:href="#c-9"/><linearGradient id="c-9" x1="10.79" x2="10.297" y1="43.787" y2="4.536" gradientTransform="matrix(0.92199395,0,0,0.92199395,2.02861,1.360762)" gradientUnits="userSpaceOnUse" spreadMethod="pad"><stop id="stop8-1" offset="0" stop-color="#197cf1"/><stop id="stop10-2" offset="1" stop-color="#20bcfa"/></linearGradient><linearGradient id="linearGradient976" x1="37.776" x2="37.746" y1="982.189" y2="1028.641" gradientTransform="translate(-26.889,2.1215)" gradientUnits="userSpaceOnUse" xlink:href="#linearGradient1022"/><linearGradient id="linearGradient984" x1="53.01" x2="53.75" y1="1007.822" y2="1029.995" gradientUnits="userSpaceOnUse" xlink:href="#linearGradient1022"/><linearGradient id="linearGradient992" x1="77.165" x2="59.601" y1="1006.818" y2="1017.224" gradientTransform="translate(0.34384032,-2.4036837)" gradientUnits="userSpaceOnUse" xlink:href="#linearGradient1022"/><linearGradient id="linearGradient1000" x1="18.423" x2="36.782" y1="1006.584" y2="1016.618" gradientUnits="userSpaceOnUse" xlink:href="#linearGradient1022"/><linearGradient id="linearGradient1008" x1="47.811" x2="80.809" y1="986.392" y2="986.392" gradientTransform="translate(0.34384032,-2.4036837)" gradientUnits="userSpaceOnUse" xlink:href="#linearGradient1022"/><linearGradient id="linearGradient1016" x1="14.809" x2="47.807" y1="986.397" y2="986.397" gradientUnits="userSpaceOnUse" xlink:href="#linearGradient1022"/><linearGradient id="linearGradient1034" x1="37.776" x2="37.746" y1="982.189" y2="1028.641" gradientTransform="matrix(-0.99999372,0,0,0.99999372,68.922854,2.1278433)" gradientUnits="userSpaceOnUse" xlink:href="#linearGradient1022"/><linearGradient id="linearGradient1040" x1="37.776" x2="37.746" y1="982.189" y2="1028.641" gradientTransform="translate(-26.889,2.1215)" gradientUnits="userSpaceOnUse" xlink:href="#linearGradient1022"/><linearGradient id="linearGradient1042" x1="37.776" x2="37.746" y1="982.189" y2="1028.641" gradientTransform="matrix(-0.99999372,0,0,0.99999372,68.922854,2.1278433)" gradientUnits="userSpaceOnUse" xlink:href="#linearGradient1022"/><linearGradient id="linearGradient1219" x1="18.423" x2="36.782" y1="1006.584" y2="1016.618" gradientTransform="translate(0.34384032,-2.4036837)" gradientUnits="userSpaceOnUse" xlink:href="#linearGradient1022"/><linearGradient id="linearGradient1243" x1="14.809" x2="47.807" y1="986.397" y2="986.397" gradientTransform="translate(0.34384032,-2.4036837)" gradientUnits="userSpaceOnUse" xlink:href="#linearGradient1022"/><linearGradient id="linearGradient1245" x1="37.776" x2="37.746" y1="982.189" y2="1028.641" gradientTransform="translate(-26.889,2.1215)" gradientUnits="userSpaceOnUse" xlink:href="#linearGradient1022"/><linearGradient id="linearGradient1247" x1="37.776" x2="37.746" y1="982.189" y2="1028.641" gradientTransform="matrix(-0.99999372,0,0,0.99999372,68.922854,2.1278433)" gradientUnits="userSpaceOnUse" xlink:href="#linearGradient1022"/><linearGradient id="linearGradient1249" x1="18.423" x2="36.782" y1="1006.584" y2="1016.618" gradientTransform="translate(0.34384032,-2.4036837)" gradientUnits="userSpaceOnUse" xlink:href="#linearGradient1022"/></defs><linearGradient id="linearGradient6" x1="408.571" x2="409.571" y1="552.798" y2="503.798" gradientUnits="userSpaceOnUse"><stop id="stop2" offset="0" stop-color="#197cf1"/><stop id="stop4" offset="1" stop-color="#59d0ff"/></linearGradient><linearGradient id="a"><stop id="stop8" offset="0" stop-color="#7ed6fb"/><stop id="stop10" offset="1" stop-color="#8fdcfc"/></linearGradient><linearGradient id="b" x1="16.093" x2="47.022" y1="985.555" y2="985.555" gradientUnits="userSpaceOnUse"><stop id="stop13" offset="0" stop-color="#7ed6fb"/><stop id="stop15" offset="1" stop-color="#90ddfc"/></linearGradient><linearGradient id="c" x1="19.648" x2="39.036" y1="1011.071" y2="1010.17" gradientUnits="userSpaceOnUse" xlink:href="#a"/><linearGradient id="d" x1="37.233" x2="44.447" y1="1022.585" y2="1025.5" gradientTransform="matrix(0.99857397,0,0,0.99857397,0.02111842,1.4781064)" gradientUnits="userSpaceOnUse" xlink:href="#c-9"><stop id="stop19" offset="0" stop-color="#1581ce"/><stop id="stop21" offset="1" stop-color="#32a9e0"/></linearGradient><linearGradient id="e" x1="55.085" x2="58.911" y1="1025.015" y2="1023.102" gradientTransform="matrix(0.99857397,0,0,0.99857397,0.02111842,1.4781069)" gradientUnits="userSpaceOnUse"><stop id="stop24" offset="0" stop-color="#62c8f7"/><stop id="stop26" offset="1" stop-color="#36aaf2"/></linearGradient><linearGradient id="f" x1="76.446" x2="59.867" y1="1010.03" y2="1009.712" gradientUnits="userSpaceOnUse" xlink:href="#a"/><linearGradient id="g" x1="74.214" x2="57.954" y1="983.249" y2="986.119" gradientUnits="userSpaceOnUse"><stop id="stop30" offset="0" stop-color="#7ed6fb"/><stop id="stop32" offset="1" stop-color="#8edcfc"/></linearGradient><g id="g53" transform="matrix(.666666669147 0 0 .666666669147 -8.102068333836 -645.268444116499)"><g id="g1054" fill="#000" fill-opacity=".667" transform="translate(27.133919,-3.7420214)"><path id="path1050" fill="#000" fill-opacity=".667" stroke-width=".999" d="m -0.3850029,999.59628 0.0011,25.72792 21.4005049,13.3173 v -25.867 z"/><path id="path1052" fill="#000" fill-opacity=".667" stroke-width=".999" d="m 42.419024,999.59637 -0.0011,25.72773 -21.401322,13.3172 v -25.8668 z"/></g><path id="path35" fill="#6c5d53" stroke-width=".999" d="M 48.15098,981.85975 69.49504,995.07112 48.29651,1008.3702 26.847837,995.07112 Z"/><path id="path39" fill="url(#linearGradient1008)" fill-opacity="1" stroke-width=".999" d="m 48.15098,981.85975 21.302664,13.21135 11.699458,-8.86615 -21.448683,-13.2991 z"/><path id="path41" fill="#917c6f" fill-opacity="1" stroke-width=".999" d="m 48.15098,981.85975 -4.59e-4,26.42265 -21.199072,12.548 -0.103048,-25.75928 z"/><path id="path875" fill="url(#linearGradient1243)" fill-opacity="1" stroke-width=".999" d="m 48.150979,981.85975 -21.302677,13.21135 -11.6952,-8.85649 21.44833,-13.29906 z"/><rect id="rect7" width="36" height="36" x="30.315" y="979.593" fill="url(#a-3-5)" fill-opacity="1" stroke="none" stroke-width=".873" ry="18"/><g id="g1038" transform="translate(27.133919,-4.4920837)"><path id="path49" fill="url(#linearGradient1245)" fill-opacity="1" stroke-width=".999" d="m -0.3850029,999.59628 0.0011,25.72792 21.4005049,13.3173 v -25.867 z"/><path id="path1032" fill="url(#linearGradient1247)" fill-opacity="1" stroke-width=".999" d="m 42.419024,999.59637 -0.0011,25.72773 -21.401322,13.3172 v -25.8668 z"/></g><path id="path9" fill="#fff" fill-opacity=".851" stroke-width="1.353" d="m 40.667734,994.27652 c 0.542316,0.5466 1.42405,0.5484 1.969332,0 l 5.510438,-6.0636 5.484675,6.0869 c 0.542953,0.5466 1.424037,0.5484 1.969305,0 0.545281,-0.5443 0.547156,-1.4277 0.0042,-1.9743 l -6.380009,-7.0812 c -0.293742,-0.2954 -0.685487,-0.4261 -1.071014,-0.4027 -0.384746,-0.025 -0.77772,0.1042 -1.072686,0.3981 l -6.41004,7.0541 c -0.544604,0.5443 -0.546479,1.4277 -0.0042,1.9743 z m 7.462595,5.89448 c -1.267196,0 -2.296644,1.0237 -2.299337,2.2924 -0.0027,1.2687 1.022389,2.2994 2.289585,2.3021 1.267196,0 2.296658,-1.0236 2.299351,-2.2923 0.0027,-1.2688 -1.022403,-2.2995 -2.289599,-2.3022 z m 0.01393,-6.56348 c -1.267196,0 -2.296644,1.0236 -2.299337,2.2924 -0.0027,1.2687 1.022389,2.2994 2.289585,2.3021 1.267196,0 2.296658,-1.0237 2.299351,-2.2924 0.0027,-1.2687 -1.022403,-2.2994 -2.289599,-2.3021 z"/><g id="g1048" transform="translate(27.133919,-4.4920837)"><path id="path1044" fill="url(#linearGradient1040)" fill-opacity="1" stroke-width=".999" d="m -0.3850029,999.59628 0.0011,25.72792 21.4005049,13.3173 v -25.867 z"/><path id="path1046" fill="url(#linearGradient1042)" fill-opacity="1" stroke-width=".999" d="m 42.419024,999.59637 -0.0011,25.72773 -21.401322,13.3172 v -25.8668 z"/></g><path id="path871" fill="url(#linearGradient1249)" fill-opacity="1" stroke-width=".999" d="m 15.298097,1004.0153 21.389541,13.2387 11.462883,-8.9716 -21.302684,-13.2113 z"/><path id="path879" fill="url(#linearGradient992)" fill-opacity="1" stroke-width=".999" d="m 81.00365,1004.0153 -21.302672,13.2113 -11.550457,-8.9442 21.303588,-13.2113 z"/><path id="path1127" fill="#000" fill-opacity=".078" stroke-width=".999" d="m 27.086786,995.31148 16.523438,16.52342 -6.922853,5.4199 -9.937499,-6.1494 v 4.3623 l 14.203124,14.2031 7.198242,4.4795 v -25.8691 z"/><path id="path1060" fill="url(#linearGradient1219)" fill-opacity="1" stroke-width=".999" d="m 15.298097,1004.0153 21.389541,13.2387 11.462883,-8.9716 -21.302684,-13.2113 z"/></g></svg>