<svg xmlns="http://www.w3.org/2000/svg" xmlns:svg="http://www.w3.org/2000/svg" xmlns:xlink="http://www.w3.org/1999/xlink" id="svg55" width="48" height="48" version="1.1"><metadata id="metadata61"/><defs id="defs59"><linearGradient id="linearGradient873" x1="74.214" x2="57.954" y1="983.249" y2="986.119" gradientTransform="matrix(0.99857397,0,0,0.99857397,-32.835463,23.643373)" gradientUnits="userSpaceOnUse" xlink:href="#g"/><linearGradient id="linearGradient877" x1="74.214" x2="57.954" y1="983.249" y2="986.119" gradientTransform="matrix(-0.99855746,0,0,0.99855746,95.596072,1.503741)" gradientUnits="userSpaceOnUse" xlink:href="#g"/><linearGradient id="linearGradient881" x1="74.214" x2="57.954" y1="983.249" y2="986.119" gradientTransform="matrix(-0.99855746,0,0,0.99855746,128.44875,23.659321)" gradientUnits="userSpaceOnUse" xlink:href="#g"/><linearGradient id="a-3" x1="409.537" x2="409.537" y1="544.228" y2="502.984" gradientUnits="userSpaceOnUse"><stop id="stop2-6" offset="0" stop-color="#0bac83"/><stop id="stop4-7" offset="1" stop-color="#10da96"/></linearGradient><linearGradient id="linearGradient913" x1="74.214" x2="57.954" y1="983.249" y2="986.119" gradientTransform="matrix(0.99857397,0,0,0.99857397,0.02111842,1.4781064)" gradientUnits="userSpaceOnUse" xlink:href="#g"/></defs><linearGradient id="linearGradient6" x1="408.571" x2="409.571" y1="552.798" y2="503.798" gradientUnits="userSpaceOnUse"><stop id="stop2" offset="0" stop-color="#197cf1"/><stop id="stop4" offset="1" stop-color="#59d0ff"/></linearGradient><linearGradient id="a"><stop id="stop8" offset="0" stop-color="#7ed6fb"/><stop id="stop10" offset="1" stop-color="#8fdcfc"/></linearGradient><linearGradient id="b" x1="16.093" x2="47.022" y1="985.555" y2="985.555" gradientUnits="userSpaceOnUse"><stop id="stop13" offset="0" stop-color="#7ed6fb"/><stop id="stop15" offset="1" stop-color="#90ddfc"/></linearGradient><linearGradient id="c" x1="19.648" x2="39.036" y1="1011.071" y2="1010.17" gradientUnits="userSpaceOnUse" xlink:href="#a"/><linearGradient id="d" x1="37.233" x2="44.447" y1="1022.585" y2="1025.5" gradientTransform="matrix(0.99857397,0,0,0.99857397,0.02111842,1.4781064)" gradientUnits="userSpaceOnUse"><stop id="stop19" offset="0" stop-color="#1581ce"/><stop id="stop21" offset="1" stop-color="#32a9e0"/></linearGradient><linearGradient id="e" x1="55.085" x2="58.911" y1="1025.015" y2="1023.102" gradientTransform="matrix(0.99857397,0,0,0.99857397,0.02111842,1.4781064)" gradientUnits="userSpaceOnUse"><stop id="stop24" offset="0" stop-color="#62c8f7"/><stop id="stop26" offset="1" stop-color="#36aaf2"/></linearGradient><linearGradient id="f" x1="76.446" x2="59.867" y1="1010.03" y2="1009.712" gradientUnits="userSpaceOnUse" xlink:href="#a"/><linearGradient id="g" x1="74.214" x2="57.954" y1="983.249" y2="986.119" gradientUnits="userSpaceOnUse"><stop id="stop30" offset="0" stop-color="#7ed6fb"/><stop id="stop32" offset="1" stop-color="#8edcfc"/></linearGradient><g id="g53" transform="matrix(.666666669147 0 0 .666666669147 -8.102068333836 -645.268444116499)"><path id="path35" fill="#7ed6fb" stroke-width=".999" d="M 47.807139,984.26343 69.151198,997.47478 47.952669,1010.7739 26.503997,997.47478 Z"/><path id="path39" fill="url(#linearGradient913)" stroke-width=".999" d="m 47.810839,984.25376 21.298965,13.22102 11.699458,-8.86615 -21.448683,-13.2991 z"/><path id="path41" fill="#62c8f7" stroke-width=".999" d="m 47.807139,984.26343 -0.0011,22.67147 -21.19853,13.2992 -0.103048,-22.75932 z"/><path id="path43" fill="#32a9e0" stroke-width=".999" d="m 47.807139,984.26343 0.0011,22.67147 21.198517,13.2992 0.10305,-22.75932 z"/><path id="path45" fill="url(#e)" stroke-width=".999" d="m 69.110269,997.47478 -0.0011,25.72792 -21.198528,13.2991 -0.10305,-25.8157 z"/><path id="path49" fill="url(#d)" stroke-width=".999" d="m 26.503997,997.47478 0.0011,25.72792 21.398636,13.3173 -0.09705,-25.8339 z"/><path id="path871" fill="url(#linearGradient873)" stroke-width=".999" d="m 14.954257,1006.419 21.389541,13.2387 11.462883,-8.9716 -21.302684,-13.21132 z"/><path id="path875" fill="url(#linearGradient877)" stroke-width=".999" d="m 47.807139,984.26343 -21.302677,13.21135 -11.6952,-8.85649 21.44833,-13.29906 z"/><path id="path879" fill="url(#linearGradient881)" stroke-width=".999" d="m 80.659815,1006.419 -21.302677,13.2113 -11.550457,-8.9442 21.303588,-13.21132 z"/></g></svg>