<svg xmlns="http://www.w3.org/2000/svg" xmlns:xlink="http://www.w3.org/1999/xlink" width="48" height="48"><linearGradient id="a" x1="-7.045" x2="-7.576" y1="44.836" y2="9.462" gradientUnits="userSpaceOnUse" xlink:href="#d"/><linearGradient id="b" x1="10.848" x2="9.904" y1="55.011" y2="36.782" gradientUnits="userSpaceOnUse"><stop offset="0" stop-color="#cdd0d1"/><stop offset="1" stop-color="#f6f6f7"/></linearGradient><linearGradient id="c" x1="14.428" x2="5.506" y1="47.468" y2="39.642" gradientUnits="userSpaceOnUse" xlink:href="#e"/><linearGradient id="d"><stop offset="0" stop-color="#c98cbb"/><stop offset="1" stop-color="#a9b7da"/></linearGradient><linearGradient id="e"><stop offset="0" stop-color="#40a"/><stop offset="1" stop-color="#7575b9"/></linearGradient><linearGradient id="f" x1="50.381" x2="95.397" y1="47.093" y2="46.776" gradientTransform="matrix(.46452981 -.0926665 .0926665 .46452981 -50.419988 21.06868)" gradientUnits="userSpaceOnUse" xlink:href="#d"/><linearGradient x1="47.936" x2="96.168" y1="25.312" y2="25.312" gradientUnits="userSpaceOnUse" xlink:href="#e"/><linearGradient id="g" x1="69.445" x2="87.141" y1="44.222" y2="6.88" gradientUnits="userSpaceOnUse" xlink:href="#e"/><g transform="matrix(.800313154128 -.011029996061 .011029996061 .800313154128 31.328981200809 -2.990980703993)"><rect width="48.232" height="36.296" x="-31.202" y="9.351" fill="url(#a)" ry="1.5"/><rect width="48.232" height="36.296" x="47.936" y="7.164" fill="url(#g)" ry="1.5" transform="matrix(.9857059 -.16847515 .16847515 .9857059 -87.874763 22.846712)"/><circle cx="10.486" cy="46.062" r="9.361" fill="url(#b)"/><path fill="url(#c)" d="m14.428456 47.271288-8.9226783.196284 4.2913527-7.825408z" transform="matrix(-.01345015 .88174454 -.88174454 -.01345015 49.583922 37.894923)"/><path fill="url(#f)" d="m-15.015487 25.111586c-5.772264 1.151478-9.522035 6.770094-8.370555 12.542358 1.151476 5.772265 6.770092 9.522033 12.542358 8.370557.128906-.0256.250421-.06021.377255-.09033-4.652055.68501-9.108017-1.771978-11.107333-5.849295l19.9874827-3.987192-.093218-.46725-20.0999867 4.009635c-.126344-.290974-.239728-.589634-.340845-.895207l20.263302-4.042214-.093025-.466346-20.310477 4.051626c-.07577-.268567-.144584-.540275-.200063-.818576-.0067-.03316-.0107-.06627-.01703-.09943l20.3322528-4.055969-.092831-.46544-20.3186418 4.053254c-.04571-.315791-.07676-.631149-.09406-.944436l20.2360748-4.036784-.093218-.46725-20.1580188 4.021211c-.04697-4.84203 3.221394-9.207741 8.033666-10.424226-.128212.02077-.254646.0357-.383046.06132z"/></g></svg>