<svg xmlns="http://www.w3.org/2000/svg" xmlns:xlink="http://www.w3.org/1999/xlink" width="48" height="48"><linearGradient id="a"><stop offset="0" stop-color="#333538"/><stop offset="1" stop-color="#566069"/></linearGradient><linearGradient id="b"><stop offset="0" stop-color="#d3d3d3"/><stop offset="1" stop-color="#fcf9f9"/></linearGradient><linearGradient id="c" x1="400.954" x2="400.954" y1="545.223" y2="517.223" gradientUnits="userSpaceOnUse" xlink:href="#a"/><linearGradient x1="2.819" x2="11.758" y1="1044.298" y2="1044.298" gradientUnits="userSpaceOnUse" xlink:href="#a"/><linearGradient id="d" x1="401.664" x2="401.664" y1="517.965" y2="546.334" gradientUnits="userSpaceOnUse"><stop offset="0" stop-color="#00cafe"/><stop offset="1" stop-color="#1460f3"/></linearGradient><linearGradient id="e" x1="400.396" x2="400.396" y1="545.619" y2="517.619" gradientUnits="userSpaceOnUse" xlink:href="#b"/><linearGradient id="f" x1="400.524" x2="400.524" y1="546.266" y2="517.048" gradientUnits="userSpaceOnUse" xlink:href="#b"/><linearGradient id="g" x1="282.545" x2="282.545" y1="595.051" y2="567.051" gradientUnits="userSpaceOnUse"><stop offset="0" stop-color="#8d3aff"/><stop offset="1" stop-color="#ff3680"/></linearGradient><linearGradient id="h"><stop offset="0" stop-color="#00a199"/><stop offset="1" stop-color="#00f89a" stop-opacity=".988"/></linearGradient><linearGradient id="i" x1="236.74" x2="236.74" y1="624.161" y2="605.978" gradientUnits="userSpaceOnUse" xlink:href="#h"/><linearGradient id="j" x1="381.47" x2="381.47" y1="569.542" y2="539.754" gradientUnits="userSpaceOnUse" xlink:href="#h"/><linearGradient id="k" x1="400.537" x2="400.537" y1="545.226" y2="518.115" gradientUnits="userSpaceOnUse" xlink:href="#b"/><linearGradient id="l" x1="400.703" x2="401.305" y1="549.23" y2="517.153" gradientUnits="userSpaceOnUse"><stop offset="0" stop-color="#ccc"/><stop offset="1" stop-color="#fff"/></linearGradient><linearGradient id="m" x1="400.954" x2="400.954" y1="547.213" y2="517.223" gradientUnits="userSpaceOnUse"><stop offset="0" stop-color="#e3e3e3"/><stop offset="1" stop-color="#fcf9f9"/></linearGradient><linearGradient id="n" x1="400.682" x2="400.61" y1="545.309" y2="518.117" gradientUnits="userSpaceOnUse" xlink:href="#b"/><g fill="url(#c)" transform="matrix(1.569970343761 0 0 1.569970343761 -605.097515035022 -810.977878778761)"><g fill="url(#e)" stroke-width="1.3" transform="matrix(.96824701 0 0 .96824701 12.85452 16.931294)"><circle cx="400.571" cy="531.798" r="14" fill="url(#e)"/><circle cx="400.571" cy="531.798" r="14" fill="url(#d)" stroke="url(#d)" stroke-width="1"/><circle cx="400.571" cy="531.798" r="0" fill="url(#e)"/></g><circle cx="400.707" cy="531.843" r="0" fill="url(#k)"/><circle cx="282.72" cy="581.229" r="0" fill="none" stroke="url(#g)" stroke-width="1.3"/><circle cx="298.868" cy="581.887" r="0" fill="url(#i)" stroke="url(#i)" stroke-width="1.381"/><circle cx="380.868" cy="554.581" r="0" fill="url(#j)" stroke="url(#j)" stroke-width="1.381"/><path fill="#000" fill-opacity=".078" d="m405.82122 519.48815c-1.28284-.0105-2.88267.72353-4.67468 2.16029-.38996.31309-.82186.70614-1.26136 1.12665l-1.40682-1.40681c-.14213-.14213-.37674-.31577-.75349-.5675-.59259-.39893-1.25831-.72822-1.80143-.8882-.43682-.13069-1.03023-.1634-1.44974-.10134a13.555417 13.555417 0 0 0 -1.49742.91681c-.2819.35484-.49896.79892-.65453 1.35079-.1783.87756-.17034.83633-.19075 2.24495.0111.43307.0249.65404.0429.89177-1.81311.44757-3.20377 1.06814-4.13699 1.8527a13.555417 13.555417 0 0 0 -.82741 3.62195c.16753.27786.37839.55007.64142.8131l3.94504 3.94505c-.44993 1.36128-.72719 2.63426-.78447 3.70183-.0556.97522.0337 1.77817.27182 2.41662a13.555417 13.555417 0 0 0 9.42328 3.83178 13.555417 13.555417 0 0 0 13.5555-13.5555 13.555417 13.555417 0 0 0 -1.929-6.93989l-4.68423-4.68422a13.555417 13.555417 0 0 0 -1.27686-.6748c-.17664-.0347-.3595-.0544-.5508-.0561z"/><path fill="url(#n)" d="m405.22943 531.24031c.16239-1.08544-.66416-1.66894-1.79434-2.05821l.36662-1.47036-.89512-.22305-.35692 1.43162c-.23532-.0587-.47701-.11395-.71717-.16876l.35948-1.44104-.89461-.22305-.36686 1.46985c-.19478-.0444-.38599-.0882-.5716-.13435l.00081-.005-1.23445-.30821-.23812.95595s.66414.15218.65012.16161c.36252.0905.42805.33037.4171.52055l-.41761 1.67506c.0249.007.0574.0156.0931.0298-.0298-.008-.0617-.0155-.0946-.0235l-.58535 2.34652c-.0444.11012-.15679.27531-.41022.21259.009.013-.65061-.16238-.65061-.16238l-.44437 1.02451 1.16485.29036c.2167.0542.42908.11114.63813.16467l-.37045 1.48718.89411.22307.36686-1.47139c.24424.0662.48135.12746.71335.18508l-.36559 1.46449.89512.22306.37043-1.48439c1.52637.28882 2.67415.17232 3.15726-1.20805.38931-1.11144-.0194-1.75256-.82245-2.17063.58484-.13485 1.0254-.51952 1.14293-1.31409zm-2.04519 2.86757c-.27662 1.11143-2.14818.51059-2.75496.35994l.49154-1.97026c.60676.15143 2.55252.45121 2.26342 1.61032zm.27687-2.88364c-.2524 1.01102-1.81013.49735-2.31544.37143l.44566-1.78697c.5053.12591 2.13262.36096 1.86978 1.41554z"/><g fill="url(#m)" transform="matrix(.95833315 0 0 .95833315 16.696172 22.160241)"><g fill="url(#l)"><path d="m394.68461 528.77238c.18012-.29655.5272-.81936.77214-1.17522.24492-.36026.44152-.6645.44152-.68647l.94742-1.22698.11532-.13729c1.18402-1.51901 2.90073-3.29504 4.20447-4.34176 2.49324-1.99898 4.62951-2.69423 6.1013-1.98251.83254.3987 1.35535 1.22246 1.56184 2.44162.13289.7941.0253 2.67776-.18013 3.20936-.0692.18013-.29985.31303-.54917.31303-.15487 0-.23615-.0296-.35587-.14169-.14608-.12411-.15486-.16256-.15486-.41627 0-.15048.0385-.58761.0857-.96544.14169-1.09834.0428-2.1286-.25262-2.7162-.15048-.28777-.44593-.59201-.70844-.71612-.1933-.0989-.29985-.11204-.74687-.11204-.48107 0-.57443.0176-1.03793.18013-1.45421.49755-3.1193 1.69036-4.9129 3.5136-.34707.35147-.8534.90064-1.13678 1.23125l-.5272.592-.91558 1.16311-.32621.43714c-.82644 1.1687-1.59848 2.36968-2.3208 3.60367l-.71333 1.40371c-.0857.0901-.71611 1.45422-1.04671 2.26919-.55797 1.37292-.94788 2.67775-1.17085 3.93426-.14607.7897-.15486 2.31641-.022 2.79309.30864 1.09834.98302 1.56184 2.03413 1.38171.75895-.1285 1.67277-.54038 2.64701-1.20158.42945-.29216.54477-.34379.71172-.34379.25701 0 .44593.1373.53599.38663.0604.16693.0604.21856 0 .37783-.0604.15925-.15926.24931-.61397.55356-.63045.42946-1.71232.97863-2.25709 1.15436-1.44543.4635-2.57013.29216-3.36752-.50634-.72931-.73369-1.03025-1.91771-.9358-3.57401.11534-2.14946 1.0731-5.08862 2.56573-7.97177l.37344-.72052.77261-1.41471c.034-.0385.20648-.29985.38222-.58761"/><path d="m396.48381 525.34124c-.93195.0463-.92452.0399-2.24847.24235-.83937.18092-1.82602.39069-2.09375.44973-1.64751.40308-2.86997.9226-3.74534 1.57941-1.7244 1.29604-1.26969 2.75465 1.31252 4.20885.41187.23614.50633.36026.50633.66889 0 .15926-.0296.22296-.16255.35586-.28338.28338-.54477.22297-1.42016-.31742-1.2609-.78531-2.0594-1.67277-2.34276-2.61735-.10324-.34378-.10324-1.03354 0-1.38171.14608-.50195.39869-.90065.85341-1.35536 1.01267-1.02146 2.69863-1.80678 5.00735-2.33398 1.11588-.22863 1.11717-.24585 1.9254-.37345 1.11153-.13289 2.06818-.22736 2.65579-.2614 1.67893-.0739 2.65581-.0736 2.65581-.0736 6.30669.15046 11.62267 1.60028 14.12799 3.84859.56235.50634 1.05112 1.2609 1.18842 1.84961.0725.29985.0769.87977.005 1.18841-.25701 1.14117-1.51462 2.26917-3.35105 2.99517-.29216.11534-.34708.12412-.51073.0769-.25261-.0769-.42067-.29216-.42067-.54918 0-.30423.1417-.45031.6689-.67327 1.13679-.47669 2.02096-1.14558 2.35595-1.78921.11971-.21857.1329-.30424.1329-.6612 0-.36466-.0132-.43714-.15927-.71173-.20186-.3943-.87515-1.06868-1.4331-1.43772-2.73707-1.80678-7.89819-2.9864-13.11203-2.9864h-.85781"/><path d="m404.74389 545.24431c-1.08352-.17793-2.32877-.88801-3.6244-2.03056s-2.64164-2.71757-3.9267-4.62539c-1.07639-1.60029-2.17912-3.57841-3.00887-5.51132-1.04813-2.16266-1.85063-4.66388-2.20496-6.73745-.17837-1.1853-.192-1.23235-.22061-2.34277.0213-1.46986.0126-1.42705.19866-2.34276.34707-1.23125.97422-1.96933 1.97371-2.31201.40749-.1373 1.22685-.11534 1.78481.0516.56674.16694 1.2609.51072 1.87926.927.73809.49315.95666.69964.98631.93908.0692.54917-.49315.84572-.95665.49755-1.44982-1.07638-2.48445-1.49265-3.317-1.31692-.60519.12851-1.06429.74688-1.29605 1.74198-.0944.39431-.10763.58323-.10763 1.56623.18925 4.43857 2.45182 9.21008 4.00109 11.98727.73861 1.32323 1.69218 2.6798 2.57811 3.96313.88593 1.28332 1.854 2.43349 2.92113 3.22412 1.06712.79062 1.93679 1.36996 3.21899 1.21509.36245-.17795 1.34355-.74453 1.60885-1.47898.19648-.54393.37628-1.52496.43554-2.30446.15433-2.02996.0713-2.57174.46715-2.88724.78157-.51177.39942 4.20687.28409 4.83732-.18892 1.00828-.81423 1.72353-1.32057 2.23865-.62167.62167-1.42456.85781-2.37681.70404"/></g><path fill="none" stroke="url(#f)" stroke-width="1.357" d="m415.31529 531.84308a14.608653 14.608653 0 0 1 -14.60866 14.60865 14.608653 14.608653 0 0 1 -14.60865-14.60865 14.608653 14.608653 0 0 1 14.60865-14.60865 14.608653 14.608653 0 0 1 14.60866 14.60865z"/></g></g></svg>