<svg xmlns="http://www.w3.org/2000/svg" xmlns:xlink="http://www.w3.org/1999/xlink" width="48" height="48"><linearGradient id="a"><stop offset="0" stop-color="#d3d3d3"/><stop offset="1" stop-color="#fcf9f9"/></linearGradient><linearGradient id="b" x1="3.719" x2="3.719" y1="50.955" y2="5.106" gradientUnits="userSpaceOnUse"><stop offset="0" stop-color="#3889e9"/><stop offset="1" stop-color="#5ea5fb"/></linearGradient><linearGradient id="c" x1="22.235" x2="30.697" y1="35.422" y2="17.206" gradientUnits="userSpaceOnUse" xlink:href="#a"/><linearGradient id="d" x1="23.252" x2="9.069" y1="35.016" y2="11.756" gradientUnits="userSpaceOnUse" xlink:href="#a"/><linearGradient id="e" x1="-93.858" x2="-93.858" y1="72.441" y2="26.57" gradientUnits="userSpaceOnUse"><stop offset="0" stop-color="#8d3aff"/><stop offset="1" stop-color="#ff3680"/></linearGradient><circle cx="5.356" cy="28.031" r="0" fill="url(#b)" stroke-width="1.637"/><circle cx="17.48" cy="30.564" r="0" fill="#fff" fill-opacity=".847"/><circle cx="-93.571" cy="49.798" r="0" fill="none" stroke="url(#e)" stroke-width="2.13"/><circle cx="24" cy="24" r="24" fill="#bb2fec" fill-opacity=".935" stroke-width=".138"/><path fill="url(#c)" d="m20.909051 14.827401c-.77464.21739-1.3982 1.08184-1.3982 1.92163v13.31356c-.7855-.43065-1.79428-.6048-2.84014-.32019-1.88723.51341-3.06989 2.17277-2.66535 3.70584.40456 1.53298 2.26368 2.38924 4.15098 1.87571 1.50561-.40959 2.5435-1.56861 2.70899-2.79078l.0441-12.5816 9.78749-2.74509v9.92807c-.78549-.43068-1.79426-.60481-2.84016-.32031-1.88721.51344-3.06984 2.17288-2.66532 3.70586.40458 1.53307 2.2637 2.38922 4.15094 1.87579 1.50564-.40959 2.54352-1.56858 2.70903-2.79076l.0443-16.37903c0-.62973-.37172-1.10087-.87387-1.18949l-10.31181 2.79079z" opacity=".9"/><circle cx="24" cy="24" r="22.935" fill="none" stroke="url(#d)" stroke-width="2.13"/></svg>