<svg xmlns="http://www.w3.org/2000/svg" xmlns:xlink="http://www.w3.org/1999/xlink" width="48" height="48" viewBox="0 0 48 48"><linearGradient id="a" x1="11.976" x2="11.522" y1="41.732" y2="5.543" gradientUnits="userSpaceOnUse"><stop offset="0" stop-color="#fd415a"/><stop offset="1" stop-color="#f55"/></linearGradient><path fill-opacity=".667" d="m17.19989 6.2163793c-.11773-.003-.25993.002-.44479.002h-13.95956c-.43765 0-.79054.35537-.79054.79594v4.8512697c-.00065.0184-.005.0355-.005.054v29.33993c0 .84441.68084 1.52526 1.52525 1.52526h40.9513c.8444 0 1.52345-.68085 1.52345-1.52526v-29.33993c0-.8444-.67905-1.52525-1.52345-1.52525h-24.45265c-.0145-.0194-.0242-.0298-.0396-.0504-.56424-.7601697-1.41637-2.8095997-1.97184-3.5511197-.3344-.48691-.45896-.56699-.81215-.57624z"/><path fill="url(#a)" d="m17.19989 5.2161793c-.11773-.003-.25993.002-.44479.002h-13.95956c-.43765 0-.79054.35537-.79054.79594v4.8512697c-.00065.0184-.005.0355-.005.054v29.33993c0 .84441.68084 1.52526 1.52525 1.52526h40.9513c.8444 0 1.52345-.68085 1.52345-1.52526v-29.33993c0-.8444-.67905-1.5252497-1.52345-1.5252497h-24.45265c-.0145-.0194-.0242-.0298-.0396-.0504-.56424-.76017-1.41637-2.8096-1.97184-3.55112-.3344-.48691-.45896-.56699-.81215-.57624z"/><g fill="#fff"><circle cx="14" cy="8.497" r="1.781" fill-opacity=".852"/><circle cx="9.623" cy="8.535" r="1.781" fill-opacity=".852"/><circle cx="5.322" cy="8.577" r="1.781" fill-opacity=".852"/><path d="m18.856082 17.785194-3.507001 15.556589h2.849456l1.655212-6.962101h7.777961l-7.284186 6.520898 1.89924 2.18672.972644-.501176c1.839347-.945694 2.610754-.392738 4.006235-.0053 1.357617.37676 2.633914.779992 5.2818-.746319l-.52585-2.693938c-2.889785 2.05469-3.804001.221507-5.862219.148731l5.892032-4.985669.639513-2.661861h-12.343056l.794567-3.194501h8.090064l.554813-2.661663h-10.891677z"/></g></svg>