<svg xmlns="http://www.w3.org/2000/svg" xmlns:xlink="http://www.w3.org/1999/xlink" width="48" height="48"><linearGradient id="a"><stop offset="0" stop-color="#178aff"/><stop offset="1" stop-color="#1bbded"/></linearGradient><linearGradient id="b"><stop offset="0" stop-color="#3889e9"/><stop offset="1" stop-color="#5ea5fb"/></linearGradient><linearGradient id="c" x1="399.571" x2="399.571" y1="545.798" y2="517.798" gradientUnits="userSpaceOnUse" xlink:href="#b"/><linearGradient id="d" x1="402.807" x2="402.807" y1="537.646" y2="494.017" gradientUnits="userSpaceOnUse" xlink:href="#a"/><linearGradient id="e" x1="353.029" x2="353.029" y1="537.518" y2="488.676" gradientUnits="userSpaceOnUse" xlink:href="#b"/><linearGradient id="f" x1="189.672" x2="189.672" y1="541.151" y2="485.88" gradientUnits="userSpaceOnUse" xlink:href="#b"/><linearGradient id="g" x1="403.05" x2="403.05" y1="540.33" y2="491.489" gradientUnits="userSpaceOnUse" xlink:href="#b"/><linearGradient id="h" x1="339.848" x2="339.848" y1="544.415" y2="495.573" gradientUnits="userSpaceOnUse" xlink:href="#b"/><linearGradient id="i" x1="340.316" x2="340.316" y1="535.892" y2="490.674" gradientUnits="userSpaceOnUse" xlink:href="#b"/><linearGradient id="j" x1="400.293" x2="400.293" y1="532.258" y2="485.451" gradientUnits="userSpaceOnUse" xlink:href="#b"/><linearGradient id="k" x1="243.744" x2="243.744" y1="535.739" y2="482.771" gradientUnits="userSpaceOnUse" xlink:href="#b"/><linearGradient id="l" x1="448.23" x2="448.23" y1="534.953" y2="488.146" gradientUnits="userSpaceOnUse" xlink:href="#b"/><linearGradient id="m" x1="387.662" x2="387.662" y1="538.867" y2="492.061" gradientUnits="userSpaceOnUse" xlink:href="#b"/><linearGradient id="n" x1="353.975" x2="354.162" y1="535.723" y2="495.793" gradientUnits="userSpaceOnUse"><stop offset="0" stop-color="#0c275c"/><stop offset="1" stop-color="#1072c0"/></linearGradient><linearGradient id="o" x1="274.705" x2="274.705" y1="539.19" y2="497.573" gradientUnits="userSpaceOnUse" xlink:href="#b"/><linearGradient id="p" x1="185.824" x2="185.824" y1="539.048" y2="490.299" gradientUnits="userSpaceOnUse" xlink:href="#b"/><linearGradient id="q" x1="318.281" x2="318.281" y1="541.928" y2="498.849" gradientUnits="userSpaceOnUse" xlink:href="#b"/><linearGradient id="r" x1="374.025" x2="374.025" y1="538.325" y2="495.246" gradientUnits="userSpaceOnUse" xlink:href="#b"/><linearGradient id="s" x1="329.906" x2="329.906" y1="535.844" y2="492.766" gradientUnits="userSpaceOnUse" xlink:href="#b"/><linearGradient id="t" x1="334.589" x2="342.431" y1="506.007" y2="501.554" gradientUnits="userSpaceOnUse" xlink:href="#a"/><linearGradient id="u" x1="347.381" x2="353.986" y1="508.826" y2="508.826" gradientUnits="userSpaceOnUse" xlink:href="#a"/><linearGradient id="v" x1="516.322" x2="477.791" y1="486.263" y2="-33.617" gradientTransform="matrix(.03558702 .03636645 -.03631138 .03553315 357.20816 499.3952)" gradientUnits="userSpaceOnUse"><stop offset="0" stop-color="#6448cf" stop-opacity="0"/><stop offset=".5" stop-color="#3d79e3"/><stop offset="1" stop-color="#02c3ff"/></linearGradient><linearGradient id="w" x1="342.625" x2="359.162" y1="518.848" y2="518.848" gradientUnits="userSpaceOnUse"><stop offset="0" stop-color="#5043e2" stop-opacity=".608"/><stop offset="1" stop-color="#418dff"/></linearGradient><linearGradient id="x" x1="276.075" x2="263.68" y1="521.298" y2="24.896" gradientTransform="matrix(.08169143 0 0 .08156773 332.63903 496.83664)" gradientUnits="userSpaceOnUse"><stop offset="0" stop-color="#7137c8"/><stop offset="1" stop-color="#02c3ff"/></linearGradient><circle cx="400.571" cy="531.798" r="0" fill="url(#c)" transform="matrix(1.637466544097 0 0 1.637466544097 -644.580187175317 -848.719334054169)"/><g fill="url(#d)" stroke-width=".891" transform="matrix(.971713756594 0 0 .971713756594 -366.319354254326 -477.190244804165)"><g fill="url(#d)" transform="translate(47.076375 .460893)"><circle cx="191.646" cy="513.515" r="0" fill="url(#f)"/><circle cx="341.592" cy="519.994" r="0" fill="url(#h)"/><circle cx="404.794" cy="515.909" r="0" fill="url(#g)"/><circle cx="354.773" cy="513.097" r="0" fill="url(#e)"/><circle cx="341.931" cy="513.283" r="0" fill="url(#i)"/><circle cx="245.635" cy="509.255" r="0" fill="url(#k)"/><circle cx="389.334" cy="515.464" r="0" fill="url(#m)"/><circle cx="449.902" cy="511.549" r="0" fill="url(#l)"/><circle cx="401.965" cy="508.854" r="0" fill="url(#j)"/><circle cx="276.191" cy="518.381" r="0" fill="url(#o)"/><circle cx="187.565" cy="514.674" r="0" fill="url(#p)"/><circle cx="319.819" cy="520.388" r="0" fill="url(#q)"/><circle cx="375.564" cy="516.786" r="0" fill="url(#r)"/><circle cx="331.444" cy="514.305" r="0" fill="url(#s)"/><circle cx="355.036" cy="516.605" r="20.543" fill="url(#n)"/><path fill="url(#x)" d="m376.24766 515.6261c.50976-5.76261-5.65625-14.46308-8.22587-18.71247-.64879.47442-1.01283 1.64151-1.01283 1.64151-3.82225-3.02548-3.44877-3.74554-5.05503-5.87711-11.90721 17.48757 12.12413 16.06798 1.80245 30.37368-.16942.10645-.16423-.83826-1.04542-2.20026-1.12019 5.34218-8.35533 8.77564-13.94092 3.61566 1.65368.35939 4.79317-.0559 6.18282-1.0882.002-.00089.003-.003.005-.003 1.50909-1.03029 2.40271-1.78259 3.20524-1.60461.80304.17896 1.33762-.62571.71391-1.33959-.62445-.71526-2.14057-1.69831-4.19184-1.16266-1.44659.37831-3.23939 1.97647-5.97572.35825-2.10029-1.2426-2.29807-2.27485-2.31669-2.98979.0518-.25342.11714-.49006.19467-.70629.24172-.67416.97482-.87759 1.38255-1.0382.69168.11861 1.28753.33402 1.91329.65451.008-.20792.0107-.48394-.00081-.797.06-.11901.0228-.47799-.0733-.91682-.0554-.43794-.1455-.89106-.28731-1.30386.00053-.00008.00089-.00045.00089-.00063.003-.00089.004-.002.007-.003.003-.002.006-.004.009-.008.00054-.00089.00089-.002.002-.002.003-.005.006-.0115.009-.0198.0434-.19617.51156-.57456 1.09427-.98134.52216-.36452 1.13608-.75181 1.61969-1.05156.42806-.26543.75392-.46234.82321-.51397.0262-.0198.0578-.043.0921-.0695.006-.005.0128-.01.0193-.0151.004-.004.008-.006.0122-.01.23013-.18304.57372-.5288.64577-1.25656.00018-.002.00045-.003.00054-.005.002-.0213.003-.043.005-.0652.00089-.0153.002-.0309.004-.0466.00062-.0121.002-.0241.002-.0363.00089-.0288.002-.058.003-.0877 0-.002.00008-.003.00018-.005.00089-.0705-.00027-.14388-.004-.22097-.003-.043-.005-.0819-.0126-.11729-.00036-.002-.0009-.004-.0009-.006-.0008-.003-.002-.007-.003-.0103-.002-.006-.004-.0124-.005-.0183-.00027-.0008-.00054-.002-.0008-.002-.002-.007-.004-.0134-.007-.0197-.00018-.00027-.00018-.00045-.00027-.00072-.0746-.17447-.35398-.24038-1.50795-.25995-.00089-.00008-.002-.00008-.004-.00008-.47086-.008-1.08658-.008-1.89353-.005-1.41464.005-2.1966-1.38086-2.44616-1.91733.34212-1.88878 1.33075-3.23473 2.95486-4.14747.0307-.0173.0247-.0316-.0116-.0415.31754-.19185-3.83974-.005-5.75189 2.42313-1.69714-.42133-3.17633-.39294-4.45113-.0942-.24482-.007-.54986-.0373-.912-.11264-.84788-.76706-2.06157-2.18373-2.12659-3.87479 0 0-.004.004-.0107.009-.00089-.0162-.003-.0323-.004-.0485 0 0-2.58333 1.98243-2.19668 7.38703-.00089.0865-.003.16933-.005.24959-.69911.94684-1.04606 1.74269-1.07188 1.91839-.6193 1.2594-1.24792 3.15463-1.75946 6.03185 0 0 .35772-1.13281 1.07579-2.41587-.50707 5.66486-.056 9.38235 2.81317 14.47191 6.61199 10.27863 17.04624 12.17719 25.57534 9.06876 8.5291-3.10844 15.15306-11.22386 14.14444-20.97321z"/><path fill="url(#t)" fill-rule="evenodd" d="m335.42936 507.53286c1.10674-2.04323 2.14674-3.38372 4.4038-3.78364-1.2695-1.21037-1.63105-1.88313-2.21553-3.95218-2.25794 2.44236-2.24302 4.9798-2.18827 7.73582z"/><path fill="url(#u)" fill-rule="evenodd" d="m349.50143 512.64137c1.31593-1.7304 5.43012-2.66725 4.22204-5.05277-2.83362-.72209-4.60947.62164-5.73571-2.03782-.9723 3.74779.33702 5.55342 1.51367 7.09059z"/><path fill="url(#w)" fill-rule="evenodd" d="m347.13609 515.08881c-5.54075.55058-4.58501 3.5259-4.19273 6.50227l1.41859-1.18187c.99549 2.89511 6.87239 2.43209 10.13037 1.41902 1.48406-.46148 2.80296-.34796 3.37705-.11275 1.61672.34695 1.50868-1.02301.80182-1.43068-3.86977-4.40535-7.44364 4.06163-12.2132-3.12935-.29159-.43963-.004-1.16012.6781-2.06664z"/><path fill="url(#v)" d="m369.95064 503.83311c2.51891 8.65871-.21547 5.83294.0806 12.75208-1.6925-.69727-1.24678-3.91165-.70709-3.93858-7.00303 5.50935-4.36608 10.51795-6.96663 12.58576-7.64972 5.81307-6.24664 4.93528-6.36596 5.09317 1.97739 3.55205 4.81022 4.73596 7.00117 5.53764 10.75588-3.74945 15.5384-13.56169 12.83766-23.97627-.51777-2.70584-1.63835-5.73226-5.87976-8.0538z"/></g></g></svg>