<svg xmlns="http://www.w3.org/2000/svg" xmlns:xlink="http://www.w3.org/1999/xlink" width="48" height="48"><linearGradient id="a" x1="409.537" x2="409.537" y1="544.228" y2="502.984" gradientUnits="userSpaceOnUse"><stop offset="0" stop-color="#049b78"/><stop offset="1" stop-color="#40ca85"/></linearGradient><linearGradient id="b" x1="399.571" x2="399.571" y1="545.798" y2="517.798" gradientUnits="userSpaceOnUse"><stop offset="0" stop-color="#3889e9"/><stop offset="1" stop-color="#5ea5fb"/></linearGradient><g transform="matrix(1.1638089 0 0 1.1638089 -451.386094 -585.261857)"><rect width="41.244" height="41.244" x="387.884" y="502.984" fill="url(#a)" ry="20.622"/><path fill="#fdfdfd" fill-opacity=".855" d="m471.11732 530.73981c-.76741.21527-1.38522 1.07176-1.38522 1.90367v13.19006c-.77819-.42666-1.77761-.59922-2.81376-.31728-1.86973.50868-3.04139 2.15267-2.64059 3.67146.40079 1.51871 2.24266 2.36706 4.11239 1.85838 1.49167-.40583 2.5199-1.55412 2.68388-2.76492l.0433-12.46485 9.69662-2.71956v9.83584c-.77819-.42665-1.77762-.59916-2.81374-.31728-1.86976.50868-3.04141 2.15268-2.6406 3.67145.40079 1.51878 2.24266 2.36712 4.1124 1.85838 1.49166-.40578 2.51989-1.55407 2.68388-2.76492l.0433-16.2269c0-.62395-.36827-1.09074-.86578-1.17852z" transform="matrix(.632713116194 0 0 .632713116194 108.430581933175 182.707163119449)"/><circle cx="400.571" cy="531.798" r="0" fill="url(#b)" transform="matrix(1.406989153439 0 0 1.406989153439 -165.956746462611 -225.975638433768)"/><path fill="#fff" fill-opacity=".863" d="m46.907 20.12c-.163-.347-.511-.569-.896-.569h-2.927c-1.861-10.099-10.729-17.776-21.358-17.776-11.979 0-21.726 9.747-21.726 21.726s9.746 21.725 21.726 21.725c7.731 0 14.941-4.161 18.816-10.857.546-.945.224-2.152-.722-2.699-.944-.547-2.152-.225-2.697.72-3.172 5.481-9.072 8.887-15.397 8.887-9.801 0-17.776-7.974-17.776-17.774 0-9.802 7.975-17.776 17.776-17.776 8.442 0 15.515 5.921 17.317 13.825h-2.904c-.385 0-.732.222-.896.569-.163.347-.11.756.136 1.051l4.938 5.925c.188.225.465.355.759.355.293 0 .571-.131.758-.355l4.938-5.925c.246-.296.298-.705.135-1.052z" transform="matrix(-.672353143487 0 0 .672353143487 423.630511727159 508.243175522512)"/></g></svg>