<svg xmlns="http://www.w3.org/2000/svg" xmlns:xlink="http://www.w3.org/1999/xlink" width="48" height="48"><linearGradient id="a" x1="399.571" x2="399.571" y1="545.798" y2="517.798" gradientUnits="userSpaceOnUse"><stop offset="0" stop-color="#3889e9"/><stop offset="1" stop-color="#5ea5fb"/></linearGradient><linearGradient id="b" x1="400.556" x2="400.556" y1="546.927" y2="516.475" gradientUnits="userSpaceOnUse"><stop offset="0" stop-color="#fc5500"/><stop offset="1" stop-color="#ffad00"/></linearGradient><g transform="matrix(1.486561752901 0 0 1.487531106051 -571.49794341344 -767.217803628247)"><circle cx="400.571" cy="531.798" r="0" fill="url(#a)"/><g transform="matrix(1.0508504 0 0 1.0508504 -20.353166 -26.940048)"><circle cx="400.571" cy="531.798" r="14" fill="url(#b)" stroke="url(#b)" stroke-width="1.427"/><circle cx="400.571" cy="531.798" r="0" fill="url(#a)" transform="matrix(1.55822993102 0 0 1.55822993102 -264.298285246431 -296.910724934234)"/></g></g><path fill="#fff" fill-opacity=".863" d="m391.84218 540.91306c-.42081-.32855-.94932-.52413-1.52328-.52413-1.35134 0-2.45088 1.08433-2.48542 2.43509-1.39488.52618-2.38765 1.87965-2.38765 3.46634 0 1.87433 1.38537 3.42322 3.18243 3.66739v.0335h12.72968v-.006c1.77487-.10355 3.18242-1.58396 3.18242-3.39503 0-1.74659-1.30911-3.18565-2.9943-3.37879.007-.10647.0108-.21389.0108-.32212 0-2.70685-2.27081-4.90117-5.07199-4.90117-2.07343 0-3.85626 1.20226-4.64268 2.9247z" transform="matrix(1.67587257042 0 0 1.684875828192 -637.958093033367 -892.555088238944)"/></svg>