<svg xmlns="http://www.w3.org/2000/svg" xmlns:xlink="http://www.w3.org/1999/xlink" viewBox="0 0 48 48"><linearGradient id="a" x1="-989.666" x2="-1003.636" y1="433.284" y2="317.355" gradientTransform="matrix(.9997764 0 0 .9863347 -.832882 5.995869)" gradientUnits="userSpaceOnUse"><stop offset="0" stop-color="#1584d8"/><stop offset="1" stop-color="#1cb2ff"/></linearGradient><linearGradient id="b" x1="-1092.912" x2="-1060.255" y1="203.099" y2="104.853" gradientTransform="matrix(.99833895 0 0 .98513314 -2.169195 6.701717)" gradientUnits="userSpaceOnUse"><stop offset="0" stop-color="#6c7482"/><stop offset="1" stop-color="#868d97"/></linearGradient><g transform="translate(-384.897446 -499.850299)"><rect width="89.616" height="112.933" x="-1100.904" y="117.574" fill="url(#b)" ry="2.756" transform="matrix(.337970107118 -.112142707714 .109393315233 .338870005937 744.854826091344 346.340728859107)"/><rect width="99.803" height="121.239" x="-1046.299" y="317.974" fill="url(#a)" ry="2.959" transform="matrix(.353278022467 -.044658898987 .049073619097 .352691874194 744.854826091344 346.340728859107)"/><g fill="#fff" fill-opacity=".843"><g fill="#fff" fill-opacity=".843" transform="matrix(.792724524934 -.13731628657 .13731628657 .792724524934 389.071262866595 509.517045164002) matrix(1.5511965 0 0 1.552208 -597.389819 -801.619437)"><circle cx="400.571" cy="531.798" r="0" fill="#fff" fill-opacity=".843"/><circle cx="-354.848" cy="481.913" r="0" fill="#fff" fill-opacity=".843" transform="matrix(.108621329564 0 0 .108621329564 396.375174935975 479.506408870929)"/></g><g fill="#fff" fill-opacity=".843" transform="matrix(.792724524934 -.13731628657 .13731628657 .792724524934 389.071262866595 509.517045164002) matrix(.03003808 0 0 .03003808 10.000002 10.000002)"><path fill="#fff" fill-opacity=".843" d="m466.075 161.525c-205.6 0-382.8 121.2-464.2 296.1-2.5 5.3-2.5 11.5 0 16.9 81.4 174.899 258.601 296.1 464.2 296.1s382.8-121.2 464.2-296.1c2.5-5.3 2.5-11.5 0-16.9-81.4-174.9-258.6-296.1-464.2-296.1zm0 514.701c-116.1 0-210.1-94.101-210.1-210.101 0-116.1 94.1-210.1 210.1-210.1 116.1 0 210.1 94.1 210.1 210.1s-94.1 210.101-210.1 210.101z"/><circle cx="466.075" cy="466.025" r="134.5" fill="#fff" fill-opacity=".843"/></g></g></g></svg>