<svg xmlns="http://www.w3.org/2000/svg" xmlns:svg="http://www.w3.org/2000/svg" id="svg87" width="48" height="48" version="1.1"><metadata id="metadata93"/><defs id="defs91"><linearGradient id="a-3" x1="265.454" x2="265.652" y1="913.036" y2="791.882" gradientTransform="matrix(0.39506127,0,0,0.37017552,-141.87744,-284.31494)" gradientUnits="userSpaceOnUse"><stop id="stop2-6" offset="0" stop-color="#197ff1"/><stop id="stop4-7" offset="1" stop-color="#21c6fb"/></linearGradient></defs><linearGradient id="a" x1="409.571" x2="409.571" y1="542.798" y2="507.798" gradientTransform="matrix(0.99999999,0,0,0.97651009,-384.57145,-488.9707)" gradientUnits="userSpaceOnUse"><stop id="stop2" offset="0" stop-color="#2e3436"/><stop id="stop4" offset="1" stop-color="#555753"/></linearGradient><rect id="rect7" width="44" height="33.201" x="2" y="7.899" fill-opacity=".667" ry="1.562"/><rect id="rect9" width="44" height="33.201" x="2" y="6.899" fill="url(#a)" ry="1.562"/><path id="path21" fill="#3daefd" fill-opacity="1" stroke-width=".836" d="m 4.7476,16.429731 h 1.672801 v 0.8364 H 4.7476 Z"/><path id="path23" fill="#3daefd" fill-opacity="1" stroke-width=".836" d="m 7.256801,16.429731 h 2.509201 v 0.8364 H 7.256801 Z"/><path id="path25" fill="#e5fdff" stroke-width=".836" d="m 12.275203,16.429731 h 2.509209 v 0.8364 h -2.509209 z"/><path id="path27" fill="#e5fdff" stroke-width=".836" d="m 16.457204,16.429731 h 5.018402 v 0.8364 h -5.018402 z"/><path id="path29" fill="#e5fdff" stroke-width=".836" d="m 22.312006,16.429731 h 3.345593 v 0.8364 h -3.345593 z"/><path id="path31" fill="#bdc3c7" stroke-width=".836" d="m 4.7476,18.102531 h 3.345601 v 0.836401 H 4.7476 Z"/><path id="path33" fill="#bdc3c7" stroke-width=".836" d="m 8.929602,18.102531 h 1.6728 v 0.836401 h -1.6728 z"/><path id="path35" fill="#e5fdff" stroke-width=".836" d="m 12.275203,18.102531 h 6.69121 v 0.836401 h -6.69121 z"/><path id="path37" fill="#3daefd" stroke-width=".836" d="m 4.7476,23.957333 h 1.672801 v 0.836401 H 4.7476 Z"/><path id="path39" fill="#3daefd" stroke-width=".836" d="m 7.256801,23.957333 h 2.509201 v 0.836401 H 7.256801 Z"/><path id="path41" fill="#e5fdff" stroke-width=".836" d="m 12.275203,23.957333 h 3.345609 v 0.836401 h -3.345609 z"/><path id="path43" fill="#e5fdff" stroke-width=".836" d="m 17.293604,23.957333 h 3.345601 v 0.836401 h -3.345601 z"/><path id="path45" fill="#e5fdff" stroke-width=".836" d="m 21.475606,23.957333 h 4.181993 v 0.836401 h -4.181993 z"/><path id="path47" fill="#bdc3c7" stroke-width=".836" d="m 4.7476,25.630134 h 2.509193 v 0.8364 H 4.7476 Z"/><path id="path49" fill="#e5fdff" stroke-width=".836" d="m 12.275203,25.630134 h 2.509201 v 0.8364 h -2.509201 z"/><path id="path51" fill="#e5fdff" stroke-width=".836" d="m 15.620804,25.630134 h 0.8364 v 0.8364 h -0.8364 z"/><path id="path53" fill="#e5fdff" stroke-width=".836" d="m 17.293604,25.630134 h 4.182002 v 0.8364 h -4.182002 z"/><g id="g69" transform="matrix(-0.83640027,0,0,0.83640027,-329.45406,-413.31103)"><path id="path55" fill="#e5fdff" d="m -419.57144,533.79797 h 2 v 1 h -2 z"/><path id="path57" fill="#e5fdff" d="m -416.57144,533.79797 h 8.00001 v 1 h -8.00001 z"/><path id="path59" fill="#bdc3c7" d="m -406.57144,533.79797 h 6.99999 v 1 h -6.99999 z"/><path id="path61" fill="#e5fdff" d="m -424.57144,531.79797 h 2 v 1 h -2 z"/><path id="path63" fill="#e5fdff" d="m -421.57144,531.79797 h 3 v 1 h -3 z"/><path id="path65" fill="#e5fdff" d="m -417.57144,531.79797 h 9.00001 v 1 h -9.00001 z"/><path id="path67" fill="#3daefd" d="m -404.57144,531.79797 h 4.99999 v 1 h -4.99999 z"/></g><circle id="circle77" cx="14.366" cy="10.4" r="1.781" fill="#eff0f1"/><circle id="circle79" cx="9.989" cy="10.437" r="1.781" fill="#eff0f1"/><circle id="circle81" cx="5.687" cy="10.48" r="1.781" fill="#eff0f1"/><path id="path9" fill="#3daefd" fill-opacity="1" stroke-width=".018" d="m 30.541631,23.099847 -0.004,-3.900924 4.374838,-0.651802 v 4.552726 z m 5.099993,-4.668976 5.831658,-0.931024 v 5.6 h -5.831658 z m 5.833071,5.468976 -0.0014,5.6 -5.831658,-0.9002 v -4.6998 h 5.833072 z m -6.562212,4.59795 -4.371285,-0.657426 -2.34e-4,-3.940524 h 4.371511 v 4.59795 z"/></svg>