<svg xmlns="http://www.w3.org/2000/svg" xmlns:xlink="http://www.w3.org/1999/xlink" width="48" height="48"><linearGradient id="a"><stop offset="0"/><stop offset="1" stop-color="#333"/></linearGradient><linearGradient id="b" x1="411.565" x2="410.841" y1="548.178" y2="511.534" gradientUnits="userSpaceOnUse" xlink:href="#a"/><linearGradient id="c" x1="408.684" x2="408.59" y1="548.531" y2="499.708" gradientUnits="userSpaceOnUse" xlink:href="#a"/><linearGradient id="d" x1="409.248" x2="409.248" y1="547.163" y2="499.505" gradientUnits="userSpaceOnUse"><stop offset="0" stop-color="#d3d3d3"/><stop offset="1" stop-color="#fcf9f9"/></linearGradient><g><g transform="translate(-384.57143 -499.798) matrix(.92000358 0 0 .92000358 32.672281 41.751942)"><ellipse cx="408.584" cy="523.961" fill="url(#d)" rx="24" ry="24"/><path fill-opacity=".078" fill-rule="evenodd" d="m12.376953 12.005859c-.258822.01189-.382812.05274-.382812.05274-1.29649 3.28219-.480205 5.705712-.234375 6.308594-1.52477 1.666709-2.4531254 3.792771-2.4531254 6.394531 0 4.15374 1.1515274 6.842943 2.9042974 8.595703l6.392578 6.392573c-.901383.397446-2.650635.952726-4.347657.302734l-3.40039-3.40039c-.61336-.61336-1.550489-1.271175-2.792969-1.359375 0 0-1.7626287-.02239-.7929688.947265l2.5761719 2.576172c.2412939.401846.4821069.85602.7011719 1.41211 0 0 .275659.918237 1.167969 1.810546l4.964844 4.964844a23.999903 23.99991 0 0 0 7.333984 1.158203 23.999903 23.99991 0 0 0 24-24 23.999903 23.99991 0 0 0 -.041016-1.162109l-10.941406-10.941406s-1.995985-.641301-6.546875 2.443359c-1.90375-.52826-3.945-.793734-5.96875-.802734-2.02668.0088-4.065967.274474-5.966797.802734-3.415365-2.313495-5.395408-2.531765-6.171875-2.496094z" transform="translate(384.57143 499.798)"/><path fill="url(#b)" fill-rule="evenodd" d="m403.1788 547.27556c0-.56484-.0205-2.06473-.0322-4.05336-6.63025 1.4399-8.02917-3.19587-8.02917-3.19587-1.08431-2.75248-2.64712-3.48558-2.64712-3.48558-2.16424-1.47941.16388-1.45015.16388-1.45015 2.39252.16975 3.65096 2.45689 3.65096 2.45689 2.12618 3.64218 5.57959 2.59005 6.93753 1.98132.21658-1.54087.83117-2.59151 1.51307-3.18708-5.29278-.60142-10.85775-2.64712-10.85775-11.78108 0-2.60176.92921-4.72941 2.45398-6.39612-.24583-.60288-1.06383-3.02612.23266-6.30831 0 0 2.0018-.64094 6.55562 2.44372 1.90083-.52826 3.94068-.79312 5.96736-.80189 2.02375.009 4.06361.27363 5.96736.80189 4.55089-3.08466 6.54831-2.44372 6.54831-2.44372 1.30087 3.28219.48288 5.70543.23705 6.30831 1.5277 1.66671 2.45104 3.79436 2.45104 6.39612 0 9.15737-5.57374 11.17235-10.88407 11.76206.85603.73604 1.61841 2.19057 1.61841 4.41479 0 3.18562-.0292 5.75665-.0292 6.53806"/><ellipse cx="408.584" cy="523.961" fill="none" stroke="url(#c)" stroke-linecap="round" stroke-linejoin="round" stroke-width="2" rx="24" ry="24"/></g></g></svg>