<svg xmlns="http://www.w3.org/2000/svg" xmlns:xlink="http://www.w3.org/1999/xlink" width="48" height="48"><linearGradient id="a" x1="22" x2="22" y1="38.845" y2="8.059" gradientUnits="userSpaceOnUse"><stop offset="0" stop-color="#e52823"/><stop offset="1" stop-color="#f55"/></linearGradient><linearGradient id="b" x1="-292.689" x2="-293.481" y1="1171.113" y2="1135.239" gradientTransform="matrix(.29515269 0 0 .29684987 110.98855 -328.41892)" gradientUnits="userSpaceOnUse"><stop offset="0" stop-color="#dfe3ea"/><stop offset="1" stop-color="#fdfeff"/></linearGradient><linearGradient id="c" x1="-292.891" x2="-292.613" y1="1226.768" y2="1181.605" gradientTransform="matrix(.33519045 0 0 .32524249 123.00375 -360.2461)" gradientUnits="userSpaceOnUse"><stop offset="0" stop-color="#d7dbe1"/><stop offset="1" stop-color="#eaedf1"/></linearGradient><path fill-opacity=".667" stroke-width=".428" d="m3.2851562 9.155016.058594.03711c-.7649842.133274-1.3437502.793384-1.3437502 1.597655v27.533203c0 .900922.7260314 1.625 1.6269531 1.625h3.0253907 34.6503902 3.070313c.900922 0 1.626953-.724078 1.626953-1.625v-27.533203c0-.823601-.608049-1.493407-1.400391-1.603515l.04687-.03125z"/><path fill="url(#a)" stroke-width=".428" d="m3.285156 8.052016.05859.03711c-.76498.133274-1.343746.793384-1.343746 1.597655v27.533203c0 .900922.726031 1.625 1.626953 1.625h3.025391 34.65039 3.070313c.900922 0 1.626953-.724078 1.626953-1.625v-27.533203c0-.823601-.608049-1.493407-1.400391-1.603515l.04687-.03125z"/><path fill="url(#b)" fill-rule="evenodd" stroke-width=".398" d="m4.3953221 8.052016 19.6456869 12.060414 19.2631-12.060414z"/><path fill="url(#c)" fill-rule="evenodd" stroke-width=".428" d="m6.6524009 38.844984v-22.710805l17.4913821 9.779424 17.158219-9.779424v22.710805z"/></svg>