<svg xmlns="http://www.w3.org/2000/svg" xmlns:xlink="http://www.w3.org/1999/xlink" width="48" height="48"><linearGradient id="a" x1="17.353" x2="17.353" y1="1045.049" y2="1007.674" gradientUnits="userSpaceOnUse"><stop offset="0" stop-color="#e42238"/><stop offset="1" stop-color="#fd6820"/></linearGradient><linearGradient x1="0" x2="47" y1="23.5" y2="23.5" gradientUnits="userSpaceOnUse"><stop offset="0" stop-color="#a9a3d4"/><stop offset=".47" stop-color="#87baff"/><stop offset="1" stop-color="#89ec85"/></linearGradient><linearGradient id="b"><stop offset="0" stop-color="#d3d3d3"/><stop offset="1" stop-color="#fcf9f9"/></linearGradient><linearGradient x1="2.819" x2="11.758" y1="1044.298" y2="1044.298" gradientUnits="userSpaceOnUse"><stop offset="0" stop-color="#333538"/><stop offset="1" stop-color="#566069"/></linearGradient><linearGradient id="c" x1="15.881" x2="17.175" y1="1036.698" y2="1016.663" gradientUnits="userSpaceOnUse" xlink:href="#b"/><linearGradient id="d" x1="17.114" x2="17.114" y1="1045.71" y2="1007.484" gradientUnits="userSpaceOnUse" xlink:href="#b"/><linearGradient id="e" x1="-85.288" x2="-85.288" y1="1062.625" y2="1025.992" gradientUnits="userSpaceOnUse"><stop offset="0" stop-color="#8d3aff"/><stop offset="1" stop-color="#ff3680"/></linearGradient><g stroke-width="1.317" transform="matrix(1.199999650171 0 0 1.199999650171 3.176860870631 -1208.208316863007)"><circle cx="-85.059" cy="1044.542" r="0" fill="none" stroke="url(#e)" stroke-width="1.701"/><circle cx="65.41" cy="1026.982" r="0"/><g transform="matrix(.95833325 0 0 .95833325 .723025 42.785097)"><circle cx="17.353" cy="1026.841" r="19.167" fill="url(#a)"/><path fill-opacity=".078" d="m31.294922 12.472656-10.3125 2.791016c-.774641.21744-1.398438 1.081995-1.398438 1.921875v13.3125c-.7855-.43068-1.793984-.604953-2.839843-.320313-1.88723.51336-3.070556 2.173912-2.666016 3.707032.112476.42612.337833.798748.644531 1.105468l11.839844 11.839844a22.999999 22.999999 0 0 0 20.089844-19z" transform="matrix(.83333358 0 0 .83333358 -2.647385 1006.8406)"/><path fill="url(#c)" d="m14.776838 1019.5357c-.645534.1811-1.165167.9015-1.165167 1.6013v11.0947c-.654584-.3589-1.495234-.504-2.366784-.2669-1.5726924.4279-2.5582434 1.8107-2.2211264 3.0882.337133 1.2775 1.8864014 1.9911 3.4591514 1.5631 1.254675-.3413 2.119584-1.3071 2.257492-2.3256l.03675-10.4847 8.156244-2.2876v8.2734c-.654575-.3589-1.495217-.504-2.3668-.2669-1.572676.4279-2.558201 1.8107-2.221101 3.0882.33715 1.2776 1.886417 1.991 3.459118 1.5632 1.2547-.3413 2.1196-1.3072 2.257525-2.3257l.03692-13.6491c0-.5248-.309767-.9174-.728225-.9913l-8.593178 2.3257z" opacity=".9"/><circle cx="17.353" cy="1026.841" r="19.113" fill="none" stroke="url(#d)" stroke-width="1.775"/></g></g></svg>