<svg xmlns="http://www.w3.org/2000/svg" xmlns:xlink="http://www.w3.org/1999/xlink" width="48" height="48" viewBox="0 0 48 48"><linearGradient id="a"><stop offset="0" stop-color="#b3b3b3"/><stop offset="1" stop-color="#f2f2f2"/></linearGradient><linearGradient id="b" x1="23.266" x2="23.201" y1="23.358" y2="4.296" gradientUnits="userSpaceOnUse" xlink:href="#a"/><linearGradient id="c" x1="34.851" x2="34.901" y1="33.277" y2="29.245" gradientUnits="userSpaceOnUse" xlink:href="#a"/><linearGradient id="d" x1="30.335" x2="30.287" y1="39.18" y2="33.682" gradientUnits="userSpaceOnUse" xlink:href="#a"/><radialGradient id="e" cx="14.831" cy="33.775" r="3.49" gradientTransform="matrix(.48584792 .02009349 -.02123823 .51352656 8.543618 14.725836)" gradientUnits="userSpaceOnUse" xlink:href="#a"/><linearGradient id="f" x1="23.904" x2="24.027" y1="44.621" y2="2.061" gradientUnits="userSpaceOnUse"><stop offset="0" stop-color="#00b0ff"/><stop offset="1" stop-color="#40c4ff"/></linearGradient><linearGradient id="g" x1="-37.661" x2="-37.661" y1="70.254" y2="23.746" gradientUnits="userSpaceOnUse"><stop offset="0" stop-color="#3889e9"/><stop offset="1" stop-color="#5ea5fb"/></linearGradient><linearGradient id="h" x1="23.922" x2="23.922" y1="4.393" y2="5.178" gradientUnits="userSpaceOnUse" spreadMethod="repeat"><stop offset="0" stop-color="#333" stop-opacity=".8"/><stop offset="1" stop-color="#333" stop-opacity="0"/></linearGradient><rect width="32.145" height="43.546" x="7.927" y="2.727" fill-opacity=".549" rx="2.217"/><rect width="32.145" height="43.546" x="7.927" y="1.727" fill="url(#f)" rx="2.217"/><rect width="27.847" height="20.132" x="10.009" y="3.739" fill-opacity=".353" rx="1.373" ry="1.499"/><rect width="26.603" height="18.844" x="10.619" y="4.405" fill="url(#b)" rx="1.311" ry="1.403"/><circle cx="15.018" cy="32.466" r="4.434" fill-opacity=".353"/><path fill="url(#e)" d="m14.031677 29.202327c-.155899 0-.283056.124412-.283056.280308v1.684605h-1.602162c-.1559 0-.280306.12441-.280306.28031v1.970408c0 .1559.12441.280309.280306.280309h1.602162v1.552695c0 .155898.127153.283056.283056.283056h1.967662c.155899 0 .283057-.127155.283057-.283056v-1.552695h1.632388c.155901 0 .283059-.12441.283059-.280309v-1.970408c0-.155901-.127155-.28031-.283059-.28031h-1.632388v-1.684605c-.000001-.155899-.127155-.280308-.283057-.280308z"/><path fill="url(#c)" d="m36.825402 31.352684a1.9952167 1.9952167 0 0 1 -1.995215 1.995216 1.9952167 1.9952167 0 0 1 -1.995217-1.995216 1.9952167 1.9952167 0 0 1 1.995217-1.995217 1.9952167 1.9952167 0 0 1 1.995215 1.995217z"/><path fill="url(#d)" d="m33.127525 36.430804a2.7711343 2.7711343 0 0 1 -2.771136 2.771133 2.7711343 2.7711343 0 0 1 -2.771133-2.771133 2.7711343 2.7711343 0 0 1 2.771133-2.771134 2.7711343 2.7711343 0 0 1 2.771136 2.771134z"/><circle cx="-36" cy="47" r="0" fill="url(#g)"/><path fill-opacity=".667" d="m25.366593 18.533203c.149772 1.143786-.839101 1.708642-1.807543.971284-3.08297-2.347235 5.104549-3.518215 4.564857-6.72498-.447962-2.661796-8.615051-1.842312-9.54507 2.322612-.629528 2.81698 2.591307 6.725114 5.952037 6.725114 1.653308 0 3.560292-1.492846 3.917065-3.384002.272485-1.44211-3.206359-.864264-3.081346.08997zm-4.40778-7.748486c.844106-.172096.890377-3.6345686-.614917-3.0134291-1.505562.6212756-.228512 3.1857951.614917 3.0134291zm-1.997903 1.59797c.709082-.312126.09132-3.3650602-1.114425-2.5324542-1.20521.8327412.405344 2.8444442 1.114425 2.5324542zm4.569187-2.4020292c.996989.06088 2.09085-3.8047696.217013-3.561644-1.87316.2431252-1.214408 3.500761-.217013 3.561644zm5.526941-4.153425c-3.328531 0-3.952918 4.7408762-2.080433 4.7408762 1.872213 0 5.409099-4.7408762 2.080433-4.7408762z"/><rect width="26.603" height="18.844" x="10.619" y="4.405" fill="url(#h)" fill-rule="evenodd" opacity=".2" rx="1.311" ry="1.403"/></svg>