<svg xmlns="http://www.w3.org/2000/svg" xmlns:xlink="http://www.w3.org/1999/xlink" width="48" height="48"><linearGradient id="a" x1="70.026" x2="66.526" y1="568.447" y2="490.271" gradientUnits="userSpaceOnUse"><stop offset="0" stop-color="#0a80fd"/><stop offset="1" stop-color="#56c5fa"/></linearGradient><linearGradient id="b" x1="72.85" x2="72.285" y1="491.145" y2="462.676" gradientTransform="matrix(1.0020883 0 0 .99999615 -.150321 -1.578513)" gradientUnits="userSpaceOnUse"><stop offset="0" stop-color="#2e3436"/><stop offset="1" stop-color="#555753"/></linearGradient><g transform="matrix(.36470036 0 0 .36470036 -2.293609 -164.57037)"><rect width="120.396" height="106.817" x="11.899" y="465.933" fill-opacity=".667" ry="5.027"/><rect width="120.396" height="106.817" x="11.899" y="464.378" fill="url(#a)" ry="5.027"/><g fill-rule="evenodd"><path fill="url(#b)" stroke="url(#b)" stroke-linecap="round" stroke-linejoin="round" stroke-width=".107" d="m18.537737 461.41437h107.117473c3.85647 0 6.71098 3.09818 6.71098 6.9466l.00048 14.95331v6.94661h-120.540399v-6.94661l.000081-14.95331c.00002-3.84842 2.854909-6.9466 6.711385-6.9466z"/><path fill="#fff" fill-opacity=".948" d="m79.770627 489.28486h18.469492l14.434231-12.77017-14.434231-14.12428h-18.469492l13.085263 14.12428z"/><path fill="#fff" fill-opacity=".948" d="m31.675661 489.28486h18.469491l14.434233-12.77017-14.434233-14.12428h-18.469491l13.085258 14.12428z"/><path fill="#e0f1fe" stroke="#e0f1ff" stroke-linecap="round" stroke-linejoin="round" stroke-width="3.516" d="m89.197325 529.94546-30.221625 18.26731v-36.53462z"/></g></g></svg>