<svg xmlns="http://www.w3.org/2000/svg" xmlns:xlink="http://www.w3.org/1999/xlink" width="48" height="48"><linearGradient id="a"><stop offset="0" stop-color="#2e3436"/><stop offset="1" stop-color="#555753"/></linearGradient><linearGradient id="b" x1="70.026" x2="66.526" y1="569.237" y2="491.062" gradientUnits="userSpaceOnUse"><stop offset="0" stop-color="#0a80fd"/><stop offset="1" stop-color="#56c5fa"/></linearGradient><linearGradient id="c" x1="72.85" x2="72.285" y1="491.145" y2="462.676" gradientTransform="matrix(1.0020883 0 0 .99999615 -.150321 .001833)" gradientUnits="userSpaceOnUse" xlink:href="#a"/><linearGradient id="d" x1="44.159" x2="44.262" y1="490.592" y2="461.929" gradientUnits="userSpaceOnUse" xlink:href="#a"/><linearGradient id="e" x1="96.678" x2="96.333" y1="490.357" y2="462.831" gradientUnits="userSpaceOnUse" xlink:href="#a"/><g transform="matrix(.398683803606 0 0 .398683803606 -4.743695563657 -182.141698673443)"><rect width="120.396" height="106.817" x="11.899" y="465.168" fill="url(#b)" ry="5.027"/><g fill-rule="evenodd"><path fill="url(#c)" stroke="url(#c)" stroke-linecap="round" stroke-linejoin="round" stroke-width=".107" d="m18.537737 462.20454h107.117473c3.85647 0 6.71098 3.09818 6.71098 6.9466l.00048 14.95331v6.94661h-120.540399v-6.94661l.000081-14.95331c.00002-3.84842 2.854909-6.9466 6.711385-6.9466z"/><path fill="#fff" fill-opacity=".948" stroke="url(#e)" stroke-width="1.125" d="m79.770627 490.49943h19.098944l14.926159-13.20538-14.926159-14.60565h-19.098944l13.531217 14.60565z"/><path fill="#fff" fill-opacity=".948" stroke="url(#d)" stroke-width="1.125" d="m31.675661 490.49922h19.09894l14.926158-13.20538-14.926158-14.60565h-19.09894l13.53121 14.60565z"/></g><g><path fill="#e0f1fe" d="m358.65242 529.1544c2.32189-2.05752 5.40486-3.19058 8.68093-3.19058 3.27614 0 6.35912 1.13313 8.68094 3.19058 2.34206 2.07537 3.63191 4.8413 3.63191 7.78837 0 2.81279-1.17574 5.46009-3.31906 7.49984.0388.0947.0694.19423.0889.29891l.70425 3.77197c.0837.44829-.0287.7156-.13788.861-.12614.16793-.31294.26049-.52621.26049-.16104 0-.3341-.0517-.51444-.15382l-4.09627-2.31712c-1.4182.49704-2.94284.75766-4.51213.75766-3.27614 0-6.35905-1.13311-8.68093-3.19056-2.342-2.07531-3.63185-4.84125-3.63185-7.7883 0-2.94714 1.28978-5.71307 3.63178-7.78844z" transform="matrix(-2.444533931287 0 0 2.444533931287 970.055380713204 -782.921863266579)"/><g fill="#30a3fb" transform="matrix(-2.444533931287 0 0 2.444533931287 970.055380713204 -782.921863266579)"><circle cx="362.203" cy="536.916" r="2.237" opacity=".837"/><circle cx="367.303" cy="536.916" r="2.237" opacity=".837"/><circle cx="372.663" cy="536.916" r="2.237" opacity=".837"/></g></g></g></svg>