<svg xmlns="http://www.w3.org/2000/svg" xmlns:xlink="http://www.w3.org/1999/xlink" width="48" height="48"><linearGradient id="a"><stop offset="0" stop-color="#f6fbff"/><stop offset="1" stop-color="#eaeff2"/></linearGradient><linearGradient id="b" x1="17" x2="17" y1="1036.362" y2="1012.362" gradientTransform="matrix(1.0309825 0 0 1 -.512598 0)" gradientUnits="userSpaceOnUse"><stop offset="0" stop-color="#3bd450"/><stop offset="1" stop-color="#53f086"/></linearGradient><linearGradient id="c" x1="33.462" x2="34.117" y1="1013.622" y2="1037.208" gradientTransform="matrix(.670643 0 0 1 11.490058 0)" gradientUnits="userSpaceOnUse" xlink:href="#a"/><linearGradient id="d" x1="27.8" x2="27.8" y1="1037.362" y2="1011.362" gradientUnits="userSpaceOnUse"><stop offset="0" stop-color="#2ec641"/><stop offset="1" stop-color="#47e47a"/></linearGradient><linearGradient id="e" x1="-7.873" x2="4.026" y1="1022.027" y2="1022.027" gradientTransform="matrix(.43805482 0 0 .99999986 -4.213057 1.048985)" gradientUnits="userSpaceOnUse" xlink:href="#a"/><linearGradient id="f" x1="-7.873" x2="4.026" y1="1022.027" y2="1022.027" gradientTransform="matrix(.67458606 0 0 .9999999 -2.477327 4.195202)" gradientUnits="userSpaceOnUse" xlink:href="#a"/><linearGradient id="g" x1="-7.873" x2="4.026" y1="1022.027" y2="1022.027" gradientTransform="matrix(.91111737 0 0 .99999997 -.784414 7.458004)" gradientUnits="userSpaceOnUse" xlink:href="#a"/><g transform="matrix(1.759272946833 0 0 1.759272946833 -15.451580382249 -1778.736471543712)"><g fill-rule="evenodd"><path fill="url(#c)" d="m33.985436 1036.9362h-7.770649v-24.498h7.770649c.824991-.094.891376.023.891376 1.1721v22.0916c.05181 1.261-.08915 1.2343-.891376 1.2343z"/><path fill="url(#b)" d="m11.563303 1036.9442h11.636697v-24.498h-11.533603c-1.268259-.094-1.782566.023-1.782566 1.1721v22.0916c-.07966 1.261.446208 1.2343 1.679472 1.2343z"/><path fill="url(#d)" d="m31.957586 1038.1035-10.029586-1.1715v-24.4859l9.945906-.9326c1.230149-.094 1.296492.2446 1.296492 1.3937l-.08368 23.3688c.07726 1.261.06707 1.8275-1.129132 1.8275z"/></g><rect width="5.212" height="2.23" x="-7.662" y="1021.96" fill="url(#e)" rx="0" ry=".312" transform="matrix(-.001879603053 -1.000428238949 1.373908594852 -.00026263549 -1388.6507 1023.1646)"/><rect width="8.026" height="2.23" x="-7.788" y="1025.106" fill="url(#f)" rx="0" ry=".312" transform="matrix(-.001220553146 -1.000428786659 1.373908533095 -.000404446324 -1388.6507 1023.1646)"/><rect width="10.841" height="2.23" x="-7.957" y="1028.369" fill="url(#g)" rx="0" ry=".312" transform="matrix(-.000903688685 -1.00042896495 1.373908443861 -.000546257147 -1388.6507 1023.1646)"/></g></svg>