<svg xmlns="http://www.w3.org/2000/svg" xmlns:svg="http://www.w3.org/2000/svg" xmlns:xlink="http://www.w3.org/1999/xlink" id="svg33" width="48" height="48" version="1.1"><metadata id="metadata39"/><defs id="defs37"><linearGradient id="linearGradient942"><stop id="stop938" offset="0" stop-color="#f2f2f2" stop-opacity="1"/><stop id="stop940" offset="1" stop-color="#f9f9f9" stop-opacity="1"/></linearGradient><linearGradient id="linearGradient927" x1="399.571" x2="399.571" y1="545.798" y2="517.798" gradientUnits="userSpaceOnUse"><stop id="stop923" offset="0" stop-color="#06f" stop-opacity="1"/><stop id="stop925" offset="1" stop-color="#59f" stop-opacity="1"/></linearGradient><linearGradient id="linearGradient911"><stop id="stop907" offset="0" stop-color="#2a7fff" stop-opacity="1"/><stop id="stop909" offset="1" stop-color="#5df" stop-opacity="1"/></linearGradient><linearGradient id="b-3" x1="399.994" x2="399.994" y1="545.139" y2="518.139" gradientUnits="userSpaceOnUse"><stop id="stop7" offset="0" stop-color="#0bac83"/><stop id="stop9" offset="1" stop-color="#10da96"/></linearGradient><linearGradient id="a-6" x1="399.571" x2="399.571" y1="545.798" y2="517.798" gradientUnits="userSpaceOnUse"><stop id="stop2-7" offset="0" stop-color="#3889e9"/><stop id="stop4-5" offset="1" stop-color="#5ea5fb"/></linearGradient><linearGradient id="linearGradient886" x1="23.314" x2="23.577" y1="39.479" y2="8.88" gradientTransform="translate(-1.1920929e-7,2.669708)" gradientUnits="userSpaceOnUse" xlink:href="#linearGradient927"/><linearGradient id="linearGradient913" x1="28.321" x2="28.905" y1="40" y2="15.65" gradientTransform="translate(1.1920929e-7,2.6705982)" gradientUnits="userSpaceOnUse" xlink:href="#linearGradient927"/><linearGradient id="linearGradient933" x1="28.321" x2="28.905" y1="40" y2="15.65" gradientTransform="matrix(-1.000006,0,0,1.000006,48.000278,2.6703597)" gradientUnits="userSpaceOnUse" xlink:href="#linearGradient911"/><linearGradient id="linearGradient936" x1="23.533" x2="23.358" y1="29.898" y2="2.277" gradientTransform="matrix(1.069692,0,0,1.2711864,-1.8287708,2.0837869)" gradientUnits="userSpaceOnUse" xlink:href="#linearGradient942"/></defs><linearGradient id="linearGradient8" x1="0" x2="47" y1="23.5" y2="23.5" gradientUnits="userSpaceOnUse"><stop id="stop2" offset="0" stop-color="#a9a3d4"/><stop id="stop4" offset=".47" stop-color="#87baff"/><stop id="stop6" offset="1" stop-color="#89ec85"/></linearGradient><linearGradient id="a" x1="-154.979" x2="-157.572" y1="1226.182" y2="1136.281" gradientTransform="matrix(0.32524249,0,0,0.32524249,74.054269,-359.62004)" gradientUnits="userSpaceOnUse" xlink:href="#a-6"><stop id="stop10" offset="0" stop-color="#e52823"/><stop id="stop12" offset="1" stop-color="#e9352b"/></linearGradient><linearGradient id="b" x1="-292.689" x2="-293.481" y1="1171.113" y2="1135.239" gradientTransform="matrix(0.31375718,0,0,0.32415834,116.598,-358.82171)" gradientUnits="userSpaceOnUse" xlink:href="#a-6"><stop id="stop15" offset="0" stop-color="#dfe3ea"/><stop id="stop17" offset="1" stop-color="#fdfeff"/></linearGradient><linearGradient id="c" x1="-292.891" x2="-292.613" y1="1226.768" y2="1181.605" gradientTransform="matrix(0.4425193,0,0,0.44048925,155.64661,-499.43288)" gradientUnits="userSpaceOnUse"><stop id="stop20" offset="0" stop-color="#d7dbe1"/><stop id="stop22" offset="1" stop-color="#eaedf1"/></linearGradient><path id="rect1095" fill="#000" fill-opacity=".667" stroke-width=".428" d="M 4.7304687,5.9333832 V 12.384555 H 3.626953 c -0.9009217,0 -1.6269531,0.726032 -1.6269531,1.626953 v 1.275391 26.257812 c 0,0.112616 0.011611,0.222072 0.033203,0.328125 0.043109,0.212753 0.1270432,0.408691 0.2441407,0.582032 0.058615,0.0869 0.1253121,0.166464 0.1992187,0.240234 0.073198,0.07306 0.1522101,0.141166 0.2382813,0.199219 0.086891,0.05862 0.1794952,0.10726 0.2773437,0.148437 0.097344,0.04104 0.1986343,0.07411 0.3046875,0.0957 0.1066453,0.0218 0.2168085,0.03125 0.3300781,0.03125 h 0.904297 39.8417971 c 0.450461,0 0.856268,-0.180974 1.150391,-0.474609 0.07391,-0.07377 0.140603,-0.15333 0.199218,-0.240234 C 45.897658,42.195404 46,41.882557 46,41.544711 V 15.286899 14.011508 c 0,-0.900921 -0.726031,-1.626953 -1.626953,-1.626953 H 43.269531 V 5.9333832 Z"/><path id="rect25" fill="url(#linearGradient886)" fill-opacity="1" stroke-width=".428" d="M 3.6262125,11.28114 H 44.373788 C 45.274709,11.28114 46,12.006431 46,12.907353 V 40.44087 c 0,0.900922 -0.725291,1.626212 -1.626212,1.626212 H 3.6262125 C 2.7252908,42.067082 2,41.341792 2,40.44087 V 12.907353 C 2,12.006431 2.7252908,11.28114 3.6262125,11.28114 Z"/><path id="rect929" fill="url(#linearGradient936)" fill-opacity="1" stroke="none" stroke-dasharray="none" stroke-miterlimit="4" stroke-width="5.018" d="M 4.7299252,4.8302917 H 43.270075 V 39.866787 H 4.7299252 Z" opacity="1"/><g id="g878" transform="matrix(0.43478355,0,0,0.43478355,26.792794,7.6994333)"><path id="circle12" fill="url(#b-3)" stroke-width="1.3" d="m 414.57134,531.79791 a 13.999958,13.999958 0 0 1 -13.99996,13.99996 13.999958,13.999958 0 0 1 -13.99996,-13.99996 13.999958,13.999958 0 0 1 13.99996,-13.99996 13.999958,13.999958 0 0 1 13.99996,13.99996 z" transform="matrix(1.6428585,0,0,1.6428585,-664.50551,-843.88775)"/><path id="path20" fill="#fff" fill-opacity=".851" stroke-width=".222" d="m 6.8708947,23.546143 -2.456704,-2.456704 c -0.337021,-0.337243 -0.746767,-0.505753 -1.228352,-0.505753 -0.481807,0 -0.891553,0.16851 -1.228574,0.505753 l -11.850273,11.868454 -5.3109597,-5.329141 c -0.337243,-0.337243 -0.746767,-0.505753 -1.228352,-0.505753 -0.481807,0 -0.891332,0.16851 -1.228574,0.505753 l -2.456705,2.456704 c -0.337243,0.337243 -0.505753,0.746767 -0.505753,1.228574 0,0.481585 0.16851,0.891331 0.505753,1.228352 l 6.539313,6.539313 2.456926,2.456704 c 0.337021,0.337243 0.746546,0.505753 1.2283517,0.505753 0.481585,0 0.89111,-0.168732 1.228353,-0.505753 l 2.456926,-2.456704 13.078624,-13.078626 c 0.337021,-0.337242 0.505753,-0.746767 0.505753,-1.228574 2.22e-4,-0.481585 -0.168732,-0.891109 -0.505753,-1.228352 z"/></g><path id="path29" fill="url(#linearGradient913)" fill-opacity="1" fill-rule="evenodd" stroke-width=".573" d="M 46,14.18427 4.5312501,42.067082 H 44.373047 c 0.900922,0 1.626953,-0.724078 1.626953,-1.625 z"/><path id="path931" fill="url(#linearGradient933)" fill-opacity="1" fill-rule="evenodd" stroke-width=".573" d="M 2.0000001,14.184102 43.469,42.067082 H 3.6269631 c -0.900928,0 -1.626963,-0.724081 -1.626963,-1.625009 z"/></svg>