<svg xmlns="http://www.w3.org/2000/svg" xmlns:xlink="http://www.w3.org/1999/xlink" width="48" height="48"><linearGradient id="a" x1="409.571" x2="409.571" y1="543.798" y2="503.798" gradientUnits="userSpaceOnUse"><stop offset="0" stop-color="#2a2c2f"/><stop offset="1" stop-color="#424649"/></linearGradient><linearGradient id="b" x1="25" x2="25" y1="40" y2="8" gradientUnits="userSpaceOnUse"><stop offset="0" stop-color="#d5d5d6"/><stop offset="1" stop-color="#f4f5f5"/></linearGradient><linearGradient id="c" x1="6" x2="32" y1="7" y2="33" gradientUnits="userSpaceOnUse"><stop offset="0" stop-color="#292c2f"/><stop offset="1" stop-opacity="0"/></linearGradient><g transform="translate(-384.57143 -499.798)"><rect width="40" height="40" x="388.571" y="503.798" fill="url(#a)" ry="2"/><path fill="url(#c)" fill-rule="evenodd" d="m40 8v32h-32l3 3 1 1h32v-32z" opacity=".2" transform="translate(384.57143 499.798)"/><path fill="url(#b)" d="m8 8v32h32v-32zm1 1h30v21h-30zm1 3v2h22v-2zm-1 19h30v8h-30zm2 3v1h1v-1zm2 0v1h1v-1zm2 0v1h1v-1zm16 0v1h1v-1zm2 0v1h1v-1zm2 0v1h1v-1z" transform="translate(384.57143 499.798)"/><text x="393.898" y="519.933" fill="#fff" font-family="sans-serif" font-size="7.787" letter-spacing="0" word-spacing="0"><tspan x="393.898" y="519.933" fill="#fff" font-family="Oxygen Mono">grub</tspan></text></g></svg>