<svg xmlns="http://www.w3.org/2000/svg" xmlns:xlink="http://www.w3.org/1999/xlink" width="48" height="48"><linearGradient id="a"><stop offset="0" stop-color="#178b6f"/><stop offset="1" stop-color="#489acf"/></linearGradient><linearGradient id="b" x1="24.757" x2="24.742" y1="9.403" y2="38.824" gradientUnits="userSpaceOnUse"><stop offset="0" stop-color="#fff"/><stop offset="1" stop-color="#e8e8e9"/></linearGradient><linearGradient x1="418.536" x2="418.536" y1="544.315" y2="498.773" gradientUnits="userSpaceOnUse" xlink:href="#a"/><linearGradient id="c" x1="418.536" x2="418.536" y1="544.315" y2="498.773" gradientUnits="userSpaceOnUse" xlink:href="#e"/><linearGradient x1="422.748" x2="422.412" y1="544.886" y2="500.744" gradientUnits="userSpaceOnUse" xlink:href="#a"/><linearGradient id="d" x1="422.748" x2="422.412" y1="544.886" y2="500.744" gradientUnits="userSpaceOnUse" xlink:href="#e"/><linearGradient id="e"><stop offset="0" stop-color="#118702"/><stop offset="1" stop-color="#80e950"/></linearGradient><g transform="matrix(1.0688688 0 0 1.0688688 -2.206524 -1.384961)"><circle cx="458.072" cy="525.642" r="19.217" fill="url(#d)" stroke="url(#c)" stroke-linecap="round" stroke-linejoin="round" stroke-width="1.791" transform="matrix(1.116393496884 0 0 1.116393496884 -486.802840970476 -562.973458438028)"/><path fill="url(#b)" fill-rule="evenodd" d="m24.757139 9.4031262 2.2042.7347338s.912677 2.808346 1.64741 3.543079c1.161715 1.161716 5.699923 3.804254 5.699923 9.68212 0 4.408401-2.938933 7.347334-6.6126 9.551534 3.673667-3.673667 5.143134-5.143133 5.143134-9.551534 0-5.877866-5.877867-6.6126-5.877867-6.6126v15.999106c0 1.634494-1.540625 4.348043-4.055043 5.392419-3.187132 1.320465-6.52646.566754-7.45783-1.683286-.931033-2.249192.896671-5.142041 4.082648-6.461921 1.903707-.788785 3.690919-.969738 5.226025-.306687z"/></g></svg>