<svg xmlns="http://www.w3.org/2000/svg" xmlns:xlink="http://www.w3.org/1999/xlink" width="48" height="48"><linearGradient id="a" x1="414.08" x2="414.205" y1="533.589" y2="514.004" gradientUnits="userSpaceOnUse"><stop offset="0" stop-color="#974eb7"/><stop offset="1" stop-color="#d164ff"/></linearGradient><linearGradient id="b" x1="408.524" x2="409.266" y1="506.485" y2="533.195" gradientTransform="matrix(-1 0 0 -1 823.84266 1043.6233)" gradientUnits="userSpaceOnUse" xlink:href="#d"/><linearGradient id="c" x1="407.205" x2="424.071" y1="515.759" y2="532.625" gradientUnits="userSpaceOnUse"><stop offset="0" stop-color="#18222a"/><stop offset="1" stop-color="#566069"/></linearGradient><linearGradient id="d"><stop offset="0" stop-color="#222c35"/><stop offset="1" stop-color="#545e67"/></linearGradient><linearGradient id="e" x1="391.571" x2="390.878" y1="531.798" y2="507.673" gradientTransform="matrix(1.0833321 0 0 1.5347235 -49.73149 -271.24808)" gradientUnits="userSpaceOnUse"><stop offset="0" stop-color="#d3d3d3"/><stop offset="1" stop-color="#fcf9f9"/></linearGradient><linearGradient id="f" x1="428.571" x2="428.361" y1="504.798" y2="501.387" gradientTransform="matrix(3.3333417 0 0 3.3892711 -1032.6704 -1179.5016)" gradientUnits="userSpaceOnUse" xlink:href="#d"/><linearGradient id="g" x1="371.606" x2="371.606" y1="532.526" y2="527.743" gradientUnits="userSpaceOnUse" xlink:href="#d"/><linearGradient id="h" x1="376.4" x2="376.205" y1="525.847" y2="522.698" gradientUnits="userSpaceOnUse" xlink:href="#d"/><g transform="translate(-368.571437 -515.79797)"><rect width="5.538" height="2.769" x="372.708" y="523.077" fill="url(#h)" ry=".923"/><rect width="20" height="10.168" x="382.571" y="521.228" fill="url(#f)" ry="3.389"/><rect width="52" height="36.833" x="366.887" y="508.081" fill="url(#e)" ry="1.724" transform="matrix(.923076946513 .000000007508 -.000000007508 .923076946513 29.90647073138 55.799695224378)"/><g transform="matrix(.857144691335 0 0 .857144386893 36.62392874669 93.80405419395)"><path fill="url(#b)" d="m401.27124 523.8253a13.999973 13.999973 0 0 1 13.99997-13.99997 13.999973 13.999973 0 0 1 13.99997 13.99997 13.999973 13.999973 0 0 1 -13.99997 13.99998 13.999973 13.999973 0 0 1 -13.99997-13.99998z"/><circle cx="415.271" cy="523.825" r="11" fill="url(#c)"/><circle cx="415.271" cy="523.825" r="10" fill="url(#a)"/></g><circle cx="373.997" cy="530.134" r="2.391" fill="url(#g)" fill-rule="evenodd"/></g></svg>