<svg xmlns="http://www.w3.org/2000/svg" xmlns:xlink="http://www.w3.org/1999/xlink" width="48" height="48"><linearGradient id="a"><stop offset="0" stop-color="#333538"/><stop offset="1" stop-color="#566069"/></linearGradient><linearGradient id="b" x1="400.954" x2="400.954" y1="545.223" y2="517.223" gradientUnits="userSpaceOnUse" xlink:href="#a"/><linearGradient id="c" x1="2.819" x2="11.758" y1="1044.298" y2="1044.298" gradientUnits="userSpaceOnUse" xlink:href="#a"/><linearGradient id="d" x1="400.396" x2="400.396" y1="545.619" y2="517.619" gradientUnits="userSpaceOnUse"><stop offset="0" stop-color="#d3d3d3"/><stop offset="1" stop-color="#fcf9f9"/></linearGradient><linearGradient id="e" x1="404.714" x2="404.714" y1="546.298" y2="517.298" gradientUnits="userSpaceOnUse"><stop offset="0" stop-color="#00cafe"/><stop offset="1" stop-color="#1460f3"/></linearGradient><linearGradient id="f" x1="400.396" x2="400.396" y1="545.619" y2="517.619" gradientUnits="userSpaceOnUse"><stop offset="0" stop-color="#e3e3e3"/><stop offset="1" stop-color="#fcf9f9"/></linearGradient><linearGradient id="g" x1="401.208" x2="401.208" y1="545.811" y2="518.422" gradientUnits="userSpaceOnUse"><stop offset="0" stop-color="#ec396c"/><stop offset="1" stop-color="#ff709a"/></linearGradient><filter id="h" color-interpolation-filters="sRGB"><feColorMatrix result="result3" type="saturate" values="0"/><feColorMatrix in="SourceGraphic" result="colormatrix" values="0 0 0 0 0 0 0 0 0 0 0 0 0 0 0 1 -0.5 -0.5 0 0"/><feFlood flood-color="#440086" result="result1"/><feComposite in2="colormatrix" operator="in" result="result2"/><feComposite in2="colormatrix" k2="1" k3="-.5" operator="arithmetic" result="result12"/><feBlend in="result12" in2="result3" mode="normal" result="result6"/><feColorMatrix in="SourceGraphic" result="colormatrix" values="0 0 0 0 0 0 0 0 0 0 0 0 0 0 0 -0.5 1 -0.5 0 0"/><feFlood flood-color="#fe3f00" result="result4"/><feComposite in2="colormatrix" operator="in" result="result5"/><feComposite in2="colormatrix" k2="1" k3="-.5" operator="arithmetic" result="result13"/><feBlend in="result13" in2="result6" mode="normal" result="result9"/><feColorMatrix in="SourceGraphic" result="colormatrix" values="0 0 0 0 0 0 0 0 0 0 0 0 0 0 0 -0.5 -0.5 1 0 0"/><feFlood flood-color="#fc0" result="result7"/><feComposite in2="colormatrix" operator="in" result="result8"/><feComposite in2="colormatrix" k2="1" k3="-.5" operator="arithmetic" result="result14"/><feBlend in="result14" in2="result9" mode="normal" result="result10"/><feComposite in="result10" in2="SourceGraphic" operator="in" result="result11"/></filter><g filter="url(#h)" transform="matrix(1.626036 0 0 1.626036 -627.34347 -840.7226)"><g><g fill="url(#b)" transform="matrix(.96552004 0 0 .96552004 13.642627 18.164012) translate(.039843 .133368)"><g fill="url(#d)" stroke-width="1.3" transform="translate(.135243 .045175)"><circle cx="400.571" cy="531.798" r="14" fill="url(#g)" stroke="url(#g)" stroke-width="1.3"/><circle cx="400.571" cy="531.798" r="0" fill="url(#f)" stroke="url(#e)" stroke-width="1"/><circle cx="400.571" cy="531.798" r="0" fill="url(#d)"/></g><g fill="#fff" fill-opacity=".847"><g fill="#fff" fill-opacity=".847"><g fill="#fff" fill-opacity=".847"><g fill="#fff" fill-opacity=".847"><g fill="#fff" fill-opacity=".847"><g><g fill="#fff" fill-opacity=".847"><g fill="#fff" fill-opacity=".847"><g fill="#fff" fill-opacity=".847"><path fill="#fff" fill-opacity=".847" d="m333.227 39.545-54.916 83.015-56.76-83.015zm-63.641 102h-121.829l60.908 231.669zm-117.763-13.6h113.688l-56.847-83.15zm-12.79-5.385 56.753-83.015h-111.67zm56.725 255.02-62.057-236.035h-133.701zm-195.568-249.635h126.1l-54.931-83.035zm345.699-82.885-54.836 82.885h125.883zm-62.248 96.485-62.063 236.015 195.547-236.015z" transform="matrix(1.1789744 0 0 1.1789744 391.27483 -698.1593) translate(-412.88298 512.00351) translate(341.79698 500.25245) translate(-392.98822 -511.27795) matrix(1.0805235 0 0 1.0805235 39.355625 -31.560204) translate(341.79698 500.25245) translate(89.03771 -6.402818) translate(0 .265501) matrix(.03549928 0 0 .03549928 -37.76726 30.579049)"/></g></g></g></g></g></g></g></g></g></g></g></g></svg>