<svg xmlns="http://www.w3.org/2000/svg" xmlns:xlink="http://www.w3.org/1999/xlink" width="48" height="48"><linearGradient x1="0" x2="47" y1="23.5" y2="23.5" gradientUnits="userSpaceOnUse"><stop offset="0" stop-color="#a9a3d4"/><stop offset=".47" stop-color="#87baff"/><stop offset="1" stop-color="#89ec85"/></linearGradient><linearGradient id="a" x1="400.571" x2="400.571" y1="545.798" y2="517.798" gradientUnits="userSpaceOnUse"><stop offset="0" stop-color="#dbdada"/><stop offset="1" stop-color="#fff"/></linearGradient><linearGradient id="b" x1="421.897" x2="422.519" y1="540.44" y2="522.502" gradientUnits="userSpaceOnUse"><stop offset="0" stop-color="#1584d8"/><stop offset="1" stop-color="#1cb2ff"/></linearGradient><g stroke-width="1.317" transform="matrix(1.000000004476 0 0 1.000000004476 -486.760340300875 -502.725834528142)"><rect width="28" height="28" x="386.571" y="517.798" fill="url(#a)" ry="14" transform="matrix(1.634735284396 0 0 1.634735284396 -144.067942974664 -342.623101459356)"/><path fill="url(#b)" d="m423.4415 523.58868-1.17188 4.69971h3.22266l1.18408-4.69971h2.69775l-1.18408 4.69971h3.38135v2.6001h-4.02832l-.84228 3.34473h3.46679v2.62451h-4.10156l-1.17188 4.67529h-2.69775l1.17188-4.67529h-3.22266l-1.17188 4.67529h-2.72216l1.17187-4.67529h-3.40576v-2.62451h4.00391l.85449-3.34473h-3.45459v-2.6001h4.12597l1.17188-4.69971zm1.37939 7.29981h-3.22265l-.8545 3.34473h3.22266z" transform="matrix(1.3374691 0 0 1.3374691 -54.714275 -185.55785)"/></g></svg>