<svg xmlns="http://www.w3.org/2000/svg" xmlns:xlink="http://www.w3.org/1999/xlink" width="48" height="48"><linearGradient id="a" x1="409.571" x2="409.571" y1="542.798" y2="507.798" gradientTransform="matrix(1 0 0 .97651015 -.000026 11.327455)" gradientUnits="userSpaceOnUse"><stop offset="0" stop-color="#2a2c2f"/><stop offset="1" stop-color="#424649"/></linearGradient><g><g transform="translate(-384.57143 -499.798) translate(-.000012 -.500166)"><rect width="44" height="33.201" x="386.571" y="508.198" fill-opacity=".667" ry="1.562"/><rect width="44" height="33.201" x="386.571" y="507.197" fill="url(#a)" ry="1.562"/></g><g fill="#fff" transform="translate(-384.57143 -499.798)"><circle cx="398.937" cy="510.198" r="1.781"/><circle cx="394.561" cy="510.235" r="1.781"/><circle cx="390.259" cy="510.278" r="1.781"/></g><path fill="#fdfdfd" d="m400.27748 515.50405v6.63477h.83008v-6.63477zm1.66016 0v6.63477h.82812v-6.63477zm1.6582 0v6.63477h.82812v-6.63477zm9.12305 0v6.63477h.82812v-6.63477zm0 6.63477h-.83008v3.31835h.83008zm0 3.31835v6.63477h.82812v-6.63477zm1.6582-9.95312v6.63477h.82812v-6.63477zm1.6582 0v6.63477h.83008v-6.63477zm-10.78125 6.63477v3.31835h.83008v-3.31835zm3.31641 0v3.31835h.83008v-3.31835zm-8.29297 3.31835v6.63477h.83008v-6.63477zm1.66016 0v6.63477h.82812v-6.63477zm1.6582 0v6.63477h.82812v-6.63477zm10.78125 0v6.63477h.82812v-6.63477zm1.6582 0v6.63477h.83008v-6.63477z" transform="translate(-384.57143 -499.798)"/></g></svg>