<svg xmlns="http://www.w3.org/2000/svg" xmlns:xlink="http://www.w3.org/1999/xlink" width="48" height="48" viewBox="0 0 48 48"><linearGradient id="a"><stop offset="0" stop-color="#2a7fff"/><stop offset="1" stop-color="#6dc6e8"/></linearGradient><linearGradient id="b"><stop offset="0" stop-color="#d7dbe1"/><stop offset="1" stop-color="#eaedf1"/></linearGradient><linearGradient id="c"><stop offset="0" stop-color="#dfe3ea"/><stop offset="1" stop-color="#fdfeff"/></linearGradient><linearGradient id="d" x1="22.909" x2="22.051" y1="46.747" y2="-1.584" gradientUnits="userSpaceOnUse" xlink:href="#c"/><linearGradient id="e" x1="22.909" x2="22.051" y1="46.747" y2="-1.584" gradientUnits="userSpaceOnUse"><stop offset="0" stop-color="#e9e9e9"/><stop offset="1" stop-color="#f9f9f9"/></linearGradient><linearGradient id="f" x1="22.909" x2="22.051" y1="46.747" y2="-1.584" gradientUnits="userSpaceOnUse" xlink:href="#a"/><linearGradient id="g" x1="42.086" x2="49.343" y1="47.987" y2="19.683" gradientTransform="matrix(-.45473145 -.10968184 -.10506907 .47469524 28.061444 15.541385)" gradientUnits="userSpaceOnUse"><stop offset="0" stop-color="#dfe3ea"/><stop offset="1" stop-color="#fdfeff" stop-opacity="0"/></linearGradient><linearGradient id="h" x1="1457.797" x2="1472.115" y1="-1953.313" y2="-1837.005" gradientTransform="matrix(.20117417 0 0 -.20117417 -247.75903 -356.33317)" gradientUnits="userSpaceOnUse"><stop offset="0" stop-color="#cbcbcb"/><stop offset="1" stop-color="#fff"/></linearGradient><linearGradient id="i" x1="40.626" x2="48.341" y1="33.296" y2="11.583" gradientUnits="userSpaceOnUse" xlink:href="#b"/><linearGradient id="j" x1="36.447" x2="43.28" y1="25.549" y2="3.275" gradientTransform="matrix(.9807673 .03344468 -.03344468 .9807673 -4.747913 .772688)" gradientUnits="userSpaceOnUse" xlink:href="#a"/><linearGradient id="k" x1="8.397" x2="5.899" y1="5.662" y2="16.003" gradientUnits="userSpaceOnUse"><stop offset="0" stop-color="#1a1a1a" stop-opacity=".157"/><stop offset="1" stop-color="#1a1a1a" stop-opacity="0"/></linearGradient><linearGradient id="l" x1="1438.69" x2="1464.991" y1="-1956.885" y2="-1841.08" gradientTransform="matrix(.15120319 .13269755 .13269755 -.15120319 61.979772 -440.11455)" gradientUnits="userSpaceOnUse" xlink:href="#c"/><linearGradient id="m" x1="36.266" x2="36.317" y1="29.56" y2="9.231" gradientTransform="matrix(1.1123124 .19819239 -.19819239 1.1123124 .022559 -10.089645)" gradientUnits="userSpaceOnUse" xlink:href="#b"/><linearGradient id="n"><stop offset="0" stop-color="#3889e9"/><stop offset="1" stop-color="#5ea5fb"/></linearGradient><linearGradient id="o" x1="-92.673" x2="-92.673" y1="93.753" y2="46.293" gradientUnits="userSpaceOnUse" xlink:href="#n"/><linearGradient id="p" x1="-153.488" x2="-153.488" y1="97.438" y2="51.589" gradientUnits="userSpaceOnUse" xlink:href="#n"/><linearGradient id="q" x1="-251.409" x2="-251.409" y1="97.283" y2="43.576" gradientUnits="userSpaceOnUse" xlink:href="#n"/><linearGradient id="r" x1="-105.481" x2="-105.481" y1="100.455" y2="52.995" gradientUnits="userSpaceOnUse" xlink:href="#n"/><linearGradient id="s" x1="-44.067" x2="-44.067" y1="96.486" y2="49.026" gradientUnits="userSpaceOnUse" xlink:href="#n"/><linearGradient id="t" x1="19.887" x2="33.941" y1="40.487" y2="8.844" gradientUnits="userSpaceOnUse"><stop offset="0" stop-color="#80ff80"/><stop offset="1" stop-color="#afa"/></linearGradient><path fill="url(#l)" d="m34.642578 32.322266c-.592358.036049-1.566572.752274-2.888672 2.089843-.176703-1.042947-.597338-1.761404-1.097656-1.884765-.990195-.244901-3.39659 2.037504-7.220703 6.845703-1.708552 2.784421-6.453645 4.912131-6.449219 4.916015.003098.002746 1.420006.814207 4.210938-.175781.047581.026785.47888.238978 1.296875.291016-.646351.531719-1.259666.995599-1.646485 1.132812-.0038-.0033 3.302905.957605 7.714844-3.068359.22042-.201203.41847-.409218.613281-.617188.151395-.10842.297468-.204948.453125-.322265 0 0-3.378504 3.389235-4.59375 3.820312-.0038-.0033 3.302905.957605 7.714844-3.068359 4.4112-4.026612 3.57932-9.575116 2.09375-9.941406-.061887-.015307-.128218-.022018-.201172-.017578z"/><rect width="39.054" height="27.326" x="12.118" y="6.791" fill-opacity=".667" rx="0" ry="1.443" transform="matrix(.95010012 .31194513 -.31194513 .95010012 0 0)"/><rect width="39.054" height="27.326" x="11.962" y="6.316" fill="#fff" rx="0" ry="1.443" transform="matrix(.95010012 .31194513 -.31194513 .95010012 0 0)"/><path fill="url(#t)" fill-rule="evenodd" d="m2.5717778 34.038483 7.4456812-22.045166 13.917069 15.387139 20.00324-4.250129s-7.04825 21.45335-7.361367 22.298109c-.132122.356457-.701726.545554-1.060438.419683l-15.984031-5.608775-16.3634431-5.271517c-.3504056-.112885-.7145116-.580561-.5967111-.929344z"/><path fill="url(#t)" fill-rule="evenodd" d="m10.372777 10.84823 13.955773 15.028775 19.816058-3.940514z"/><path fill-opacity=".078" d="m10.195312 10.115234c-.143142.01172-.2828167.04551-.414062.09766-.3830445.971354-.6712076 2.045034-.84375 3.234375l.1660156.166015c.187794.29439.4012805 1.007643.5859375 2.025391.182558 1.006236.1594913 1.296696-.1835937 2.341797-.374969 1.142072-.3771159 1.236522-.076172 2.142578.150899.454323.3210845.772256.4921875.943359l26.212891 26.212891c1.450565.761821 2.331374.0019 2.769531-1.728516l3.933594-11.982422c.579147-5.282288.949027-9.379568.998047-12.527343l-33.0703129-10.857425c-.189939-.06236-.383406-.08367-.570313-.06836z"/><path fill="url(#e)" d="m3.3560327 33.467019c-3.01245745-3.748188-2.3603518-6.000647-1.9380087-11.019442.5786406-6.876172 4.0598525-12.6557493 10.663806-16.4841619"/><path fill="url(#f)" d="m30.893257 13.34691c0-.0992-.09185-.210988-.204099-.248407-.112265-.03742-.204108.07437-.204108.248407 0 .174042.09185.285824.204108.248404.112255-.03742.204099-.149202.204099-.248404z"/><path fill="url(#d)" d="m5.5781641 30.32014 4.8843719 1.701453.439923.921712c.241959.506939.744532 1.233648 1.116812 1.614898.933094.955568.879327 1.150726-.315638 1.145721-1.124328-.0049-2.268803-.458412-3.3836513-1.34138-.4101009-.324803-.7856558-.547064-.8383664-.497813-.1259085.117643.1183836 1.723577 1.2870829 3.409735 1.0137893 1.462659 1.0188961 1.290695-.2665313.858455-2.7024476-.908731-6.5203872-3.05281-5.7600154-7.72866z"/><path fill="#fff" fill-opacity=".078" d="m10.087211 10.313471.004-.002c-.1874351.293419-.3464118.599597-.4573029.927363-.5495489 1.086341-.2050996 2.728118-.072619 3.957734.1148165.43277.2492597.877316.4926319 1.120687l.297345.101078c-.0059-.685955.237483-1.321861.207062-2.012723-.04612-.837081-.265942-1.676124-.09716-2.515168.139351-.737966.578008-1.377798.756612-2.1108573.215894-.911662.189398-1.8929993.317953-2.8223258-.541698.9577853-1.030405 2.0657152-1.444529 3.3561741"/><path fill="url(#j)" d="m28.885244 10.826754c.550036.801338-.110191 1.042957-1.448548.870652 3.987098 1.394769 3.100094.253002 1.454432-.870451l-.0058-.000201zm3.823794-.439112c3.778514.543214 2.795436-.315112 1.145468-1.0243459.621189.6152366.07781.9433219-1.138602 1.0245799l-.0068-.000234zm2.625075 2.924285c.504819.889148-.208791 1.083779-1.599785.784977 4.059157 1.815518 3.230744.539264 1.604689-.784811l-.0049-.000166zm1.9399-.96878c.506714.891178-.205849 1.08388-1.597823.785045 4.059156 1.815517 3.231725.539296 1.602727-.784878l-.0049-.000167zm-8.593368.538638c4.06504 1.815718 3.235647.539431 1.610573-.78461.498935.888948-.21461 1.081618-1.602727.784878l-.0078-.000268zm3.834351.547082c.504819.889148-.207744 1.081852-1.599785.784977 4.059157 1.815519 3.231724.539299 1.604687-.78481l-.0049-.000167zm3.557719-1.994692c-.296011-.245752-.773208-.534013-1.313674-.809703.679954.763545.02231 1.102462-1.400536 1.104019 3.066999.647582 3.437052.305732 2.737415-.283705 4.295541.901566 3.218535-.168127 1.359611-1.11327.662568.755097.02063 1.093567-1.376898 1.101879l-.0058-.000201zm-4.484118 1.489822c4.356796.919366 3.276981-.15435 1.408383-1.103752.676098.76145.01838 1.102328-1.403479 1.103919l-.0049-.000167zm.0868-2.257392c.260467.510637-.312113.715968-1.383111.679446 3.548977.882002 2.874607.04107 1.427369-.796748-.03361-.252515-.542201-.7431383-1.188099-1.2384429.453666.7479739-.152607.9334999-1.350935.7149109 1.60737.662614 2.325504.796093 2.49968.641001l-.0049-.000167zm6.173233 4.406202c3.881943 2.606785 3.253563 1.137043 1.805943-.524615.359274 1.010852-.414953 1.082641-1.800058.524817l-.0058-.000202zm-2.139073.849068c3.881942 2.606784 3.252582 1.137009 1.805943-.524615.357313 1.010785-.415934 1.082608-1.799078.52485l-.0068-.000235zm-8.777746-3.87347c.50678.889216-.20683 1.083847-1.597823.785045 4.059156 1.815518 3.230743.539264 1.602727-.784878l-.0049-.000167zm13.191587.441985c.348164.962359-.3867 1.031563-1.705917.499551 3.689836 2.481423 3.089486 1.082352 1.712783-.499318l-.0068-.000233zm-7.191758 3.491898c4.07483 2.738063 3.414565 1.195555 1.89515-.549066.376271 1.059544-.43546 1.136928-1.888284.549301l-.0068-.000235zm-4.205184-2.428297c.5058.889181-.208724 1.081817-1.599784.784977 4.059157 1.815517 3.231723.539297 1.604687-.784811l-.0049-.000166zm2.793489 1.671221c.506713.891177-.20585 1.083879-1.597823.785045 4.059156 1.815517 3.231724.539296 1.602727-.784879l-.0049-.000166zm-.585567 2.601726c3.594457 3.694753 3.248809 1.967573 2.067338-.156325.156321 1.174784-.693592 1.076086-2.061452.156525l-.0058-.0002z"/><path fill="url(#d)" d="m2.5931257 18.776927c19.6382973 15.957005 3.9138702 11.305499 14.4890043 21.579486-.824808-.016835-7.7055089-1.976786-11.5091536-5.988376l-2.9049897-3.063806z"/><path fill="url(#g)" d="m2.797398 18.494188c-.5642968 1.101356-1.100123 3.247065-1.1508729 4.519521-.1376766 3.45166 1.4471402 7.002116 4.0693199 9.116482.9906346.798785 2.9071798 2.054255 2.9541899 1.841867.073297-.04554-.819421-.680418-.7682329-.890562-.47096-.503771-.2660238-.51416.4200689-.0767.4019763.256308 1.5764461.767153 2.0225801.879737.140639.04673.03499-.195958-.06873-.400075-1.132737-1.552713-.264357-.384804-1.205735-1.64167-.3995555-.415061-.6947102-1.040927-1.1980456-2.540373-1.1914743-2.234458-2.3693133-3.33478-1.8426534-7.489827.2256485-1.560415 1.6564207-1.296555-3.2319066-3.318401z"/><path fill="url(#k)" d="m3.356033 33.467019c-3.012458-3.748188-2.360352-6.000647-1.938009-11.019442.578641-6.876172 4.059853-12.6557493 10.663806-16.4841619"/><path fill="url(#e)" d="m18.558594 1.6679688c-1.006007.079235-2.598977.9266324-6.279297 3.7363281-1.759047 2.681102-3.0521163 5.3618661-3.3437501 8.0429691.2162965 0 .5117907.858919.7539062 2.193359.1825583 1.006236.1594916 1.296696-.1835937 2.341797-.374969 1.142073-.3790718 1.232621-.078125 2.138672.346726 1.043912.7988326 1.379493 1.1171876.828125.556302-.963465 1.433847-1.556714 4.90625-3.31836 4.398619-2.231541 4.450213-2.241538 8.041016-1.341797 1.239585.3106 3.151578.738678 4.248046.951172 1.096468.212493 2.377743.500379 2.847657.638672.85023.250218.8579.259419 1.419921 1.84961.529068 1.496894.565413 1.777504.570313 4.445312-2.315913 10.784035 1.889249 6.228972-.919922 14.117188-1.711109 2.704438-2.600658 3.792538-3.607422 4.417968-2.498519 2.021014-.190124.141301-3.214843 2.652344-.305063.351492-.631581.777083-.322266.751953.965038-.0098 3.603221-.456799 4.542969-.769531 1.603957-.533761 1.853443-.392679.660156.373047-.537734.345066-.978516.711735-.978516.814453 0 .439068 3.662983-.571218 6.054688-1.669922 6.330794-2.90825 11.187585-9.125703 12.470703-15.964844.400869-2.136612.36686-5.658023-.05078-8.164062.0699-.0888.148586-.171815.216797-.261719-1.854298-6.857862-6.648974-12.6682106-12.794923-15.5078124-2.759432-1.2749359-8.797237-2.4560435-11.908204-2.3300781-2.550181.100691-2.874531-1.0667177-4.167968-.9648437z"/><path fill="#2e2118" d="m13.057614 15.408578c-.06958-.06962-.281253-.536531-.281253-.713499.01811-.632772.236624-1.061364.998257-1.355107.917372-.278307 2.207029.801005.913557 1.818456-.465654.366281-1.374588.505755-1.630198.25015z"/><ellipse cx="13.546" cy="14.241" fill="#fff" rx=".42" ry=".403"/><ellipse cx="14.259" cy="14.295" fill="#fff" rx=".26" ry=".25"/><path fill="url(#i)" d="m38.153875 25.472017c.552493 3.219768-1.610375 7.948833-1.604487 7.948833.0059 0 3.231544-.633944 4.658409-7.509194 0 0-.304215 4.774207-.933252 5.899801-.0049 0 3.114765-1.458268 3.775205-7.394377.659459-5.93611-3.626042-9.558227-4.984213-8.853626-.905774.469079-1.209007 3.772261-.911662 9.908563z"/><path fill="url(#h)" d="m39.548505 29.475019c.552493 3.219768-1.610375 7.948833-1.604487 7.948833.0058 0 3.231544-.633943 4.658408-7.509193 0 0-.304214 4.774207-.933251 5.8998-.0049 0 3.114764-1.458267 3.775204-7.394377.930858-8.921498-3.575601-10.113073-4.984212-8.853626-.905774.469079-1.209008 3.772261-.911662 9.908563z"/><path fill="url(#m)" fill-rule="evenodd" d="m44.415766 17.557263c-3.474852-4.563408-6.884383-5.029883-10.014549-3.802713-.174112 3.579801 5.542212 4.766667 6.888362 6.31944 1.177604 1.606598 1.902766 3.347711 1.759203 5.346881 0 0 .929647.128661 1.531257-.664439-.141017 1.836515-.449329 3.610249-1.595123 5.063432 2.461904-2.388177 3.724836-5.523759 1.778097-10.045032l1.144916-.0036c-.498427-.826108-.99576-1.562062-1.492166-2.213977zm-3.680089 14.074114c-.0085.0045-.01658.0086-.0252.01308-.000435.0019-.0012.0036-.0016.0054.009-.0061.01777-.01233.02678-.01847z"/><circle cx="-151.851" cy="74.514" r="0" fill="url(#p)"/><circle cx="-249.491" cy="70.429" r="0" fill="url(#q)"/><circle cx="-103.786" cy="76.725" r="0" fill="url(#r)"/><circle cx="-42.372" cy="72.756" r="0" fill="url(#s)"/><circle cx="-90.978" cy="70.023" r="0" fill="url(#o)"/></svg>