<svg xmlns="http://www.w3.org/2000/svg" xmlns:xlink="http://www.w3.org/1999/xlink" width="48" height="48"><linearGradient id="a"><stop offset="0" stop-color="#d9d9d9"/><stop offset="1" stop-color="#f5f3f3"/></linearGradient><linearGradient id="b"><stop offset="0" stop-color="#3889e9"/><stop offset="1" stop-color="#5ea5fb"/></linearGradient><linearGradient id="c" x1="399.571" x2="399.571" y1="545.798" y2="517.798" gradientUnits="userSpaceOnUse" xlink:href="#b"/><linearGradient id="d" x1="251.517" x2="251.517" y1="644.128" y2="214.462" gradientUnits="userSpaceOnUse" xlink:href="#b"/><linearGradient id="e" x1="-1185.549" x2="-1185.549" y1="676.085" y2="189.864" gradientUnits="userSpaceOnUse" xlink:href="#b"/><linearGradient id="f" x1="691.56" x2="691.56" y1="668.87" y2="239.203" gradientUnits="userSpaceOnUse" xlink:href="#b"/><linearGradient id="g" x1="135.565" x2="135.565" y1="704.802" y2="275.136" gradientUnits="userSpaceOnUse" xlink:href="#b"/><linearGradient id="h"><stop offset="0" stop-color="#d9d9d9"/><stop offset="1" stop-color="#f4f2f2"/></linearGradient><linearGradient id="i" x1="-857.599" x2="-857.599" y1="888.071" y2="490.285" gradientUnits="userSpaceOnUse" xlink:href="#b"/><linearGradient id="j" x1="-329.967" x2="-329.967" y1="856.098" y2="444.334" gradientUnits="userSpaceOnUse" xlink:href="#b"/><linearGradient id="k" x1="-1707.156" x2="-1707.156" y1="886.722" y2="420.76" gradientUnits="userSpaceOnUse" xlink:href="#b"/><linearGradient id="l" x1="91.74" x2="91.74" y1="879.809" y2="468.045" gradientUnits="userSpaceOnUse" xlink:href="#b"/><linearGradient id="m" x1="-441.087" x2="-441.087" y1="914.244" y2="502.48" gradientUnits="userSpaceOnUse" xlink:href="#b"/><linearGradient id="n" x1="-1002.332" x2="-1002.332" y1="930.391" y2="532.605" gradientUnits="userSpaceOnUse" xlink:href="#b"/><linearGradient id="o" x1="-474.7" x2="-474.7" y1="898.418" y2="486.655" gradientUnits="userSpaceOnUse" xlink:href="#b"/><linearGradient id="p" x1="-1066.214" x2="-991.254" y1="643.791" y2="601.221" gradientUnits="userSpaceOnUse" xlink:href="#h"/><linearGradient id="q" x1="-943.943" x2="-880.811" y1="670.737" y2="670.737" gradientUnits="userSpaceOnUse" xlink:href="#h"/><linearGradient id="r" x1="-262.739" x2="-132.198" y1="196.198" y2="241.347" gradientTransform="matrix(1.1201249 0 0 1.1296746 -686.87436 510.13792)" gradientUnits="userSpaceOnUse" xlink:href="#h"/><linearGradient id="s" x1="-880.918" x2="-879.129" y1="927.827" y2="546.162" gradientUnits="userSpaceOnUse"><stop offset="0" stop-color="#7737c5"/><stop offset="1" stop-color="#9371ff"/></linearGradient><linearGradient id="t" x1="-1851.889" x2="-1851.889" y1="929.042" y2="463.08" gradientUnits="userSpaceOnUse" xlink:href="#b"/><linearGradient id="u" x1="-52.993" x2="-52.993" y1="922.129" y2="510.365" gradientUnits="userSpaceOnUse" xlink:href="#b"/><linearGradient id="v" x1="-585.821" x2="-585.821" y1="956.564" y2="544.8" gradientUnits="userSpaceOnUse" xlink:href="#b"/><linearGradient id="w" x1="276.075" x2="263.68" y1="521.298" y2="24.896" gradientTransform="matrix(.78083788 0 0 .77965555 -1084.8552 556.14047)" gradientUnits="userSpaceOnUse" xlink:href="#a"/><linearGradient id="x" x1="558.77" x2="478.764" y1="504.096" y2="-2.635" gradientTransform="matrix(.34015436 .34760438 -.34707805 .33963938 -878.62032 595.08227)" gradientUnits="userSpaceOnUse" xlink:href="#a"/><circle cx="400.571" cy="531.798" r="0" fill="url(#c)" transform="matrix(1.637466544097 0 0 1.637466544097 -644.580187175317 -848.719334054169)"/><g transform="matrix(.11045808487 0 0 .11045808487 120.830507723799 -58.777925469249)"><circle cx="-1168.185" cy="432.973" r="0" fill="url(#e)"/><circle cx="150.91" cy="489.968" r="0" fill="url(#g)"/><circle cx="706.904" cy="454.036" r="0" fill="url(#f)"/><circle cx="266.861" cy="429.294" r="0" fill="url(#d)"/><circle cx="-843.393" cy="689.177" r="0" fill="url(#i)"/><circle cx="-1690.516" cy="653.74" r="0" fill="url(#k)"/><circle cx="-426.383" cy="708.361" r="0" fill="url(#m)"/><circle cx="106.445" cy="673.925" r="0" fill="url(#l)"/><circle cx="-315.262" cy="650.215" r="0" fill="url(#j)"/><circle cx="-870.771" cy="745.09" r="196.353" fill="url(#s)"/><circle cx="-988.126" cy="731.498" r="0" fill="url(#n)"/><circle cx="-1835.249" cy="696.061" r="0" fill="url(#t)"/><circle cx="-571.116" cy="750.681" r="0" fill="url(#v)"/><circle cx="-38.288" cy="716.246" r="0" fill="url(#u)"/><circle cx="-459.996" cy="692.535" r="0" fill="url(#o)"/><path fill="url(#w)" d="m-669.00757 691.8255-4.824 30.89384s-6.89404-57.19707-15.34421-78.58068c-12.95174-32.76508-18.7136-32.50231-18.75178-32.45401 8.67423 22.0105 7.10008 33.83559 7.10008 33.83559-25.79872-46.37563-63.86662-78.67393-124.77537-70.56509 24.4627 5.0784 45.38007 13.78642 54.83865 26.30534 0 0-21.04977 0-41.9988 6.02753-.94719.27095 77.07646 9.73085 93.0282 87.57874 0 0-8.55406-17.81673-19.13208-20.84259 6.95651 21.13017 5.17069 61.22553-1.45398 81.15358-.85245 2.56269-1.72486-11.07814-14.77425-16.95365 4.18145 29.9068-.24984 77.3388-21.02874 90.40499-1.61938 1.01748 13.02591-46.82376 2.94457-28.32877-58.03737 88.84957-126.64405 41.002-157.48959 19.94282 15.8065 3.43519 45.81491-.53486 59.09778-10.40146.0176-.008.0352-.0264.0528-.0352 14.42439-9.84786 22.96605-17.03863 30.63688-15.33744 7.67575 1.7106 12.78548-5.98073 6.82384-12.80431-5.96876-6.83677-20.46036-16.23316-40.06722-11.11314-13.82706 3.61605-30.96333 18.89182-57.11825 3.42419-20.0753-11.87718-21.9658-21.74377-22.14377-28.57747.49528-2.42229 1.1197-4.68412 1.86077-6.751 2.31047-6.44381 9.31774-8.38832 13.21487-9.92351 6.61139 1.13369 12.30674 3.19274 18.28799 6.25599.0792-1.98727.10205-4.62562-.007-7.61796.57357-1.13756.21817-4.56879-.70025-8.76335-.52959-4.18593-1.39074-8.51702-2.74629-12.4628.005-.00079.008-.004.008-.006.0264-.008.044-.0176.0704-.0264.0352-.0176.0616-.044.088-.0792.005-.008.009-.0176.0176-.0176.0352-.0528.0616-.11084.088-.19001.41435-1.87502 4.88962-5.49179 10.45943-9.38003 4.99105-3.48428 10.85909-7.18602 15.48163-10.05124 4.09154-2.53701 7.20634-4.41915 7.8685-4.91267.25072-.19002.55246-.41083.87997-.66418.0616-.0528.12228-.0941.18474-.14428.044-.0352.0792-.0616.11613-.0915 2.19954-1.74957 5.48377-5.05447 6.1725-12.01063.002-.0176.004-.0352.005-.0528.0176-.20409.0352-.4117.0528-.62284.009-.14691.0176-.2947.0352-.44513.006-.11524.0176-.23048.0176-.34749.008-.27447.0176-.5551.0264-.83836 0-.0176.00071-.0352.002-.0528.009-.67386-.002-1.37525-.044-2.1121-.0264-.4117-.0528-.78294-.12052-1.1211-.003-.0176-.008-.0352-.009-.0616-.007-.0352-.0176-.0704-.0264-.0985-.0176-.0616-.0352-.11876-.0528-.17418-.002-.007-.005-.0176-.007-.0176-.0176-.0704-.044-.12844-.0704-.18914-.002-.002-.002-.004-.002-.007-.71345-1.66767-3.38346-2.29772-14.41356-2.48474-.008-.0008-.0176-.0008-.0352-.0008-4.50079-.0792-10.38598-.0792-18.09912-.0528-13.52171.0528-20.99593-13.19877-23.38136-18.32661 3.27016-18.05364 12.71977-30.91882 28.24371-39.64311.29294-.16539.23576-.30174-.11173-.39675 3.03519-1.83367-36.7017-.0528-54.97878 23.16125-16.22182-4.02609-30.36056-3.75479-42.54542-.89968-2.3403-.0704-5.2559-.35629-8.7174-1.07668-8.1043-7.33188-19.7052-20.87295-20.3267-37.03679 0 0-.035.0352-.1021.088-.01-.15483-.026-.30878-.035-.46361 0 0-24.6924 18.94874-20.9968 70.60802-.01.82693-.026 1.61859-.053 2.3857-6.6824 9.0503-9.9987 16.65735-10.2454 18.33673-5.9195 12.03781-11.9281 30.15312-16.8177 57.65469 0 0 3.4193-10.82777 10.2829-23.09175-5.0474 15.43948-9.014 39.45291-6.6848 75.47064 0 0 .6167-7.98604 2.7954-19.48907 1.703 22.33863 9.1585 49.91666 28.004 82.34638 36.1739 62.25868 91.77734 93.6967 153.23627 98.51885 10.9138.89818 21.98068.91921 33.11379.0792 1.02372-.0792 2.04665-.14691 3.06949-.23224 12.59177-.88262 25.26878-2.78183 37.91905-5.83267 172.91263-41.74351 154.11158-250.21949 154.11158-250.21949z"/><path fill="url(#p)" fill-rule="evenodd" d="m-1058.1821 658.37302c10.5787-19.52997 20.5194-32.34299 42.0932-36.16551-12.1343-11.56919-15.5902-17.99963-21.1769-37.77645-21.5822 23.34494-21.4395 47.59879-20.9163 73.94196z"/><path fill="url(#q)" fill-rule="evenodd" d="m-923.67586 707.20209c12.57822-16.53983 51.90314-25.4946 40.35586-48.2964-27.08486-6.90196-44.05901 5.94202-54.82405-19.47825-9.29364 35.82287 3.22133 53.08178 14.46819 67.77465z"/><path fill="url(#r)" fill-rule="evenodd" d="m-946.28473 730.59567c-52.96055 5.26262-43.82518 33.70188-40.07567 62.15117l13.55945-11.29683c9.51533 27.6726 65.68894 23.24694 96.82998 13.5635 14.18519-4.41097 26.79173-3.32593 32.27912-1.07765 15.45321 3.31626 14.4206-9.77827 7.66405-13.67504-36.98866-42.10789-71.14913 38.82269-116.73839-29.91146-2.7872-4.20213-.044-11.08887 6.48146-19.75369z"/><path fill="url(#x)" d="m-696.89174 725.09272c-6.58007 36.73029-28.39176 62.79169-47.34305 91.77567 3.19951-8.21388 4.90527-17.6919 5.08359-29.7898-6.01961 13.44993-11.96339 17.89424-11.96339 17.89424s11.93014-25.05176.15219-48.93807c-6.86263 38.30806-8.46952 29.84795-30.36592 62.01983 0 0 4.20995-11.56206.94895-17.58924-6.37607 12.30173-24.99713 28.97185-36.7544 34.70397-1.51222.73719 4.17054-5.59419 1.10149-13.96289-11.49204 14.88966-45.28717 31.46714-60.15581 27.90888l-14.06458 41.61762c7.6418 7.32819 16.51845 11.93401 26.04495 14.30185-23.88948 21.48997-46.05472 38.84978-53.39469 37.09326l-1.8978 1.77921c74.20508 22.53499 179.18568-19.46944 202.9542-81.45936-8.71567 7.8334-15.84398 9.56872-29.63779 14.50848 14.58256-4.565 33.93817-35.99459 44.64428-74.86645-6.9478 15.52394-31.70705 34.48262-31.70705 34.48262.63604 2.12108 43.25028-76.31929 36.35457-111.47982z"/></g></svg>