<svg xmlns="http://www.w3.org/2000/svg" xmlns:xlink="http://www.w3.org/1999/xlink" width="48" height="48"><linearGradient id="a" x1="409.697" x2="409.697" y1="546.319" y2="501.277" gradientUnits="userSpaceOnUse"><stop offset="0" stop-color="#3c309a"/><stop offset="1" stop-color="#6558cb"/></linearGradient><linearGradient id="b" x1="23.29" x2="23.517" y1="45.566" y2="1.925" gradientUnits="userSpaceOnUse"><stop offset="0" stop-color="#ececec"/><stop offset="1" stop-color="#fff"/></linearGradient><g transform="matrix(.95652174 0 0 .95652174 -366.807455 -477.024174)"><rect width="45.042" height="45.042" x="386.051" y="501.277" fill="url(#a)" ry="22.521"/><path fill="url(#b)" stroke-width=".957" d="m24 2c-12.139409 0-22 9.860591-22 22s9.860591 22 22 22c12.139418 0 22-9.860591 22-22s-9.860582-22-22-22zm0 1.8339844c11.148758 0 20.166016 9.0172666 20.166016 20.1660156 0 11.148758-9.017258 20.166016-20.166016 20.166016-11.148749 0-20.1660156-9.017258-20.1660156-20.166016 0-.958967.0721133-1.901166.2011718-2.824219 2.1319162 1.791147 4.8736958 2.878907 7.8730468 2.878907 6.769018 0 12.263672-5.494674 12.263672-12.263672 0-2.9571894-1.058525-5.6623186-2.804687-7.7812504.862011-.1121464 1.739927-.1757812 2.632812-.1757812z" transform="matrix(1.0454545 0 0 1.0454545 383.48052 498.70709)"/></g></svg>