<svg xmlns="http://www.w3.org/2000/svg" xmlns:xlink="http://www.w3.org/1999/xlink" width="48" height="48"><linearGradient id="a" x1="11.661" x2="10.416" y1="56.928" y2="32.881" gradientUnits="userSpaceOnUse"><stop offset="0" stop-color="#cdd0d1"/><stop offset="1" stop-color="#f6f6f7"/></linearGradient><linearGradient id="b" x1="14.428" x2="5.506" y1="47.468" y2="39.642" gradientUnits="userSpaceOnUse"><stop offset="0" stop-color="#16a085"/><stop offset="1" stop-color="#2dcb72"/></linearGradient><filter id="c" color-interpolation-filters="sRGB"><feColorMatrix values="0.21 0.72 0.072 0 0 0.21 0.72 0.072 0 0 0.21 0.72 0.072 0 0 0 0 0 1 0"/></filter><linearGradient id="d" x1="-40.736" x2="7.663" y1="63.686" y2="7.685" gradientUnits="userSpaceOnUse"><stop offset="0" stop-color="#9e5ba2"/><stop offset=".353" stop-color="#f46951"/><stop offset="1" stop-color="#fe4172"/></linearGradient><g transform="matrix(.69654364 -.00959983 .00959983 .69654364 29.521126 1.147661)"><rect width="49.64" height="37.355" x="-33.839" y="8.572" fill="#5672d4" ry="1.544" transform="matrix(.99999416 -.00341659 .00341659 .99999416 0 0)"/><rect width="49.64" height="37.355" x="-42.624" y="13.685" fill="url(#d)" ry="1.544" transform="matrix(.98818625 -.15325775 .15325775 .98818625 0 0)"/><circle cx="11.184" cy="45.123" r="12.349" fill="url(#a)" filter="url(#c)" transform="matrix(.78017865 0 0 .78017865 2.581938 10.521665)"/><path fill="url(#b)" d="m14.428456 47.271288-8.9226783.196284 4.2913527-7.825408z" filter="url(#c)" transform="matrix(-.0138427 .90747861 -.90747861 -.0138427 51.546127 37.320471)"/><path fill="#fff" d="m-19.91545 43.89642c.01397-.24812-.04618-.67971-.133672-.959077l-.159052-.507938-5.065219.972455-5.065217.972456.0766.708394c.139307 1.288079-.154206 1.275977 5.344154.220359l4.977001-.955514zm.989405-8.723977c.875389-.681904 1.464707-1.923594 1.490999-3.141518.02903-1.345092-1.414183-8.7592-1.749269-8.986345-.304114-.206152-2.339245.149635-2.678822.468317-.19265.180795-.0941.943688.577945 4.475827.794497 4.175498.803778 4.267329.479854 4.745876-.461421.681658-1.543028.842607-2.490989.370665-.393087-.195696-.791174-.341132-.884636-.323189-.263653.05062-1.358493 1.906523-1.301088 2.205526.08543.444999 1.815309 1.176545 2.960069 1.251783 1.000236.06574 2.844251-.481395 3.595937-1.066942zm-8.043701 1.403418c.04111-.730325-.32694-1.454491-.753581-1.482732-.350962-.02323-.405589-.21443-1.110836-3.887837-.73588-3.832983-.738788-3.865427-.368979-4.120122.289364-.19929.35174-.434102.278852-1.049717-.14636-1.236143-.312429-1.286029-2.733639-.821188-1.401837.269134-2.171484.492619-2.287884.664326-.09648.142316-.107861.610545-.02532 1.040509.123752.644466.231074.801385.611267.893557.455404.110406.471621.158073 1.294769 3.806206.84636 3.751006.874318 4.197121.270266 4.31309-.181462.03484-.197277.318298-.05818 1.042797l.191003.994957 2.332096-.447728 2.3321-.447729.02805-.49838z"/></g></svg>