<svg xmlns="http://www.w3.org/2000/svg" xmlns:xlink="http://www.w3.org/1999/xlink" width="48" height="48"><linearGradient id="a"><stop offset="0" stop-color="#ee643a"/><stop offset="1" stop-color="#fe9473"/></linearGradient><linearGradient id="b" x1="409.649" x2="409.649" y1="542.816" y2="504.693" gradientUnits="userSpaceOnUse"><stop offset="0" stop-color="#2a2c2f"/><stop offset="1" stop-color="#5e6468"/></linearGradient><linearGradient id="c" x1="412.34" x2="412.34" y1="542.816" y2="504.693" gradientUnits="userSpaceOnUse" xlink:href="#a"/><linearGradient id="d" x1="29.444" x2="29.444" y1="201.732" y2="18.617" gradientTransform="matrix(.17721242 .02489309 -.02489309 .17721242 406.02952 501.83171)" gradientUnits="userSpaceOnUse" xlink:href="#a"/><g transform="matrix(1.1566277 0 0 1.1566277 -448.515057 -581.789257)"><rect width="38.123" height="38.123" x="389.467" y="504.693" fill="url(#b)" ry="19.061"/><path fill-opacity=".078" d="m412.44444 510.49944c-.97693.12322-3.25806.39608-2.84979 1.69595l-.17963-.17963-2.54878 18.14414c-.83888-.76312-3.22467-1.38661-3.59905-.79619l-.17963-.17963c-2.24259.21877-4.57972 2.11995-4.31271 4.54411.10617.84279.53689 1.50201 1.07292 2.0973-.0177-.0197-.0393-.0331-.0566-.0534l.0728.0728c.20654.22787.43282.44333.65865.65865l1.17972 1.17971c.002.002.005.004.007.007l5.04094 5.04093c.58558.0538 1.17842.0858 1.77849.0858 10.56001 0 19.06169-8.50168 19.06169-19.06169 0-1.00698-.0775-1.99426-.22656-2.95821l-7.15441-7.15441c-.15653-.14748-.42325-.42164-.65055-.65054l-.42884-.42885c-.56578-.39923-.57111-.34158-.38838-.13755l-.21848-.21685-6.07824-1.7089z"/><path fill="url(#d)" d="m419.1575 513.55822s.18607-.61985.0554-.88499c-.12266-.24877-.69046-.46439-.69046-.46439l-6.07857-1.71004h-.00001-.00001c-1.0888.1489-2.86877.37318-3.02949 1.5173l-2.54867 18.14387c-.97944-.73624-2.30995-1.16502-3.77833-.97596-2.64975.34138-4.56625 2.37818-4.31281 4.54434.25351 2.16566 2.603 3.68581 5.2527 3.34467 2.11397-.2725 3.73896-1.65474 4.19673-3.28898l2.46756-17.13762 6.87879-.94116"/><rect width="38.123" height="38.123" x="389.467" y="504.693" fill="none" stroke="url(#c)" stroke-width="1.648" ry="19.061"/></g></svg>