<svg xmlns="http://www.w3.org/2000/svg" xmlns:xlink="http://www.w3.org/1999/xlink" width="48" height="48"><linearGradient id="a"><stop offset="0" stop-color="#69f"/><stop offset="1" stop-color="#039"/></linearGradient><linearGradient id="b" x1="16.723" x2="41.396" y1="10.662" y2="60.007" gradientUnits="userSpaceOnUse" xlink:href="#a"/><linearGradient id="c" x1="34.274" x2="46.983" y1="31.264" y2="46.78" gradientUnits="userSpaceOnUse" xlink:href="#a"/><linearGradient id="d" x1="391.571" x2="391.571" y1="531.798" y2="501.699" gradientTransform="matrix(.65404479 0 0 .80635549 -234.76111 -383.71624)" gradientUnits="userSpaceOnUse"><stop offset="0" stop-color="#c2c3c3"/><stop offset="1" stop-color="#e9eaeb"/></linearGradient><linearGradient id="e" x1="408.524" x2="409.266" y1="506.485" y2="533.195" gradientTransform="matrix(-.60373434 0 0 -.60373434 283.1764 349.26214)" gradientUnits="userSpaceOnUse"><stop offset="0" stop-color="#1e1e1e"/><stop offset="1" stop-color="#6b6969"/></linearGradient><linearGradient id="f" x1="31.638" x2="41.821" y1="30.572" y2="40.755" gradientUnits="userSpaceOnUse"><stop offset="0" stop-color="#18222a"/><stop offset="1" stop-color="#566069"/></linearGradient><linearGradient id="g" x1="21.59" x2="21.59" y1="26.554" y2="23.536" gradientUnits="userSpaceOnUse"><stop offset="0" stop-color="#2f3943"/><stop offset="1" stop-color="#808c9b"/></linearGradient><linearGradient id="h" x1="8.643" x2="9.56" y1="19.665" y2="11.553" gradientUnits="userSpaceOnUse"><stop offset="0" stop-color="#eefefe"/><stop offset="1" stop-color="#d6fefe"/></linearGradient><path fill="url(#b)" stroke-width=".546" d="m.36561072 7.3788643h39.43400128c.695847 0 1.256043.5601951 1.256043 1.2560429v29.7008128c0 .695847-.560196 1.256043-1.256043 1.256043h-39.43400128c-.6958478 0-1.25604296-.560196-1.25604296-1.256043v-29.7008128c0-.6958478.56019516-1.2560429 1.25604296-1.2560429z" transform="matrix(.99253125 -.12199068 .12199068 .99253125 0 0)"/><path fill="#661844" fill-rule="evenodd" stroke-width=".546" d="m3.5097757 35.911886 8.0336463-3.441534 2.865506 1.365251 5.880284-2.682455 6.30108 1.197772 4.476331.375821 3.207409-1.463171 3.998563-1.442312 5.939513-6.581692 1.414403 11.248562-39.7926087 4.78007s-1.8294851.57862-2.0227934-.959153z"/><path fill="url(#h)" stroke-width=".546" d="m12.970218 16.020611a3.8096097 3.8096097 0 0 1 -3.8096097 3.809609 3.8096097 3.8096097 0 0 1 -3.8096097-3.809609 3.8096097 3.8096097 0 0 1 3.8096097-3.80961 3.8096097 3.8096097 0 0 1 3.8096097 3.80961z" opacity=".811" transform="matrix(.99253125 -.12199068 .12199068 .99253125 0 0)"/><g stroke-width=".604"><path fill="url(#g)" d="m19.778943 24.743139h2.414929c.334469 0 .603734.269266.603734.603735v.603741c0 .334468-.269265.603734-.603734.603734h-2.414929c-.334468 0-.603734-.269266-.603734-.603734v-.603741c0-.334469.269266-.603735.603734-.603735z"/><path fill="url(#d)" d="m17.671419 25.749487h29.582983c.501703 0 .905602.403898.905602.905601v17.541314c0 .501703-.403899.905601-.905602.905601h-29.582983c-.501703 0-.905601-.403898-.905601-.905601v-17.541314c0-.501703.403898-.905601.905601-.905601z"/><path fill="url(#e)" d="m28.055527 35.442242a8.4522645 8.4522645 0 0 1 8.452263-8.452263 8.4522645 8.4522645 0 0 1 8.452263 8.452263 8.4522645 8.4522645 0 0 1 -8.452263 8.452268 8.4522645 8.4522645 0 0 1 -8.452263-8.452268z"/><path fill="url(#f)" d="m43.148899 35.442253a6.6410708 6.6410708 0 0 1 -6.641071 6.641071 6.6410708 6.6410708 0 0 1 -6.641071-6.641071 6.6410708 6.6410708 0 0 1 6.641071-6.641071 6.6410708 6.6410708 0 0 1 6.641071 6.641071z"/><path fill="url(#c)" d="m42.545164 35.442253a6.0373363 6.0373363 0 0 1 -6.037336 6.037336 6.0373363 6.0373363 0 0 1 -6.037337-6.037336 6.0373363 6.0373363 0 0 1 6.037337-6.037336 6.0373363 6.0373363 0 0 1 6.037336 6.037336z"/></g></svg>