<svg xmlns="http://www.w3.org/2000/svg" xmlns:xlink="http://www.w3.org/1999/xlink" width="48" height="48"><linearGradient id="a"><stop offset="0" stop-color="#141414"/><stop offset="1" stop-color="#2d2d2f"/></linearGradient><linearGradient id="b"><stop offset="0" stop-color="#08f"/><stop offset="1" stop-color="#02c3ff"/></linearGradient><linearGradient id="c" x1="169.501" x2="159.237" y1="624.716" y2="63.269" gradientTransform="matrix(.93022459 0 0 .91890978 14.81504 32.586917)" gradientUnits="userSpaceOnUse" xlink:href="#b"/><linearGradient id="d" x1="159.463" x2="160.663" y1="668.026" y2="596.966" gradientUnits="userSpaceOnUse" xlink:href="#b"/><linearGradient id="e" x1="8.167" x2="8.115" y1="1050.466" y2="1038.352" gradientUnits="userSpaceOnUse" xlink:href="#a"/><linearGradient x1="184.707" x2="187.277" y1="448.413" y2="70.326" gradientUnits="userSpaceOnUse" xlink:href="#a"/><linearGradient id="f" x1="159.463" x2="160.663" y1="668.026" y2="596.966" gradientUnits="userSpaceOnUse" xlink:href="#b"/><g transform="matrix(.076441562756 0 0 .066492768455 11.666752268332 1.204095199319)"><rect width="292.693" height="525.809" x="18.553" y="87.912" fill="url(#c)" fill-rule="evenodd" ry="9.302"/><path fill="url(#e)" d="m11.403509 1037.3622h-6.807018c-.310036 0-.561404.2514-.561404.5614v12.8772c0 .31.251368.5614.561404.5614h6.807018c.310035 0 .561404-.2514.561404-.5614v-12.8772c0-.31-.251369-.5614-.561404-.5614zm-.08154 11.7777h-6.643931v-9.5554h6.643931z" transform="matrix(42.98335 0 0 49.41461 -182.5246 -51263.918)"/><ellipse cx="161.342" cy="637.978" fill="url(#f)" fill-rule="evenodd" stroke="url(#d)" stroke-linecap="round" stroke-width="7.411" rx="25.226" ry="29"/></g><g fill="#121212" fill-opacity=".847" transform="matrix(.71755144167 0 0 .715339713443 350.563274576439 116.999115051257)"><ellipse cx="-462.608" cy="-130.507" rx="2.5" ry="2.5"/><ellipse cx="-458.108" cy="-123.007" rx="3" ry="3"/><ellipse cx="-460.608" cy="-138.507" rx="1.5" ry="1.5"/><path d="m-452.10784-140.00692-2.84375 2.84374 4.375 4.375-4.53125 5.15625 3 2.625 7.00002-8 0 0-7.00002-6.99999z"/></g></svg>