<svg xmlns="http://www.w3.org/2000/svg" xmlns:xlink="http://www.w3.org/1999/xlink" width="48" height="48"><linearGradient id="a" x1="403.502" x2="403.502" y1="518.798" y2="526.798" gradientTransform="matrix(.70710678 -.70710678 .70710678 .70710678 -226.43515 425.82051)" gradientUnits="userSpaceOnUse"><stop offset="0"/><stop offset="1" stop-opacity="0"/></linearGradient><linearGradient id="b"><stop offset="0" stop-color="#da4453"/><stop offset="1" stop-color="#ff7336"/></linearGradient><linearGradient id="c"><stop offset="0" stop-color="#197cf1"/><stop offset="1" stop-color="#21c9fb"/></linearGradient><linearGradient id="d" x1="428.572" x2="422.597" y1="510.798" y2="504.823" gradientUnits="userSpaceOnUse" xlink:href="#c"/><linearGradient id="e" x1="428.572" x2="422.597" y1="521.798" y2="515.823" gradientUnits="userSpaceOnUse" xlink:href="#c"/><linearGradient id="f" x1="417.571" x2="411.597" y1="521.798" y2="515.823" gradientUnits="userSpaceOnUse" xlink:href="#b"/><linearGradient id="g" x1="417.572" x2="411.597" y1="510.798" y2="504.823" gradientUnits="userSpaceOnUse" xlink:href="#c"/><linearGradient id="h" x1="406.571" x2="400.597" y1="521.798" y2="515.823" gradientUnits="userSpaceOnUse" xlink:href="#c"/><linearGradient id="i" x1="417.572" x2="411.597" y1="532.798" y2="526.823" gradientUnits="userSpaceOnUse" xlink:href="#c"/><linearGradient id="j" x1="406.571" x2="400.597" y1="532.798" y2="526.823" gradientUnits="userSpaceOnUse" xlink:href="#b"/><linearGradient id="k" x1="353.802" x2="353.448" y1="547.836" y2="514.072" gradientTransform="matrix(.89348903 0 0 1.0023825 99.225842 -13.311416)" gradientUnits="userSpaceOnUse"><stop offset="0" stop-color="#363636"/><stop offset="1" stop-color="#595959"/></linearGradient><linearGradient id="l" x1="362.641" x2="362.641" y1="548.72" y2="513.541" gradientTransform="matrix(.89348903 0 0 1.0023825 99.225842 -13.311416)" gradientUnits="userSpaceOnUse" xlink:href="#c"/><g transform="matrix(.926777698296 -.004543844451 .004543844451 .926777698296 -362.707151477465 -453.84767943632)"><rect width="42.33" height="33.845" x="393.705" y="502.074" fill="url(#k)" stroke="url(#l)" stroke-linecap="round" stroke-linejoin="round" stroke-width="1.42" ry="1.504" transform="matrix(1.1838068 .00580402 -.00580402 1.1838068 -73.243171 -98.924483)"/><g fill="#3daefd"><path d="m404.93974 520.44443-.70711.70711 8.48529 8.48528.7071-.7071z"/><path d="m413.57144 506.798h12v1h-12z"/><path d="m424.57144 507.79797h1v7h-1z"/></g><path fill="url(#a)" d="m425.57143 506.798-2.97461 2.97461 2.97461 2.97461v-5.94922z" opacity=".2"/><circle cx="425.071" cy="507.298" r="3.5" fill="url(#d)"/><circle cx="414.071" cy="518.298" r="3.5" fill="url(#f)"/><path fill="#3daefd" d="m412.71791 508.44443.70711.70711-8.48529 8.48528-.7071-.7071z"/><circle cx="414.071" cy="507.298" r="3.5" fill="url(#g)"/><circle cx="403.071" cy="518.298" r="3.5" fill="url(#h)"/><circle cx="414.071" cy="529.298" r="3.5" fill="url(#i)"/><circle cx="403.071" cy="529.298" r="3.5" fill="url(#j)"/><path fill="#3daefd" d="m424.71791 518.44443.70711.70711-8.48529 8.48528-.7071-.7071z"/><circle cx="425.071" cy="518.298" r="3.5" fill="url(#e)"/></g></svg>