<svg xmlns="http://www.w3.org/2000/svg" xmlns:xlink="http://www.w3.org/1999/xlink" width="48" height="48"><linearGradient id="a" x1="81.967" x2="81.242" y1="-5.791" y2="-33.497" gradientUnits="userSpaceOnUse"><stop offset="0" stop-color="#1365f4"/><stop offset="1" stop-color="#05b2fc"/></linearGradient><linearGradient id="b" x1="119.444" x2="119.073" y1="30.795" y2="3.443" gradientUnits="userSpaceOnUse"><stop offset="0" stop-color="#ff3069"/><stop offset="1" stop-color="#ffa548"/></linearGradient><linearGradient id="c" x1="99.331" x2="97.913" y1="24.939" y2="-29.181" gradientUnits="userSpaceOnUse"><stop offset="0" stop-color="#b7b7b8"/><stop offset="1" stop-color="#f0f0f0"/></linearGradient><g><g><path fill="url(#c)" d="m76.109255-29.686724h50.228775c2.3189 0 4.18575 1.866836 4.18575 4.185729v50.228779c0 2.318896-1.86685 4.185732-4.18575 4.185732h-50.228775c-2.318895 0-4.185731-1.866836-4.185731-4.185732v-50.228777c0-2.318895 1.866836-4.185731 4.185731-4.185731z" transform="matrix(.999999985299 .000000001513 -.000000001513 .999999985299 -44.257583501679 -7.876174856958) matrix(.68171787 0 0 .68171787 -1.055999 32.434141)"/><path fill="url(#b)" d="m107.55604 2.1188853h25.71429c1.18714 0 2.14285.9557143 2.14285 2.1428572v25.7142865c0 1.187143-.95571 2.142857-2.14285 2.142857h-25.71429c-1.18714 0-2.14286-.955714-2.14286-2.142857v-25.7142865c0-1.1871429.95572-2.1428572 2.14286-2.1428572z" transform="matrix(.999999985299 .000000001513 -.000000001513 .999999985299 -44.257583501679 -7.876174856958) matrix(.68171787 0 0 .68171787 -1.055999 32.434141)"/><path fill="url(#a)" d="m70.079442-33.755825h25.714287c1.187143 0 2.142857.955714 2.142857 2.142857v25.7142858c0 1.1871429-.955714 2.1428574-2.142857 2.1428574h-25.714287c-1.187143 0-2.142857-.9557145-2.142857-2.1428574v-25.7142858c0-1.187143.955714-2.142857 2.142857-2.142857z" transform="matrix(.999999985299 .000000001513 -.000000001513 .999999985299 -44.257583501679 -7.876174856958) matrix(.68171787 0 0 .68171787 -1.055999 32.434141)"/><path fill="#fff" fill-opacity=".847" d="m65.766483-48.324389q-.585 0-.9825-.3375-.39-.3375-.39-.8925 0-.6.465-.9375.465-.345 1.1475-.345.6075 0 .9975.225v-.105q0-.405-.2775-.645-.2775-.2475-.6825-.2475-.3 0-.5475.1425-.24.1425-.33.39l-.63-.27q.1275-.33.5025-.6075.375-.285.99-.285.705 0 1.17.4125.465.4125.465 1.1625v2.22h-.66v-.51h-.03q-.4125.63-1.2075.63zm.1125-.63q.4275 0 .7725-.315.3525-.3225.3525-.7575-.2925-.24-.8775-.24-.5025 0-.7575.2175-.255.2175-.255.51 0 .27.2325.4275.2325.1575.5325.1575z" transform="matrix(.999999985299 .000000001513 -.000000001513 .999999985299 -44.257583501679 -7.876174856958) matrix(.68171787 0 0 .68171787 -1.055999 32.434141) matrix(4.5977012 0 0 4.5977012 -221.15571 212.17928)"/><path fill="#fff" fill-opacity=".847" d="m28.569112-14.097868q-.42 0-.7575-.18-.33-.18-.495-.45h-.03v.51h-.66v-5.37h.69v1.695l-.03.51h.03q.165-.27.495-.45.3375-.18.7575-.18.7125 0 1.23.5625.5175.5625.5175 1.395 0 .8325-.5175 1.395-.5175.5625-1.23.5625zm-.1125-.63q.48 0 .825-.36.345-.3675.345-.9675 0-.6-.345-.96-.345-.3675-.825-.3675-.4875 0-.8325.36-.3375.36-.3375.9675 0 .6075.3375.9675.345.36.8325.36z" transform="matrix(.999999985299 .000000001513 -.000000001513 .999999985299 -44.257583501679 -7.876174856958) matrix(.68171787 0 0 .68171787 -1.055999 32.434141) matrix(4.007286 0 0 4.007286 7.261137 84.593404)"/></g></g></svg>