<svg xmlns="http://www.w3.org/2000/svg" xmlns:xlink="http://www.w3.org/1999/xlink" width="48" height="48"><linearGradient id="a" x1="394.276" x2="394.276" y1="544.805" y2="498.955" gradientUnits="userSpaceOnUse"><stop offset="0" stop-color="#3889e9"/><stop offset="1" stop-color="#5ea5fb"/></linearGradient><linearGradient id="b" x1="408.697" x2="408.263" y1="546.473" y2="501.123" gradientUnits="userSpaceOnUse"><stop offset="0" stop-color="#4d4d4d"/><stop offset="1" stop-color="gray"/></linearGradient><linearGradient id="c" x1="408.949" x2="408.516" y1="546.209" y2="500.881" gradientUnits="userSpaceOnUse"><stop offset="0" stop-color="#ccc"/><stop offset="1" stop-color="#f2f2f2"/></linearGradient><g transform="matrix(.95833337 0 0 .95833337 -367.789891 -477.730862)"><circle cx="395.913" cy="521.88" r="0" fill="url(#a)"/><circle cx="408.571" cy="523.798" r="23" fill="url(#b)"/><path fill-opacity=".078" d="m36.738281 11.835938c-3.1538 0-11.866012 3.096555-16.419922 9.291015l-3.578125.707031-4.001953 4.003907 2.009766 2.009765-.01563-.002-1.726563 1.697266v2.007812l1.007813 1.00586-1.048828 1.044921v2.007813l11.378906 11.378906a23 23 0 0 0 22.656255-22.988234 23 23 0 0 0 -.103516-2.005859z" transform="translate(384.57143 499.798)"/><path fill="#fff" d="m397.30911 525.63509 4.00236-4.00236 3.57808-.70713c4.55391-6.19446 13.26576-9.29169 16.41956-9.29169 0 3.1538-3.09723 11.86565-9.29169 16.41956l-.70713 3.57808-4.00236 4.00236-1.00412-4.99234c-1.99411 0-1.99411 0-2.99824-1.00412-1.00412-1.00413-1.00412-1.00413-1.00412-2.99824zm4.00236 4.00236 1.9941 1.9941-3.76193 3.77608h-2.00825v-2.00825zm-2.00825-1.99411 1.75368.24042-3.47908 3.46494v-2.00825zm5.75604 4.24278.24042 1.75368-1.69711 1.7254h-2.00825zm6.66116-12.78491a2.1213907 2.1213907 0 0 0 -2.12139 2.12139 2.1213907 2.1213907 0 0 0 2.12139 2.12139 2.1213907 2.1213907 0 0 0 2.12139-2.12139 2.1213907 2.1213907 0 0 0 -2.12139-2.12139z"/><circle cx="408.824" cy="523.545" r="22.989" fill="none" stroke="url(#c)" stroke-linecap="round" stroke-linejoin="round" stroke-width="2.021"/></g></svg>