<svg xmlns="http://www.w3.org/2000/svg" xmlns:xlink="http://www.w3.org/1999/xlink" width="48" height="48"><linearGradient id="a" x1="409.571" x2="409.571" y1="543.798" y2="503.798" gradientTransform="matrix(1.2361374 0 0 1.0987888 -530.07919 -558.50109)" gradientUnits="userSpaceOnUse"><stop offset="0" stop-color="#31d145"/><stop offset="1" stop-color="#4bf082"/></linearGradient><linearGradient id="b" x1="22.397" x2="23.274" y1="45.022" y2="2.422" gradientUnits="userSpaceOnUse" xlink:href="#a"/><linearGradient id="c" x1="32.822" x2="45.668" y1="35.986" y2="32.713" gradientUnits="userSpaceOnUse" spreadMethod="pad"><stop offset="0" stop-color="#80ffb3"/><stop offset="1" stop-color="#5fd35f"/></linearGradient><linearGradient id="d" x1="17.605" x2="45.354" y1="11.389" y2="23.511" gradientUnits="userSpaceOnUse" xlink:href="#a"/><path fill-opacity=".667" d="m4.28732 2.9777778c-1.083377 0-1.955555.8721778-1.955555 1.9555555v.026736 39.0576387.02674c0 1.083374.872178 1.955552 1.955555 1.955552h39.111112c1.083377 0 1.955555-.872178 1.955555-1.955556.249046-13.570226.299807-25.554702.299807-39.0843745.000007-1.0979008-.884384-1.9822917-1.982285-1.9822917h-.27309z"/><path fill="url(#d)" d="m4.287321 2h39.111109c1.083378 0 1.955556.872178 1.955556 1.955556v39.111109c0 1.083378-.872178 1.955556-1.955556 1.955556h-39.111109c-1.0833781 0-1.9555561-.872178-1.9555561-1.955556v-39.111109c0-1.083378.872178-1.955556 1.9555561-1.955556z"/><path fill="url(#b)" d="m4.3140565 2c-1.0979008 0-1.9822917.884391-1.9822917 1.9822917v39.0576383c0 1.097901.8843909 1.982292 1.9822917 1.982292h18.0831595c15.217331-1.100459 23.173758-8.998305 23.252778-23.965104.0069-.152402.01024-.303637.01146-.454513-.000374-.0679.0045-.130428.0038-.198612-.0019.01091-.0038.02156-.0057.03247-.001-.166378.0024-.334119-.0057-.498438v-15.9557333c-.00004-1.0979008-.884431-1.9822917-1.982332-1.9822917z"/><path fill="url(#c)" fill-rule="evenodd" stroke-width="1.22" d="m22.397194 45.022222c7.082158-1.763948 10.262001-5.535669 13.016592-10.934729 7.313974-2.123707 9.183364-7.652642 10.252186-13.682852.156716 15.400467-7.826599 23.500861-23.268778 24.617581z" opacity=".9"/><path fill="#d7eef4" d="m35.829326 17.190685-.990883-1.21037c-.408244-.498616-1.148429-.57242-1.650992-.164621l-12.692179 10.394223-5.442879-6.648514c-.408188-.498661-1.148424-.57247-1.650941-.164616l-1.21042.990879c-.498616.408243-.572421 1.148429-.164616 1.65094l7.173486 8.762405c.205875.251478.488766.397104.7872.426861.298436.02975.608412-.05675.85604-.263013l14.809912-12.124345c.511035-.414782.584455-1.151117.176272-1.649829z" opacity=".7"/></svg>