<svg xmlns="http://www.w3.org/2000/svg" xmlns:xlink="http://www.w3.org/1999/xlink" width="48" height="48"><linearGradient x1="0" x2="47" y1="23.5" y2="23.5" gradientUnits="userSpaceOnUse"><stop offset="0" stop-color="#a9a3d4"/><stop offset=".47" stop-color="#87baff"/><stop offset="1" stop-color="#89ec85"/></linearGradient><linearGradient id="a"><stop offset="0" stop-color="#d3d3d3"/><stop offset="1" stop-color="#fcf9f9"/></linearGradient><linearGradient id="b" x1="444.477" x2="444.477" y1="554.773" y2="526.378" gradientUnits="userSpaceOnUse"><stop offset="0" stop-color="#0bac83"/><stop offset="1" stop-color="#10da96"/></linearGradient><linearGradient id="c" x1="445.163" x2="445.163" y1="555.634" y2="525.728" gradientUnits="userSpaceOnUse" xlink:href="#a"/><linearGradient id="d" x1="444.948" x2="444.68" y1="555.206" y2="525.996" gradientUnits="userSpaceOnUse" xlink:href="#a"/><g stroke-width="1.317" transform="matrix(1.47909970662 0 0 1.47909970662 -633.945030959661 -775.741095750135)"><circle cx="444.828" cy="540.695" r="14.198" fill="url(#b)"/><path fill-opacity=".078" d="m23.837891 12.578125-12 5.535156v14.769531l12.113281 12.115235a20.999999 20.999999 0 0 0 .048828.001953 20.999999 20.999999 0 0 0 20.753906-17.970703l-8.916015-8.916016v5.539063l-3.69336-3.69336-1.576172-.65039z" transform="matrix(.67608694 0 0 .67608694 428.60196 524.46843)"/><path fill="url(#c)" d="m444.82812 525.82031c-8.20662 0-14.87304 6.66837-14.87304 14.875s6.66642 14.87305 14.87304 14.87305c8.20663 0 14.87305-6.66642 14.87305-14.87305s-6.66642-14.875-14.87305-14.875zm0 1.35157c7.47593 0 13.52149 6.04751 13.52149 13.52343 0 7.47593-6.04556 13.52149-13.52149 13.52149-7.47592 0-13.52148-6.04556-13.52148-13.52149 0-7.47592 6.04556-13.52343 13.52148-13.52343z"/><path fill="url(#d)" d="m444.71806 532.97274-8.11304 3.74198v9.98529l2.49631 1.24566 3.12041-1.24566v-2.49632l-3.12041-1.24816v-4.99264l5.61673-2.31847 5.61672 2.31847v4.99264l-3.1204 1.24816v2.49632l3.1204 1.24566 2.49633-1.24566v-9.98529m-8.11305-3.74198"/></g></svg>