<svg xmlns="http://www.w3.org/2000/svg" xmlns:xlink="http://www.w3.org/1999/xlink" width="48" height="48" enable-background="new" viewBox="0 0 48 48"><linearGradient id="a" x1="125.107" x2="126.504" y1="41.939" y2="-16.99" gradientUnits="userSpaceOnUse"><stop offset="0" stop-color="#5fbcd3"/><stop offset="1" stop-color="#87cdde"/></linearGradient><linearGradient id="b" x1="24.64" x2="25.666" y1="1049.697" y2="1006.401" gradientUnits="userSpaceOnUse"><stop offset="0" stop-color="#ececec"/><stop offset="1" stop-color="#ececec"/></linearGradient><linearGradient id="c" x1="24.141" x2="24.107" y1="1037.528" y2="1018.771" gradientUnits="userSpaceOnUse"><stop offset="0" stop-color="#ff4085"/><stop offset="1" stop-color="#ff40a3"/></linearGradient><g><path fill="url(#a)" d="m124.23602-17.099379c-16.568 0-29.999996 13.4320003-29.999996 30 0 16.568 13.431996 30 29.999996 30s30-13.432 30-30c0-16.5679997-13.432-30-30-30" transform="translate(0 -1004.3622) matrix(.76666667 0 0 .76666667 -71.247619 1018.4717)"/><path fill-opacity=".078" d="m29.466797 14.177734c-2.162545.096-4.322046 1.394838-5.291016 3.148438l-1.080078-1.080078c-2.544808-2.5449-7.61232-2.908631-9.611328 1.667968-1.23726 3.886001 1.123028 7.573819 3.929687 10.449219l16.427735 16.427735c6.369315-3.020791 11.127373-8.882069 12.642578-15.947266l-13.267578-13.267578c-1.052348-1.0523-2.400233-1.458438-3.75-1.398438z" transform="translate(0 -1004.3622) translate(0 1004.3622)"/><path fill="url(#c)" d="m13.452377 1022.2836c2.300294-5.2663 8.665203-3.991 10.571927-.3783 1.745425-3.5882 8.507941-5.4462 10.572561.372 2.500023 7.728-5.90604 11.9558-10.585671 17.0849-4.581665-4.9366-13.060114-9.2225-10.558817-17.0786z" transform="translate(0 -1004.3622)"/><path fill="url(#b)" d="m24 1005.3622c-12.690835 0-23 10.3091-23 23 0 12.6908 10.30916 23 23 23 12.690839 0 23-10.3092 23-23 0-12.6909-10.309165-23-23-23zm0 1.9167c11.654921 0 21.083333 9.4283 21.083333 21.0833 0 11.6549-9.428416 21.0833-21.083333 21.0833s-21.0833329-9.4284-21.0833329-21.0833c0-11.655 9.4284109-21.0833 21.0833329-21.0833z" transform="translate(0 -1004.3622)"/></g></svg>