<svg xmlns="http://www.w3.org/2000/svg" xmlns:xlink="http://www.w3.org/1999/xlink" width="48" height="48" viewBox="0 0 48 48"><linearGradient id="a" x1="400.396" x2="400.396" y1="545.619" y2="517.619" gradientUnits="userSpaceOnUse"><stop offset="0" stop-color="#d3d3d3"/><stop offset="1" stop-color="#fcf9f9"/></linearGradient><linearGradient id="b" x1="395.929" x2="396.258" y1="547.827" y2="519.315" gradientUnits="userSpaceOnUse"><stop offset="0" stop-color="#2a2c2f"/><stop offset="1" stop-color="#424649"/></linearGradient><linearGradient id="c"><stop offset="0" stop-color="#8d3aff"/><stop offset="1" stop-color="#ff3680"/></linearGradient><linearGradient id="d" x1="406.629" x2="408.182" y1="535.45" y2="511.409" gradientUnits="userSpaceOnUse" xlink:href="#c"/><linearGradient id="e" x1="400.396" x2="400.396" y1="545.619" y2="517.619" gradientUnits="userSpaceOnUse" xlink:href="#c"/><g><g fill="url(#a)" stroke-width="1.3" transform="translate(-384.57143 -499.798) matrix(1.5862115 0 0 1.5862115 -226.8196 -319.74606)"><circle cx="400.571" cy="531.798" r="14" fill="url(#a)"/><circle cx="400.571" cy="531.798" r="14" fill="url(#b)" stroke="url(#b)" stroke-width="1"/><circle cx="400.571" cy="531.798" r="0" fill="url(#a)"/></g><g fill="none" stroke="url(#e)" stroke-width="1.3" transform="translate(-384.57143 -499.798) matrix(1.63823 0 0 1.63823 -247.65662 -347.4093)"><circle cx="400.571" cy="531.798" r="14" stroke-width="1.3"/><circle cx="400.571" cy="531.798" r="14" stroke-width="1"/><circle cx="400.571" cy="531.798" r="0" stroke-width="1.3"/></g><path fill="url(#d)" d="m405.30373 514.85528c-.77464.21739-1.3982 1.08184-1.3982 1.92163v13.31356c-.7855-.43065-1.79428-.6048-2.84014-.32019-1.88723.51341-3.06989 2.17277-2.66535 3.70584.40456 1.53298 2.26368 2.38924 4.15098 1.87571 1.50561-.40959 2.5435-1.56861 2.70899-2.79078l.0441-12.5816 9.78749-2.74509v9.92807c-.78549-.43068-1.79426-.60481-2.84016-.32031-1.88721.51344-3.06984 2.17288-2.66532 3.70586.40458 1.53307 2.2637 2.38922 4.15094 1.87579 1.50564-.40959 2.54352-1.56858 2.70903-2.79076l.0443-16.37903c0-.62973-.37172-1.10087-.87387-1.18949l-10.31181 2.79079z" opacity=".9" transform="translate(-384.57143 -499.798)"/></g></svg>