<svg xmlns="http://www.w3.org/2000/svg" xmlns:xlink="http://www.w3.org/1999/xlink" width="48" height="48" viewBox="0 0 48 48"><linearGradient id="a"><stop offset="0" stop-color="#b3b3b3"/><stop offset="1" stop-color="#f2f2f2"/></linearGradient><linearGradient id="b" x1="23.266" x2="23.201" y1="23.631" y2="4.569" gradientUnits="userSpaceOnUse" xlink:href="#a"/><linearGradient id="c" x1="34.851" x2="34.901" y1="33.55" y2="29.518" gradientUnits="userSpaceOnUse" xlink:href="#a"/><linearGradient id="d" x1="30.335" x2="30.287" y1="39.453" y2="33.955" gradientUnits="userSpaceOnUse" xlink:href="#a"/><radialGradient id="e" cx="14.831" cy="33.775" r="3.49" gradientTransform="matrix(.48584792 .02009349 -.02123823 .51352656 8.543618 14.998836)" gradientUnits="userSpaceOnUse" xlink:href="#a"/><linearGradient id="f" x1="23.904" x2="24.027" y1="44.894" y2="2.334" gradientUnits="userSpaceOnUse"><stop offset="0" stop-color="#00b0ff"/><stop offset="1" stop-color="#40c4ff"/></linearGradient><g transform="translate(0 -.273)"><rect width="32.145" height="43.546" x="7.927" y="3" fill-opacity=".549" rx="2.217"/><rect width="32.145" height="43.546" x="7.927" y="2" fill="url(#f)" rx="2.217"/><rect width="27.847" height="20.132" x="10.009" y="4.012" fill-opacity=".353" rx="1.373" ry="1.499"/><rect width="26.603" height="18.844" x="10.619" y="4.678" fill="url(#b)" rx="1.311" ry="1.403"/><circle cx="15.018" cy="32.739" r="4.434" fill-opacity=".353"/><path fill="url(#e)" d="m14.031677 29.475327c-.155899 0-.283056.124412-.283056.280308v1.684605h-1.602162c-.1559 0-.280306.12441-.280306.28031v1.970408c0 .1559.12441.280309.280306.280309h1.602162v1.552695c0 .155898.127153.283056.283056.283056h1.967662c.155899 0 .283057-.127155.283057-.283056v-1.552695h1.632388c.155901 0 .283059-.12441.283059-.280309v-1.970408c0-.155901-.127155-.28031-.283059-.28031h-1.632388v-1.684605c-.000001-.155899-.127155-.280308-.283057-.280308z"/><path fill="url(#c)" d="m36.825402 31.625684a1.9952167 1.9952167 0 0 1 -1.995215 1.995216 1.9952167 1.9952167 0 0 1 -1.995217-1.995216 1.9952167 1.9952167 0 0 1 1.995217-1.995217 1.9952167 1.9952167 0 0 1 1.995215 1.995217z"/><path fill="url(#d)" d="m33.127525 36.703804a2.7711343 2.7711343 0 0 1 -2.771136 2.771133 2.7711343 2.7711343 0 0 1 -2.771133-2.771133 2.7711343 2.7711343 0 0 1 2.771133-2.771134 2.7711343 2.7711343 0 0 1 2.771136 2.771134z"/><path fill-opacity=".078" d="m36.83876 23.111797c-.237037.253639-.56489.410101-.92815.410101h-23.980069c-.726521 0-1.31141-.625852-1.31141-1.403255v-16.0372027c0-.3887016.146223-.7395154.38326-.9931539z"/></g></svg>