<svg xmlns="http://www.w3.org/2000/svg" xmlns:xlink="http://www.w3.org/1999/xlink" width="48" height="48"><linearGradient id="a" x1="409.571" x2="409.571" y1="542.798" y2="507.798" gradientTransform="matrix(1.5206173 0 0 1.4848981 -248.57761 -257.97257)" gradientUnits="userSpaceOnUse"><stop offset="0" stop-color="#566069"/><stop offset="1" stop-color="#6c7884"/></linearGradient><linearGradient id="b" x1="371.647" x2="371.188" y1="546.473" y2="497.234" gradientUnits="userSpaceOnUse"><stop offset="0" stop-color="#ccc"/><stop offset="1" stop-color="#f5f2f5"/></linearGradient><linearGradient id="c" x1="234.388" x2="234.388" y1="516.509" y2="445.788" gradientUnits="userSpaceOnUse"><stop offset="0" stop-color="#3889e9"/><stop offset="1" stop-color="#5ea5fb"/></linearGradient><g transform="matrix(.65762761 0 0 .65762761 -221.099912 -319.29874)"><rect width="66.907" height="50.487" x="339.25" y="497.51" fill-opacity=".667" ry="2.376"/><rect width="66.907" height="50.487" x="339.25" y="496.056" fill="url(#a)" ry="2.376"/><g fill="#fff"><circle cx="358.053" cy="501.345" r="2.709" fill-opacity=".852"/><circle cx="351.398" cy="501.402" r="2.709" fill-opacity=".852"/><circle cx="344.857" cy="501.466" r="2.709" fill-opacity=".852"/></g><path fill="url(#b)" d="m339.40586 540.23309c-.0556 0-.10225.0279-.15625.0341v3.90045c0 1.31621 1.05872 2.37493 2.37493 2.37493h62.1573c1.31621 0 2.37493-1.05872 2.37493-2.37493v-3.93455z"/><circle cx="236.914" cy="481.148" r="0" fill="url(#c)"/><path fill="#fff" fill-opacity=".855" fill-rule="evenodd" d="m372.75051 507.62198c-4.34059 0-8.19116 2.05691-10.67882 5.23514l1.70478 1.086c2.12756-2.61301 5.37758-4.2779 9.00025-4.2779 6.40547 0 11.60529 5.21235 11.60529 11.63605 0 6.41914-5.19982 11.6315-11.60529 11.6315-3.61013 0-6.84876-1.65579-8.9786-4.25512l-1.70478 1.086c2.49677 3.16912 6.33482 5.21235 10.67882 5.21235 7.51882 0 13.61661-6.12514 13.61661-13.67473 0-7.54503-6.10235-13.67017-13.61661-13.67017m-13.7545 5.68869v15.95384l13.83541-8.05669m-.10256-8.2527c-2.44778 0-4.64713 1.06435-6.17414 2.7509l1.76746 1.10424c1.135-1.12589 2.69278-1.81646 4.41124-1.81646 3.4768 0 6.29835 2.8489 6.29835 6.35647 0 3.51212-2.81814 6.36102-6.29835 6.36102-1.74923 0-3.3298-.71678-4.46936-1.87799l-1.70478 1.086c1.52701 1.68655 3.7218 2.7509 6.17414 2.7509 4.60382 0 8.33702-3.74802 8.33702-8.35982 0-4.61636-3.73433-8.35982-8.33702-8.35982m-.005.005"/></g></svg>