<svg xmlns="http://www.w3.org/2000/svg" xmlns:xlink="http://www.w3.org/1999/xlink" width="48" height="48"><linearGradient id="a"><stop offset="0" stop-color="#3889e9"/><stop offset="1" stop-color="#5ea5fb"/></linearGradient><linearGradient id="b" x1="399.571" x2="399.571" y1="545.798" y2="517.798" gradientUnits="userSpaceOnUse" xlink:href="#a"/><linearGradient id="c" x1="-328.906" x2="-324.325" y1="650.632" y2="303.948" gradientUnits="userSpaceOnUse" xlink:href="#a"/><linearGradient id="d" x1="-333.736" x2="-327.239" y1="642.505" y2="311.308" gradientUnits="userSpaceOnUse"><stop offset="0" stop-color="#e7f0f4"/><stop offset="1" stop-color="#f4faff"/></linearGradient><linearGradient id="e" x1="111.315" x2="120.839" y1="233.057" y2="-.905" gradientUnits="userSpaceOnUse"><stop offset="0" stop-color="#ff9704"/><stop offset="1" stop-color="#ffbb3a"/></linearGradient><circle cx="400.571" cy="531.798" r="0" fill="url(#b)" transform="matrix(1.637466544097 0 0 1.637466544097 -644.580187175317 -848.719334054169)"/><circle cx="-325.887" cy="478.747" r="173.447" fill="url(#c)" transform="matrix(.138370791844 0 0 .138370791844 69.091287331483 -42.084555934903)"/><circle cx="-325.887" cy="478.747" r="173.447" fill="url(#d)" opacity=".92" transform="matrix(.109543545214 0 0 .109543545214 59.822853250012 -28.065398349216)"/><path fill="url(#e)" fill-rule="evenodd" d="m203.791 99.628-154.484-97.334c-4.567-2.719-10.238-2.266-14.521-2.266-17.132 0-17.056 13.227-17.056 16.578v198.94c0 2.833-.075 16.579 17.056 16.579 4.283 0 9.955.451 14.521-2.267l154.483-97.333c12.68-7.545 10.489-16.449 10.489-16.449s2.192-8.904-10.488-16.448z" clip-rule="evenodd" opacity=".9" transform="matrix(.094764969084 0 0 .094764969084 14.428817601943 13.595027875382)"/></svg>