<svg xmlns="http://www.w3.org/2000/svg" xmlns:xlink="http://www.w3.org/1999/xlink" width="48" height="48" viewBox="0 0 48 48"><linearGradient id="a"><stop offset="0" stop-color="#b3b3b3"/><stop offset="1" stop-color="#f2f2f2"/></linearGradient><linearGradient id="b" x1="23.266" x2="23.201" y1="23.631" y2="4.569" gradientUnits="userSpaceOnUse" xlink:href="#a"/><linearGradient id="c" x1="34.851" x2="34.901" y1="33.55" y2="29.518" gradientUnits="userSpaceOnUse" xlink:href="#a"/><linearGradient id="d" x1="30.335" x2="30.287" y1="39.453" y2="33.955" gradientUnits="userSpaceOnUse" xlink:href="#a"/><radialGradient id="e" cx="14.831" cy="33.775" r="3.49" gradientTransform="matrix(.4858479 .02009349 -.02123822 .51352654 8.54362 14.998835)" gradientUnits="userSpaceOnUse" xlink:href="#a"/><linearGradient id="f" x1="23.998" x2="23.743" y1="45.806" y2="2.18" gradientUnits="userSpaceOnUse"><stop offset="0" stop-color="#ff8f00"/><stop offset="1" stop-color="#ffc400"/></linearGradient><g transform="translate(0 -.273)"><rect width="32.145" height="43.546" x="7.927" y="3" fill-opacity=".549" rx="2.217"/><rect width="32.145" height="43.546" x="7.927" y="2" fill="url(#f)" rx="2.217"/><rect width="27.847" height="20.132" x="10.009" y="4.012" fill-opacity=".353" rx="1.373" ry="1.499"/><rect width="26.603" height="18.844" x="10.619" y="4.678" fill="url(#b)" rx="1.311" ry="1.403"/><circle cx="15.018" cy="32.739" r="4.434" fill-opacity=".353"/><path fill="url(#e)" d="m14.031679 29.475326c-.1559 0-.283057.124412-.283057.280308v1.684604h-1.602161c-.1559 0-.280306.124411-.280306.280311v1.970408c0 .155899.12441.280308.280306.280308h1.602161v1.552695c0 .155899.127154.283057.283057.283057h1.967662c.1559 0 .283057-.127155.283057-.283057v-1.552695h1.632388c.155901 0 .283059-.12441.283059-.280308v-1.970408c0-.155902-.127155-.280311-.283059-.280311h-1.632388v-1.684604c-.000002-.155899-.127154-.280308-.283057-.280308z"/><path fill="url(#c)" d="m36.825404 31.625683a1.9952166 1.9952166 0 0 1 -1.995216 1.995216 1.9952166 1.9952166 0 0 1 -1.995217-1.995216 1.9952166 1.9952166 0 0 1 1.995217-1.995218 1.9952166 1.9952166 0 0 1 1.995216 1.995218z"/><path fill="url(#d)" d="m33.127526 36.703803a2.7711343 2.7711343 0 0 1 -2.771135 2.771133 2.7711343 2.7711343 0 0 1 -2.771133-2.771133 2.7711343 2.7711343 0 0 1 2.771133-2.771135 2.7711343 2.7711343 0 0 1 2.771135 2.771135z"/><path fill-opacity=".078" d="m36.838761 23.111795c-.237037.253639-.56489.410102-.92815.410102h-23.980068c-.726522 0-1.31141-.625852-1.31141-1.403255v-16.0372025c0-.3887016.146222-.7395155.383259-.993154z"/></g></svg>