<svg xmlns="http://www.w3.org/2000/svg" xmlns:xlink="http://www.w3.org/1999/xlink" width="48" height="48"><linearGradient id="a"><stop offset="0" stop-color="#fff"/><stop offset="1" stop-color="#ececec"/></linearGradient><linearGradient id="b" x1="399.571" x2="399.571" y1="545.798" y2="517.798" gradientUnits="userSpaceOnUse"><stop offset="0" stop-color="#3889e9"/><stop offset="1" stop-color="#5ea5fb"/></linearGradient><linearGradient id="c" x1="-324.944" x2="-328.21" y1="649.741" y2="307.753" gradientUnits="userSpaceOnUse" xlink:href="#a"/><linearGradient id="d" x1="-321.182" x2="-325.132" y1="656.028" y2="242.447" gradientUnits="userSpaceOnUse" xlink:href="#a"/><linearGradient id="e" x1="-332.715" x2="-330.334" y1="668.851" y2="219.943" gradientUnits="userSpaceOnUse"><stop offset="0" stop-color="#0bac83"/><stop offset="1" stop-color="#10da96"/></linearGradient><circle cx="400.571" cy="531.798" r="0" fill="url(#b)" transform="matrix(1.637466544097 0 0 1.637466544097 -644.580187175317 -848.719334054169)"/><g transform="matrix(.104976949338 0 0 .104976949338 57.83652167246 -23.159573780802)"><circle cx="-325.887" cy="478.747" r="173.447" fill="none" stroke="url(#c)" stroke-linecap="round" stroke-linejoin="round" stroke-width="15.445" transform="matrix(1.2093422 0 0 1.2093423 71.785947 -129.73118)"/><circle cx="-325.887" cy="478.747" r="173.447" fill="none" stroke="url(#c)" stroke-linecap="round" stroke-linejoin="round" stroke-width="15.445" transform="matrix(1.2093422 0 0 1.2093423 71.785947 -129.73118)"/><path fill="#f44a4a" d="m-218.83993 346.24828-125.72528 83.90645 20.3492 20.5622z"/><path fill="#f6f6f6" d="m-429.02388 554.55776 105.37585-104.47193-.007-.007c-8.34093-8.43071-16.68533-16.86491-20.34273-20.56167l-85.02617 125.04059z"/><path fill="#f32d2c" d="m-303.66196 470.73698-20.33975-20.56462 105.37608-104.46865z"/><path fill="#e0e0e0" d="m-323.81612 449.95722-105.37584 104.47189 125.71191-83.91401c-8.34096-8.43069-16.68538-16.8649-20.34277-20.56165l.007.004z"/><circle cx="-322.323" cy="449.237" r="219.096" fill="url(#e)"/><path fill-opacity=".118" d="m35.357422 12.652344-11.542969 11.445312.0059.0059-11.541015 11.443359 12.427734 12.427734a24 24 0 0 0 23.232381-22.740274z" transform="matrix(9.1289875 0 0 9.1289875 -541.41905 230.14167)"/><path fill="#f44a4a" d="m-218.83993 346.24902-125.72528 83.90645 20.3492 20.5622z"/><path fill="#f6f6f6" d="m-429.02388 554.5585 105.37585-104.47193-.007-.007c-8.34093-8.43071-16.68533-16.86491-20.34273-20.56167l-85.02617 125.04059z"/><path fill="#f32d2c" d="m-303.66196 470.73772-20.33975-20.56462 105.37608-104.46865z"/><path fill="#e0e0e0" d="m-323.81612 449.95796-105.37584 104.47189 125.71191-83.91401c-8.34096-8.43069-16.68538-16.8649-20.34277-20.56165l.007.004z"/><circle cx="-322.323" cy="449.237" r="209.757" fill="none" stroke="url(#d)" stroke-linecap="round" stroke-linejoin="round" stroke-width="18.678"/></g></svg>