<svg xmlns="http://www.w3.org/2000/svg" xmlns:xlink="http://www.w3.org/1999/xlink" width="48" height="48"><linearGradient id="a" x1="-988.592" x2="-1086.189" y1="116.498" y2="208.206" gradientTransform="matrix(.32587204 0 0 .32156148 357.82558 -24.927786)" gradientUnits="userSpaceOnUse"><stop offset="0" stop-color="#00cafe"/><stop offset="1" stop-color="#1460f3"/></linearGradient><linearGradient id="b" x1="-989.666" x2="-1003.636" y1="433.284" y2="317.355" gradientTransform="matrix(.32634124 0 0 .32195368 347.66457 -94.038955)" gradientUnits="userSpaceOnUse"><stop offset="0" stop-color="#e7f0f4"/><stop offset="1" stop-color="#f4faff"/></linearGradient><g stroke-width=".917"><rect width="29.252" height="36.863" x="-.817" y="11.263" fill="url(#a)" ry=".9" transform="matrix(.94911544 -.31492839 .3072073 .95164262 0 0)"/><rect width="32.577" height="39.574" x="6.41" y="7.795" fill="url(#b)" ry=".966" transform="matrix(.99210439 -.12541482 .1378126 .99045832 0 0)"/></g><path fill-opacity=".667" stroke-width="2.203" d="m27.491341 32.984432q-.478597.487805-1.209088.487805-.73049 0-1.234277-.487805-.478598-.487805-.478598-1.170731 0-.682927.478598-1.170733.503787-.487805 1.234277-.487805.730491 0 1.209088.487805.503787.487806.503787 1.170733 0 .682926-.503787 1.170731zm-.02508-5.073171h-2.367795v-1.146341q0-1.097562.478598-1.878049.478597-.804878 1.687685-1.878049.680112-.609756.957195-.902439.302272-.317073.579355-.853658.302272-.560976.302272-1.146342 0-1.121951-.755681-1.804877-.73049-.682927-2.040336-.682927-2.166282 0-2.972341 2.341462l-2.166283-.878048q.528976-1.390244 1.813632-2.487805 1.309846-1.121951 3.324992-1.121951 2.29223 0 3.728022 1.317073 1.435791 1.292683 1.435791 3.317073 0 .878049-.478597 1.780488-.478597.902439-.856436 1.292683-.352651.365854-1.007574.95122-.07545.07306-.125835.121842-1.536549 1.341464-1.536549 2.682928v.975609z"/></svg>