<svg xmlns="http://www.w3.org/2000/svg" xmlns:xlink="http://www.w3.org/1999/xlink" width="48" height="48"><linearGradient id="a"><stop offset="0" stop-color="#d3d3d3"/><stop offset="1" stop-color="#fcf9f9"/></linearGradient><linearGradient id="b" x1="424.01" x2="424.01" y1="476.303" y2="547.682" gradientUnits="userSpaceOnUse"><stop offset="0" stop-color="#00cafe"/><stop offset="1" stop-color="#1460f3"/></linearGradient><linearGradient id="c" x1="408.305" x2="408.305" y1="544.808" y2="502.245" gradientUnits="userSpaceOnUse" xlink:href="#a"/><linearGradient x1="2.819" x2="11.758" y1="1044.298" y2="1044.298" gradientUnits="userSpaceOnUse"><stop offset="0" stop-color="#333538"/><stop offset="1" stop-color="#566069"/></linearGradient><linearGradient id="d" x1="406.806" x2="408.359" y1="535.627" y2="511.585" gradientUnits="userSpaceOnUse" xlink:href="#a"/><linearGradient id="e" x1="408.285" x2="408.285" y1="546.441" y2="500.57" gradientUnits="userSpaceOnUse" xlink:href="#a"/><linearGradient id="f" x1="356.749" x2="356.749" y1="566.73" y2="522.771" gradientUnits="userSpaceOnUse"><stop offset="0" stop-color="#8d3aff"/><stop offset="1" stop-color="#ff3680"/></linearGradient><g transform="translate(-384.57143 -499.798)"><circle cx="408.571" cy="523.798" r="0" fill="url(#c)"/><circle cx="357.024" cy="545.031" r="0" fill="none" stroke="url(#f)" stroke-width="2.041"/><circle cx="408.571" cy="523.798" r="0" fill="url(#c)"/><g transform="matrix(.95833327 0 0 .95833327 17.023824 21.824975)"><circle cx="408.571" cy="523.798" r="22.207" fill="url(#b)" stroke="url(#b)" stroke-width="1.586"/><path fill-opacity=".078" d="m31.294922 12.472656-10.3125 2.791016c-.77464.21739-1.398438 1.082085-1.398438 1.921875v13.3125c-.7855-.43065-1.793983-.604913-2.839843-.320313-1.88723.51341-3.070556 2.173962-2.666016 3.707032.11248.4262.337831.798778.644531 1.105468l11.126953 11.126954a22.206894 22.206894 0 0 0 20.107422-18.982422z" transform="translate(384.57143 499.798)"/><path fill="url(#d)" d="m405.4805 515.03213c-.77464.21739-1.3982 1.08184-1.3982 1.92163v13.31356c-.7855-.43065-1.79428-.6048-2.84014-.32019-1.88723.51341-3.06989 2.17277-2.66535 3.70584.40456 1.53298 2.26368 2.38924 4.15098 1.87571 1.50561-.40959 2.5435-1.56861 2.70899-2.79078l.0441-12.5816 9.78749-2.74509v9.92807c-.78549-.43068-1.79426-.60481-2.84016-.32031-1.88721.51344-3.06984 2.17288-2.66532 3.70586.40458 1.53307 2.2637 2.38922 4.15094 1.87579 1.50564-.40959 2.54352-1.56858 2.70903-2.79076l.0443-16.37903c0-.62973-.37172-1.10087-.87387-1.18949l-10.31181 2.79079z" opacity=".9"/><circle cx="408.571" cy="523.798" r="22.935" fill="none" stroke="url(#e)" stroke-width="2.13"/></g></g></svg>