<svg xmlns="http://www.w3.org/2000/svg" xmlns:xlink="http://www.w3.org/1999/xlink" width="48" height="48"><linearGradient id="a" x1="399.571" x2="399.571" y1="545.798" y2="517.798" gradientUnits="userSpaceOnUse"><stop offset="0" stop-color="#3889e9"/><stop offset="1" stop-color="#5ea5fb"/></linearGradient><linearGradient id="b" x1="-318.579" x2="-318.579" y1="653.957" y2="301.298" gradientUnits="userSpaceOnUse"><stop offset="0" stop-color="#0a80fd"/><stop offset="1" stop-color="#56c5fa"/></linearGradient><circle cx="400.571" cy="531.798" r="0" fill="url(#a)" transform="matrix(1.637466544097 0 0 1.637466544097 -644.580187175317 -848.719334054169)"/><circle cx="-325.887" cy="478.747" r="173.447" fill="url(#b)" transform="matrix(.138370791844 0 0 .138370791844 69.091287331483 -42.084555934903)"/><g transform="matrix(1.045820277854 0 0 1.045820277854 5.1752348303 4.908407556113)"><circle cx="18" cy="19" r="2" fill="#fff" fill-opacity=".847"/><g fill="none" stroke="#dff1ff" stroke-miterlimit="10" stroke-width="2"><path d="m15.5 24.5c-2.1-.9-3.5-3-3.5-5.5 0-3.3 2.7-6 6-6s6 2.7 6 6c0 2.4-1.4 4.4-3.4 5.4"/><path d="m13.5 29c-3.8-1.7-6.5-5.5-6.5-10 0-6.1 4.9-11 11-11s11 4.9 11 11c0 4.3-2.5 8.1-6.2 9.9"/><path d="m11.4 33.6c-5.5-2.5-9.4-8.1-9.4-14.6 0-8.8 7.2-16 16-16s16 7.2 16 16c0 6.3-3.7 11.8-9 14.4"/></g></g></svg>