<svg xmlns="http://www.w3.org/2000/svg" xmlns:xlink="http://www.w3.org/1999/xlink" width="48" height="48"><linearGradient x1="0" x2="47" y1="23.5" y2="23.5" gradientUnits="userSpaceOnUse"><stop offset="0" stop-color="#a9a3d4"/><stop offset=".47" stop-color="#87baff"/><stop offset="1" stop-color="#89ec85"/></linearGradient><linearGradient id="a" x1="400.571" x2="400.571" y1="545.798" y2="517.798" gradientUnits="userSpaceOnUse"><stop offset="0" stop-color="#1365f4"/><stop offset="1" stop-color="#05b2fc"/></linearGradient><g stroke-width="1.317" transform="matrix(1.000000004476 0 0 1.000000004476 -486.760340300875 -502.725834528142)"><rect width="28" height="28" x="386.571" y="517.798" fill="url(#a)" ry="14" transform="matrix(1.634735284396 0 0 1.634735284396 -144.067942974664 -342.623101459356)"/><path fill="#001534" fill-opacity=".817" d="m409.03112 539.84875c-.81855 0-1.54059.39154-2.01228.99113l-4.37528-2.24653c.0573-.2145.0985-.43612.0985-.66937 0-.25391-.0489-.49298-.11711-.72557l4.35596-2.23618c.46913.62672 1.20981 1.03635 2.05088 1.03635 1.42476 0 2.57731-1.15718 2.57731-2.58638 0-1.42789-1.15255-2.58572-2.57731-2.58572-1.42152 0-2.57534 1.15783-2.57534 2.58572 0 .2339.0412.45616.0991.67131l-4.37399 2.24652c-.47234-.60022-1.19566-.99306-2.01549-.99306-1.42346 0-2.57536 1.15847-2.57536 2.58701 0 1.42855 1.1519 2.58638 2.57536 2.58638.84236 0 1.58241-.41093 2.05346-1.03829l4.35405 2.23618c-.0682.23195-.11777.47295-.11777.72751 0 1.42855 1.15383 2.58638 2.57536 2.58638 1.42475 0 2.57729-1.15783 2.57729-2.58638 0-1.42983-1.15254-2.58701-2.57729-2.58701z" transform="matrix(1.695884677261 0 0 1.690657587773 -176.894654631895 -382.320006222482)"/></g></svg>