<svg xmlns="http://www.w3.org/2000/svg" xmlns:xlink="http://www.w3.org/1999/xlink" width="48" height="48"><linearGradient x1="0" x2="47" y1="23.5" y2="23.5" gradientUnits="userSpaceOnUse"><stop offset="0" stop-color="#a9a3d4"/><stop offset=".47" stop-color="#87baff"/><stop offset="1" stop-color="#89ec85"/></linearGradient><linearGradient id="a" x1="449.428" x2="449.549" y1="540.746" y2="518.407" gradientUnits="userSpaceOnUse"><stop offset="0" stop-color="#b6b9bf"/><stop offset="1" stop-color="#dddfe2"/></linearGradient><linearGradient id="b" x1="451.021" x2="451.021" y1="544.15" y2="543.088" gradientTransform="matrix(.50539571 0 0 1 229.14839 2.166555)" gradientUnits="userSpaceOnUse"><stop offset="0" stop-color="#5fa3d4"/><stop offset="1" stop-color="#6bb9ff"/></linearGradient><linearGradient id="c" x1="467.175" x2="467.175" y1="546.953" y2="544.831" gradientUnits="userSpaceOnUse"><stop offset="0" stop-color="#040404"/><stop offset="1" stop-color="#121212" stop-opacity=".908"/></linearGradient><linearGradient id="d" x1="10.094" x2="122.719" y1="107.361" y2="107.361" gradientTransform="matrix(.24841536 0 0 .24427878 433.38377 517.17091)" gradientUnits="userSpaceOnUse"><stop offset="0" stop-color="#1a1a1a"/><stop offset=".111" stop-color="#2c2c2e"/><stop offset=".29" stop-color="#2b2b2d"/><stop offset=".512" stop-color="#2a2b2d"/><stop offset=".752" stop-color="#2b2b2d"/><stop offset=".897" stop-color="#323232"/><stop offset="1" stop-color="#171717"/></linearGradient><g fill="#a1a7ae" stroke="#909296" stroke-width=".101" transform="matrix(1.244614437165 .900151513584 -1.253803674486 .902178516993 1329.763634138636 -884.513079227965)"><g stroke="none"><path fill="url(#d)" d="m435.89128 541.07281.24841 3.91531c0 .40601.33238.73288.74525.73288h25.99045c.41287 0 .74526-.32687.74526-.73288l.24841-3.91531z" transform="matrix(.67305966 -.67154743 .93538548 .92852992 -817.64202 832.4877)"/><path fill="url(#a)" d="m438.12877 518.12187h23.25963c.41287 0 .74526.32687.74526.73287l1.739 22.0998c0 .406-.33237.73288-.74524.73288h-26.48903c-.41287 0-.74524-.32688-.74524-.73288l1.49038-22.09974c0-.406.33238-.73293.74524-.73293z" transform="matrix(.67305966 -.67154743 .93538548 .92852992 -817.64202 832.4877)"/><rect width="11.463" height=".769" x="450.873" y="545.613" fill="url(#b)" ry=".384" transform="matrix(.67305966 -.67154743 .93538548 .92852992 -824.11469 835.01094)"/><ellipse cx="467.089" cy="546.024" fill="url(#c)" opacity=".452" rx="1.061" ry="1.061" transform="matrix(.67305966 -.67154743 .93538548 .92852992 -824.11469 835.01094)"/></g><path fill="#e3e8ea" d="m63 73.215c2.824 0 5.27-1.031 7.332-3.096 2.064-2.063 3.098-4.508 3.098-7.332v-52.144c0-2.825-1.033-5.269-3.098-7.332-2.062-2.065-4.507-3.097-7.332-3.097s-5.269 1.033-7.333 3.097c-2.064 2.063-3.096 4.508-3.096 7.332v52.144c0 2.824 1.032 5.269 3.096 7.332 2.064 2.065 4.509 3.096 7.333 3.096z" opacity=".668" transform="matrix(.00570796 -.00569513 .00793264 .0078745 .091496 1028.1478)"/><path fill="#e3e8ea" d="m119.014 45.269c-4.373-8.744-10.523-16.077-18.453-21.997-2.281-1.738-4.861-2.417-7.74-2.037s-5.16 1.738-6.844 4.073c-1.738 2.281-2.403 4.847-1.996 7.699.406 2.853 1.752 5.147 4.033 6.885 5.321 4.019 9.438 8.935 12.342 14.747 2.906 5.811 4.358 12.004 4.358 18.575 0 5.65-1.1 11.04-3.299 16.173-2.2 5.133-5.174 9.573-8.922 13.321-3.748 3.747-8.187 6.721-13.32 8.921s-10.524 3.301-16.173 3.301c-5.648 0-11.039-1.101-16.172-3.301s-9.573-5.174-13.321-8.921c-3.747-3.748-6.721-8.188-8.921-13.321s-3.3-10.523-3.3-16.173c0-6.571 1.453-12.763 4.359-18.575 2.906-5.811 7.02-10.727 12.343-14.747 2.281-1.739 3.625-4.033 4.033-6.885.407-2.851-.258-5.418-1.996-7.699-1.684-2.335-3.951-3.693-6.803-4.073s-5.446.299-7.781 2.037c-7.931 5.92-14.081 13.253-18.454 21.997-4.373 8.745-6.559 18.06-6.559 27.945 0 8.474 1.657 16.566 4.97 24.279 3.314 7.713 7.767 14.366 13.362 19.961 5.594 5.594 12.248 10.049 19.961 13.36 7.713 3.314 15.806 4.972 24.279 4.972s16.566-1.658 24.279-4.972c7.713-3.312 14.367-7.766 19.961-13.36s10.047-12.248 13.361-19.961c3.313-7.713 4.969-15.806 4.969-24.279 0-9.885-2.183-19.2-6.556-27.945z" opacity=".668" transform="matrix(.00570796 -.00569513 .00793264 .0078745 .091496 1028.1478)"/><rect width="5.666" height="5.666" x="-26.065" y="1015.621" fill="#a1a7ae" stroke="#909296" stroke-linecap="round" stroke-linejoin="round" stroke-width=".101" ry=".5"/><rect width="5.666" height="5.666" x="-19.267" y="1015.621" fill="#a1a7ae" stroke="#909296" stroke-linecap="round" stroke-linejoin="round" stroke-width=".101" ry=".5"/><rect width="5.666" height="5.666" x="-19.266" y="1022.419" fill="#a1a7ae" stroke="#909296" stroke-linecap="round" stroke-linejoin="round" stroke-width=".101" ry=".5"/><rect width="5.666" height="5.666" x="-26.039" y="1022.357" fill="#a1a7ae" stroke="#909296" stroke-linecap="round" stroke-linejoin="round" stroke-width=".101" ry=".5"/></g></svg>