<svg xmlns="http://www.w3.org/2000/svg" xmlns:xlink="http://www.w3.org/1999/xlink" width="48" height="48"><linearGradient id="a"><stop offset="0" stop-color="#333538"/><stop offset="1" stop-color="#566069"/></linearGradient><linearGradient x1="400.954" x2="400.954" y1="545.223" y2="517.223" gradientUnits="userSpaceOnUse" xlink:href="#a"/><linearGradient x1="2.819" x2="11.758" y1="1044.298" y2="1044.298" gradientUnits="userSpaceOnUse" xlink:href="#a"/><linearGradient id="b" x1="400.396" x2="400.396" y1="545.619" y2="517.619" gradientUnits="userSpaceOnUse"><stop offset="0" stop-color="#d3d3d3"/><stop offset="1" stop-color="#fcf9f9"/></linearGradient><linearGradient id="c" x1="404.714" x2="404.714" y1="546.298" y2="517.298" gradientUnits="userSpaceOnUse" xlink:href="#f"/><linearGradient id="d" x1="400.396" x2="400.396" y1="545.619" y2="517.619" gradientUnits="userSpaceOnUse"><stop offset="0" stop-color="#e3e3e3"/><stop offset="1" stop-color="#fcf9f9"/></linearGradient><linearGradient id="e" x1="398.024" x2="398.024" y1="515.237" y2="545.811" gradientUnits="userSpaceOnUse" xlink:href="#f"/><linearGradient id="f"><stop offset="0" stop-color="#00cafe"/><stop offset="1" stop-color="#1460f3"/></linearGradient><g fill="url(#b)" stroke-width="1.3" transform="matrix(1.569970343761 0 0 1.569970343761 -604.88518753582 -810.906955368482)"><circle cx="400.571" cy="531.798" r="14" fill="url(#e)" stroke="url(#e)" stroke-width="1.3"/><circle cx="400.571" cy="531.798" r="0" fill="url(#d)" stroke="url(#c)" stroke-width="1"/><circle cx="400.571" cy="531.798" r="0" fill="url(#b)"/></g><path fill="#fff" fill-opacity=".847" d="m391.84218 540.91306c-.42081-.32855-.94932-.52413-1.52328-.52413-1.35134 0-2.45088 1.08433-2.48542 2.43509-1.39488.52618-2.38765 1.87965-2.38765 3.46634 0 1.87433 1.38537 3.42322 3.18243 3.66739v.0335h12.72968v-.006c1.77487-.10355 3.18242-1.58396 3.18242-3.39503 0-1.74659-1.30911-3.18565-2.9943-3.37879.007-.10647.0108-.21389.0108-.32212 0-2.70685-2.27081-4.90117-5.07199-4.90117-2.07343 0-3.85626 1.20226-4.64268 2.9247z" transform="matrix(1.675872642577 0 0 1.684875900737 -637.958123608162 -892.555121544502)"/><path fill="#0c8af7" fill-rule="evenodd" stroke="#0c8bf7" stroke-linecap="round" stroke-linejoin="round" stroke-width="4.792" d="m-23.992884 537.974-42.138728 24.32881v-48.65762z" transform="matrix(.162477723508 0 0 .195901132999 31.898308828496 -79.389717926011)"/></svg>