<svg xmlns="http://www.w3.org/2000/svg" xmlns:xlink="http://www.w3.org/1999/xlink" width="48" height="48"><linearGradient id="a"><stop offset="0" stop-color="#ccc"/><stop offset="1" stop-color="#fff"/></linearGradient><linearGradient id="b" x1="399.571" x2="399.571" y1="545.798" y2="517.798" gradientUnits="userSpaceOnUse"><stop offset="0" stop-color="#3889e9"/><stop offset="1" stop-color="#5ea5fb"/></linearGradient><linearGradient id="c" x1="400.556" x2="400.556" y1="546.927" y2="516.475" gradientUnits="userSpaceOnUse"><stop offset="0" stop-color="#0c275c"/><stop offset="1" stop-color="#1072c0"/></linearGradient><linearGradient id="d" x1="40.533" x2="37.578" y1="107.502" y2="15.159" gradientUnits="userSpaceOnUse" xlink:href="#a"/><linearGradient id="e" x1="74.643" x2="83.932" y1="18.269" y2="101.959" gradientUnits="userSpaceOnUse" xlink:href="#a"/><g transform="matrix(1.5511965 0 0 1.552208 -597.389819 -801.619437)"><circle cx="400.571" cy="531.798" r="0" fill="url(#b)"/><g transform="matrix(1.0508504 0 0 1.0508504 -20.353166 -26.940048)"><circle cx="400.571" cy="531.798" r="14" fill="url(#c)" stroke="url(#c)" stroke-width="1.427"/><circle cx="400.571" cy="531.798" r="0" fill="url(#b)" transform="matrix(1.55822993102 0 0 1.55822993102 -264.298285246431 -296.910724934234)"/></g></g><g><path fill="url(#e)" d="m42.840478 31.57135c4.646234-5.482756 10.653076-8.798615 17.204164-8.798615 14.74499 0 26.698206 16.720393 26.698206 37.331122 0 20.620809-11.953216 37.331124-26.698206 37.331124-6.561166 0-12.55793-3.30578-17.204164-8.788537 7.266668 9.433567 18.060845 15.420256 30.124928 15.420256 7.417847 0 14.362001-2.26768 20.298296-6.198339 10.370868-9.27231 16.891728-22.747394 16.891728-37.754424 0-14.996953-6.52086-28.482116-16.891728-37.754423-5.936295-3.940733-12.880449-6.198339-20.298296-6.198339-12.064083 0-22.85826 5.986688-30.124928 15.420253" transform="matrix(.43781095 0 0 .43781095 -2.151819 -2.127537)"/><path fill="url(#d)" d="m60 9.75c-27.75 0-50.25 22.5-50.25 50.25 0 26.95 21.22 48.94 47.86 50.19.8.04 1.59.06 2.39.06 12.87 0 24.6-4.84 33.49-12.79-5.89 3.91-12.78 6.15-20.14 6.15-11.97 0-22.68-5.94-29.89-15.3-5.56-6.56-9.15-16.25-9.4-27.13 0-.03 0-2.34 0-2.37.25-10.88 3.84-20.58 9.4-27.13 7.21-9.36 17.93-15.3 29.89-15.3 7.36 0 14.25 2.25 20.14 6.16-8.84-7.91-20.51-12.74-33.3-12.79-.06 0-.13 0-.19 0z" transform="matrix(.43781095 0 0 .43781095 -2.151819 -2.127537)"/></g></svg>