<svg xmlns="http://www.w3.org/2000/svg" xmlns:xlink="http://www.w3.org/1999/xlink" width="48" height="48"><linearGradient id="a"><stop offset="0" stop-color="#d3d3d3"/><stop offset="1" stop-color="#fcf9f9"/></linearGradient><linearGradient id="b"><stop offset="0" stop-color="#3889e9"/><stop offset="1" stop-color="#5ea5fb"/></linearGradient><linearGradient id="c" x1="399.571" x2="399.571" y1="545.798" y2="517.798" gradientTransform="matrix(2.5791466 0 0 2.5791468 -691.90567 -847.86168)" gradientUnits="userSpaceOnUse" xlink:href="#b"/><linearGradient id="d" x1="399.571" x2="399.571" y1="545.798" y2="517.798" gradientTransform="matrix(1.5750835 0 0 1.5750837 -222.38723 -313.989)" gradientUnits="userSpaceOnUse" xlink:href="#b"/><linearGradient x1="-254.423" x2="-119.544" y1="1033.027" y2="1033.027" gradientUnits="userSpaceOnUse" xlink:href="#a"/><linearGradient id="e" x1="-254.423" x2="-119.544" y1="1033.027" y2="1033.027" gradientUnits="userSpaceOnUse"><stop offset="0" stop-color="#eaeaea"/><stop offset="1" stop-color="#fcf9f9"/></linearGradient><linearGradient id="f" x1="408.439" x2="408.556" y1="547.219" y2="500.611" gradientTransform="matrix(1.5750835 0 0 1.5750837 -222.38723 -313.989)" gradientUnits="userSpaceOnUse" xlink:href="#a"/><linearGradient id="g" x1="408.439" x2="408.556" y1="547.219" y2="500.611" gradientTransform="matrix(1.6433716 0 0 1.6433718 -249.71619 -350.14368)" gradientUnits="userSpaceOnUse" xlink:href="#a"/><linearGradient id="h" x1="408.439" x2="408.556" y1="547.219" y2="500.611" gradientTransform="matrix(2.5791466 0 0 2.5791468 -691.90567 -847.86168)" gradientUnits="userSpaceOnUse" xlink:href="#a"/><g transform="translate(-384.57143 -499.798)"><circle cx="408.546" cy="523.637" r="0" fill="url(#d)" stroke="url(#f)" stroke-width="6.3"/><ellipse cx="408.571" cy="523.798" fill="#1d2d44" stroke="url(#g)" stroke-width="1.986" rx="23.007" ry="23.007"/><circle cx="341.227" cy="523.723" r="0" fill="url(#c)" stroke="url(#h)" stroke-width="10.317"/><g fill="url(#e)" stroke="#1d2d44" stroke-width="2" transform="matrix(.28633582 0 0 .28633582 462.41676 226.14423)"><circle cx="-216.16" cy="1014.961" r="10.166"/><circle cx="-234.802" cy="1050.294" r="18.621"/><circle cx="-213.795" cy="1037.903" r="20.131"/><circle cx="-172.74" cy="1029.741" r="18.621"/><circle cx="-193.161" cy="1015.257" r="18.621"/><circle cx="-131.194" cy="1057.484" r="10.65"/><circle cx="-153.826" cy="1049.286" r="20.131"/><circle cx="-215.026" cy="1058.511" r="10.649"/><path d="m-161.35357 1043.3395c0 14.174-11.492 25.664-25.667 25.664s-25.6665-11.49-25.6665-25.664c0-14.1755 11.492-25.6665 25.6665-25.6665s25.667 11.491 25.667 25.6665z"/></g></g></svg>