<svg xmlns="http://www.w3.org/2000/svg" xmlns:xlink="http://www.w3.org/1999/xlink" width="48" height="48"><linearGradient id="a"><stop offset="0" stop-color="#197ff1"/><stop offset="1" stop-color="#21c6fb"/></linearGradient><linearGradient id="b" x1="405.104" x2="405.104" y1="542.053" y2="507.053" gradientUnits="userSpaceOnUse"><stop offset="0" stop-color="#1d1e1e"/><stop offset="1" stop-color="#44484c"/></linearGradient><linearGradient id="c" x1="409.571" x2="409.571" y1="543.798" y2="507.798" gradientUnits="userSpaceOnUse" xlink:href="#a"/><linearGradient id="d" x1="90.72" x2="155.064" y1="1035.159" y2="818.423" gradientUnits="userSpaceOnUse" xlink:href="#a"/><g transform="matrix(1.156626460178 0 0 1.156626460178 -444.736700252825 -582.852315858082)"><circle cx="405.278" cy="524.796" r="20" fill="url(#b)" stroke="url(#c)" stroke-linecap="round" stroke-linejoin="round" stroke-width="1.5"/><g fill="url(#d)" fill-rule="evenodd" transform="matrix(.064331002756 0 0 .064331002756 313.057273876904 441.997960729393)"><path d="m1442.9581 1196.8425-.242 234.3159-59.4601-20.4178-.4185-274.2048 75.8973 21.1864c48.5826 13.7861 78.3137 40.5845 77.8302 87.5507-.4829 54.6248-25.8649 75.8164-68.8533 55.8404v-101.2762c0-14.941-24.7536-25.8506-24.7536-2.9946z"/><path d="m1370.7136 1303.1522-8.9415 2.8809-86.5464 31.0437c-18.2193 8.3547-33.4371 13.7582-33.5335 27.3708.4569 17.2306 27.4593 25.6141 66.9974 32.2183 21.0698 4.2232 42.5958 1.3924 61.026-2.5123l.015-32.4651s-34.1651 13.278-42.2947 14.3829l-16.4389-.09c-12.2037-.067-17.8867-7.8843-5.7302-12.0759l65.4355-24.7626.011-35.9902z"/><path d="m1524.5024 1317.7768c-22.722-.075-54.1883 6.1167-69.7875 13.3735v37.0026l41.1316-15.041 32.581-10.3583c33.9325-5.5872 47.4232 6.2615 14.3731 16.1649l-88.0833 32.2321-.1072 35.8824 128.695-46.2998c14.2026-4.9527 34.177-14.9519 34.225-27.2419-3.4472-19.028-32.0697-30.1323-76.5199-34.8392-3.9869-.4111-7.9933-.6688-11.9728-.7879-1.5161-.044-3.0225-.083-4.5372-.088z"/></g></g></svg>