<svg xmlns="http://www.w3.org/2000/svg" xmlns:xlink="http://www.w3.org/1999/xlink" width="48" height="48"><linearGradient id="a" x1="543.948" x2="543.743" y1="484.808" y2="427.538" gradientUnits="userSpaceOnUse"><stop offset="0" stop-color="#86d0fb"/><stop offset="1" stop-color="#2794f5"/></linearGradient><linearGradient id="b" x1="520.212" x2="522.04" y1="450.542" y2="434.369" gradientUnits="userSpaceOnUse"><stop offset="0" stop-color="#eefefe"/><stop offset="1" stop-color="#d6fefe"/></linearGradient><linearGradient id="c" x1="542.834" x2="543.255" y1="484.294" y2="463.625" gradientTransform="matrix(.96522503 -.00790318 -.00790388 1.0083274 20.41848 1.480547)" gradientUnits="userSpaceOnUse"><stop offset="0" stop-color="#132e51"/><stop offset="1" stop-color="#2767b9"/></linearGradient><linearGradient id="d" x1="610.683" x2="609.354" y1="499.798" y2="460.122" gradientUnits="userSpaceOnUse"><stop offset="0" stop-color="#cfd6da"/><stop offset="1" stop-color="#f2f7f9"/></linearGradient><linearGradient id="e" x1="615.838" x2="609.846" y1="495.434" y2="469.368" gradientUnits="userSpaceOnUse"><stop offset="0" stop-color="#215394"/><stop offset="1" stop-color="#388eff"/></linearGradient><linearGradient id="f" x1="610.606" x2="609.277" y1="499.577" y2="459.901" gradientUnits="userSpaceOnUse"><stop offset="0" stop-color="#c2c9cc"/><stop offset="1" stop-color="#edf3f5"/></linearGradient><linearGradient id="g" x1="610.683" x2="609.354" y1="499.798" y2="460.122" gradientTransform="matrix(.92451065 0 0 .91612595 45.929638 40.021923)" gradientUnits="userSpaceOnUse"><stop offset="0" stop-color="#122a49"/><stop offset="1" stop-color="#5ca4d4"/></linearGradient><linearGradient id="h" x1="556.435" x2="555.298" y1="470.481" y2="421.868" gradientUnits="userSpaceOnUse"><stop offset="0" stop-color="#fe3f3c"/><stop offset="1" stop-color="#ff8729"/></linearGradient><linearGradient id="i" x1="611.29" x2="610.824" y1="502.11" y2="485.028" gradientUnits="userSpaceOnUse"><stop offset="0" stop-color="#163660"/><stop offset="1" stop-color="#1a4275"/></linearGradient><g transform="matrix(.570447025039 -.098527147091 .098527147091 .570447025039 -359.747356684703 -177.331076738134)"><rect width="76.809" height="58.987" x="504.257" y="426.464" fill="url(#h)" ry="2.3" transform="matrix(.895379730796 .148866381202 -.148866381202 .895379730796 181.38927958863 -47.050155547285)"/><rect width="76.809" height="58.987" x="504.257" y="426.464" fill="url(#a)" ry="2.3" transform="matrix(.90765278 -.0056985 .0056985 .90765278 95.981015 47.52327)"/><path fill="url(#c)" fill-rule="evenodd" d="m504.2304 479.41184 14.55149-4.65732 4.59402 3.09494 10.68866-3.70865 10.51696 3.49583 7.58063 1.61197 5.83015-2.02302 7.18039-1.82153 11.56837 4.36341-.0451 5.71285-69.41559.56851s-3.10616.57841-3.08552-2.07338z" transform="matrix(.90765278 -.0056985 .0056985 .90765278 95.981015 47.52327)"/><circle cx="521.243" cy="443.276" r="7.594" fill="url(#b)" opacity=".811" transform="matrix(.90765278 -.0056985 .0056985 .90765278 95.981015 47.52327)"/><circle cx="610.995" cy="479.664" r="19.134" fill="#99d5fd" stroke="url(#d)" stroke-linecap="round" stroke-linejoin="round" stroke-width="2"/><ellipse cx="610.801" cy="479.454" fill="none" stroke="url(#g)" stroke-linecap="round" stroke-linejoin="round" stroke-width="2.341" opacity=".385" rx="17.69" ry="17.529"/><path fill="url(#e)" fill-rule="evenodd" d="m598.67943 493.65621 11.44601-23.18859c5.60266 5.88152 18.98364 10.6085 18.98364 10.6085l1.39585 2.23337c-7.31195 19.73788-19.37 17.06139-31.8255 10.34672z"/><path fill="url(#i)" fill-rule="evenodd" d="m600.64547 495.6202 3.71848-4.56822 3.76154 1.7885 3.2785-4.84896 12.61021 4.76417c-4.44546 7.04228-11.85513 8.97599-23.36873 2.86451z"/><circle cx="610.919" cy="479.443" r="19.134" fill="none" stroke="url(#f)" stroke-linecap="round" stroke-linejoin="round" stroke-width="2"/></g></svg>