<svg xmlns="http://www.w3.org/2000/svg" xmlns:xlink="http://www.w3.org/1999/xlink" width="48" height="48"><linearGradient id="a" x1="399.571" x2="399.571" y1="545.798" y2="517.798" gradientUnits="userSpaceOnUse"><stop offset="0" stop-color="#3889e9"/><stop offset="1" stop-color="#5ea5fb"/></linearGradient><linearGradient id="b"><stop offset="0" stop-color="#e3e3e3"/><stop offset="1" stop-color="#fcf9f9"/></linearGradient><linearGradient x1="2.819" x2="11.758" y1="1044.298" y2="1044.298" gradientUnits="userSpaceOnUse"><stop offset="0" stop-color="#333538"/><stop offset="1" stop-color="#566069"/></linearGradient><linearGradient id="c" x1="-20430.723" x2="-20364.114" y1="2310.676" y2="-3474.012" gradientUnits="userSpaceOnUse"><stop offset="0" stop-color="#4965b6"/><stop offset="1" stop-color="#8d9dcc"/></linearGradient><linearGradient id="d" x1="-324.752" x2="-324.752" y1="646.061" y2="247.235" gradientUnits="userSpaceOnUse"><stop offset="0" stop-color="#d3d3d3"/><stop offset="1" stop-color="#fcf9f9"/></linearGradient><linearGradient id="e" x1="-339.698" x2="-325.756" y1="553.825" y2="337.936" gradientUnits="userSpaceOnUse" xlink:href="#b"/><linearGradient id="f" x1="-324.832" x2="-324.832" y1="652.518" y2="240.613" gradientUnits="userSpaceOnUse" xlink:href="#b"/><linearGradient id="g" x1="-324.832" x2="-324.832" y1="652.518" y2="240.613" gradientUnits="userSpaceOnUse"><stop offset="0" stop-color="#8d3aff"/><stop offset="1" stop-color="#ff3680"/></linearGradient><circle cx="400.571" cy="531.798" r="0" fill="url(#a)" transform="matrix(1.637466544097 0 0 1.637466544097 -644.580187175317 -848.719334054169)"/><g transform="matrix(.106721438628 0 0 .106721438628 58.391801100817 -23.938310861385)"><circle cx="-322.259" cy="449.19" r="199.413" fill="url(#d)"/><circle cx="-322.258" cy="449.191" r="199.413" fill="url(#c)" stroke="url(#c)" stroke-width="14.244"/><circle cx="-322.259" cy="449.19" r="0" fill="url(#d)"/><circle cx="-322.258" cy="449.191" r="0" fill="none" stroke="url(#g)" stroke-width="19.124"/><path fill-opacity=".078" d="m31.119141 12.294922-10.3125 2.791016h-.002c-.77464.217388-1.396485 1.082086-1.396485 1.921874v13.314454c-.785499-.43065-1.795937-.604913-2.841797-.320313-1.88723.51341-3.068603 2.172008-2.664062 3.705078.112479.4262.337831.800733.644531 1.107422l11.302781 11.302735a22.206894 22.206894 0 0 0 20.107422-18.984376z" transform="matrix(8.9797636 0 0 8.9797636 -537.77198 233.67668)"/><path fill="url(#e)" d="m-351.60077 368.88763c-6.9561 1.95211-12.5555 9.71467-12.5555 17.25579v119.55262c-7.0536-3.86714-16.1122-5.43096-25.5038-2.87523-16.9469 4.6103-27.5669 19.51096-23.9342 33.27756 3.6328 13.7658 20.3273 21.45481 37.2748 16.84344 13.52-3.67803 22.84-14.08575 24.3261-25.06055l.396-112.97979 87.88934-24.65026v89.15172c-7.05351-3.8674-16.11203-5.43105-25.50397-2.87631-16.94669 4.61057-27.56643 19.51195-23.93394 33.27775 3.63303 13.76661 20.32749 21.45463 37.27446 16.84415 13.52029-3.67802 22.84021-14.08548 24.32645-25.06037l.3978-147.07981c0-5.65483-3.33795-9.88556-7.84714-10.68134l-92.5976 25.06063z" opacity=".9"/><circle cx="-322.258" cy="449.191" r="205.952" fill="none" stroke="url(#f)" stroke-width="19.124"/></g></svg>