<svg xmlns="http://www.w3.org/2000/svg" xmlns:xlink="http://www.w3.org/1999/xlink" width="48" height="48"><linearGradient x1="0" x2="47" y1="23.5" y2="23.5" gradientUnits="userSpaceOnUse"><stop offset="0" stop-color="#a9a3d4"/><stop offset=".47" stop-color="#87baff"/><stop offset="1" stop-color="#89ec85"/></linearGradient><linearGradient id="a" x1="8.595" x2="8.595" y1="1050.314" y2="1038.314" gradientTransform="matrix(.85871908 0 0 .85607233 407.90352 1140.0285)" gradientUnits="userSpaceOnUse"><stop offset="0" stop-color="#fff" stop-opacity="0"/><stop offset="1" stop-color="#d5edff"/></linearGradient><linearGradient id="b" x1="409.571" x2="409.939" y1="542.798" y2="504.191" gradientTransform="matrix(.83333363 0 0 .8137587 -315.77022 550.66241)" gradientUnits="userSpaceOnUse"><stop offset="0" stop-color="#197cf1"/><stop offset="1" stop-color="#20bcfa"/></linearGradient><g stroke-width="1.317" transform="matrix(1.199999650171 0 0 1.199999650171 -5.647324556906 -1149.765372300533)"><rect width="36.667" height="27.668" x="6.373" y="964.721" fill-opacity=".667" ry="1.302"/><path fill="url(#b)" d="m7.674793 963.88739h34.062643c.721316 0 1.302014.58075 1.302014 1.30204v24.98009c0 .72129-.580698 1.30194-1.302014 1.30194h-34.062643c-.72132 0-1.3020195-.58065-1.3020195-1.30194v-24.98009c0-.72129.5806995-1.30204 1.3020195-1.30204z"/><g fill="url(#a)" transform="matrix(.87339453 0 0 .87339453 9.77652 80.856185)"><ellipse cx="10.653" cy="1028.305" rx="2.147" ry="2.14"/><ellipse cx="14.518" cy="1034.726" rx="2.576" ry="2.568"/><ellipse cx="12.371" cy="1021.457" rx="1.288" ry="1.284"/><path d="m19.669892 1020.1724-2.441983 2.4345 3.756896 3.7453-3.891071 4.4141 2.576158 2.2472 6.01105-6.8486 0 0z"/></g><g fill="#fff" fill-opacity=".852"><circle cx="16.678" cy="966.873" r="1.485"/><circle cx="13.031" cy="966.904" r="1.485"/><circle cx="9.446" cy="966.939" r="1.485"/></g></g></svg>