<svg xmlns="http://www.w3.org/2000/svg" xmlns:xlink="http://www.w3.org/1999/xlink" width="48" height="48"><linearGradient id="a" x1="408.571" x2="408.571" y1="543.798" y2="503.798" gradientUnits="userSpaceOnUse"><stop offset="0" stop-color="#d6d6d6"/><stop offset="1" stop-color="#fff"/></linearGradient><linearGradient id="b" x1="411.707" x2="410.998" y1="528.942" y2="510.143" gradientUnits="userSpaceOnUse"><stop offset="0" stop-color="#2e3e46"/><stop offset="1" stop-color="#47606a"/></linearGradient><g transform="matrix(1.15 0 0 1.15 -445.857158 -578.367705)"><rect width="40" height="40" x="388.571" y="503.798" fill="url(#a)" ry="20"/><path fill="url(#b)" d="m410.71832 523.81718c-.0552-.45802-.22926-.87572-.4968-1.22452l1.8368-11.39934c.0684-.42414-.20372-.82852-.62224-.9252l-.0206-.004c-.41852-.0968-.84028.1476-.96482.55874l-3.34617 11.05067c-.82462.41464-1.39706 1.25987-1.39706 2.24427 0 1.38994 1.13028 2.5209 2.52016 2.5209.259 0 .50392-.0506.73918-.1234l6.99053 3.63279c.38461.1998.85803.075 1.09405-.2885l.01-.016c.23608-.3634.1576-.84673-.1816-1.11673zm-3.73547.29996c0-.6863.5586-1.24488 1.24488-1.24488.6869 0 1.24549.55858 1.24549 1.24488 0 .6868-.55859 1.24548-1.24549 1.24548-.68628 0-1.24488-.5586-1.24488-1.24548z"/></g></svg>