<svg xmlns="http://www.w3.org/2000/svg" xmlns:xlink="http://www.w3.org/1999/xlink" width="48" height="48"><linearGradient id="a"><stop offset="0" stop-color="#d22900"/><stop offset="1" stop-color="#ff6443"/></linearGradient><linearGradient id="b"><stop offset="0" stop-color="#2c2e31"/><stop offset="1" stop-color="#40464d"/></linearGradient><linearGradient id="c" x1="-631.894" x2="-633.627" y1="584.395" y2="463.449" gradientUnits="userSpaceOnUse"><stop offset="0" stop-color="#1584d8"/><stop offset="1" stop-color="#1cb2ff"/></linearGradient><linearGradient id="d" x1="0" x2="1" y1="0" y2="0" gradientTransform="matrix(0 -100 -100 0 96 146)" gradientUnits="userSpaceOnUse" spreadMethod="pad"><stop offset="0" stop-color="#fafafa"/><stop offset="1" stop-color="#e0e0e0"/></linearGradient><linearGradient id="e" x1="-411.012" x2="-411.405" y1="569.617" y2="530.082" gradientUnits="userSpaceOnUse" xlink:href="#a"/><linearGradient id="f" x1="-391.231" x2="-388.253" y1="568.708" y2="529.755" gradientUnits="userSpaceOnUse" xlink:href="#a"/><linearGradient id="g" x1="-433.012" x2="-435.266" y1="569.866" y2="529.75" gradientUnits="userSpaceOnUse" xlink:href="#a"/><linearGradient id="h" x1="-567.926" x2="-567.013" y1="551.277" y2="541.888" gradientUnits="userSpaceOnUse"><stop offset="0" stop-color="#d81d00"/><stop offset="1" stop-color="#da4831"/></linearGradient><linearGradient id="i" x1="-377.213" x2="-381.875" y1="526.346" y2="569.37" gradientUnits="userSpaceOnUse" xlink:href="#d"/><linearGradient id="j" x1="-398.519" x2="-401.114" y1="529.983" y2="569.227" gradientTransform="translate(-.20021)" gradientUnits="userSpaceOnUse" xlink:href="#d"/><linearGradient id="k" x1="-421.421" x2="-423.435" y1="568.35" y2="530.85" gradientUnits="userSpaceOnUse"><stop offset="0" stop-color="#e1e1e1"/><stop offset="1" stop-color="#f9f9f9"/></linearGradient><linearGradient id="l" x1="-442.879" x2="-446.668" y1="567.62" y2="526.632" gradientUnits="userSpaceOnUse"><stop offset="0" stop-color="#e3e3e3"/><stop offset="1" stop-color="#f8f8f8"/></linearGradient><linearGradient id="m" x1="-412.102" x2="-408.323" y1="535.994" y2="462.859" gradientUnits="userSpaceOnUse"><stop offset="0" stop-color="#e7ddd5"/><stop offset="1" stop-color="#f1e9e0"/></linearGradient><linearGradient id="n" x1="-591.369" x2="-580.187" y1="535.056" y2="522.822" gradientUnits="userSpaceOnUse" xlink:href="#b"/><linearGradient id="o" x1="-553.436" x2="-538.458" y1="535.695" y2="525.571" gradientUnits="userSpaceOnUse" xlink:href="#b"/><linearGradient id="p" x1="-632.532" x2="-634.276" y1="589.78" y2="442.424" gradientUnits="userSpaceOnUse"><stop offset="0" stop-color="#eaeaea"/><stop offset="1" stop-color="#fff"/></linearGradient><g transform="matrix(.368577473821 0 0 .368577473821 256.056391097201 -167.788290277789)"><circle cx="-630.617" cy="522.867" r="62.515" fill="url(#c)"/><path fill="url(#m)" fill-rule="evenodd" d="m-449.36992 526.00777c19.21202 18.02163 60.18942 11.93771 75.35611.6202 6.62792-6.41239 4.34432-15.64854-1.66031-17.87573 17.61103-39.10589-42.72944-63.53712-55.39999-19.13701-7.44338-13.87381-35.5539-.12963-17.98576 18.006-8.69599 1.39617-11.20672 14.7292-.31005 18.38654z" transform="translate(-216.67067 16.415884)"/><path fill="url(#k)" fill-rule="evenodd" d="m-428.10584 564.9502 10.75695.40044-.61769-30.39103c-.0211-5.65172-9.85702-7.42098-11.30341-1.35827z" transform="translate(-216.67067 16.415884)"/><path fill="url(#j)" fill-rule="evenodd" d="m-396.15642 565.37411-10.12077-.0725.92738-30.62749c.0211-5.65172 9.85702-7.42098 11.30342-1.35828z" transform="translate(-216.67067 16.415884)"/><circle cx="-585.145" cy="535.056" r="6.224" fill="url(#n)" transform="matrix(1.0443826 0 0 1.0443826 -36.989453 -34.259662)"/><circle cx="-547.212" cy="535.695" r="6.224" fill="url(#o)" transform="matrix(1.0443826 0 0 1.0443826 -36.989453 -34.259662)"/><g fill-rule="evenodd"><path fill="url(#h)" d="m-556.81221 542.83567c-1.47453 11.30987-17.85679 10.65795-18.58539-.13982-.12844-1.06233.094-.97034 1.12492-.976l16.13171-.0886c1.41368-.13111 1.43846.022 1.32876 1.20446z" opacity=".848" transform="matrix(1.0443826 0 0 1.0443826 -36.989453 -34.259662)"/><path fill="url(#e)" d="m-417.56994 565.33917 11.44159-.18466.82836-29.17359c-.0706-8.11549-12.65213-8.14302-12.689-.13145z" transform="translate(-216.67067 16.415884)"/><path fill="url(#f)" d="m-386.44769 563.18717-10.01599 1.83517 1.83553-31.93678c.15345-5.64982 10.25462-7.19911 11.60788-1.10535z" transform="translate(-216.67067 16.415884)"/><path fill="url(#i)" d="m-376.31715 558.03841-10.06991 4.70035 3.41418-31.67486c.43448-5.63504 10.27381-6.68724 11.27276-.53497z" transform="translate(-216.67067 16.415884)"/><path fill="url(#g)" d="m-438.87536 558.97843 11.36473 5.44393-1.7423-31.05131c-.15344-5.64982-10.25462-7.19911-11.60786-1.10534z" transform="translate(-216.67067 16.415884)"/><path fill="url(#l)" d="m-447.69377 557.43793 9.11633 1.45065-2.33079-27.53918c-.43447-5.63504-10.27381-6.68725-11.27276-.53498z" transform="translate(-216.67067 16.415884)"/></g><circle cx="-629.288" cy="520.629" r="62.515" fill="none" stroke="url(#p)" stroke-linecap="round" stroke-linejoin="round" stroke-width="5.2"/></g></svg>