<svg xmlns="http://www.w3.org/2000/svg" xmlns:xlink="http://www.w3.org/1999/xlink" width="48" height="48"><linearGradient id="a"><stop offset="0" stop-color="#1584d8"/><stop offset="1" stop-color="#1cb2ff"/></linearGradient><linearGradient id="b" x1="347.754" x2="347.969" y1="540.87" y2="501.647" gradientUnits="userSpaceOnUse"><stop offset="0" stop-color="#2e3e46"/><stop offset="1" stop-color="#435a64"/></linearGradient><linearGradient id="c" x1="342.95" x2="343.582" y1="538.626" y2="506.254" gradientUnits="userSpaceOnUse" xlink:href="#a"/><linearGradient id="d" x1="348.906" x2="348.621" y1="506.908" y2="503.05" gradientUnits="userSpaceOnUse" xlink:href="#a"/><linearGradient id="e" x1="348.905" x2="348.621" y1="537.412" y2="533.554" gradientUnits="userSpaceOnUse" xlink:href="#a"/><linearGradient id="f" x1="363.987" x2="363.703" y1="522.387" y2="518.529" gradientUnits="userSpaceOnUse" xlink:href="#a"/><linearGradient id="g" x1="333.481" x2="333.196" y1="522.387" y2="518.529" gradientUnits="userSpaceOnUse" xlink:href="#a"/><linearGradient id="h" x1="359.294" x2="359.009" y1="533.053" y2="529.196" gradientUnits="userSpaceOnUse" xlink:href="#a"/><linearGradient id="i" x1="338.023" x2="337.739" y1="533.076" y2="529.218" gradientUnits="userSpaceOnUse" xlink:href="#a"/><linearGradient id="j" x1="338.056" x2="337.772" y1="511.339" y2="507.481" gradientUnits="userSpaceOnUse" xlink:href="#a"/><linearGradient id="k" x1="353.102" x2="352.754" y1="543.113" y2="500.263" gradientUnits="userSpaceOnUse" xlink:href="#a"/><g transform="matrix(1.151839180117 0 0 1.151839180117 -377.472689145389 -575.460162210802)"><circle cx="348.549" cy="520.437" r="19.218" fill="url(#b)" stroke="url(#k)" stroke-linecap="round" stroke-linejoin="round" stroke-width="1.5"/><circle cx="348.699" cy="505.236" r="1.337" fill="url(#d)"/><g fill="url(#c)" transform="matrix(.74282756 0 0 .74282756 95.269977 131.88911)"><circle cx="341.121" cy="523.323" r="15.061" fill="url(#c)"/><path fill="url(#c)" fill-rule="evenodd" d="m344.09095 508.55029c4.11188 1.72061 10.23474-3.24089 12.1749-.98515 2.08128 1.62899-1.93547 6.43387-.73761 11.21903z"/></g><circle cx="348.699" cy="535.74" r="1.337" fill="url(#e)"/><circle cx="363.78" cy="520.715" r="1.337" fill="url(#f)"/><circle cx="333.274" cy="520.715" r="1.337" fill="url(#g)"/><circle cx="359.087" cy="531.382" r="1.337" fill="url(#h)"/><circle cx="337.817" cy="531.404" r="1.337" fill="url(#i)"/><circle cx="337.85" cy="509.667" r="1.337" fill="url(#j)"/></g></svg>