<svg xmlns="http://www.w3.org/2000/svg" xmlns:xlink="http://www.w3.org/1999/xlink" width="48" height="48"><linearGradient id="a" x1="451.686" x2="451.343" y1="556.789" y2="528.789" gradientUnits="userSpaceOnUse"><stop offset="0" stop-color="#42a603"/><stop offset="1" stop-color="#78da06"/></linearGradient><linearGradient id="b" x1="451.686" x2="451.343" y1="556.789" y2="528.789" gradientUnits="userSpaceOnUse"><stop offset="0" stop-color="#197cf1"/><stop offset="1" stop-color="#21c9fb"/></linearGradient><g transform="matrix(1.6533087 0 0 1.6533087 -638.05375 -855.31163)"><rect width="22.411" height="29.671" x="440.132" y="527.989" fill="url(#a)" fill-rule="evenodd" ry="1" transform="matrix(.93424013 0 0 .93424013 -17.856926098197 24.721475044015)"/><g transform="matrix(.93424013 0 0 .93424013 -24.574441098197 24.721475044015)"><rect width="22.411" height="29.671" x="440.132" y="527.989" fill="url(#b)" fill-rule="evenodd" ry="1"/><path fill="#fff" fill-opacity=".852" d="m408.99594 530.99649-5.24403 6.7328c-.98326 1.2624-.708 3.5111.5505 4.4974 1.25852.98629 3.50028.71019 4.48354-.55221l5.24403-6.73281.65549-.8416c.65551-.8416.47201-2.34073-.36699-2.99826-.83901-.65753-2.33352-.47347-2.98902.36814l-.65551.8416-3.93302 5.0496-.6555.8416c-.32776.4208-.236 1.17037.1835 1.49914.4195.32875 1.16676.23673 1.49451-.18407l4.58852-5.89121.83901.65753-4.58852 5.8912c-.65551.84161-2.15002 1.02568-2.98902.36814-.83901-.65753-1.02252-2.15666-.36702-2.99826l.65551-.8416 4.58853-5.8912c.98325-1.26241 3.22501-1.5385 4.48353-.55221 1.25851.98629 1.53377 3.23499.55051 4.49739l-.6555.84161-5.24403 6.73279c-1.31102 1.68321-4.30004 2.05135-5.97805.73629-1.67801-1.31507-2.04502-4.31332-.73401-5.99653l5.24403-6.7328z" transform="matrix(.850186992426 0 0 .847566521372 103.441614629295 88.295130797575)"/></g></g></svg>