<svg xmlns="http://www.w3.org/2000/svg" xmlns:xlink="http://www.w3.org/1999/xlink" width="48" height="48"><linearGradient x1="0" x2="47" y1="23.5" y2="23.5" gradientUnits="userSpaceOnUse"><stop offset="0" stop-color="#a9a3d4"/><stop offset=".47" stop-color="#87baff"/><stop offset="1" stop-color="#89ec85"/></linearGradient><linearGradient id="a" x1="17.288" x2="17.288" y1="1039.759" y2="1013.267" gradientUnits="userSpaceOnUse"><stop offset="0" stop-color="#197cf1"/><stop offset="1" stop-color="#20bcfa"/></linearGradient><g stroke-width="1.317" transform="matrix(1.199999650171 0 0 1.199999650171 3.176860870631 -1208.208316863007)"><rect width="36.667" height="27.668" x="-.981" y="1013.423" fill-opacity=".667" ry="1.302"/><rect width="36.667" height="27.668" x="-.981" y="1012.59" fill="url(#a)" ry="1.302"/><g fill="#fff"><path fill-opacity=".847" stroke-width=".052" d="m25.64227 1023.4136c-2.475503.9115-4.361504 1.5605-6.020853 3.6126-1.478281 1.8285-3.612616 2.4623-6.020814 1.2569v6.57h-1.204297v-16.2562c-.00004-.3328.269258-.6021.602049-.6021.332752 0 .602209.2693.602209.6021 1.336961 1.9438 3.660621 2.3743 6.020813 2.4084 3.612456.053 6.020893 2.4083 6.020893 2.4083z"/><circle cx="9.324" cy="1015.507" r="1.485" fill-opacity=".852"/><circle cx="5.677" cy="1015.538" r="1.485" fill-opacity=".852"/><circle cx="2.092" cy="1015.573" r="1.485" fill-opacity=".852"/></g></g></svg>