<svg xmlns="http://www.w3.org/2000/svg" xmlns:xlink="http://www.w3.org/1999/xlink" viewBox="0 0 48 48"><linearGradient x1="3.147" x2="18.772" y1="1041.495" y2="1041.495" gradientUnits="userSpaceOnUse"><stop offset="0" stop-color="#e6f3ff"/><stop offset="1" stop-color="#dcffe7"/></linearGradient><linearGradient id="a" x1="408.86" x2="409.125" y1="541.757" y2="507.793" gradientTransform="matrix(.99999997 0 0 .97651006 -384.57143 -488.97072)" gradientUnits="userSpaceOnUse"><stop offset="0" stop-color="#197cf1"/><stop offset="1" stop-color="#20bcfa"/></linearGradient><linearGradient id="b" x1="8.975" x2="8" y1="7.114" y2="40.1" gradientUnits="userSpaceOnUse"><stop offset="0" stop-color="#e4e4e4"/><stop offset="1" stop-color="#eee"/></linearGradient><rect width="44" height="33.201" x="2" y="7.899" fill-opacity=".667" ry="1.562"/><rect width="44" height="33.201" x="2" y="6.899" fill="url(#a)" ry="1.562"/><path fill="url(#b)" fill-rule="evenodd" d="m3.5624999 6.9002247c-.8655785 0-1.5625.696922-1.5625 1.5625v4.4375003c3.324 0 6-2.676 6-6.0000003zm36.4375001 0c0 3.3240003 2.676 6.0000003 6 6.0000003v-4.4375003c0-.865578-.696921-1.5625-1.5625-1.5625zm-38.0000001 27.2011713v4.4375c0 .865579.6969215 1.5625 1.5625 1.5625h4.4375c0-3.323999-2.676-6-6-6zm44.0000001 0c-3.324 0-6 2.676001-6 6h4.4375c.865579 0 1.5625-.696921 1.5625-1.5625z"/><path fill="#fff" fill-opacity=".471" fill-rule="evenodd" d="m4.0833356 6.8993279c-1.1541047 0-2.0833334.9292294-2.0833334 2.0833334v5.9166667c4.4320001 0 7.9999998-3.568 7.9999998-8.0000001z"/></svg>