<svg xmlns="http://www.w3.org/2000/svg" xmlns:xlink="http://www.w3.org/1999/xlink" width="48" height="48"><linearGradient id="a" x1="396.667" x2="396.667" y1="518.079" y2="545.154" gradientUnits="userSpaceOnUse"><stop offset="0" stop-color="#faf7f7"/><stop offset="1" stop-color="#d4d4d4"/></linearGradient><linearGradient id="b" x1="403.435" x2="402.468" y1="545.154" y2="518.079" gradientUnits="userSpaceOnUse"><stop offset="0" stop-color="#d3d3d3"/><stop offset="1" stop-color="#fcf9f9"/></linearGradient><linearGradient id="c" x1="433.471" x2="433.471" y1="551.998" y2="509.998" gradientUnits="userSpaceOnUse"><stop offset="0" stop-color="#2a2c2f"/><stop offset="1" stop-color="#424649"/></linearGradient><g transform="matrix(1.534575166451 0 0 1.534575166451 -590.633838045122 -791.998731011395)"><circle cx="400.524" cy="531.742" r="14.226" fill="url(#b)" stroke="url(#a)" stroke-width="1.524"/><path fill="url(#c)" d="m433.47143 527.998c-1.662 0-3 1.338-3 3s1.338 3 3 3 3-1.338 3-3-1.338-3-3-3zm-7.5 0c-1.662 0-3 1.338-3 3s1.338 3 3 3 3-1.338 3-3-1.338-3-3-3zm15 0c-1.662 0-3 1.338-3 3s1.338 3 3 3 3-1.338 3-3-1.338-3-3-3z" transform="matrix(.95161024 0 0 .95161024 -12.009164 26.553639)"/></g></svg>