<svg xmlns="http://www.w3.org/2000/svg" xmlns:xlink="http://www.w3.org/1999/xlink" width="48" height="48"><linearGradient id="a" x1="409.571" x2="409.571" y1="542.798" y2="507.798" gradientTransform="matrix(.99999971 0 0 .97650983 .000079 10.827714)" gradientUnits="userSpaceOnUse"><stop offset="0" stop-color="#566069"/><stop offset="1" stop-color="#636e79"/></linearGradient><g transform="translate(-384.57143 -499.798)"><rect width="44" height="33.201" x="386.571" y="507.697" fill-opacity=".667" ry="1.562"/><rect width="44" height="33.201" x="386.571" y="506.697" fill="url(#a)" ry="1.562"/><g transform="matrix(.77539516 0 0 .775677 99.236986 109.68296)"><path fill="#fff" d="m408.98628 515.37614a.73029975.73029975 0 0 0 -.52485.41076l-2.19068 4.38136a.73029975.73029975 0 0 0 .43357 1.00406l1.82557.61613a.73029975.73029975 0 0 0 .22819.0456h.73023a.73029975.73029975 0 0 0 .2282-.0456l1.82556-.61613a.73029975.73029975 0 0 0 .43358-1.00406l-2.19068-4.38136a.73029975.73029975 0 0 0 -.73023-.41076.73029975.73029975 0 0 0 -.0684 0zm-4.72365 6.93716a.73029975.73029975 0 0 0 -.20538.0684l-4.38136 2.19068a.73029975.73029975 0 0 0 0 1.32354l4.38136 2.19068a.73029975.73029975 0 0 0 1.00406-.43357l.61613-1.82557a.73029975.73029975 0 0 0 .0456-.2282v-.73022a.73029975.73029975 0 0 0 -.0456-.2282l-.61613-1.82557a.73029975.73029975 0 0 0 -.79868-.50203zm9.51576 0a .73029975.73029975 0 0 0 -.59331.50203l-.61612 1.82557a.73029975.73029975 0 0 0 -.0456.22819v.73023a.73029975.73029975 0 0 0 .0456.22819l.61612 1.82557a.73029975.73029975 0 0 0 1.00407.43357l4.38136-2.19068a.73029975.73029975 0 0 0 0-1.32353l-4.38136-2.19068a.73029975.73029975 0 0 0 -.41076-.0684zm-4.67801.34229c-1.40288 0-2.55579 1.15292-2.55579 2.5558 0 1.40287 1.15291 2.55579 2.55579 2.55579 1.40287 0 2.55579-1.15292 2.55579-2.55579 0-1.40288-1.15292-2.5558-2.55579-2.5558zm-.41075 5.97873a.73029975.73029975 0 0 0 -.15974.0456l-1.82557.61613a.73029975.73029975 0 0 0 -.43357 1.00406l2.19068 4.38136a.73029975.73029975 0 0 0 1.32354 0l2.19068-4.38136a.73029975.73029975 0 0 0 -.43358-1.00406l-1.82556-.61613a.73029975.73029975 0 0 0 -.2282-.0456h-.73023a.73029975.73029975 0 0 0 -.0684 0z"/><path fill="#1a1a1a" d="m409.1232 516.10637-2.19068 4.38136 1.82556.61613h.73023l1.82557-.61613zm-4.74648 6.93716-4.38136 2.19068 4.38136 2.19068.61613-1.82557v-.73023zm9.49295 0-.61613 1.82556v.73023l.61613 1.82557 4.38136-2.19068zm-5.11159 6.32102-1.82556.61613 2.19068 4.38136 2.19068-4.38136-1.82557-.61613z"/><circle cx="409.1" cy="525.202" r="1.826" fill="#f67400"/></g><g fill="#fff"><circle cx="398.937" cy="510.198" r="1.781" fill-opacity=".852"/><circle cx="394.561" cy="510.235" r="1.781" fill-opacity=".852"/><circle cx="390.259" cy="510.278" r="1.781" fill-opacity=".852"/><path fill-opacity=".851" d="m386.57143 520.56307v17.77411c0 .86558.69624 1.56183 1.56182 1.56183h24.76868v-17.77412c0-.86558-.69811-1.56182-1.56369-1.56182z"/></g><path fill="#1a1a1a" fill-opacity=".851" d="m2 20.765625v3.691406h26.330078v-2.130859c0-.107536-.01075-.213189-.03125-.314453-.000125-.000615.000126-.001339 0-.001953-.041375-.203102-.122771-.391013-.234375-.556641-.000281-.000416.000282-.001538 0-.001953-.112101-.165971-.255675-.30805-.421875-.419922-.146804-.098817-.313349-.168322-.490234-.212891-.023271-.005895-.044681-.016639-.06836-.021484-.000623-.000127-.00133.000126-.001953 0-.101927-.020728-.206255-.03125-.314453-.03125z" transform="translate(384.57143 499.798)"/></g></svg>