<svg xmlns="http://www.w3.org/2000/svg" xmlns:xlink="http://www.w3.org/1999/xlink" viewBox="0 0 48 48"><linearGradient id="a" x1="399.571" x2="399.571" y1="545.798" y2="517.798" gradientUnits="userSpaceOnUse"><stop offset="0" stop-color="#3889e9"/><stop offset="1" stop-color="#5ea5fb"/></linearGradient><linearGradient id="b" x1="400.556" x2="400.556" y1="546.927" y2="516.475" gradientUnits="userSpaceOnUse"><stop offset="0" stop-color="#2e3e46"/><stop offset="1" stop-color="#47606a"/></linearGradient><linearGradient id="c" x1="61.754" x2="63.053" y1="132.338" y2="-1.935" gradientUnits="userSpaceOnUse"><stop offset="0" stop-color="#ff9300"/><stop offset="1" stop-color="#ffd702"/></linearGradient><g transform="matrix(1.5511965 0 0 1.552208 -597.38982 -801.61944)"><circle cx="400.571" cy="531.798" r="0" fill="url(#a)"/><g transform="matrix(1.0508504 0 0 1.0508504 -20.353166 -26.940048)"><circle cx="400.571" cy="531.798" r="14" fill="url(#b)" stroke="url(#b)" stroke-width="1.427"/><circle cx="400.571" cy="531.798" r="0" fill="url(#a)" transform="matrix(1.55822993102 0 0 1.55822993102 -264.298285246431 -296.910724934234)"/></g></g><path fill="url(#c)" d="m132.77 118.025-27.945-27.945c6.735-9.722 10.104-20.559 10.104-32.508 0-7.767-1.508-15.195-4.523-22.283-3.014-7.089-7.088-13.199-12.221-18.332s-11.242-9.207-18.33-12.221c-7.09-3.015-14.518-4.522-22.285-4.522s-15.195 1.507-22.283 4.522c-7.089 3.014-13.199 7.088-18.332 12.221s-9.207 11.244-12.221 18.332c-3.015 7.089-4.522 14.516-4.522 22.283s1.507 15.193 4.522 22.283c3.014 7.088 7.088 13.197 12.221 18.33 5.133 5.134 11.244 9.207 18.332 12.222 7.089 3.015 14.516 4.522 22.283 4.522 11.951 0 22.787-3.369 32.509-10.104l27.945 27.863c1.955 2.064 4.397 3.096 7.332 3.096 2.824 0 5.27-1.032 7.332-3.096 2.064-2.063 3.096-4.508 3.096-7.332.001-2.877-1.003-5.322-3.014-7.331zm-49.413-34.668c-7.143 7.143-15.738 10.714-25.787 10.714-10.048 0-18.643-3.572-25.786-10.714-7.143-7.143-10.714-15.737-10.714-25.786 0-10.048 3.572-18.644 10.714-25.786 7.142-7.143 15.738-10.714 25.786-10.714s18.643 3.572 25.787 10.714c7.143 7.142 10.715 15.738 10.715 25.786 0 10.049-3.573 18.643-10.715 25.786z" transform="matrix(.191782846725 0 0 .191782846725 10.959151122599 10.958956051141)"/></svg>