<svg xmlns="http://www.w3.org/2000/svg" xmlns:svg="http://www.w3.org/2000/svg" id="svg32" width="48" height="48" version="1.1"><metadata id="metadata38"/><linearGradient id="a" x1="11.661" x2="10.416" y1="56.928" y2="32.881" gradientUnits="userSpaceOnUse"><stop id="stop2" offset="0" stop-color="#cdd0d1"/><stop id="stop4" offset="1" stop-color="#f6f6f7"/></linearGradient><linearGradient id="b" x1="14.428" x2="5.506" y1="47.468" y2="39.642" gradientUnits="userSpaceOnUse"><stop id="stop7" offset="0" stop-color="#16a085"/><stop id="stop9" offset="1" stop-color="#2dcb72"/></linearGradient><filter id="c" color-interpolation-filters="sRGB"><feColorMatrix id="feColorMatrix12" values="0.21 0.72 0.072 0 0 0.21 0.72 0.072 0 0 0.21 0.72 0.072 0 0 0 0 0 1 0"/></filter><linearGradient id="d" x1="-36.27" x2="-9.405" y1="51.897" y2="7.457" gradientUnits="userSpaceOnUse"><stop id="stop15" offset="0" stop-color="#38da82"/><stop id="stop17" offset="1" stop-color="#e4f451"/></linearGradient><g id="g30" transform="matrix(0.69654364,-0.00959983,0.00959983,0.69654364,29.521126,1.1476606)"><rect id="rect20" width="49.64" height="37.355" x="-33.839" y="8.572" fill="#07c3f2" ry="1.544" transform="rotate(-0.19575657)"/><rect id="rect22" width="49.64" height="37.355" x="-42.624" y="13.685" fill="url(#d)" ry="1.544" transform="rotate(-8.8157654)"/><circle id="circle24" cx="11.184" cy="45.123" r="12.349" fill="url(#a)" filter="url(#c)" transform="matrix(0.78017865,0,0,0.78017865,2.581938,10.521665)"/><path id="path26" fill="url(#b)" d="M 14.428456,47.271288 5.5057777,47.467572 9.7971304,39.642164 Z" filter="url(#c)" transform="matrix(-0.0138427,0.90747861,-0.90747861,-0.0138427,51.546127,37.320471)"/><path id="path28" fill="#fff" d="m -20.607197,43.945891 c 0.152945,-0.159931 0.166602,-0.356907 0.05528,-0.79749 l -0.147831,-0.5851 -4.912273,0.875389 -4.912278,0.87539 0.07474,0.658328 c 0.04942,0.435769 0.140206,0.685169 0.268444,0.737701 0.106552,0.04365 2.258573,-0.287654 4.782269,-0.736235 3.53288,-0.627964 4.635271,-0.864468 4.791647,-1.02799 z m 6.050544,-10.340371 c 0.768861,-0.466326 1.716872,-1.407544 1.859973,-1.84664 0.08127,-0.249366 -0.0043,-0.368987 -0.57259,-0.800793 -1.010494,-0.767745 -1.095525,-0.772175 -1.783683,-0.0929 -0.326018,0.321806 -0.801546,0.685255 -1.056729,0.807666 -2.037673,0.977458 -4.161115,-0.169339 -4.570847,-2.468551 -0.505998,-2.839311 2.118527,-4.808855 4.663153,-3.499424 0.26973,0.138803 0.579077,0.236569 0.687428,0.21726 0.21954,-0.03916 1.285412,-1.713588 1.245217,-1.956227 -0.07074,-0.426952 -1.862539,-1.091066 -3.0485,-1.129888 -4.393052,-0.143809 -7.366292,3.66676 -6.032624,7.731543 0.719047,2.191537 2.667844,3.711198 4.994986,3.895074 0.987668,0.07804 2.7688,-0.344356 3.614215,-0.857114 z m -15.081613,2.777037 c 0.155181,-0.166046 0.149022,-0.486707 -0.03211,-1.672285 l -0.224082,-1.466852 1.447235,-0.33415 c 1.748418,-0.403686 2.564131,-0.825178 3.240716,-1.674538 0.746611,-0.937265 0.936365,-1.761696 0.704692,-3.061722 -0.231481,-1.29881 -0.69449,-2.008133 -1.715265,-2.627577 -1.098634,-0.666698 -1.65807,-0.700106 -4.509023,-0.269269 -1.372356,0.207388 -2.640373,0.442297 -2.817809,0.522024 l -0.32261,0.144944 0.967606,5.429737 c 0.751926,4.219569 1.00725,5.438069 1.145492,5.467126 0.373063,0.07841 1.928837,-0.258046 2.115188,-0.457442 z m -0.710513,-5.635816 c -0.05409,-0.08963 -0.192237,-0.789294 -0.306994,-1.55481 l -0.20874,-1.391835 1.122151,-0.236679 c 1.694583,-0.357417 2.453781,-0.02766 2.670322,1.159853 0.113842,0.625164 -0.283065,1.338824 -0.912937,1.640968 -0.69082,0.331378 -2.243119,0.582568 -2.363805,0.382503 z"/></g></svg>