<svg xmlns="http://www.w3.org/2000/svg" xmlns:xlink="http://www.w3.org/1999/xlink" width="48" height="48"><linearGradient id="a" x1="408.571" x2="408.571" y1="543.798" y2="503.798" gradientUnits="userSpaceOnUse"><stop offset="0" stop-color="#016ed4"/><stop offset="1" stop-color="#00b1ff"/></linearGradient><linearGradient id="b" x1="410.529" x2="408.571" y1="547.287" y2="500.309" gradientUnits="userSpaceOnUse"><stop offset="0" stop-color="#2e3e46"/><stop offset="1" stop-color="#47606a"/></linearGradient><g stroke-width="1.317" transform="matrix(1.02986770461 0 0 1.02986770461 -504.41821737991 -520.002724605472)"><g transform="matrix(.877633299345 0 0 .877633299345 154.517395760462 68.523287783296)"><rect width="50.894" height="50.894" x="383.125" y="498.351" fill="url(#b)" fill-rule="evenodd" ry="1.468"/></g><path fill="#fff" fill-opacity=".848" d="m900.199 0h-46.514c-11.046 0-20 8.954-20 20v24.89c0 11.045-8.954 20-20 20h-43.37c-11.046 0-20-8.955-20-20v-24.89c0-11.046-8.953-20-20-20h-522.194c-11.046 0-20 8.954-20 20v24.89c0 11.045-8.954 20-20 20h-43.37c-11.046 0-20-8.955-20-20v-24.89c0-11.046-8.954-20-20-20h-44.95c-11.046 0-20 8.954-20 20v900c0 11.046 8.954 20 20 20h44.95c11.046 0 20-8.954 20-20v-18.285c0-11.046 8.954-20 20-20h43.37c11.046 0 20 8.954 20 20v18.285c0 11.046 8.954 20 20 20h522.194c11.047 0 20-8.954 20-20v-18.285c0-11.046 8.954-20 20-20h43.37c11.046 0 20 8.954 20 20v18.285c0 11.046 8.954 20 20 20h46.514c11.046 0 20-8.954 20-20v-900c0-11.045-8.954-20-20-20zm-712.078 765.369c0 11.046-8.954 20-20 20h-43.37c-11.046 0-20-8.954-20-20v-43.37c0-11.045 8.954-20 20-20h43.37c11.046 0 20 8.955 20 20zm0-179.716c0 11.045-8.954 20-20 20h-43.37c-11.046 0-20-8.955-20-20v-43.371c0-11.045 8.954-20 20-20h43.37c11.046 0 20 8.955 20 20zm0-179.717c0 11.047-8.954 20-20 20h-43.37c-11.046 0-20-8.953-20-20v-43.37c0-11.046 8.954-20 20-20h43.37c11.046 0 20 8.954 20 20zm0-179.716c0 11.046-8.954 20-20 20h-43.37c-11.046 0-20-8.954-20-20v-43.37c0-11.045 8.954-20 20-20h43.37c11.046 0 20 8.955 20 20zm475.715 608.047c0 11.047-8.954 20-20 20h-347.672c-11.046 0-20-8.953-20-20v-160.722c0-11.046 8.954-20 20-20h347.672c11.046 0 20 8.954 20 20zm0-283.906c0 11.046-8.954 20-20 20h-347.672c-11.046 0-20-8.954-20-20v-160.722c0-11.045 8.954-20 20-20h347.672c11.046 0 20 8.955 20 20zm0-283.907c0 11.046-8.954 20-20 20h-347.672c-11.046 0-20-8.954-20-20v-160.722c0-11.045 8.954-20 20-20h347.672c11.046 0 20 8.955 20 20zm169.85 498.915c0 11.046-8.954 20-20 20h-43.37c-11.046 0-20-8.954-20-20v-43.37c0-11.045 8.954-20 20-20h43.37c11.046 0 20 8.955 20 20zm0-179.716c0 11.045-8.954 20-20 20h-43.37c-11.046 0-20-8.955-20-20v-43.371c0-11.045 8.954-20 20-20h43.37c11.046 0 20 8.955 20 20zm0-179.717c0 11.047-8.954 20-20 20h-43.37c-11.046 0-20-8.953-20-20v-43.37c0-11.046 8.954-20 20-20h43.37c11.046 0 20 8.954 20 20zm0-179.716c0 11.046-8.954 20-20 20h-43.37c-11.046 0-20-8.954-20-20v-43.37c0-11.045 8.954-20 20-20h43.37c11.046 0 20 8.955 20 20z" transform="matrix(.028510168245 0 0 .028510169071 499.693526822067 514.826059250592)"/><rect width="40" height="40" x="388.571" y="503.798" fill="url(#a)" ry="20" transform="matrix(.500000002586 0 0 .500000002586 321.917680450178 279.477378592484)"/><g><path fill="#fff" fill-opacity=".848" d="m24.026 12.005066c2.735.006 5.5083.85839 7.6746 2.5456 1.5229 1.7544-1.3789 3.6333-2.6858 1.9226-3.9343-2.3806-9.4829-1.5424-12.443 2.0167-1.5749 1.7662-2.4622 4.1231-2.4518 6.4891h2.6l-4.16 6.24-4.1599998-6.24h2.5999998c-.083-5.649 3.98-11.023 9.435-12.486 1.17-.321 2.376-.501 3.591-.488zm11.414 6.76 4.16 6.24h-2.6c.0737 5.7169-4.093 11.151-9.6433 12.537-3.7452 1.0459-7.9801.2827-11.058-2.1101-1.5705-1.7837 1.3716-3.6445 2.6907-1.9181 3.8119 2.3127 9.1499 1.5792 12.159-1.724 1.742-1.795 2.744-4.283 2.731-6.785h-2.6l4.16-6.24z" transform="matrix(.535207784214 0 0 .535207784214 513.358416714631 527.995007168629)"/></g></g></svg>