<svg xmlns="http://www.w3.org/2000/svg" xmlns:xlink="http://www.w3.org/1999/xlink" width="48" height="48"><linearGradient id="a"><stop offset="0" stop-color="#2e3436"/><stop offset="1" stop-color="#555753"/></linearGradient><linearGradient id="b" x1="70.026" x2="66.526" y1="569.237" y2="491.062" gradientUnits="userSpaceOnUse"><stop offset="0" stop-color="#00a199"/><stop offset="1" stop-color="#00f89a" stop-opacity=".988"/></linearGradient><linearGradient id="c" x1="72.85" x2="72.285" y1="491.145" y2="462.676" gradientTransform="matrix(1.0020883 0 0 .99999615 -.150321 .001833)" gradientUnits="userSpaceOnUse" xlink:href="#a"/><linearGradient id="d" x1="44.159" x2="44.262" y1="490.592" y2="461.929" gradientUnits="userSpaceOnUse" xlink:href="#a"/><linearGradient id="e" x1="96.678" x2="96.333" y1="490.357" y2="462.831" gradientUnits="userSpaceOnUse" xlink:href="#a"/><g transform="matrix(.398683803606 0 0 .398683803606 -4.743695563657 -182.141698673443)"><rect width="120.396" height="106.817" x="11.899" y="465.168" fill="url(#b)" ry="5.027"/><g fill-rule="evenodd"><path fill="url(#c)" stroke="url(#c)" stroke-linecap="round" stroke-linejoin="round" stroke-width=".107" d="m18.537737 462.20454h107.117473c3.85647 0 6.71098 3.09818 6.71098 6.9466l.00048 14.95331v6.94661h-120.540399v-6.94661l.000081-14.95331c.00002-3.84842 2.854909-6.9466 6.711385-6.9466z"/><path fill="#fff" fill-opacity=".948" stroke="url(#e)" stroke-width="1.125" d="m79.770627 490.49943h19.098944l14.926159-13.20538-14.926159-14.60565h-19.098944l13.531217 14.60565z"/><path fill="#fff" fill-opacity=".948" stroke="url(#d)" stroke-width="1.125" d="m31.675661 490.49922h19.09894l14.926158-13.20538-14.926158-14.60565h-19.09894l13.53121 14.60565z"/><path fill="#fff" stroke="#fff" stroke-linecap="round" stroke-linejoin="round" stroke-width="4.792" d="m-23.992884 537.974-42.138728 24.32881v-48.65762z" transform="matrix(.62274545 0 0 .75085086 100.15886 126.79739)"/></g></g></svg>