<svg xmlns="http://www.w3.org/2000/svg" xmlns:xlink="http://www.w3.org/1999/xlink" width="48" height="48"><linearGradient id="a" x1="391.571" x2="391.571" y1="531.798" y2="501.699" gradientTransform="matrix(1.0833321 0 0 1.3356131 -34.047105 -170.45106)" gradientUnits="userSpaceOnUse"><stop offset="0" stop-color="#c2c3c3"/><stop offset="1" stop-color="#e9eaeb"/></linearGradient><linearGradient id="b" x1="414.545" x2="414.205" y1="535.918" y2="514.004" gradientUnits="userSpaceOnUse" xlink:href="#h"/><linearGradient id="c" x1="408.524" x2="409.266" y1="506.485" y2="533.195" gradientTransform="matrix(-1 0 0 -1 823.84266 1043.6233)" gradientUnits="userSpaceOnUse"><stop offset="0" stop-color="#1e1e1e"/><stop offset="1" stop-color="#6b6969"/></linearGradient><linearGradient id="d" x1="407.205" x2="424.071" y1="515.759" y2="532.625" gradientUnits="userSpaceOnUse"><stop offset="0" stop-color="#18222a"/><stop offset="1" stop-color="#566069"/></linearGradient><linearGradient id="e" x1="390.562" x2="390.562" y1="509.104" y2="504.104" gradientUnits="userSpaceOnUse"><stop offset="0" stop-color="#2f3943"/><stop offset="1" stop-color="#808c9b"/></linearGradient><linearGradient id="f" x1="543.948" x2="543.743" y1="484.808" y2="427.538" gradientUnits="userSpaceOnUse" xlink:href="#h"/><linearGradient id="g" x1="521.714" x2="523.394" y1="448.963" y2="434.107" gradientUnits="userSpaceOnUse"><stop offset="0" stop-color="#eefefe"/><stop offset="1" stop-color="#d6fefe"/></linearGradient><linearGradient id="h"><stop offset="0" stop-color="#ff433a"/><stop offset="1" stop-color="#ff9436"/></linearGradient><g><g transform="translate(-496.794007 -500.23384) matrix(.542026935585 -.066619797623 .066619797623 .542026935585 195.078719596312 310.10465691792)"><rect width="76.809" height="58.987" x="504.257" y="426.464" fill="url(#f)" ry="2.3"/><path fill="#661844" fill-rule="evenodd" d="m504.24401 479.00516 15.3697-4.46031 4.903 3.12141 11.28646-3.56173 11.18447 3.58447 8.05165 1.68298 6.15622-1.94279 7.58946-1.72815 12.26513-10.63525.0579 20.75989-73.3897-.20135s-3.45429.64295-3.46211-2.19509z"/><circle cx="522.662" cy="442.288" r="6.976" fill="url(#g)" opacity=".811"/></g><g transform="translate(-496.794007 -500.23384) matrix(.603734341465 0 0 .603734341465 282.588305469972 219.424758461303)"><rect width="6" height="3" x="386.562" y="506.104" fill="url(#e)" ry="1"/><rect width="52" height="32.055" x="382.571" y="507.771" fill="url(#a)" ry="1.5"/><path fill="url(#c)" d="m401.27124 523.8253a13.999973 13.999973 0 0 1 13.99997-13.99997 13.999973 13.999973 0 0 1 13.99997 13.99997 13.999973 13.999973 0 0 1 -13.99997 13.99998 13.999973 13.999973 0 0 1 -13.99997-13.99998z"/><circle cx="415.271" cy="523.825" r="11" fill="url(#d)"/><circle cx="415.271" cy="523.825" r="10" fill="url(#b)"/></g></g></svg>