<svg xmlns="http://www.w3.org/2000/svg" xmlns:xlink="http://www.w3.org/1999/xlink" width="48" height="48"><linearGradient id="a" x1="368.964" x2="368.964" y1="545.753" y2="517.397" gradientTransform="matrix(1.0638147 0 0 1 9.758108 -.061865)" gradientUnits="userSpaceOnUse"><stop offset="0" stop-color="#c61423"/><stop offset="1" stop-color="#ff4c63"/></linearGradient><g transform="matrix(1.031659 0 0 1.031659 -397.471904 -516.392414)"><rect width="33.976" height="28.063" x="384.696" y="517.736" fill="url(#a)" opacity=".988" ry="2" transform="matrix(1.369424192608 0 0 1.369424192608 -141.440306175929 -204.316784954394)"/><g fill="#fff"><path d="m294.90044 506.26511v1 4h1v-4h4v-1z" opacity=".75" transform="matrix(.97078178 0 0 .97078178 102.181234547955 16.595154687083)"/><path d="m294.90044 538.56511h1 4v-1h-4v-4h-1z" opacity=".75" transform="matrix(.97078178 0 0 .97078178 102.181234547955 16.595154687083)"/><path d="m336.2007 538.06511v-1-4h-1v4h-4v1z" opacity=".75" transform="matrix(.97078178 0 0 .97078178 102.181234547955 16.595154687083)"/><path d="m336.3007 506.56472h-1-4v1h4v4h1z" opacity=".75" transform="matrix(.97078178 0 0 .97078178 102.181234547955 16.595154687083)"/><circle cx="408.274" cy="524.283" r="5.4" opacity=".77"/></g></g></svg>