<svg xmlns="http://www.w3.org/2000/svg" xmlns:xlink="http://www.w3.org/1999/xlink" width="48" height="48"><linearGradient id="a" x1="408.571" x2="408.571" y1="543.798" y2="503.798" gradientUnits="userSpaceOnUse"><stop offset="0" stop-color="#0bac83"/><stop offset="1" stop-color="#10da96"/></linearGradient><linearGradient id="b" x1="410.529" x2="408.571" y1="547.287" y2="500.309" gradientUnits="userSpaceOnUse"><stop offset="0" stop-color="#016ed4"/><stop offset="1" stop-color="#00b1ff"/></linearGradient><g stroke-width="1.317" transform="matrix(1.02986770461 0 0 1.02986770461 -504.41821737991 -520.002724605472)"><g transform="matrix(.877633299345 0 0 .877633299345 154.517395760462 68.523287783296)"><rect width="50.894" height="50.894" x="383.125" y="498.351" fill="url(#b)" fill-rule="evenodd" ry="1.468"/></g><path fill="#d9effc" d="m31.722179 324.46936c-54.465439 15.56145-98.313175 77.46359-98.313175 137.58642v953.27592c-55.229474-30.8356-126.160894-43.3048-199.698484-22.9313-132.69962 36.7639-215.85451 155.5804-187.40908 265.3448 28.44549 109.7645 159.16737 171.0746 291.86676 134.3099 105.866839-29.3298 178.843141-112.3167 190.481828-199.8268l3.072151-900.86191 688.192281-196.55231v710.86202c-55.23003-30.8357-126.16144-43.3043-199.69867-22.9305-132.69969 36.7639-215.85494 155.5795-187.40959 265.3447 28.44542 109.7643 159.16758 171.0747 291.86677 134.3101 105.86709-29.33 178.8436-112.3175 190.48221-199.8279l3.07215-1172.75814c0-45.09203-26.13592-78.8292-61.44539-85.17198z" transform="matrix(.016367092565 0 0 .016201617178 508.675126457067 512.696316483201)"/><rect width="40" height="40" x="388.571" y="503.798" fill="url(#a)" ry="20" transform="matrix(.500000002586 0 0 .500000002586 321.917680450178 279.477378592484)"/><g><path fill="#fff" fill-opacity=".848" d="m24.026 12.005066c2.735.006 5.5083.85839 7.6746 2.5456 1.5229 1.7544-1.3789 3.6333-2.6858 1.9226-3.9343-2.3806-9.4829-1.5424-12.443 2.0167-1.5749 1.7662-2.4622 4.1231-2.4518 6.4891h2.6l-4.16 6.24-4.1599998-6.24h2.5999998c-.083-5.649 3.98-11.023 9.435-12.486 1.17-.321 2.376-.501 3.591-.488zm11.414 6.76 4.16 6.24h-2.6c.0737 5.7169-4.093 11.151-9.6433 12.537-3.7452 1.0459-7.9801.2827-11.058-2.1101-1.5705-1.7837 1.3716-3.6445 2.6907-1.9181 3.8119 2.3127 9.1499 1.5792 12.159-1.724 1.742-1.795 2.744-4.283 2.731-6.785h-2.6l4.16-6.24z" transform="matrix(.535207784214 0 0 .535207784214 513.358416714631 527.995007168629)"/></g></g></svg>