<svg xmlns="http://www.w3.org/2000/svg" xmlns:xlink="http://www.w3.org/1999/xlink" width="48" height="48"><linearGradient id="a" x1="408.571" x2="408.571" y1="543.798" y2="503.798" gradientUnits="userSpaceOnUse"><stop offset="0" stop-color="#1f2121"/><stop offset="1" stop-color="#404447"/></linearGradient><linearGradient id="b" x1="410.529" x2="408.571" y1="547.287" y2="500.309" gradientUnits="userSpaceOnUse"><stop offset="0" stop-color="#ff6835"/><stop offset="1" stop-color="#ff956f"/></linearGradient><g stroke-width="1.317" transform="matrix(1.02986770461 0 0 1.02986770461 -504.41821737991 -520.002724605472)"><g transform="matrix(.877633299345 0 0 .877633299345 154.517395760462 68.523287783296)"><rect width="50.894" height="50.894" x="383.125" y="498.351" fill="url(#b)" fill-rule="evenodd" ry="1.468"/></g><path fill="#fff" fill-opacity=".851" d="m31.722179 324.46936c-54.465439 15.56145-98.313175 77.46359-98.313175 137.58642v953.27592c-55.229474-30.8356-126.160894-43.3048-199.698484-22.9313-132.69962 36.7639-215.85451 155.5804-187.40908 265.3448 28.44549 109.7645 159.16737 171.0746 291.86676 134.3099 105.866839-29.3298 178.843141-112.3167 190.481828-199.8268l3.072151-900.86191 688.192281-196.55231v710.86202c-55.23003-30.8357-126.16144-43.3043-199.69867-22.9305-132.69969 36.7639-215.85494 155.5795-187.40959 265.3447 28.44542 109.7643 159.16758 171.0747 291.86677 134.3101 105.86709-29.33 178.8436-112.3175 190.48221-199.8279l3.07215-1172.75814c0-45.09203-26.13592-78.8292-61.44539-85.17198z" transform="matrix(.016367092565 0 0 .016201617178 508.675126457067 512.696316483201)"/><rect width="40" height="40" x="388.571" y="503.798" fill="url(#a)" ry="20" transform="matrix(.500000002586 0 0 .500000002586 321.917680450178 279.477378592484)"/><path fill="#fff" fill-opacity=".851" d="m400.07812 520.08271-6.58932 11.49175c-1.38467 2.42951-1.49162 5.51872 0 8.12008 2.2423 3.91055 7.23019 5.26297 11.14076 3.02064 3.91056-2.24229 5.26298-7.23015 3.02065-11.14075l-6.58931-11.49172c-.21767-.37961-.76514-.37961-.98278 0z" transform="matrix(.485499219348 0 0 .485499219348 331.554241485833 283.430420152697)"/></g></svg>