<svg xmlns="http://www.w3.org/2000/svg" xmlns:xlink="http://www.w3.org/1999/xlink" width="48" height="48"><linearGradient id="a" x1="33.967" x2="17.035" y1="32.012" y2="18.43" gradientUnits="userSpaceOnUse"><stop offset="0" stop-color="#4d4d4d"/><stop offset="1" stop-color="#666"/></linearGradient><linearGradient id="b" x1="-988.592" x2="-1086.189" y1="116.498" y2="208.206" gradientTransform="matrix(.32587204 0 0 .32156148 357.82558 -24.927786)" gradientUnits="userSpaceOnUse"><stop offset="0" stop-color="#00cafe"/><stop offset="1" stop-color="#1460f3"/></linearGradient><linearGradient id="c" x1="-989.666" x2="-1003.636" y1="433.284" y2="317.355" gradientTransform="matrix(.32634124 0 0 .32195368 347.66457 -94.038955)" gradientUnits="userSpaceOnUse"><stop offset="0" stop-color="#e7f0f4"/><stop offset="1" stop-color="#f4faff"/></linearGradient><g stroke-width=".917"><rect width="29.252" height="36.863" x="-.817" y="11.263" fill="url(#b)" ry=".9" transform="matrix(.94911544 -.31492839 .3072073 .95164262 0 0)"/><rect width="32.577" height="39.574" x="6.41" y="7.795" fill="url(#c)" ry=".966" transform="matrix(.99210439 -.12541482 .1378126 .99045832 0 0)"/></g><path fill="url(#a)" stroke-width="1.759" d="m34.625956 18.42842c.05802-.160094.09903-.322827.09903-.495763 0-2.121156-4.583409-3.265387-8.896953-3.265387-4.309275 0-8.891456 1.144231-8.891456 3.265387 0 .174168.04023.337076.09887.49717l-.02296.04222c-.197164.357487-.294635.71849-.294635 1.073863v2.624483c0 .404105.127125.792025.352582 1.158833l-.02945.05102c-.214967.37279-.322949.75033-.322949 1.123648v2.623779c0 .391263.12.766868.333188 1.123472l-.01073.02287c-.214968.372086-.32295.75033-.32295 1.122768v2.624307c0 2.33262 4.001832 4.159097 9.110215 4.159097 5.113895 0 9.115713-1.826477 9.115713-4.159097v-2.624307c0-.372966-.108142-.751914-.325625-1.123472l-.009-.02287c.21156-.357308.334538-.732561.334538-1.124703v-2.624131c0-.373318-.108142-.752441-.325622-1.124527l-.02825-.04926c.225237-.36716.353813-.754552.353813-1.160065v-2.624307c0-.355197-.09903-.71708-.294639-1.074916l-.02322-.04222zm-.65869 13.583522c0 1.506817-3.340454 3.18358-8.139084 3.18358-4.794105 0-8.135165-1.676763-8.135165-3.18358v-2.468084c1.49613 1.370122 4.574145 2.24448 8.135165 2.24448 3.565912 0 6.643806-.87471 8.139084-2.245888zm0-4.886381c0 1.50541-3.340454 3.183229-8.139084 3.183229-4.794105 0-8.135165-1.677819-8.135165-3.183229v-2.468787c1.49613 1.369594 4.574145 2.24448 8.135165 2.24448 3.565912 0 6.643806-.874886 8.139084-2.245888zm0-4.957279c0 1.50541-3.340454 3.183404-8.139084 3.183404-4.794105 0-8.135165-1.677114-8.135165-3.183404v-2.183961c1.462092 1.239232 4.852304 1.881718 8.135165 1.881718 3.287249 0 6.67602-.642486 8.139084-1.881718z"/></svg>