<svg xmlns="http://www.w3.org/2000/svg" xmlns:xlink="http://www.w3.org/1999/xlink" viewBox="0 0 48 48"><linearGradient id="a" x1="-989.666" x2="-1003.636" y1="433.284" y2="317.355" gradientTransform="matrix(.9997764 0 0 .9863347 -.832882 5.995869)" gradientUnits="userSpaceOnUse"><stop offset="0" stop-color="#1584d8"/><stop offset="1" stop-color="#1cb2ff"/></linearGradient><linearGradient id="b" x1="-1092.912" x2="-1060.255" y1="203.099" y2="104.853" gradientTransform="matrix(.99833895 0 0 .98513314 -2.169195 6.701717)" gradientUnits="userSpaceOnUse"><stop offset="0" stop-color="#f2b333"/><stop offset="1" stop-color="#fcde3f"/></linearGradient><g transform="translate(-384.89745 -499.8503)"><rect width="89.616" height="112.933" x="-1100.904" y="117.574" fill="url(#b)" ry="2.756" transform="matrix(.309805053318 -.102797187855 .100276918558 .310629958209 716.940777695648 361.133657929255)"/><rect width="99.803" height="121.239" x="-1046.299" y="317.974" fill="url(#a)" ry="2.959" transform="matrix(.323837268734 -.040937205262 .044984020552 .323299967707 716.940777695648 361.133657929255)"/><path fill="#fff" d="m462.5 96.193-21.726-21.726c-8.951-8.95-23.562-8.95-32.59 0l-227.816 227.894-119.34-119.34c-8.95-8.951-23.562-8.951-32.589 0l-21.727 21.726c-8.95 8.951-8.95 23.562 0 32.589l157.285 157.284c4.514 4.514 10.327 6.809 16.218 6.809s11.781-2.295 16.219-6.809l265.836-265.837c9.18-9.103 9.18-23.638.23-32.59z" opacity=".7" transform="matrix(.041856859773 -.006830533444 .006830533444 .041856859773 400.110384728083 516.223950755318)"/></g></svg>