<svg xmlns="http://www.w3.org/2000/svg" xmlns:xlink="http://www.w3.org/1999/xlink" width="48" height="48"><linearGradient x1="0" x2="47" y1="23.5" y2="23.5" gradientUnits="userSpaceOnUse"><stop offset="0" stop-color="#a9a3d4"/><stop offset=".47" stop-color="#87baff"/><stop offset="1" stop-color="#89ec85"/></linearGradient><linearGradient id="a" x1="399.571" x2="399.571" y1="545.798" y2="517.798" gradientUnits="userSpaceOnUse"><stop offset="0" stop-color="#3889e9"/><stop offset="1" stop-color="#5ea5fb"/></linearGradient><linearGradient id="b" x1="399.994" x2="399.994" y1="545.139" y2="518.139" gradientUnits="userSpaceOnUse"><stop offset="0" stop-color="#197ff1"/><stop offset="1" stop-color="#21c6fb"/></linearGradient><g stroke-width="1.317"><g stroke-width="1.3" transform="matrix(1.642857110922 0 0 1.642857110922 -634.081623208207 -849.6681251036) matrix(1.000000814133 0 0 1.000000814133 -.00030673641 -.000376989856)"><circle cx="400.571" cy="531.798" r="14" fill="url(#b)"/><circle cx="400.571" cy="531.798" r="14" fill="none"/><circle cx="400.571" cy="531.798" r="0" fill="url(#a)"/></g><path fill="#fff" fill-opacity=".847" d="m16.428 15.744c-.159-.052-1.164-.505-.536-2.414h-.009c1.637-1.686 2.888-4.399 2.888-7.07 0-4.107-2.731-6.26-5.905-6.26-3.176 0-5.892 2.152-5.892 6.26 0 2.682 1.244 5.406 2.891 7.088.642 1.684-.506 2.309-.746 2.396-2.2377833.723652-8.32535247 4.33152-8.2290391 9.585718h24.0505821c.107339-5.019251-4.707828-8.278585-8.512543-9.585718z" transform="matrix(1.642857110922 0 0 1.642857110922 -634.081623208207 -849.6681251036) matrix(.552710459298 0 0 .552710459298 393.432859901649 524.798000633526)"/></g></svg>