<svg xmlns="http://www.w3.org/2000/svg" xmlns:xlink="http://www.w3.org/1999/xlink" width="48" height="48"><linearGradient id="a" x1="399.571" x2="399.571" y1="545.798" y2="517.798" gradientUnits="userSpaceOnUse"><stop offset="0" stop-color="#3889e9"/><stop offset="1" stop-color="#5ea5fb"/></linearGradient><linearGradient id="b" x1="15.883" x2="14.338" y1="55.642" y2="-7.895" gradientUnits="userSpaceOnUse"><stop offset="0" stop-color="#566069"/><stop offset="1" stop-color="#6c7884"/></linearGradient><g stroke-width="1.3" transform="matrix(1.6383916 0 0 1.6383916 -632.273205494467 -847.230747560362)"><circle cx="400.571" cy="531.798" r="14" fill="none"/><circle cx="400.571" cy="531.798" r="0" fill="url(#a)"/></g><path fill="url(#b)" d="m12.2 15.267c0-3.322.896-6.43 2.448-9.113.376-.649-.191-1.451-.918-1.265-8.38 2.152-14.441 10.072-13.663 19.29.736 8.701 7.768 15.803 16.463 16.617 6.033.565 11.517-1.811 15.221-5.848.5-.546.073-1.432-.666-1.401-.196.009-.395.013-.594.013-10.102 0-18.291-8.189-18.291-18.293zm34.924912 7.772636a31.088175 31.088175 0 0 1 -31.08818 31.088179 31.088175 31.088175 0 0 1 -31.088179-31.088179 31.088175 31.088175 0 0 1 31.088179-31.0881797 31.088175 31.088175 0 0 1 31.08818 31.0881797z" transform="matrix(.737817950497 0 0 .737817950497 12.148137773017 6.938360403786)"/></svg>