<svg xmlns="http://www.w3.org/2000/svg" xmlns:xlink="http://www.w3.org/1999/xlink" width="48" height="48"><linearGradient id="a" x1="399.571" x2="399.571" y1="545.798" y2="517.798" gradientUnits="userSpaceOnUse"><stop offset="0" stop-color="#3889e9"/><stop offset="1" stop-color="#5ea5fb"/></linearGradient><linearGradient id="b" x1="274.253" x2="271.006" y1="555.46" y2="7.88" gradientUnits="userSpaceOnUse" xlink:href="#d"/><linearGradient id="c" x1="287.515" x2="281.46" y1="711.765" y2="-158.68" gradientUnits="userSpaceOnUse" xlink:href="#d"/><linearGradient id="d"><stop offset="0" stop-color="#566069"/><stop offset="1" stop-color="#6c7884"/></linearGradient><g stroke-width="1.3" transform="matrix(1.6383893 0 0 1.6383893 -632.272255549686 -847.229487736137)"><circle cx="400.571" cy="531.798" r="14" fill="none"/><circle cx="400.571" cy="531.798" r="0" fill="url(#a)"/></g><path fill="url(#b)" stroke="url(#c)" d="m506.367 293.097h-43.836c-11.092 0-20.043 8.874-20.426 19.813-9.104 84.609-80.707 150.476-167.84 150.476-93.253 0-168.759-75.429-168.759-168.529 0-92.258 76.041-167.229 168.071-168.529v27.387c0 12.47 8.874 18.054 19.737 12.47l140.684-71.986c10.863-5.585 10.863-14.612 0-20.196l-140.684-71.835c-10.863-5.584-19.737 0-19.737 12.393v27.616c-138.695 1.301-252.45 114.062-252.45 252.833 0 139.612 113.296 252.832 253.139 252.832 133.723 0 243.27-103.504 252.449-234.778.076-11.016-9.18-19.967-20.348-19.967zm206.44088-17.84639a433.48605 433.48605 0 0 1 -433.48611 433.48611 433.48605 433.48605 0 0 1 -433.48612-433.48611 433.48605 433.48605 0 0 1 433.48612-433.48612 433.48605 433.48605 0 0 1 433.48611 433.48612z" transform="matrix(.052852958487 0 0 .052852958487 9.217373205195 9.389644933513)"/></svg>