<svg xmlns="http://www.w3.org/2000/svg" xmlns:xlink="http://www.w3.org/1999/xlink" width="48" height="48"><linearGradient id="a"><stop offset="0" stop-color="#c52828"/><stop offset="1" stop-color="#ff5454"/></linearGradient><linearGradient id="b" x1="223.751" x2="223.751" y1="308.281" y2="-118.497" gradientTransform="matrix(.95323403 0 0 .95323401 12.503542 5.484169)" gradientUnits="userSpaceOnUse" xlink:href="#a"/><linearGradient id="c" x1="220.513" x2="217.884" y1="314.417" y2="-128.398" gradientUnits="userSpaceOnUse" xlink:href="#a"/><g stroke="url(#c)" transform="matrix(.105661429576 0 0 .105661429576 -.188746919113 13.609384115481)"><path fill="url(#b)" stroke="url(#c)" stroke-width="14.317" d="m317.90518-120.47228h-179.87527l-128.8295321 128.8295822v182.3059978l128.8295321 126.39883h182.30602l128.82862-128.82958v-179.8752478z"/><g fill="#fff" fill-opacity=".852" stroke="url(#c)" transform="matrix(1.6171928 0 0 1.6171928 -39.055967 -194.0582)"><path fill="#fff" fill-opacity=".852" stroke="url(#c)" d="m147.281 131.031 7.25 83c .423 4.886 4.301 8.913 9.355 9.355 5.661.495 10.651-3.694 11.145-9.355l7.25-83c .078-.97.088-2.057 0-3.057-.844-9.666-9.363-16.816-19.028-15.973-9.665.845-16.816 9.366-15.972 19.03z"/><circle cx="164.781" cy="243.031" r="14.5" fill="#fff" fill-opacity=".852" stroke="url(#c)"/></g></g></svg>