<svg xmlns="http://www.w3.org/2000/svg" xmlns:xlink="http://www.w3.org/1999/xlink" width="48" height="48"><linearGradient id="a" x1="849.766" x2="847.387" y1="498.796" y2="533.826" gradientTransform="matrix(1.6943724 0 0 1.7031157 -1149.3861 -334.0331)" gradientUnits="userSpaceOnUse"><stop offset="0" stop-color="#ffee97"/><stop offset="1" stop-color="#ffe76b"/></linearGradient><linearGradient id="b" x1="860.994" x2="858.539" y1="527.722" y2="524.485" gradientTransform="matrix(1.6938542 0 0 1.6882818 -1148.9551 -326.17426)" gradientUnits="userSpaceOnUse"><stop offset="0" stop-color="#fed45b"/><stop offset="1" stop-color="#ffcc54"/></linearGradient><linearGradient id="c" x1="864.304" x2="864.142" y1="499.427" y2="531.152" gradientTransform="matrix(1.6991004 0 0 1.7109408 -1153.5032 -338.16377)" gradientUnits="userSpaceOnUse"><stop offset="0" stop-color="#f0a23a"/><stop offset="1" stop-color="#fde46a"/></linearGradient><g transform="matrix(.73914669 0 0 .73914669 -190.168943 -379.261417)"><rect width="59.528" height="59.528" x="259.988" y="515.813" fill="url(#c)" ry="2.566"/><path fill-opacity=".078" fill-rule="evenodd" d="m45.931641 20.138672c-1.096717 6.167262-3.014643 11.822165-10.519532 13.99414-2.826497 5.521766-6.185696 10.1391-14.519531 11.867188h23.210938c1.050912 0 1.896484-.845572 1.896484-1.896484v-23.896485z" transform="matrix(1.3529114 0 0 1.3529114 257.28174 513.1071)"/><path fill="url(#a)" fill-rule="evenodd" d="m259.9922 519.76374v52.64237s.49428 2.93492 3.46572 2.93492h22.02694c19.73994-3.50322 31.43501-14.32398 34.02554-33.42415v-22.78011c.14216-3.17747-2.64751-3.32384-2.64751-3.32384l-53.19891.18664c-3.95983-.27389-3.67178 3.76417-3.67178 3.76417z"/><path fill="#d45500" d="m462.5 96.193-21.726-21.726c-8.951-8.95-23.562-8.95-32.59 0l-227.816 227.894-119.34-119.34c-8.95-8.951-23.562-8.951-32.589 0l-21.727 21.726c-8.95 8.951-8.95 23.562 0 32.589l157.285 157.284c4.514 4.514 10.327 6.809 16.218 6.809s11.781-2.295 16.219-6.809l265.836-265.837c9.18-9.103 9.18-23.638.23-32.59z" opacity=".4" transform="matrix(.07032676 .00698922 -.00701229 .0700954 274.63817 526.85645)"/><g fill="url(#b)" fill-rule="evenodd"><path d="m285.54684 575.34103c11.27494-2.33795 15.82042-8.58427 19.64442-16.05473 10.15345-2.93849 12.74859-10.58865 14.23235-18.93241.21756 21.30901-14.91375 31.79793-33.87677 34.98714z" opacity=".9"/><path d="m285.54684 575.34103c11.27494-2.33795 15.82042-8.58427 19.64442-16.05473 10.15345-2.93849 12.74859-10.58865 14.23235-18.93241.21756 21.30901-14.91375 31.79793-33.87677 34.98714z" opacity=".9"/><path d="m285.54684 575.34103c11.27494-2.33795 15.82042-8.58427 19.64442-16.05473 10.15345-2.93849 12.74859-10.58865 14.23235-18.93241.21756 21.30901-14.91375 31.79793-33.87677 34.98714z"/></g></g></svg>