<svg xmlns="http://www.w3.org/2000/svg" xmlns:xlink="http://www.w3.org/1999/xlink" width="48" height="48"><linearGradient id="a" x1="72.85" x2="72.285" y1="491.145" y2="462.676" gradientTransform="matrix(.13328411 0 0 .13300584 -1.879486 -222.45609)" gradientUnits="userSpaceOnUse"><stop offset="0" stop-color="#2e3436"/><stop offset="1" stop-color="#555753"/></linearGradient><linearGradient id="b" x1="22.134" x2="22.597" y1="44.121" y2="4.179" gradientUnits="userSpaceOnUse"><stop offset="0" stop-color="#ff2a7f"/><stop offset="1" stop-color="#ff80b2"/></linearGradient><rect width="43.908" height="38.956" x="2.046" y="5.355" fill-opacity=".667" stroke-width=".365" ry="1.833"/><rect width="43.908" height="38.956" x="2.046" y="4.788" fill="url(#b)" stroke-width=".365" ry="1.833"/><g fill-rule="evenodd"><path fill="url(#a)" stroke="url(#a)" stroke-linecap="round" stroke-linejoin="round" stroke-width=".039" d="m4.4671112 3.7076146h39.0657808c1.406456 0 2.447496 1.129907 2.447496 2.533428l.000175 5.4534774v2.533432h-43.9611258v-2.533432l.000029-5.4534774c.000008-1.403521 1.041187-2.533428 2.447645-2.533428z"/><path fill="#fff" fill-opacity=".948" d="m26.798768 13.871993h6.73583l5.264169-4.6572864-5.264169-5.15113h-6.73583l4.7722 5.15113z"/><path fill="#fff" fill-opacity=".948" d="m9.2585157 13.871993h6.7358303l5.26417-4.6572864-5.26417-5.15113h-6.7358303l4.7721993 5.15113z"/><path fill="#e0f1fe" stroke="#e0f1ff" stroke-linecap="round" stroke-linejoin="round" stroke-width="1.282" d="m30.236688 28.700929-11.021838 6.662094v-13.324189z"/></g></svg>