<svg xmlns="http://www.w3.org/2000/svg" xmlns:xlink="http://www.w3.org/1999/xlink" width="48" height="48"><linearGradient id="a"><stop offset="0" stop-color="#d3d3d3"/><stop offset="1" stop-color="#fcf9f9"/></linearGradient><linearGradient x1="-318.579" x2="-318.579" y1="653.957" y2="301.298" gradientUnits="userSpaceOnUse"><stop offset="0" stop-color="#0a80fd"/><stop offset="1" stop-color="#56c5fa"/></linearGradient><linearGradient id="b" x1="-275.305" x2="-275.305" y1="609.809" y2="257.15" gradientUnits="userSpaceOnUse"><stop offset="0" stop-color="#ff6835"/><stop offset="1" stop-color="#ff956f"/></linearGradient><linearGradient id="c" x1="399.571" x2="399.571" y1="545.798" y2="517.798" gradientUnits="userSpaceOnUse"><stop offset="0" stop-color="#3889e9"/><stop offset="1" stop-color="#5ea5fb"/></linearGradient><linearGradient id="d" x1="671.664" x2="673.216" y1="812.573" y2="788.532" gradientUnits="userSpaceOnUse" xlink:href="#a"/><linearGradient id="e" x1="673.142" x2="673.142" y1="823.387" y2="777.517" gradientUnits="userSpaceOnUse" xlink:href="#a"/><linearGradient id="f" x1="555.572" x2="555.572" y1="849.185" y2="803.314" gradientUnits="userSpaceOnUse"><stop offset="0" stop-color="#8d3aff"/><stop offset="1" stop-color="#ff3680"/></linearGradient><g fill="#e9afaf" transform="matrix(1.00000000118 0 0 1.00000000118 -649.429083551637 -776.744127526038)"><circle cx="400.571" cy="531.798" r="0" fill="url(#c)" transform="matrix(1.637466540969 0 0 1.637466540969 -1.13691566624 -66.026267836084)"/><circle cx="-282.613" cy="434.599" r="173.447" fill="url(#b)" transform="matrix(.138370796551 0 0 .138370796551 712.534559830244 740.608520963853)"/><circle cx="666.909" cy="807.308" r="0" fill="#fff" fill-opacity=".847"/><circle cx="555.858" cy="826.542" r="0" fill="none" stroke="url(#f)" stroke-width="2.13"/><path fill="url(#d)" d="m670.33813 791.97831c-.77464.21739-1.3982 1.08184-1.3982 1.92163v13.31356c-.7855-.43065-1.79428-.6048-2.84014-.32019-1.88723.51341-3.06989 2.17277-2.66535 3.70584.40456 1.53298 2.26368 2.38924 4.15098 1.87571 1.50561-.40959 2.5435-1.56861 2.70899-2.79078l.0441-12.5816 9.78749-2.74509v9.92807c-.78549-.43068-1.79426-.60481-2.84016-.32031-1.88721.51344-3.06984 2.17288-2.66532 3.70586.40458 1.53307 2.2637 2.38922 4.15094 1.87579 1.50564-.40959 2.54352-1.56858 2.70903-2.79076l.0443-16.37903c0-.62973-.37172-1.10087-.87387-1.18949l-10.31181 2.79079z" opacity=".9"/><circle cx="673.429" cy="800.744" r="22.935" fill="none" stroke="url(#e)" stroke-width="2.13"/></g></svg>