<svg xmlns="http://www.w3.org/2000/svg" xmlns:xlink="http://www.w3.org/1999/xlink" width="48" height="48"><linearGradient id="a" x1="399.571" x2="399.571" y1="545.798" y2="517.798" gradientUnits="userSpaceOnUse"><stop offset="0" stop-color="#3889e9"/><stop offset="1" stop-color="#5ea5fb"/></linearGradient><linearGradient id="b" x1="399.994" x2="399.994" y1="545.139" y2="518.139" gradientUnits="userSpaceOnUse"><stop offset="0" stop-color="#197ff1"/><stop offset="1" stop-color="#21c6fb"/></linearGradient><g stroke-width="1.3" transform="matrix(1.642858437505 0 0 1.642858437505 -634.082123924089 -849.668739340462)"><circle cx="400.571" cy="531.798" r="14" fill="url(#b)"/><circle cx="400.571" cy="531.798" r="14" fill="none"/><circle cx="400.571" cy="531.798" r="0" fill="url(#a)"/></g><path fill="#fff" fill-opacity=".851" d="m353.703 245.49h-334.399c-6.892 0-13.27-3.673-16.714-9.653-3.453-5.965-3.453-13.336 0-19.305l167.197-200.371c3.444-5.973 9.821-9.655 16.713-9.655 6.893 0 13.274 3.682 16.717 9.655l167.21 200.372c1.718 2.987 2.581 6.314 2.581 9.657 0 3.333-.863 6.659-2.581 9.659-3.455 5.968-9.833 9.641-16.724 9.641zm19.11 113.292v-63.705c0-4.263-3.46-7.722-7.729-7.722h-357.167c-4.264 0-7.721 3.459-7.721 7.722v63.705c0 4.264 3.457 7.72 7.721 7.72h357.167c4.269.006 7.729-3.456 7.729-7.72z" transform="matrix(.066667406251 0 0 .066667406251 11.566254128753 11.566265134399)"/></svg>