<svg xmlns="http://www.w3.org/2000/svg" xmlns:xlink="http://www.w3.org/1999/xlink" width="48" height="48"><linearGradient id="a" x1="409.571" x2="409.571" y1="543.798" y2="503.798" gradientTransform="matrix(1.125 0 0 1 -51.071442 0)" gradientUnits="userSpaceOnUse"><stop offset="0" stop-color="#31d145"/><stop offset="1" stop-color="#4bf082"/></linearGradient><linearGradient id="b"><stop offset="0" stop-color="#1c6b2a"/><stop offset="1" stop-color="#468e5e"/></linearGradient><linearGradient id="c" x1="408.571" x2="408.571" y1="543.798" y2="503.798" gradientTransform="matrix(.67023571 0 0 .4163618 135.45176 294.03576)" gradientUnits="userSpaceOnUse" xlink:href="#b"/><linearGradient id="d" x1="409.571" x2="409.571" y1="525.798" y2="503.798" gradientTransform="matrix(1.0189573 0 0 1.1696424 -8.4721 -91.365096)" gradientUnits="userSpaceOnUse" xlink:href="#b"/><g transform="matrix(1.1666667 0 0 1.1666667 -452.615695 -587.010987)"><rect width="36" height="40" x="390.571" y="503.798" fill="url(#a)" ry="2"/><path fill="url(#d)" fill-rule="evenodd" d="m405.87816 518.10603v4.67857c-.30673 3.0134 5.69327 3.0134 5.375 0v-4.67857z"/><g><path fill="url(#c)" d="m406.60999 503.798h5.361886v16.654461h-5.361886z" transform="translate(-.717416 .01714)"/><g fill="#fff" transform="translate(-.717416 .01714)"><rect width="4" height="2" x="407.361" y="504.892" opacity=".929" ry=".889"/><rect width="4" height="2" x="407.352" y="507.785" opacity=".929" ry=".889"/><rect width="4" height="2" x="407.327" y="510.643" opacity=".929" ry=".889"/><rect width="4" height="2" x="407.371" y="513.618" opacity=".929" ry=".889"/><rect width="4" height="2" x="407.371" y="516.54" opacity=".929" ry=".889"/></g></g><rect width="4" height="2" x="406.654" y="519.549" fill="#fff" opacity=".929" ry=".889"/><path fill="#f0f5f1" d="m410.11783 524.47214v-1.26212c0-.35164-.28416-.63683-.63453-.63683h-1.76295c-.35037 0-.6346.28526-.6346.63683v1.2615l-.98056 2.89118c-.27435.80579-.14271 1.70105.35164 2.39489.49436.69257 1.29597 1.10622 2.14496 1.10622.84916 0 1.65084-.41365 2.14519-1.10622.49435-.69384.62583-1.5891.35156-2.39426zm-.40955 4.53977c-.50867.71448-1.70431.71448-2.21306 0-.25497-.35792-.32285-.8196-.18195-1.23564l.32909-.96974h1.91878l.32918.97037c.14096.41541.0729.87709-.18204 1.23501z"/></g></svg>