<svg xmlns="http://www.w3.org/2000/svg" xmlns:xlink="http://www.w3.org/1999/xlink" width="48" height="48"><linearGradient id="a"><stop offset="0" stop-color="#3889e9"/><stop offset="1" stop-color="#5ea5fb"/></linearGradient><linearGradient id="b" x1="399.571" x2="399.571" y1="545.798" y2="517.798" gradientUnits="userSpaceOnUse" xlink:href="#a"/><linearGradient id="c" x1="399.571" x2="399.571" y1="545.798" y2="517.798" gradientTransform="matrix(1.5511965 0 0 1.552208 -212.83398 -301.82144)" gradientUnits="userSpaceOnUse" xlink:href="#a"/><linearGradient id="d" x1="399.571" x2="399.571" y1="545.798" y2="517.798" gradientTransform="matrix(1.5511965 0 0 1.552208 -541.42434 -815.42868)" gradientUnits="userSpaceOnUse" xlink:href="#a"/><linearGradient id="e" x1="402.289" x2="402.38" y1="541.916" y2="523.763" gradientTransform="matrix(2.561555 0 0 2.5632252 -1007.0226 -1342.0366)" gradientUnits="userSpaceOnUse"><stop offset="0" stop-color="#dc3c30"/><stop offset="1" stop-color="#f55"/></linearGradient><linearGradient id="f" x1="399.571" x2="399.571" y1="545.798" y2="517.798" gradientTransform="matrix(2.5400324 0 0 2.5416887 -1003.8222 -1341.5478)" gradientUnits="userSpaceOnUse" xlink:href="#a"/><linearGradient id="g" x1="65.686" x2="65.686" y1="31.697" y2="-14.152" gradientUnits="userSpaceOnUse" xlink:href="#a"/><linearGradient id="h" x1="-.949" x2="-.949" y1="33.095" y2="-12.754" gradientUnits="userSpaceOnUse" xlink:href="#a"/><g transform="translate(-384.57143 -499.798)"><circle cx="408.531" cy="523.64" r="0" fill="url(#c)"/><circle cx="400.571" cy="531.798" r="0" fill="url(#b)" transform="matrix(2.540032432101 0 0 2.541688722354 -709.890367480422 -828.182890766948)"/></g><circle cx="79.941" cy="10.032" r="0" fill="url(#d)"/><circle cx="13.642" cy="10.117" r="0" fill="url(#f)"/><circle cx="67.323" cy="8.773" r="0" fill="url(#g)"/><circle cx=".689" cy="10.17" r="0" fill="url(#h)"/><circle cx="24" cy="24" r="22" fill="url(#e)"/><path fill-opacity=".078" stroke-width="1.037" d="m33.332048 14.591784c-.49563.00037-.996687.104441-1.398437.306641-.58699.295489-1.177363.92144-1.439453 1.52539-.27854.64192-.318615 1.775563-.08398 2.376953.0992.25437.268877.6889.378906.96875.248461.63194.337228 2.023918.179688 2.804688-.17737.87905-.727127 1.89307-1.373047 2.53125-.55982.55308-1.203649.944913-1.880859 1.183593l-10.841802-10.84375c-.59189-.59189-1.396846-.804943-2.134766-.808593-1.63133-.0265-2.761017 1.250913-3.029297 2.621093-.19819 1.096491-.289201.908109 4.980469 10.298829 3.32615 5.92715 4.906776 8.659164 5.166016 8.927734l8.542969 8.542969a22 22 0 0 0 15.505861-19.09375l-10.462893-10.462891c-.30381-.30382-.661685-.5502-1.015625-.6875-.32778-.12716-.706357-.191716-1.091797-.191406z"/><path fill="#fff" fill-opacity=".85" stroke-width="1.037" d="m33.330987 14.591967c-.49562.00037-.99742.1042-1.39917.30641-.587.29548-1.17777.92138-1.43986 1.52532-.27854.64193-.31854 1.77365-.0839 2.37504.0993.25437.27052.69143.38055.97128.24846.63195.3379 2.02186.18036 2.80264-.17737.87905-.72843 1.89457-1.37435 2.53274-1.9385 1.9152-4.86928 1.94875-6.79455.0777-.66437-.64565-.7586-.79981-3.75777-6.1518-1.01815-1.817-1.93135-3.33833-2.12158-3.53493-.59606-.63064-1.42436-.85619-2.18309-.85995-1.63132-.0265-2.76204 1.25002-3.03031 2.6202-.19819 1.09649-.28936.90776 4.9803 10.29848 3.32616 5.92715 4.9072 8.65935 5.16645 8.92791.91826.95142 2.22653 1.18727 3.45069.62206.32188-.14862.68624-.41572.919-.67365.45591-.50524 9.88399-17.24208 10.03704-17.81723.16035-.60342.12052-1.46078-.0952-2.05409-.26839-.73802-1.00884-1.49529-1.73914-1.77858-.32778-.12716-.70952-.1895-1.09496-.18919z"/></svg>