<svg xmlns="http://www.w3.org/2000/svg" xmlns:xlink="http://www.w3.org/1999/xlink" width="48" height="48"><linearGradient id="a" x1="23.729" x2="23.968" y1="36.943" y2="4.411" gradientUnits="userSpaceOnUse"><stop offset="0" stop-color="#566069"/><stop offset="1" stop-color="#6c7884"/></linearGradient><linearGradient id="b" x1="31.827" x2="31.98" y1="42.879" y2="22.177" gradientUnits="userSpaceOnUse"><stop offset="0" stop-color="#197cf1"/><stop offset="1" stop-color="#20bcfa"/></linearGradient><path fill-opacity=".667" stroke-width=".963" d="m18.994264 22.922997h26.011469c.550823 0 .994265.443478.994265.994282v19.075696c0 .550805-.443442.99421-.994265.99421h-26.011469c-.550822 0-.994264-.443405-.994264-.99421v-19.075696c0-.550804.443442-.994282.994264-.994282zm-15.431846-17.9105884h40.875164c.86558 0 1.562416.6968942 1.562416 1.5624437v29.9760937c0 .86555-.696836 1.562329-1.562416 1.562329h-40.875164c-.865579 0-1.562416-.696779-1.562416-1.562329v-29.9760937c0-.8655495.696837-1.5624437 1.562416-1.5624437z"/><path fill="url(#a)" stroke-width="1.513" d="m3.562418 4.0128146h40.875164c.86558 0 1.562416.6968942 1.562416 1.5624437v29.9760937c0 .86555-.696836 1.562329-1.562416 1.562329h-40.875164c-.865579 0-1.562416-.696779-1.562416-1.562329v-29.9760937c0-.8655495.696837-1.5624437 1.562416-1.5624437z"/><circle cx="14.366" cy="7.595" r="1.781" fill="#fff" fill-opacity=".852" stroke-width="1.513"/><circle cx="9.989" cy="7.633" r="1.781" fill="#fff" fill-opacity=".852" stroke-width="1.513"/><circle cx="5.687" cy="7.675" r="1.781" fill="#fff" fill-opacity=".852" stroke-width="1.513"/><g stroke-width=".963"><path fill="url(#b)" d="m18.994264 21.923403h26.011469c.550823 0 .994265.443478.994265.994282v19.075696c0 .550805-.443442.99421-.994265.99421h-26.011469c-.550822 0-.994264-.443405-.994264-.99421v-19.075696c0-.550804.443442-.994282.994264-.994282z"/><circle cx="25.824" cy="24.187" r="1.134" fill="#fff" fill-opacity=".852"/><circle cx="23.039" cy="24.212" r="1.134" fill="#fff" fill-opacity=".852"/><circle cx="20.302" cy="24.238" r="1.134" fill="#fff" fill-opacity=".852"/></g></svg>