<svg xmlns="http://www.w3.org/2000/svg" xmlns:xlink="http://www.w3.org/1999/xlink" width="48" height="48" viewBox="0 0 48 48"><linearGradient id="a" x1="23.961" x2="23.641" y1="50.212" y2="9.585" gradientUnits="userSpaceOnUse" xlink:href="#c"/><linearGradient id="b" x1="10.79" x2="10.297" y1="43.787" y2="4.536" gradientTransform="matrix(-.92199402 0 0 .92199402 47.012944 4.254336)" gradientUnits="userSpaceOnUse" spreadMethod="pad"><stop offset="0" stop-color="#fbd340"/><stop offset="1" stop-color="#ffe791"/></linearGradient><linearGradient id="c" x1="10.79" x2="10.297" y1="43.787" y2="4.536" gradientTransform="matrix(.92199395 0 0 .92199395 2.02861 1.360762)" gradientUnits="userSpaceOnUse" spreadMethod="pad"><stop offset="0" stop-color="#197cf1"/><stop offset="1" stop-color="#20bcfa"/></linearGradient><path fill-opacity="1" d="m17.20009 6.21641c-.11773-.003-.25993.002-.44479.002h-13.95956c-.43765 0-.79054.35537-.79054.79594v4.85127c-.00065.0184-.005.0355-.005.054v29.33993c0 .84441.68084 1.52526 1.52525 1.52526h40.9513c.8444 0 1.52345-.68085 1.52345-1.52526v-29.33993c0-.8444-.67905-1.52525-1.52345-1.52525h-24.45265c-.0145-.0194-.0242-.0298-.0396-.0504-.56424-.76017-1.41637-2.8096-1.97184-3.55112-.3344-.48691-.45896-.56699-.81215-.57624z"/><path fill="#fbd340" d="m17.200092 5.2162093c-.11773-.00309-.25993.0018-.44479.0018h-13.9595642c-.4376521-.0000021-.7905378.3553724-.7905378.795938v4.8512737c-.0006485.01836-.0054.03551-.0054.05402v29.339936c0 .844406.6808451 1.525252 1.5252517 1.525252h40.9512953c.844407 0 1.523451-.680846 1.523451-1.525252v-29.33993c0-.844407-.679044-1.5252526-1.523451-1.5252526h-24.452648c-.014549-.0193877-.024249-.0297739-.039618-.0504211-.564242-.7601748-1.416369-2.8096037-1.971842-3.5511173-.334394-.4869165-.458957-.5669892-.812148-.5762462z"/><g fill="#fff" fill-opacity="1"><circle cx="14" cy="8.497" r="1.781"/><circle cx="9.624" cy="8.535" r="1.781"/><circle cx="5.322" cy="8.577" r="1.781"/></g><path fill="url(#b)" d="m20.005859 9.3710938c-.50377.9265362-1.094023 2.2365862-1.521484 2.8125002-.01506.0207-.026586.031331-.041016.050781l-15.8789059.052734c-.2002677.000673-.3896409.041487-.5644531.111329v27.861328c0 .844406.680984 1.52539 1.5253906 1.52539h40.9511714c.844407 0 1.523438-.680984 1.523438-1.52539v-29.339844c0-.844407-.679031-1.5253907-1.523438-1.5253908h-24.453124c-.006653-.008865-.011948-.016495-.017579-.0234374z"/><path fill="url(#a)" d="m12.5 26.082031c-1.385 0-2.5 1.115-2.5 2.5v13.203125h6v-9.058594c0-.791427.636306-1.429687 1.427734-1.429687h13.144532c.791428 0 1.427734.63826 1.427734 1.429687v9.058594h6v-13.203125c0-1.385-1.115-2.5-2.5-2.5z"/></svg>