<svg xmlns="http://www.w3.org/2000/svg" xmlns:xlink="http://www.w3.org/1999/xlink" width="48" height="48"><linearGradient id="a" x1="265.454" x2="265.652" y1="913.036" y2="791.882" gradientTransform="matrix(1.0448887 0 0 .97906893 -12.072224 17.800175)" gradientUnits="userSpaceOnUse"><stop offset="0" stop-color="#197ff1"/><stop offset="1" stop-color="#21c6fb"/></linearGradient><linearGradient id="b" x1="400.571" x2="400.571" y1="545.798" y2="517.798" gradientUnits="userSpaceOnUse"><stop offset="0" stop-color="#566069"/><stop offset="1" stop-color="#6c7884"/></linearGradient><g transform="matrix(.378089325391 -.000000000494 .000000000494 .378089325391 -77.682283068957 -298.414652104406)"><rect width="119.019" height="119.019" x="209.427" y="793.238" fill="url(#a)" ry="4.895"/><path fill="#eff8fe" d="m-1516.6025 633.46198-.2386-212.77776 261.8182-35.55273v248.33049zm305.216-254.6714 349.00353-50.78318v305.45458h-349.00353zm349.08808 298.30777-.0846 305.45456-349.00358-49.10182v-256.35274h349.08813zm-392.72448 250.79728-261.6055-35.85954-.014-214.93774h261.6191v250.79728z" transform="matrix(.110486138258 0 0 .12122354785 400.368166471755 773.311917485418)"/><rect width="28" height="28" x="386.571" y="517.798" fill="url(#b)" ry="14" transform="matrix(1.878657304968 0 0 1.878657304968 -446.758224486266 -109.648216660818)"/><g fill="#eff8fe"><g fill="#eff8fe" transform="matrix(1.102031204852 0 0 1.102031204852 -131.733014330916 305.50648105337) matrix(1.5511965 0 0 1.552208 -224.40622 -295.6789)"><circle cx="400.571" cy="531.798" r="0" fill="#eff8fe"/><circle cx="-354.848" cy="481.913" r="0" fill="#eff8fe" transform="matrix(.108621329564 0 0 .108621329564 396.375174935975 479.506408870929)"/></g><path fill="#eff8fe" d="m336.57231 547.47633c-.345-.525-1.2225.0525-.75.615.4575.5325.915 1.11 1.3875 1.7025l-1.5075 1.9125c-.4275.51.42 1.125.8025.5775l1.3575-1.8075 1.38 1.77c.405.555 1.23.015.8175-.5475l-1.53-1.905c.45-.5925.9225-1.17 1.3725-1.7025.4275-.4875-.33-1.14-.72-.63l-1.305 1.635z" transform="matrix(1.102031204852 0 0 1.102031204852 -131.733014330916 305.50648105337) matrix(5.125934 0 0 5.125934 -1334.9438 -2288.0295)"/></g></g></svg>