<svg xmlns="http://www.w3.org/2000/svg" xmlns:xlink="http://www.w3.org/1999/xlink" width="48" height="48"><linearGradient id="a" x1="265.454" x2="265.652" y1="913.036" y2="791.882" gradientTransform="matrix(1.0448887 0 0 .97906893 -12.072224 17.800175)" gradientUnits="userSpaceOnUse"><stop offset="0" stop-color="#197ff1"/><stop offset="1" stop-color="#21c6fb"/></linearGradient><linearGradient id="b" x1="400.571" x2="400.571" y1="545.798" y2="517.798" gradientUnits="userSpaceOnUse"><stop offset="0" stop-color="#566069"/><stop offset="1" stop-color="#6c7884"/></linearGradient><g transform="matrix(.378089325391 -.000000000494 .000000000494 .378089325391 -77.682283068957 -298.414652104406)"><rect width="119.019" height="119.019" x="209.427" y="793.238" fill="url(#a)" ry="4.895"/><path fill="#eff8fe" d="m-1516.6025 633.46198-.2386-212.77776 261.8182-35.55273v248.33049zm305.216-254.6714 349.00353-50.78318v305.45458h-349.00353zm349.08808 298.30777-.0846 305.45456-349.00358-49.10182v-256.35274h349.08813zm-392.72448 250.79728-261.6055-35.85954-.014-214.93774h261.6191v250.79728z" transform="matrix(.110486138258 0 0 .12122354785 400.368166471755 773.311917485418)"/><rect width="28" height="28" x="386.571" y="517.798" fill="url(#b)" ry="14" transform="matrix(1.878657304968 0 0 1.878657304968 -446.758224486266 -109.648216660818)"/><path fill="#eff8fe" d="m363.30019 530.14047q-.21375.225-.54.225-.32625 0-.55125-.225-.21375-.225-.21375-.54 0-.315.21375-.54.225-.225.55125-.225.32625 0 .54.225.225.225.225.54 0 .315-.225.54zm-.0112-2.34h-1.0575v-.52875q0-.50625.21375-.86625.21375-.37125.75375-.86625.30375-.28125.4275-.41625.135-.14625.25875-.39375.135-.25875.135-.52875 0-.5175-.3375-.8325-.32625-.315-.91125-.315-.9675 0-1.3275 1.08l-.9675-.405q.23625-.64125.81-1.1475.585-.5175 1.485-.5175 1.02375 0 1.665.6075.64125.59625.64125 1.53 0 .405-.21375.82125-.21375.41625-.3825.59625-.1575.16875-.45.43875-.0337.0337-.0562.0562-.68625.61875-.68625 1.2375v.45z" transform="matrix(3.701263579379 0 0 3.583846825819 -1037.663507209541 -995.330375841317)"/></g></svg>