<svg xmlns="http://www.w3.org/2000/svg" xmlns:xlink="http://www.w3.org/1999/xlink" width="48" height="48"><linearGradient id="a" x1="265.454" x2="265.652" y1="913.036" y2="791.882" gradientTransform="matrix(1.0448887 0 0 .97906893 -12.072224 17.800175)" gradientUnits="userSpaceOnUse"><stop offset="0" stop-color="#197ff1"/><stop offset="1" stop-color="#21c6fb"/></linearGradient><linearGradient id="b" x1="400.571" x2="400.571" y1="545.798" y2="517.798" gradientUnits="userSpaceOnUse"><stop offset="0" stop-color="#566069"/><stop offset="1" stop-color="#6c7884"/></linearGradient><g transform="matrix(.378089325391 -.000000000494 .000000000494 .378089325391 -77.682283068957 -298.414652104406)"><rect width="119.019" height="119.019" x="209.427" y="793.238" fill="url(#a)" ry="4.895"/><path fill="#eff9fe" d="m-1528.5644 633.46198-.2386-212.77776 261.8182-35.55273v248.33049zm305.216-254.6714 349.00357-50.78318v305.45458h-349.00357zm349.08812 298.30777-.0846 305.45456-349.00362-49.10182v-256.35274h349.08817zm-392.72452 250.79728-261.6055-35.85954-.014-214.93774h261.6191v250.79728z" transform="matrix(.110486138258 0 0 .12122354785 401.689785359699 773.311917485418)"/><g stroke-width="1.317" transform="matrix(1.14921193841 0 0 1.14921193841 -281.193624477622 284.098341911308)"><rect width="28" height="28" x="386.571" y="517.798" fill="url(#b)" ry="14" transform="matrix(1.634735284396 0 0 1.634735284396 -144.067942974664 -342.623101459356)"/><path fill="#eff9fe" d="m135.785 50.457c0-2.01-1.52-3.259-4.564-3.748l-40.897-5.947-18.331-37.07c-1.031-2.227-2.363-3.34-3.992-3.34s-2.96 1.113-3.992 3.34l-18.332 37.07-40.899 5.947c-3.041.489-4.562 1.738-4.562 3.748 0 1.141.679 2.445 2.037 3.911l29.656 28.841-7.006 40.736c-.109.761-.163 1.305-.163 1.63 0 1.141.285 2.104.855 2.893.57.788 1.425 1.181 2.566 1.181.978 0 2.064-.324 3.259-.977l36.58-19.229 36.583 19.229c1.142.652 2.228.977 3.258.977 1.089 0 1.916-.392 2.486-1.181.569-.788.854-1.752.854-2.893 0-.706-.027-1.249-.082-1.63l-7.007-40.736 29.574-28.841c1.414-1.412 2.119-2.716 2.119-3.911z" transform="matrix(.232023943498 0 0 .232023943498 494.98259474511 511.644159113038)"/></g></g></svg>