<svg xmlns="http://www.w3.org/2000/svg" xmlns:xlink="http://www.w3.org/1999/xlink" width="48" height="48"><linearGradient x1="0" x2="47" y1="23.5" y2="23.5" gradientUnits="userSpaceOnUse"><stop offset="0" stop-color="#a9a3d4"/><stop offset=".47" stop-color="#87baff"/><stop offset="1" stop-color="#89ec85"/></linearGradient><linearGradient id="a" x1="409.571" x2="409.939" y1="542.798" y2="501.232" gradientTransform="matrix(1.0523327 0 0 1.0276135 -72.567725 -8.693152)" gradientUnits="userSpaceOnUse"><stop offset="0" stop-color="#197cf1"/><stop offset="1" stop-color="#20bcfa"/></linearGradient><g fill="#fff" stroke="#fff" stroke-width="1.578" opacity=".85"><g stroke="none" transform="matrix(.225460554273 0 0 .225460554273 9.570527406723 -196.836695702193)"><rect width="46.303" height="34.939" x="334.234" y="513.127" fill="url(#a)" opacity="1" ry="1.644" transform="matrix(4.4063755 0 0 4.4063755 -1510.7741 -1358.5154)"/><circle cx="149.674" cy="919.123" r="8.26" fill="#fff" fill-opacity=".852" opacity="1"/><circle cx="129.381" cy="919.298" r="8.26" fill="#fff" fill-opacity=".852" opacity="1"/><circle cx="109.433" cy="919.494" r="8.26" fill="#fff" fill-opacity=".852" opacity="1"/></g><path fill="#fff" stroke="#fff" stroke-width="1.578" d="m64 940.36218c-26.509667 0-48 21.49034-48 48 0 26.50972 21.490333 48.00002 48 48.00002 26.509664 0 48-21.4903 48-48.00002 0-26.50966-21.490336-48-48-48zm0 4c20.15479 0 37.14462 13.55176 42.355 32.04-4.4877 9.25637-10.873381 17.59038-18.650002 24.32502-3.735795 3.2352-7.814534 6.1193-12.32 8.15-4.505465 2.0307-9.461145 3.1829-14.394998 2.9-3.706902-.2126-7.368725-1.2452-10.615-3.045 8.603218-4.6618 16.365742-10.87737 22.720002-18.32002 4.170803-4.88521 7.819942-10.43709 9.224998-16.705.702528-3.13395.821581-6.4161.164998-9.56-.656582-3.1439-2.110188-6.1399-4.309996-8.48-2.149082-2.28613-4.97033-3.90553-7.995002-4.74-3.024672-.83446-6.24345-.89907-9.33-.335-6.173101 1.12814-11.684554 4.71584-16.105 9.17-7.79168 7.8511-12.608581 18.92915-11.725 29.955.441789 5.51292 2.289248 10.93012 5.455 15.46502.706642 1.0122 1.483501 1.9764 2.315 2.89-4.611828 1.614-9.386995 2.7629-14.23 3.41-4.15805-6.7188-6.56-14.638-6.56-23.12002 0-24.30053 19.69947-44 44-44zm .28 8.89c3.093024.004 6.207066.94057 8.675002 2.805 2.223488 1.67977 3.871027 4.06951 4.804998 6.695s1.173658 5.47662.855002 8.245c-.637319 5.53677-3.430458 10.61442-6.804999 15.05-5.975053 7.85375-13.917093 14.13972-22.750003 18.54002-.904118.4504-1.822565.8785-2.745 1.29-1.921973-1.6819-3.569314-3.6768-4.825-5.90002-2.623798-4.64556-3.489056-10.16402-2.98-15.475.509056-5.31097 2.331648-10.42962 4.78-15.17 2.838755-5.49625 6.70822-10.70239 12.125-13.69 2.70839-1.4938 5.771973-2.39419 8.865-2.39zm43.325 29.22c.25778 1.9268.395 3.89265.395 5.89 0 24.30052-19.699469 44.00002-44 44.00002-13.647425 0-25.844438-6.2128-33.915-15.965 4.98138-1.1314 9.850072-2.7565 14.52-4.825 2.042194 1.5553 4.297558 2.8309 6.695 3.75 6.904163 2.6469 14.742694 2.2639 21.730003-.155 6.987303-2.4189 13.183469-6.7606 18.584999-11.81 6.434617-6.01522 11.859848-13.10515 15.989998-20.88502z" transform="matrix(.225460554273 0 0 .225460554273 9.570527406723 -196.836695702193)"/></g></svg>