<svg xmlns="http://www.w3.org/2000/svg" xmlns:xlink="http://www.w3.org/1999/xlink" width="48" height="48"><linearGradient id="a"><stop offset="0"/><stop offset="1" stop-color="#333"/></linearGradient><linearGradient id="b" x1="408.659" x2="408.576" y1="545.419" y2="502.455" gradientUnits="userSpaceOnUse" xlink:href="#a"/><linearGradient id="c" x1="409.155" x2="409.155" y1="544.215" y2="502.276" gradientUnits="userSpaceOnUse"><stop offset="0" stop-color="#d3d3d3"/><stop offset="1" stop-color="#fcf9f9"/></linearGradient><linearGradient id="d" x1="409.082" x2="409.077" y1="545.559" y2="502.097" gradientUnits="userSpaceOnUse" xlink:href="#a"/><g transform="translate(-384.57143 -499.798)"><path fill="#d8d8d8" stroke-width=".188" d="m346.3985 604.9975c.009-.21843.0534-.26286.11328-.11329.0542.13535.0475.29707-.0148.35938-.0623.0623-.10662-.0484-.0985-.24609z"/><path fill="#d8d8d8" stroke-width=".188" d="m388.211 604.9975c.009-.21843.0534-.26286.11328-.11329.0542.13535.0475.29707-.0148.35938-.0623.0623-.10662-.0484-.0985-.24609z"/><ellipse cx="408.571" cy="523.798" fill="url(#c)" rx="21.12" ry="21.12"/><path fill="url(#d)" stroke-width=".179" d="m409.21021 527.81788c.37982-.88289.40222-1.18814.42563-5.79943.0269-5.29999-.002-5.46429-.96171-5.46429-.95897 0-.98828.16562-.96538 5.45564.02 4.62034.0409 4.90526.42562 5.79953.22252.51727.46541.94048.53976.94048.0743 0 .31558-.41936.53608-.93193zm-6.02285 4.8721c-2.68288-.53192-4.99292-2.9383-5.4238-5.65001-.0962-.60512-.12794-3.34933-.0735-6.31597v-5.24592s.002-.00096.87703 0c .29666.00037.79177.10713.79309.40377.016 3.58011 0 3.58672 0 3.58672 0 5.24052.19098 7.75523.59577 8.59604.4704.97712 1.48391 1.93285 2.58356 2.43629.83053.38024 1.16155.4335 2.25379.36264.70415-.0457 1.54659-.22129 1.87208-.39023l.59181-.30715-.3667-.59334c-.92286-1.49321-.95995-1.79717-.92123-7.54855.0319-4.75013.0729-5.44339.34899-5.91786 1.04264-1.79163 3.66892-1.79163 4.71181 0 .27585.47388.31713 1.163.34918 5.82819.0387 5.64492-.00096 5.96953-.91256 7.44442-.19678.31839-.35778.66266-.35778.76505 0 .29488 1.58879.75792 2.60054.75792 1.39797 0 2.50228-.45686 3.48875-1.44333 1.38586-1.38585 1.44292-1.69645 1.44577-7.86987.00095-2.917.0511-5.485.11059-5.70694.091-.3394.2311-.40377.88181-.40377h.83083v5.15625c.0315 2.83593-.00042 5.66456-.0712 6.28583-.25296 2.22178-2.09658 4.6233-4.13465 5.38584-2.00335.74955-3.73182.66788-5.66616-.26771l-.96203-.46531-1.0108.47097c-1.66859.77747-2.88118.9541-4.43506.64603z"/><path fill="url(#b)" d="m408.57143 501.798c-12.13985 0-22 9.86015-22 22 0 12.13984 9.86015 22 22 22 12.13984 0 22-9.86016 22-22 0-12.13985-9.86016-22-22-22zm0 1.75985c11.18865 0 20.23828 9.05149 20.23828 20.24015s-9.04963 20.23828-20.23828 20.23828c-11.18866 0-20.24015-9.04962-20.24015-20.23828s9.05149-20.24015 20.24015-20.24015z"/></g></svg>