<svg xmlns="http://www.w3.org/2000/svg" xmlns:xlink="http://www.w3.org/1999/xlink" width="48" height="48"><linearGradient id="a" x1="33.462" x2="34.117" y1="1013.622" y2="1037.208" gradientTransform="matrix(.73959453 0 0 1.0724288 8.622553 -74.496141)" gradientUnits="userSpaceOnUse"><stop offset="0" stop-color="#f6fbff"/><stop offset="1" stop-color="#eaeff2"/></linearGradient><linearGradient id="b" x1="17" x2="17" y1="1036.362" y2="1012.362" gradientTransform="matrix(1.1056554 0 0 1.0724288 -3.538543 -74.496141)" gradientUnits="userSpaceOnUse"><stop offset="0" stop-color="#0c7eed"/><stop offset="1" stop-color="#0bb6ff"/></linearGradient><path fill-opacity=".667" fill-rule="evenodd" stroke-width="1.526" d="m40.189735 2.5015457c-.19546 0-.417349 0-.66877.022895l-16.262174 1.5243206h-16.7781094c-2.0736836-.1536989-2.9145137.0381576-2.9145137 1.9165814v36.1209283c-.1302488 2.061886.7293092 2.018386 2.7457716 2.018386h17.1169165l16.229044 1.895366c1.573424 0 1.89154-.600906 1.890146-1.908645h1.383932c1.348846 0 1.585896.04426 1.498778-2.017928v-36.1213861c0-1.8787291-.111649-2.0702804-1.498778-1.9165815h-1.306188c-.054184-1.0748241-.306711-1.5111947-1.436055-1.5350051z"/><g><g><path fill="url(#a)" fill-rule="evenodd" d="m33.430769 1037.5442h-8.569579v-26.2724h8.569579c.909813-.1008.983023.025.983023 1.257v23.6917c.05714 1.3523-.09832 1.3237-.983023 1.3237z" transform="matrix(1.524635 0 0 1.524635 -8.037853 -1538.236) translate(0 -.030903)"/><path fill="url(#b)" fill-rule="evenodd" d="m31.632138 1010.2649c-.128202 0-.273449 0-.438356.015l-10.666273.9999h-11.004962c-1.360118-.1008-1.911615.024-1.911615 1.2568v23.6918c-.08542 1.3522.478574 1.3237 1.800939 1.3237h.000295 11.226894l10.644252 1.2432c1.282841 0 1.293915-.6073 1.211057-1.9596l.08981-25.0617c0-1.0782-.05463-1.4909-.952039-1.5097z" transform="matrix(1.524635 0 0 1.524635 -8.037853 -1538.236) translate(0 -.030903)"/></g><path fill-opacity=".039" fill-rule="evenodd" d="m31.283421 1038.7644-10.756018-1.2563-.000023-26.2596 10.666298-.9999c1.319248-.1009 1.390395.2623 1.390395 1.4946l-.08974 25.0614c.08286 1.3523.07193 1.9598-1.210912 1.9598z" transform="matrix(1.524635 0 0 1.524635 -8.037853 -1538.236)"/></g><path fill="none" stroke="#fff" stroke-linecap="round" stroke-linejoin="round" stroke-opacity=".797" stroke-width="4.632" d="m13.31579 15.31594v17.368422l8.68421-8.105264 8.68421 8.105264v-17.368422"/></svg>