<svg xmlns="http://www.w3.org/2000/svg" xmlns:xlink="http://www.w3.org/1999/xlink" width="48" height="48"><linearGradient id="a" x1="399.571" x2="399.571" y1="545.798" y2="517.798" gradientUnits="userSpaceOnUse"><stop offset="0" stop-color="#3889e9"/><stop offset="1" stop-color="#5ea5fb"/></linearGradient><linearGradient id="b" x1="400.556" x2="400.556" y1="546.927" y2="516.475" gradientUnits="userSpaceOnUse"><stop offset="0" stop-color="#2e3e46"/><stop offset="1" stop-color="#47606a"/></linearGradient><linearGradient id="c" x1="337.807" x2="337.997" y1="551.87" y2="547.473" gradientUnits="userSpaceOnUse"><stop offset="0" stop-color="#ff9300"/><stop offset="1" stop-color="#ffd702"/></linearGradient><g transform="matrix(1.5511965 0 0 1.552208 -597.40541 -801.61944)"><circle cx="400.571" cy="531.798" r="0" fill="url(#a)"/><g transform="matrix(1.0508504 0 0 1.0508504 -20.353166 -26.940048)"><circle cx="400.571" cy="531.798" r="14" fill="url(#b)" stroke="url(#b)" stroke-width="1.427"/><circle cx="400.571" cy="531.798" r="0" fill="url(#a)" transform="matrix(1.55822993102 0 0 1.55822993102 -264.298285246431 -296.910724934234)"/></g></g><path fill="url(#c)" d="m336.57231 547.47633c-.345-.525-1.2225.0525-.75.615.4575.5325.915 1.11 1.3875 1.7025l-1.5075 1.9125c-.4275.51.42 1.125.8025.5775l1.3575-1.8075 1.38 1.77c.405.555 1.23.015.8175-.5475l-1.53-1.905c.45-.5925.9225-1.17 1.3725-1.7025.4275-.4875-.33-1.14-.72-.63l-1.305 1.635z" transform="matrix(5.125934 0 0 5.125934 -1707.94299 -2793.97004)"/></svg>