<svg xmlns="http://www.w3.org/2000/svg" xmlns:xlink="http://www.w3.org/1999/xlink" viewBox="0 0 48 48"><linearGradient id="a" x1="399.571" x2="399.571" y1="545.798" y2="517.798" gradientUnits="userSpaceOnUse"><stop offset="0" stop-color="#3889e9"/><stop offset="1" stop-color="#5ea5fb"/></linearGradient><linearGradient id="b" x1="400.556" x2="400.556" y1="546.927" y2="516.475" gradientUnits="userSpaceOnUse"><stop offset="0" stop-color="#d5dbff"/><stop offset="1" stop-color="#f9ffff"/></linearGradient><linearGradient id="c" x1="467.204" x2="485.26" y1="824.942" y2="39.498" gradientUnits="userSpaceOnUse" xlink:href="#d"/><linearGradient id="d"><stop offset="0" stop-color="#fe3f3c"/><stop offset="1" stop-color="#ff8729"/></linearGradient><linearGradient id="e" x1="-25.296" x2="-25.489" y1="28.943" y2="18.225" gradientUnits="userSpaceOnUse" xlink:href="#d"/><g transform="matrix(1.5511965 0 0 1.552208 -597.389819 -801.619437)"><circle cx="400.571" cy="531.798" r="0" fill="url(#a)"/><g transform="matrix(1.0508504 0 0 1.0508504 -20.353166 -26.940048)"><circle cx="400.571" cy="531.798" r="14" fill="url(#b)" stroke="url(#b)" stroke-width="1.427"/><circle cx="400.571" cy="531.798" r="0" fill="url(#a)" transform="matrix(1.55822993102 0 0 1.55822993102 -264.298285246431 -296.910724934234)"/></g></g><path fill="none" stroke="url(#e)" stroke-linecap="round" stroke-linejoin="round" stroke-width="1.198" d="m-25.34943 23.993681c-.172317-.67203.373194-1.291949 1.015219-1.404527.906115-.158885 1.708504.573128 1.823468 1.446837.149838 1.138756-.773113 2.127248-1.878455 2.242408-1.370906.142827-2.547142-.973091-2.661348-2.310073-.136917-1.602846 1.173058-2.967715 2.74169-3.080289 1.834682-.131667 3.388724 1.373019 3.499229 3.173309.126844 2.06646-1.572975 3.810028-3.604926 3.918169-2.298205.122312-4.231543-1.772928-4.33711-4.036544-.117986-2.529927 1.97288-4.653213 4.468162-4.75605 2.761635-.113814 5.075 2.17283 5.174991 4.89978.04355 1.187685-.325484 2.37217-1.024685 3.332017" transform="matrix(-1 0 0 1 .000001 .000003)"/><path fill="url(#c)" d="m466.075 161.525c-205.6 0-382.8 121.2-464.2 296.1-2.5 5.3-2.5 11.5 0 16.9 81.4 174.899 258.601 296.1 464.2 296.1s382.8-121.2 464.2-296.1c2.5-5.3 2.5-11.5 0-16.9-81.4-174.9-258.6-296.1-464.2-296.1zm0 514.701c-116.1 0-210.1-94.101-210.1-210.101 0-116.1 94.1-210.1 210.1-210.1 116.1 0 210.1 94.1 210.1 210.1s-94.1 210.101-210.1 210.101z" transform="matrix(.03003808 0 0 .03003808 10.000002 10.000002)"/></svg>