<svg xmlns="http://www.w3.org/2000/svg" xmlns:xlink="http://www.w3.org/1999/xlink" viewBox="0 0 48 48"><linearGradient id="a" x1="399.571" x2="399.571" y1="545.798" y2="517.798" gradientUnits="userSpaceOnUse"><stop offset="0" stop-color="#3889e9"/><stop offset="1" stop-color="#5ea5fb"/></linearGradient><linearGradient id="b" x1="400.556" x2="400.556" y1="546.927" y2="516.475" gradientUnits="userSpaceOnUse"><stop offset="0" stop-color="#d5dbff"/><stop offset="1" stop-color="#f9ffff"/></linearGradient><linearGradient id="c"><stop offset="0" stop-color="#016ed4"/><stop offset="1" stop-color="#00b1ff"/></linearGradient><linearGradient id="d" x1="467.204" x2="485.26" y1="824.942" y2="39.498" gradientUnits="userSpaceOnUse"><stop offset="0" stop-color="#ff9300"/><stop offset="1" stop-color="#ffd702"/></linearGradient><linearGradient id="e" x1="467.204" x2="485.26" y1="824.942" y2="39.498" gradientUnits="userSpaceOnUse"><stop offset="0" stop-color="#fe3f3c"/><stop offset="1" stop-color="#ff8729"/></linearGradient><linearGradient id="f" x1="467.204" x2="485.26" y1="824.942" y2="39.498" gradientUnits="userSpaceOnUse" xlink:href="#c"/><g transform="matrix(1.5511965 0 0 1.552208 -597.389819 -801.619437)"><circle cx="400.571" cy="531.798" r="0" fill="url(#a)"/><g transform="matrix(1.0508504 0 0 1.0508504 -20.353166 -26.940048)"><circle cx="400.571" cy="531.798" r="14" fill="url(#b)" stroke="url(#b)" stroke-width="1.427"/><circle cx="400.571" cy="531.798" r="0" fill="url(#a)" transform="matrix(1.55822993102 0 0 1.55822993102 -264.298285246431 -296.910724934234)"/></g></g><g fill="url(#d)" transform="matrix(.03003808 0 0 .03003808 10.000002 10.000002)"><path fill="url(#e)" d="m466.075 161.525c-205.6 0-382.8 121.2-464.2 296.1-2.5 5.3-2.5 11.5 0 16.9 81.4 174.899 258.601 296.1 464.2 296.1s382.8-121.2 464.2-296.1c2.5-5.3 2.5-11.5 0-16.9-81.4-174.9-258.6-296.1-464.2-296.1zm0 514.701c-116.1 0-210.1-94.101-210.1-210.101 0-116.1 94.1-210.1 210.1-210.1 116.1 0 210.1 94.1 210.1 210.1s-94.1 210.101-210.1 210.101z"/><circle cx="466.075" cy="466.025" r="134.5" fill="url(#f)"/></g></svg>