<svg xmlns="http://www.w3.org/2000/svg" xmlns:xlink="http://www.w3.org/1999/xlink" width="48" height="48"><linearGradient id="a" x1="13" x2="24.733" y1="24" y2="24" gradientUnits="userSpaceOnUse" xlink:href="#f"/><linearGradient id="b" x1="23.267" x2="35" y1="24" y2="24" gradientUnits="userSpaceOnUse" xlink:href="#f"/><linearGradient id="c" x1="13" x2="35" y1="24.752" y2="24.752" gradientUnits="userSpaceOnUse"><stop offset="0" stop-color="#ff9300"/><stop offset="1" stop-color="#ffd702"/></linearGradient><linearGradient id="d" x1="24.671" x2="24.7" y1="46.329" y2="2.052" gradientUnits="userSpaceOnUse"><stop offset="0" stop-color="#e1e1e1"/><stop offset="1" stop-color="#fff"/></linearGradient><linearGradient id="e" x1="399.571" x2="399.571" y1="545.798" y2="517.798" gradientUnits="userSpaceOnUse"><stop offset="0" stop-color="#3889e9"/><stop offset="1" stop-color="#5ea5fb"/></linearGradient><linearGradient id="f" x1="400.556" x2="400.556" y1="546.927" y2="516.475" gradientUnits="userSpaceOnUse"><stop offset="0" stop-color="#2e3e46"/><stop offset="1" stop-color="#47606a"/></linearGradient><g transform="matrix(1.5511965 0 0 1.552208 -597.40541 -801.61944)"><circle cx="400.571" cy="531.798" r="0" fill="url(#e)"/><circle cx="400.571" cy="531.798" r="0" fill="url(#e)" transform="matrix(1.637466545232 0 0 1.637466545232 -298.091124511564 -338.94880213054)"/></g><circle cx="24" cy="24" r="22" fill="url(#d)" stroke-width="1.148"/><path fill="url(#b)" d="m35 35h-5.866667l-5.866667-8.800001 8.800001-13.199999h1.466666l-6.6 10.266666z"/><path fill="url(#a)" d="m13 13h5.866666l5.866667 8.799999-8.8 13.200001h-1.466667l6.6-10.266667z"/><path fill="url(#c)" d="m23.266666 15.952136-.04576.04576c-.295606.01628-.582164.0572-.870833.09167l2.0625 3.070833c.367415-.943814 1.328023-1.494562 2.429167-1.466666.242718.0059.481506.07671.733333.137426.03051.0073.06116-.0088.09167 0 .33355.09812.64881.237014.9625.366667l.733334-1.145833c-1.589075-.713094-3.410866-1.1-5.362501-1.1-.228066 0-.46288.03491-.6875.04576zm7.241667 1.741667-.6875 1.1c2.230771 1.331337 3.7125 3.497721 3.7125 5.958333 0 4.050083-3.939892 7.333334-8.8 7.333334s-8.8-3.283251-8.8-7.333334c0-1.740581.748323-3.32593 1.970833-4.583333l-1.283333-1.925c-2.224141 1.602508-3.620833 3.919094-3.620833 6.508333 0 4.860109 4.924861 8.800001 11 8.800001s11-3.939892 11-8.800001c0-2.907109-1.775327-5.455971-4.491667-7.058333z"/></svg>