<svg xmlns="http://www.w3.org/2000/svg" xmlns:xlink="http://www.w3.org/1999/xlink" width="48" height="48"><linearGradient id="a" x1="-989.666" x2="-1003.636" y1="433.284" y2="317.355" gradientTransform="matrix(.9997764 0 0 .9863347 -.832882 5.995869)" gradientUnits="userSpaceOnUse"><stop offset="0" stop-color="#e7f0f4"/><stop offset="1" stop-color="#f4faff"/></linearGradient><linearGradient id="b" x1="-1092.912" x2="-1060.255" y1="203.099" y2="104.853" gradientTransform="matrix(.99833895 0 0 .98513314 -2.169195 6.701717)" gradientUnits="userSpaceOnUse"><stop offset="0" stop-color="#016ed4"/><stop offset="1" stop-color="#00b1ff"/></linearGradient><linearGradient id="c" x1="336.403" x2="337.808" y1="552.205" y2="547.564" gradientUnits="userSpaceOnUse"><stop offset="0" stop-color="#0173dd"/><stop offset="1" stop-color="#00b1ff"/></linearGradient><g transform="translate(-384.57143 -499.798)"><rect width="89.616" height="112.933" x="-1100.904" y="117.574" fill="url(#b)" ry="2.756" transform="matrix(.337970107118 -.112142707714 .109393315233 .338870005937 744.854826091344 346.340728859107)"/><rect width="99.803" height="121.239" x="-1046.299" y="317.974" fill="url(#a)" ry="2.959" transform="matrix(.353278022467 -.044658898987 .049073619097 .352691874194 744.854826091344 346.340728859107)"/><path fill="url(#c)" d="m336.57231 547.47633c-.345-.525-1.2225.0525-.75.615.4575.5325.915 1.11 1.3875 1.7025l-1.5075 1.9125c-.4275.51.42 1.125.8025.5775l1.3575-1.8075 1.38 1.77c.405.555 1.23.015.8175-.5475l-1.53-1.905c.45-.5925.9225-1.17 1.3725-1.7025.4275-.4875-.33-1.14-.72-.63l-1.305 1.635z" transform="matrix(4.4955798479 -.629111867274 .629111867274 4.4955798479 -1453.070503502141 -1734.657684183343)"/></g></svg>