<svg xmlns="http://www.w3.org/2000/svg" xmlns:xlink="http://www.w3.org/1999/xlink" width="48" height="48"><linearGradient id="a" x1="399.571" x2="399.571" y1="545.798" y2="517.798" gradientTransform="matrix(1.5511965 0 0 1.552208 -224.40622 -295.6789)" gradientUnits="userSpaceOnUse"><stop offset="0" stop-color="#3889e9"/><stop offset="1" stop-color="#5ea5fb"/></linearGradient><linearGradient id="b" x1="466.376" x2="466.489" y1="542.679" y2="502.377" gradientTransform="matrix(1.0073775 0 0 .87927703 -135.9794 111.58073)" gradientUnits="userSpaceOnUse"><stop offset="0" stop-color="#7737c5"/><stop offset="1" stop-color="#9371ff"/></linearGradient><linearGradient id="c" x1="258.657" x2="257.505" y1="1.708" y2="564.005" gradientTransform="matrix(.09396373 -.01074569 -.00879315 -.07712333 378.43684 555.75355)" gradientUnits="userSpaceOnUse"><stop offset="0" stop-color="#e9e9e9"/><stop offset="1" stop-color="#f9f9f9"/></linearGradient><g transform="translate(-372.99919 -505.94054)"><circle cx="396.959" cy="529.782" r="0" fill="url(#a)"/><path fill="url(#c)" d="m413.60288 515.20669c-.0878-.76961.60734-1.49835 1.60839-1.75588l-.24409-2.14095c-1.03326-.0249-1.87449-.57794-1.96223-1.34755-.0877-.76962.60733-1.49836 1.60839-1.75589l-.25834-2.26588-2.27656.26034c-.039.88872-.76264 1.6498-1.72897 1.76031-.96632.1105-1.84267-.46759-2.08069-1.32463l-2.57987.29503c-.039.88872-.76265 1.64979-1.72897 1.7603s-1.84267-.46759-2.0807-1.32463l-2.21829.25369c-.077.85454-.78582 1.57431-1.72348 1.68154-.93767.10723-1.79029-.43396-2.05762-1.24914l-2.60843.2983c-.0769.85454-.78582 1.57432-1.72348 1.68155-.93767.10723-1.79039-.43396-2.05762-1.24914l-2.04466.23383c-.0769.85453-.78581 1.57431-1.72348 1.68154-.93766.10723-1.79038-.43395-2.05762-1.24914l-2.60843.2983c-.0769.85454-.78582 1.57432-1.72348 1.68155s-1.79039-.43396-2.05762-1.24914l-2.29084.26198.28473 2.49725c1.03326.025 1.87448.57794 1.96223 1.34756.0877.76961-.60735 1.49827-1.6084 1.75589l.22358 1.96093c1.15972-.0798 2.15137.50182 2.24705 1.34108.0957.83926-.73951 1.6298-1.88734 1.81388l.22126 1.94066c1.11863-.0428 2.05939.52999 2.15247 1.34634.0931.81635-.69453 1.58685-1.79401 1.79767l.18609 1.63216c.0465-.007.0932-.0142.14054-.0197 1.21956-.13946 2.28885.45532 2.38841 1.32851.0996.87319-.80833 1.69408-2.02789 1.83355-.0474.005-.0944.009-.14135.0126l.23005 2.0177c1.11864-.0428 2.0594.53007 2.15248 1.34642.0931.81635-.69453 1.58685-1.794 1.79775l.24923 2.18598c1.07644-.008 1.9671.55539 2.05753 1.34853.0904.79314-.6505 1.54306-1.70102 1.77836l.23982 2.10346c1.15973-.0798 2.15137.50182 2.24706 1.34107.0957.83926-.73951 1.62981-1.88735 1.81389l.22064 1.93518c1.15973-.0798 2.15137.50182 2.24706 1.34107.0957.83926-.73951 1.62981-1.88735 1.81389l.23782 2.08588 2.08863-.23886c-.0241-.0865-.0418-.17578-.0522-.26748-.11413-1.00098.65576-1.91102 1.71961-2.03268 1.06386-.12167 2.01877.59112 2.1329 1.59211.0105.0917.0133.18263.009.27238l2.57987-.29503c-.024-.0866-.0417-.17579-.0522-.26749-.11413-1.00098.65576-1.91102 1.71962-2.03268s2.01877.59113 2.13289 1.59211c.0105.0917.0133.18263.009.27238l2.01608-.23056c-.0241-.0865-.0417-.17578-.0522-.26748-.11412-1.00098.65576-1.91102 1.71962-2.03268 1.06386-.12167 2.01877.59112 2.13289 1.59211.0105.0917.0133.18263.009.27238l2.57987-.29503c-.0241-.0866-.0417-.17579-.0522-.26749-.11413-1.00098.65576-1.91102 1.71961-2.03268 1.06386-.12166 2.01877.59113 2.1329 1.59211.0104.0917.0133.18263.009.27238l2.19349-.25084c-.0143-.0625-.0254-.1264-.0329-.19157-.11413-1.00098.65576-1.91102 1.71961-2.03268 1.06386-.12166 2.01877.59113 2.1329 1.59211.007.0652.0109.12993.0111.19405l2.55882-.29262c-.0143-.0625-.0255-.12639-.0329-.19156-.11413-1.00099.65576-1.91103 1.71962-2.03269s2.01877.59113 2.13289 1.59211c.007.0652.0109.12993.0111.19406l2.45395-.28064-.23843-2.09127c-1.11864.0428-2.0594-.53007-2.15248-1.34643-.0931-.81635.69453-1.58684 1.794-1.79774l-.23946-2.10022c-1.11863.0428-2.0594-.53007-2.15247-1.34642-.0931-.81635.69453-1.58685 1.794-1.79774l-.21308-1.86886c-1.11864.0428-2.0594-.53007-2.15248-1.34642-.0931-.81635.69453-1.58684 1.794-1.79774l-.23945-2.10022c-1.11864.0428-2.05941-.53007-2.15248-1.34642-.0931-.81635.69453-1.58685 1.794-1.79775l-.20429-1.7918c-1.11863.0428-2.0594-.53-2.15247-1.34635-.0931-.81635.69453-1.58684 1.794-1.79766l-.23947-2.10038c-1.11863.0429-2.05939-.52999-2.15247-1.34634-.0931-.81635.69453-1.58685 1.79401-1.79767l-.2242-1.96641c-1.03326-.0249-1.87448-.57794-1.96223-1.34756"/><rect width="30.826" height="35.787" x="319.024" y="553.24" fill="url(#b)" ry=".528" transform="matrix(.99352435 -.1136194 .11328018 .99356308 0 0)"/><path fill="#fff" fill-opacity=".898" d="m16.306247 11.262021-4.2424 4.242 8.935753 11.753979v14.742h6v-14.758l8.920753-13.032021-4.242-4.2420002-7.686753 11.7980212-7.685753-10.503979z" transform="matrix(.55786576 -.10419319 .10419319 .55786576 376.72718 518.59718)"/><g fill="#fff" fill-opacity=".852" transform="matrix(.13217556 -.0126997 .0126997 .13217556 380.48891 507.63929)"><path fill="#fff" fill-opacity=".852" d="m149.09606 118.88767 3.85298 84.61851c.423 4.886 4.301 8.913 9.355 9.355 5.661.495 10.651-3.694 11.145-9.355l1.8207-83.84581c.078-.97.088-2.057 0-3.057-.844-9.666-3.9337-15.97019-13.5987-15.12719-9.665.845-13.41898 7.74749-12.57498 17.41149z"/><circle cx="163.199" cy="232.506" r="14.5" fill="#fff" fill-opacity=".852"/></g></g></svg>