<svg xmlns="http://www.w3.org/2000/svg" xmlns:xlink="http://www.w3.org/1999/xlink" width="48" height="48"><linearGradient x1="0" x2="47" y1="23.5" y2="23.5" gradientUnits="userSpaceOnUse"><stop offset="0" stop-color="#a9a3d4"/><stop offset=".47" stop-color="#87baff"/><stop offset="1" stop-color="#89ec85"/></linearGradient><linearGradient id="a" x1="509.812" x2="509.812" y1="548.643" y2="504.286" gradientUnits="userSpaceOnUse"><stop offset="0" stop-color="#118702"/><stop offset="1" stop-color="#80e950"/></linearGradient><linearGradient id="b" x1="509.117" x2="509.117" y1="549.726" y2="503.726" gradientUnits="userSpaceOnUse"><stop offset="0" stop-color="#3889e9"/><stop offset="1" stop-color="#5ea5fb"/></linearGradient><g stroke-width="1.317" transform="matrix(1.000000004476 0 0 1.000000004476 -486.760340300875 -502.725834528142)"><circle cx="510.76" cy="526.726" r="23" fill="url(#a)"/><circle cx="510.76" cy="526.726" r="23" fill="none"/><circle cx="510.76" cy="526.726" r="0" fill="url(#b)"/><path fill="#fff" fill-opacity=".847" d="m16.428 15.744c-.159-.052-1.164-.505-.536-2.414h-.009c1.637-1.686 2.888-4.399 2.888-7.07 0-4.107-2.731-6.26-5.905-6.26-3.176 0-5.892 2.152-5.892 6.26 0 2.682 1.244 5.406 2.891 7.088.642 1.684-.506 2.309-.746 2.396-2.2377833.723652-8.32535247 4.33152-8.2290391 9.585718h24.0505821c.107339-5.019251-4.707828-8.278585-8.512543-9.585718z" transform="matrix(.908024294857 0 0 .908024294857 499.032681891738 515.225826429678)"/></g></svg>