<svg xmlns="http://www.w3.org/2000/svg" xmlns:xlink="http://www.w3.org/1999/xlink" width="48" height="48"><linearGradient id="a"><stop offset="0" stop-color="#3889e9"/><stop offset="1" stop-color="#5ea5fb"/></linearGradient><linearGradient id="b" x1="260.104" x2="260.104" y1="538.616" y2="497.454" gradientUnits="userSpaceOnUse" xlink:href="#a"/><linearGradient id="c" x1="247.376" x2="247.376" y1="539.109" y2="493.26" gradientUnits="userSpaceOnUse" xlink:href="#a"/><linearGradient id="d" x1="409.571" x2="409.571" y1="542.798" y2="507.798" gradientTransform="matrix(1.0909091 0 0 1.0652838 -37.142565 -35.577639)" gradientUnits="userSpaceOnUse"><stop offset="0" stop-color="#2a2c2f"/><stop offset="1" stop-color="#424649"/></linearGradient><linearGradient id="e" x1="795.88" x2="796.412" y1="1042.461" y2="1005.808" gradientUnits="userSpaceOnUse"><stop offset="0" stop-color="#3dc796"/><stop offset="1" stop-color="#57d68d"/></linearGradient><g transform="translate(-384.57143 -499.798)"><circle cx="249.014" cy="516.184" r="0" fill="url(#c)"/><circle cx="261.574" cy="518.035" r="0" fill="url(#b)"/><path fill-opacity=".667" d="m386.27651 506.0033c-.94427 0-1.70508.76081-1.70508 1.70507v32.81055c0 .94427.76081 1.70508 1.70508 1.70508h44.58984c.94427 0 1.70508-.76081 1.70508-1.70508v-32.81055c0-.94426-.76081-1.70507-1.70508-1.70507z"/><rect width="48" height="36.22" x="384.572" y="505.371" fill="url(#d)" ry="1.704"/><path fill="url(#e)" d="m390.22963 512.19253c-.0762 0-.14259.0282-.20117.084l-.43945.41797c-.0586.0557-.0879.12078-.0879.19336 0 .0726.0293.13565.0879.1914l3.45508 3.28711-3.45508 3.28711c-.0586.0558-.0879.12098-.0879.19336 0 .0726.0293.13567.0879.19141l.43945.41797c.0586.0559.12499.084.20117.084.0762 0 .14454-.0282.20313-.084l4.0957-3.89649c.0586-.0557.0879-.12088.0879-.19336 0-.0725-.0293-.13565-.0879-.1914l-4.0957-3.89844c-.0586-.0557-.12696-.084-.20313-.084zm5.06446 7.92188c-.082 0-.15037.024-.20313.0742-.0527.0502-.0781.11523-.0781.19335v.53516c0 .078.0254.14326.0781.19336.0528.0501.12113.0742.20313.0742h8.43945c.082 0 .14851-.0241.20117-.0742.0527-.0501.0801-.11533.0801-.19336v-.53516c.0001-.0781-.0273-.14315-.0801-.19335-.0527-.0502-.11917-.0742-.20117-.0742z"/></g></svg>