<svg xmlns="http://www.w3.org/2000/svg" xmlns:xlink="http://www.w3.org/1999/xlink" width="48" height="48"><linearGradient x1="0" x2="47" y1="23.5" y2="23.5" gradientUnits="userSpaceOnUse"><stop offset="0" stop-color="#a9a3d4"/><stop offset=".47" stop-color="#87baff"/><stop offset="1" stop-color="#89ec85"/></linearGradient><linearGradient id="a"><stop offset="0" stop-color="#2a2c2f"/><stop offset="1" stop-color="#424649"/></linearGradient><linearGradient id="b" x1="17.353" x2="17.353" y1="1046.007" y2="1007.674" gradientUnits="userSpaceOnUse" xlink:href="#a"/><linearGradient id="c" x1="16.791" x2="17.168" y1="1046.039" y2="1007.809" gradientUnits="userSpaceOnUse"><stop offset="0" stop-color="#5fd38d"/><stop offset="1" stop-color="#5fd38d"/></linearGradient><linearGradient id="d" x1="17.353" x2="17.353" y1="1046.007" y2="1007.674" gradientUnits="userSpaceOnUse"><stop offset="0" stop-color="#37c871"/><stop offset="1" stop-color="#5fd38d"/></linearGradient><clipPath id="e"><rect width="46" height="46" x="1" y="1" ry="23"/></clipPath><linearGradient id="f" x1="24" x2="24" y1="47" y2="1" gradientUnits="userSpaceOnUse" xlink:href="#a"/><g stroke-width="1.317" transform="matrix(1.199999650171 0 0 1.199999650171 3.176860870631 -1208.208316863007)"><rect width="38.333" height="38.333" x="-1.814" y="1007.674" fill="url(#b)" ry="19.167"/><path fill-opacity=".078" d="m27.705078 8.5175781c.206545.20652.311423.5044601.261719.8125l-2.111328 13.1093749c.30767.40116.506808.881523.570312 1.408203l353.554689 353.552734c-.06349-.52668-.2646-1.00704-.57227-1.4082l.08399-.51953 7.57422 7.57422c.02904.02279.05635.04901.08203.07421l-7.65625-7.65625 2.02929-12.58007c.04971-.30816-.05716-.60794-.26367-.81446zm-6.191406 17.7246099 353.554688 353.554692c.52471.52463 1.2479.8496 2.04687.8496.29786 0 .57906-.05857.84961-.14257l8.04102 4.17773-79.3457-79.34375c.33751.15767.74263.04759.94726-.26758l-274.121092-274.121091c-.205084.316221-.611272.424885-.949219.265625l-.085937-.085938-8.039063-4.177734c-.270549.08304-.551758.140625-.849609.140625-.798979 0-1.524108-.32497-2.048828-.849609z" clip-path="url(#e)" transform="matrix(.83333358 0 0 .83333358 -2.647385 1006.8406)"/><rect width="38.333" height="38.333" x="-1.814" y="1007.674" fill="none" stroke="url(#d)" stroke-width="1.667" ry="19.167"/><path fill="url(#c)" d="m19.410047 1026.8589c-.05292-.4389-.219708-.8392-.4761-1.1735l1.760267-10.9244c.06558-.4064-.195233-.794-.596317-.8866h-.01975c-.401075-.093-.805267.1415-.924617.5355l-3.206742 10.5902c-.790267.3974-1.338851 1.2074-1.338851 2.1507 0 1.3321 1.083184 2.4159 2.415151 2.4159.248209 0 .482925-.049.708384-.1182l6.69926 3.4814c.368583.1915.822275.072 1.048459-.2765l.0096-.015c.22625-.3483.151033-.8115-.174033-1.0702zm-3.579826.2875c0-.6578.535325-1.1931 1.193009-1.1931.658283 0 1.193592.5353 1.193592 1.1931 0 .6581-.535309 1.1935-1.193592 1.1935-.657684 0-1.193009-.5353-1.193009-1.1935z"/></g></svg>