<svg xmlns="http://www.w3.org/2000/svg" xmlns:xlink="http://www.w3.org/1999/xlink" width="48" height="48"><linearGradient id="a"><stop offset="0" stop-color="#ececec"/><stop offset="1" stop-color="#fefefe"/></linearGradient><linearGradient id="b"><stop offset="0" stop-color="#e42238"/><stop offset="1" stop-color="#f55"/></linearGradient><linearGradient id="c" x1="408.612" x2="408.612" y1="546.632" y2="499.832" gradientUnits="userSpaceOnUse" xlink:href="#b"/><linearGradient id="d" x1="408.723" x2="408.92" y1="546.973" y2="500.84" gradientUnits="userSpaceOnUse" xlink:href="#a"/><linearGradient id="e" x1="408.572" x2="408.572" y1="545.649" y2="500.799" gradientUnits="userSpaceOnUse" xlink:href="#a"/><clipPath id="f"><circle cx="24.041" cy="24.034" r="24"/></clipPath><linearGradient id="g" x1="24.041" x2="24.041" y1="46.834" y2=".034" gradientUnits="userSpaceOnUse" xlink:href="#b"/><g transform="translate(-384.57143 -499.798)"><circle cx="408.612" cy="523.832" r="24" fill="url(#c)"/><path fill-opacity=".078" stroke-width="1.317" d="m23.923828 15.912109c-3.049099-.012775-6.111246.080355-8.941406.31836-1.75609.19682-2.960597 2.336087-3.091797 3.960937-.27765 3.41296-.27765 5.354618 0 8.767578.0851 1.04174.599404 2.300577 1.427734 3.128907l35.353516 35.355468c.46366.46366 1.026269.792047 1.667969.873047 5.72744.37381 12.28211.42719 17.80664 0 1.73319-.30056 2.96102-2.377103 3.09375-4.001953.27612-3.41449.276167-5.567509-.001953-8.980469h.001953c-.08376-1.00208-.484293-2.165944-1.246093-2.927734l-35.355469-35.355469c-.47344-.47345-1.08649-.792232-1.84961-.820312-2.779805-.186905-5.816135-.305585-8.865234-.31836z" clip-path="url(#f)" transform="translate(384.57143 499.798)"/><path fill="url(#d)" stroke-width="1.317" d="m420.45574 519.77578c-.13581-1.62485-1.10463-3.67386-3.09566-3.74712-5.55961-.37381-12.14604-.47601-17.80636 0-1.75609.19682-2.95985 2.33584-3.09105 3.96069-.27765 3.41296-.27765 5.35521 0 8.76817.13274 1.62485 1.30601 3.77611 3.09412 4.00188 5.72744.37381 12.28184.42719 17.80637 0 1.73319-.30056 2.96138-2.37703 3.09411-4.00188.27612-3.41449.27612-5.56878-.002-8.98174zm-15.04949 8.92683v-8.74989l7.62846 4.37569z"/><path fill="url(#e)" d="m408.57143 499.798c-13.24299 0-24 10.75701-24 24s10.75701 24 24 24 24-10.75701 24-24-10.75701-24-24-24zm0 2c12.16219 0 22 9.83781 22 22 0 12.16218-9.83781 22-22 22-12.16218 0-22-9.83782-22-22 0-12.16219 9.83782-22 22-22z"/></g></svg>