<svg xmlns="http://www.w3.org/2000/svg" xmlns:xlink="http://www.w3.org/1999/xlink" viewBox="0 0 48 48"><linearGradient id="a" x1="265.454" x2="265.652" y1="913.036" y2="791.882" gradientUnits="userSpaceOnUse"><stop offset="0" stop-color="#363636"/><stop offset="1" stop-color="#656567"/></linearGradient><linearGradient id="b" x1="277.171" x2="275.678" y1="914.374" y2="792.559" gradientUnits="userSpaceOnUse"><stop offset="0" stop-color="#af3417"/><stop offset="1" stop-color="#ff4b21"/></linearGradient><g transform="matrix(.378089325391 -.000000000494 .000000000494 .378089325391 -77.682280068957 -298.414652104406)"><rect width="113.906" height="121.564" x="211.984" y="792.015" fill="url(#a)" ry="5"/><path fill="url(#b)" d="m237.43713 792.01559 83.32666-.00006c2.77 0 5 2.23 5 5v111.56396c0 2.77-2.23 5-5 5l-83.32666-.00023h-5v-121.56367z"/><path fill="#fff" fill-opacity=".899" d="m295.2734 791.91512h17.94744v28.43612l-8.98521-6.34476-8.96223 6.34476z"/></g><path fill="#fff" fill-opacity=".847" d="m43.835937 2.5527344-.966796 24.6972656h-71.015625v-3.164063l53.4375-71.191406h-26.3671879q-8.5253906 0-11.1621091 1.142578-2.636719 1.054688-4.306641 4.13086-2.373047 4.394531-2.724609 10.898437h-3.515625l.527344-22.324218h67.499999v3.251953l-53.9648433 71.367187h29.3554683q9.228516 0 12.480469-1.494141 3.339844-1.582031 5.361328-5.449218 1.40625-2.8125 2.373047-11.8652346z" transform="matrix(.2484231 0 0 .2484231 24.376237 28.780471)"/></svg>