<svg xmlns="http://www.w3.org/2000/svg" xmlns:svg="http://www.w3.org/2000/svg" xmlns:xlink="http://www.w3.org/1999/xlink" id="svg2" width="48" height="48" version="1.1" viewBox="0 0 48 48"><defs id="defs4"><linearGradient id="linearGradient4157"><stop id="stop4159" offset="0" stop-color="#0055d4" stop-opacity="1"/><stop id="stop4161" offset="1" stop-color="#3771c8" stop-opacity="1"/></linearGradient><linearGradient id="linearGradient4163" x1="757.6" x2="727.202" y1="726.432" y2="696.115" gradientTransform="matrix(1.0693111,0,0,1.0693111,-51.496891,-49.30761)" gradientUnits="userSpaceOnUse" xlink:href="#linearGradient4157"/><clipPath id="clipPath6043" clipPathUnits="userSpaceOnUse"><rect id="rect6045" width="33.737" height="33.737" x="726.113" y="694.527" fill="url(#linearGradient6047)" fill-opacity="1" stroke="none" stroke-dasharray="none" stroke-miterlimit="4" stroke-opacity="1" stroke-width="1.96" opacity="1" rx="1.936" ry="2.079" transform="matrix(0.70825126,0.70596045,-0.70596045,0.70825126,0,0)"/></clipPath><linearGradient id="linearGradient6047" x1="757.6" x2="727.202" y1="726.432" y2="696.115" gradientTransform="matrix(1.0693111,0,0,1.0693111,-51.496891,-49.30761)" gradientUnits="userSpaceOnUse" xlink:href="#linearGradient4157"/></defs><metadata id="metadata7"/><g id="layer1" transform="translate(0,-1004.3622)"><rect id="rect4136" width="33.737" height="33.737" x="726.113" y="694.527" fill="url(#linearGradient4163)" fill-opacity="1" stroke="none" stroke-dasharray="none" stroke-miterlimit="4" stroke-opacity="1" stroke-width="1.96" opacity="1" rx="1.936" ry="2.079" transform="matrix(0.70825126,0.70596045,-0.70596045,0.70825126,0,0)"/><path id="path5889" fill="#fff" fill-opacity="1" stroke="none" stroke-linecap="butt" stroke-linejoin="miter" stroke-opacity="1" stroke-width="1" d="m 22.383988,1033.757 q 0.03025,-1.7999 0.408375,-2.8435 0.378125,-1.0436 1.542749,-2.3141 l 1.981374,-2.0419 q 1.2705,-1.4369 1.2705,-3.0855 0,-1.5881 -0.831875,-2.4805 -0.831874,-0.9075 -2.419999,-0.9075 -1.542749,0 -2.480499,0.8168 -0.937749,0.8167 -0.937749,2.1931 l -2.798124,0 q 0.03025,-2.4503 1.739374,-3.9476 1.724249,-1.5125 4.476998,-1.5125 2.858624,0 4.446748,1.5427 1.60325,1.5276 1.60325,4.2048 0,2.6468 -2.450249,5.2181 l -1.648625,1.6335 q -1.104124,1.2251 -1.104124,3.5241 l -2.798124,0 z m -0.121,4.7946 q 0,-0.6806 0.408375,-1.1343 0.4235,-0.4689 1.240249,-0.4689 0.81675,0 1.24025,0.4689 0.4235,0.4537 0.4235,1.1343 0,0.6807 -0.4235,1.1344 -0.4235,0.4386 -1.24025,0.4386 -0.816749,0 -1.240249,-0.4386 -0.408375,-0.4537 -0.408375,-1.1344 z" font-family="Roboto" font-size="medium" font-stretch="normal" font-style="normal" font-variant="normal" font-weight="normal" letter-spacing="0" word-spacing="0" style="line-height:125%;-inkscape-font-specification:Roboto"/></g></svg>