<svg xmlns="http://www.w3.org/2000/svg" xmlns:svg="http://www.w3.org/2000/svg" xmlns:xlink="http://www.w3.org/1999/xlink" id="svg2" width="48" height="48" version="1.1" viewBox="0 0 48 48"><defs id="defs4"><linearGradient id="linearGradient5118"><stop id="stop5120" offset="0" stop-color="red" stop-opacity="1"/><stop id="stop5122" offset="1" stop-color="#ff2a2a" stop-opacity="1"/></linearGradient><linearGradient id="linearGradient4154"><stop id="stop4156" offset="0" stop-color="#06f" stop-opacity="1"/><stop id="stop4158" offset="1" stop-color="#5f8dd3" stop-opacity="1"/></linearGradient><linearGradient id="linearGradient4160" x1="2" x2="46.54" y1="1028.362" y2="1031.081" gradientTransform="matrix(1.0217247,0,0,1.0217247,-1052.2973,-1092.9064)" gradientUnits="userSpaceOnUse" xlink:href="#linearGradient5118"/><clipPath id="clipPath4309" clipPathUnits="userSpaceOnUse"><ellipse id="ellipse4311" cx="-1028.34" cy="-43.771" fill="url(#linearGradient4313)" fill-opacity="1" opacity="1" rx="21.502" ry="21.998" transform="matrix(-0.06581891,-0.99783158,0.99802153,-0.06287311,0,0)"/></clipPath><linearGradient id="linearGradient4313" x1="2" x2="46.54" y1="1028.362" y2="1031.081" gradientTransform="matrix(0.97736788,0,0,0.99990701,-1051.7969,-1072.0374)" gradientUnits="userSpaceOnUse" xlink:href="#linearGradient4154"/><clipPath id="clipPath4309-2" clipPathUnits="userSpaceOnUse"><ellipse id="ellipse4311-4" cx="-1028.34" cy="-43.771" fill="url(#linearGradient4313)" fill-opacity="1" opacity="1" rx="21.502" ry="21.998" transform="matrix(-0.06581891,-0.99783158,0.99802153,-0.06287311,0,0)"/></clipPath><clipPath id="clipPath5095" clipPathUnits="userSpaceOnUse"><ellipse id="ellipse5097" cx="-1027.776" cy="-42.203" fill="none" fill-opacity="0" stroke="#fff" stroke-opacity="1" stroke-width=".978" opacity="1" rx="21.51" ry="21.51" transform="matrix(-0.06432893,-0.99792875,0.9979287,-0.06432966,0,0)"/></clipPath></defs><metadata id="metadata7"/><g id="layer1" transform="translate(0,-1004.3622)"><circle id="path4136-1" cx="-1028.795" cy="-42.269" r="0" fill="#04a" fill-opacity="1" opacity="1" transform="matrix(-0.06432929,-0.99792873,0.99792873,-0.06432929,0,0)"/><ellipse id="path4136" cx="-1027.776" cy="-42.203" fill="url(#linearGradient4160)" fill-opacity="1" opacity="1" rx="22.478" ry="22.478" transform="matrix(-0.06432929,-0.99792873,0.99792873,-0.0643293,0,0)"/><path id="rect4217" fill="#fff" fill-opacity="1" d="m 23.993726,1016.1014 0.01278,0 c 1.128529,0 2.037057,0.9085 2.037057,2.037 l 0,14.3169 c 0,1.1286 -0.908528,2.0371 -2.037057,2.0371 l -0.01278,0 c -1.12853,0 -2.037057,-0.9085 -2.037057,-2.0371 l 0,-14.3169 c 0,-1.1285 0.908527,-2.037 2.037057,-2.037 z" opacity="1"/><rect id="rect4681" width="4.087" height="4.087" x="21.957" y="1038.579" fill="#fff" fill-opacity="1" opacity="1" rx="17.981" ry="16.598"/></g></svg>