<svg xmlns="http://www.w3.org/2000/svg" xmlns:svg="http://www.w3.org/2000/svg" xmlns:xlink="http://www.w3.org/1999/xlink" id="svg5453" width="64" height="64" version="1.1"><defs id="defs5455"><linearGradient id="linearGradient5404"><stop id="stop5406" offset="0" stop-color="#cbcbcb" stop-opacity="1"/><stop id="stop5408" offset="1" stop-color="#f3f3f3" stop-opacity="1"/></linearGradient><linearGradient id="linearGradient5354"><stop id="stop5356" offset="0" stop-color="#f4f4f4" stop-opacity="1"/><stop id="stop5358" offset="1" stop-color="#b0b0b0" stop-opacity="1"/></linearGradient><linearGradient id="linearGradient5334"><stop id="stop5336" offset="0" stop-color="#1f1f1f" stop-opacity="1"/><stop id="stop5338" offset="1" stop-color="#444" stop-opacity="1"/></linearGradient><linearGradient id="linearGradient5278"><stop id="stop5280" offset="0" stop-color="#060606" stop-opacity="1"/><stop id="stop5282" offset="1" stop-color="#343434" stop-opacity="1"/></linearGradient><linearGradient id="linearGradient5246"><stop id="stop5248" offset="0" stop-color="#333" stop-opacity="1"/><stop id="stop5254" offset=".643" stop-color="#4e4e4e" stop-opacity="1"/><stop id="stop5260" offset="1" stop-color="#333" stop-opacity="1"/></linearGradient><linearGradient id="linearGradient5206"><stop id="stop5208" offset="0" stop-color="#cbcbcb" stop-opacity="1"/><stop id="stop5214" offset=".6" stop-color="#e9e9e9" stop-opacity="1"/><stop id="stop5210" offset="1" stop-color="#bebebe" stop-opacity="1"/></linearGradient><linearGradient id="linearGradient5184"><stop id="stop5186" offset="0" stop-color="#a8a8a8" stop-opacity="1"/><stop id="stop5188" offset="1" stop-color="#ccc" stop-opacity="1"/></linearGradient><linearGradient id="linearGradient5002"><stop id="stop5004" offset="0" stop-color="#2e5d89" stop-opacity="1"/><stop id="stop5006" offset="1" stop-color="#1b92f4" stop-opacity="1"/></linearGradient><linearGradient id="linearGradient4352" x1="400.571" x2="415.571" y1="512.798" y2="527.798" gradientUnits="userSpaceOnUse" xlink:href="#linearGradient5002"/><linearGradient id="linearGradient5190" x1="747.803" x2="746.388" y1="503.036" y2="421.012" gradientTransform="translate(0,-3.199701)" gradientUnits="userSpaceOnUse" xlink:href="#linearGradient5184"/><linearGradient id="linearGradient5212" x1="744.571" x2="744.571" y1="408.869" y2="301.798" gradientTransform="matrix(0.99806114,0,0,1,1.4832004,0)" gradientUnits="userSpaceOnUse" xlink:href="#linearGradient5206"/><linearGradient id="linearGradient5238" x1="744.571" x2="744.571" y1="381.798" y2="311.798" gradientTransform="translate(0,-0.79999)" gradientUnits="userSpaceOnUse" xlink:href="#linearGradient5246"/><linearGradient id="linearGradient5284" x1="735.781" x2="736.697" y1="464.592" y2="504.092" gradientTransform="translate(0,0.167954)" gradientUnits="userSpaceOnUse" xlink:href="#linearGradient5278"/><linearGradient id="linearGradient5306" x1="745.906" x2="742.228" y1="499.568" y2="438.568" gradientUnits="userSpaceOnUse" xlink:href="#linearGradient5278"/><linearGradient id="linearGradient5332" x1="736.454" x2="736.63" y1="501.815" y2="571.815" gradientTransform="matrix(0.99867048,0,0,1,0.18536705,0)" gradientUnits="userSpaceOnUse" xlink:href="#linearGradient5334"/><linearGradient id="linearGradient5360" x1="743.781" x2="748.197" y1="547.504" y2="463.918" gradientUnits="userSpaceOnUse" xlink:href="#linearGradient5354"/><linearGradient id="linearGradient5381" x1="754.571" x2="752.571" y1="302.798" y2="258.798" gradientUnits="userSpaceOnUse" xlink:href="#linearGradient5334"/><linearGradient id="linearGradient5402" x1="736.817" x2="738.938" y1="307.466" y2="233.22" gradientUnits="userSpaceOnUse" xlink:href="#linearGradient5404"/></defs><metadata id="metadata5458"/><g id="layer1" transform="translate(-376.57144,-491.79797)"><g id="layer1-5" transform="translate(290.99999,-113.00002)"><path id="circle4309-6" cx="408.571" cy="519.798" r="10" fill="url(#linearGradient4352)" fill-opacity="1" stroke="none" stroke-dasharray="none" stroke-linecap="round" stroke-linejoin="round" stroke-miterlimit="4" stroke-opacity="1" stroke-width="2" opacity="1"/><g id="g5462"><path id="rect5459" fill="#2a2a2a" fill-opacity="1" fill-rule="evenodd" stroke="none" stroke-dasharray="none" stroke-dashoffset="0" stroke-linecap="round" stroke-linejoin="miter" stroke-miterlimit="4" stroke-opacity="1" stroke-width="3" d="m 94.55645,662.31116 46.311,0 0.3,0.50383 0,0.82199 -46.911003,0 0,-0.8494 z" opacity="1"/><g id="g5445" transform="matrix(0.15590772,0,0,0.15590772,2.306184,574.43716)"><path id="rect5203" fill="url(#linearGradient5212)" fill-opacity="1" fill-rule="evenodd" stroke="none" stroke-dasharray="none" stroke-dashoffset="0" stroke-linecap="round" stroke-linejoin="miter" stroke-miterlimit="4" stroke-opacity="1" stroke-width="3" d="m 588.94957,310.33196 298.63015,0 31.84975,30.50885 0,75.55717 -360.339,0 0,-75.91072 z" opacity="1"/><path id="rect5181" fill="url(#linearGradient5190)" fill-opacity="1" fill-rule="evenodd" stroke="none" stroke-dasharray="none" stroke-dashoffset="0" stroke-linecap="round" stroke-linejoin="miter" stroke-miterlimit="4" stroke-opacity="1" stroke-width="3" d="m 919.62949,416.34827 0,74.73071 c 0,7.6452 -6.1548,13.8 -13.8,13.8 l -333.02448,0 c -7.64521,0 -13.80001,-6.1548 -13.80001,-13.8 l 0,-75.48071 z" opacity="1"/><path id="rect5229" fill="url(#linearGradient5238)" fill-opacity="1" fill-rule="evenodd" stroke="none" stroke-dasharray="none" stroke-dashoffset="0" stroke-linecap="round" stroke-linejoin="miter" stroke-miterlimit="4" stroke-opacity="1" stroke-width="3" d="m 629.20947,309.62056 220.41632,0 10,21.37742 0,38.72667 c 0,0 0.0574,15.55634 -15.55638,15.55634 l -209.30362,0 c 0,0 -15.05632,-0.61359 -15.55632,-14.84924 l 0,-39.68377 z" opacity="1"/><path id="rect5297" fill="url(#linearGradient5306)" fill-opacity="1" fill-rule="evenodd" stroke="none" stroke-dasharray="none" stroke-dashoffset="0" stroke-linecap="round" stroke-linejoin="miter" stroke-miterlimit="4" stroke-opacity="1" stroke-width="3" d="m 621.58398,443.13195 235.4665,0 c 9.79345,0 17.6777,7.88426 17.6777,17.6777 l 0,44.19433 -270.8219,0 0,-44.19433 c 0,-9.79344 7.88426,-17.6777 17.6777,-17.6777 z" opacity="1"/><path id="rect5273" fill="url(#linearGradient5284)" fill-opacity="1" fill-rule="evenodd" stroke="none" stroke-dasharray="none" stroke-dashoffset="0" stroke-linecap="round" stroke-linejoin="miter" stroke-miterlimit="4" stroke-opacity="1" stroke-width="3" d="m 638.45834,461.5169 205.06099,0 c 9.79343,0 17.67767,7.88424 17.67767,17.67767 l 0,25.80941 -240.41632,0 0,-25.80941 c 0,-9.79343 7.88424,-17.67767 17.67766,-17.67767 z" opacity="1"/><path id="rect5323" fill="url(#linearGradient5332)" fill-opacity="1" fill-rule="evenodd" stroke="none" stroke-dasharray="none" stroke-dashoffset="0" stroke-linecap="round" stroke-linejoin="miter" stroke-miterlimit="4" stroke-opacity="1" stroke-width="3" d="m 603.83585,504.87898 270.81488,0 15.97874,61.87185 -300.775,0 z" opacity="1"/><path id="rect5351" fill="url(#linearGradient5360)" fill-opacity="1" fill-rule="evenodd" stroke="none" stroke-dasharray="none" stroke-dashoffset="0" stroke-linecap="round" stroke-linejoin="miter" stroke-miterlimit="4" stroke-opacity="1" stroke-width="3" d="m 636.33246,461.51691 210.36427,0 10,89.80256 -230.36427,0 z" opacity="1"/><rect id="rect5373" width="243" height="61" x="616.571" y="248.998" fill="url(#linearGradient5381)" fill-opacity="1" fill-rule="evenodd" stroke="none" stroke-dasharray="none" stroke-dashoffset="0" stroke-linecap="round" stroke-linejoin="miter" stroke-miterlimit="4" stroke-opacity="1" stroke-width="3" opacity="1"/><rect id="rect5394" width="211.071" height="77.075" x="633.933" y="233.22" fill="url(#linearGradient5402)" fill-opacity="1" fill-rule="evenodd" stroke="none" stroke-dasharray="none" stroke-dashoffset="0" stroke-linecap="round" stroke-linejoin="miter" stroke-miterlimit="4" stroke-opacity="1" stroke-width="3" opacity="1"/><path id="rect5423" fill="#3b3b3b" fill-opacity="1" fill-rule="evenodd" stroke="none" stroke-dasharray="none" stroke-dashoffset="0" stroke-linecap="round" stroke-linejoin="miter" stroke-miterlimit="4" stroke-opacity="1" stroke-width="3" d="m 897.29645,369.54797 22.12492,0 0,14.75 -22.12492,0 c -4.08575,0 -7.375,-3.28925 -7.375,-7.375 0,-4.08575 3.28925,-7.375 7.375,-7.375 z" opacity="1"/><rect id="rect5443" width="19.982" height="8.958" x="895.29" y="372.54" fill="#d5d5d5" fill-opacity="1" fill-rule="evenodd" stroke="none" stroke-dasharray="none" stroke-dashoffset="0" stroke-linecap="round" stroke-linejoin="miter" stroke-miterlimit="4" stroke-opacity="1" stroke-width="3" opacity="1" ry="4.479"/></g></g><g id="g5478"><path id="path5480" fill="#2a2a2a" fill-opacity="1" fill-rule="evenodd" stroke="none" stroke-dasharray="none" stroke-dashoffset="0" stroke-linecap="round" stroke-linejoin="miter" stroke-miterlimit="4" stroke-opacity="1" stroke-width="3" d="m 94.55645,662.31116 46.311,0 0.3,0.50383 0,0.82199 -46.911003,0 0,-0.8494 z" opacity="1"/><g id="g5482" transform="matrix(0.15590772,0,0,0.15590772,2.306184,574.43716)"><path id="path5484" fill="url(#linearGradient5212)" fill-opacity="1" fill-rule="evenodd" stroke="none" stroke-dasharray="none" stroke-dashoffset="0" stroke-linecap="round" stroke-linejoin="miter" stroke-miterlimit="4" stroke-opacity="1" stroke-width="3" d="m 588.94957,310.33196 298.63015,0 31.84975,30.50885 c 0,25.18572 0,-0.94743 0,75.55717 l -360.339,0 0,-75.91072 z" opacity="1"/><path id="path5486" fill="url(#linearGradient5190)" fill-opacity="1" fill-rule="evenodd" stroke="none" stroke-dasharray="none" stroke-dashoffset="0" stroke-linecap="round" stroke-linejoin="miter" stroke-miterlimit="4" stroke-opacity="1" stroke-width="3" d="m 919.62949,416.34827 0,74.73071 c 0,7.6452 -6.1548,13.8 -13.8,13.8 l -333.02448,0 c -7.64521,0 -13.80001,-6.1548 -13.80001,-13.8 l 0,-75.48071 z" opacity="1"/><path id="path5490" fill="url(#linearGradient5238)" fill-opacity="1" fill-rule="evenodd" stroke="none" stroke-dasharray="none" stroke-dashoffset="0" stroke-linecap="round" stroke-linejoin="miter" stroke-miterlimit="4" stroke-opacity="1" stroke-width="3" d="m 629.20947,309.62056 220.41632,0 10,21.37742 0,38.72667 c 0,0 0.0574,15.55634 -15.55638,15.55634 l -209.30362,0 c 0,0 -15.05632,-0.61359 -15.55632,-14.84924 l 0,-39.68377 z" opacity="1"/><path id="path5492" fill="url(#linearGradient5306)" fill-opacity="1" fill-rule="evenodd" stroke="none" stroke-dasharray="none" stroke-dashoffset="0" stroke-linecap="round" stroke-linejoin="miter" stroke-miterlimit="4" stroke-opacity="1" stroke-width="3" d="m 621.58398,443.13195 235.4665,0 c 9.79345,0 17.6777,7.88426 17.6777,17.6777 l 0,44.19433 -270.8219,0 0,-44.19433 c 0,-9.79344 7.88426,-17.6777 17.6777,-17.6777 z" opacity="1"/><path id="path5494" fill="url(#linearGradient5284)" fill-opacity="1" fill-rule="evenodd" stroke="none" stroke-dasharray="none" stroke-dashoffset="0" stroke-linecap="round" stroke-linejoin="miter" stroke-miterlimit="4" stroke-opacity="1" stroke-width="3" d="m 638.45834,461.5169 205.06099,0 c 9.79343,0 17.67767,7.88424 17.67767,17.67767 l 0,25.80941 -240.41632,0 0,-25.80941 c 0,-9.79343 7.88424,-17.67767 17.67766,-17.67767 z" opacity="1"/><path id="path5496" fill="url(#linearGradient5332)" fill-opacity="1" fill-rule="evenodd" stroke="none" stroke-dasharray="none" stroke-dashoffset="0" stroke-linecap="round" stroke-linejoin="miter" stroke-miterlimit="4" stroke-opacity="1" stroke-width="3" d="m 603.83585,504.87898 270.81488,0 15.97874,61.87185 -300.775,0 z" opacity="1"/><path id="path5498" fill="url(#linearGradient5360)" fill-opacity="1" fill-rule="evenodd" stroke="none" stroke-dasharray="none" stroke-dashoffset="0" stroke-linecap="round" stroke-linejoin="miter" stroke-miterlimit="4" stroke-opacity="1" stroke-width="3" d="m 636.33246,461.51691 210.36427,0 10,89.80256 -230.36427,0 z" opacity="1"/><rect id="rect5500" width="243" height="61" x="616.571" y="248.998" fill="url(#linearGradient5381)" fill-opacity="1" fill-rule="evenodd" stroke="none" stroke-dasharray="none" stroke-dashoffset="0" stroke-linecap="round" stroke-linejoin="miter" stroke-miterlimit="4" stroke-opacity="1" stroke-width="3" opacity="1"/><rect id="rect5502" width="211.071" height="77.075" x="633.933" y="233.22" fill="url(#linearGradient5402)" fill-opacity="1" fill-rule="evenodd" stroke="none" stroke-dasharray="none" stroke-dashoffset="0" stroke-linecap="round" stroke-linejoin="miter" stroke-miterlimit="4" stroke-opacity="1" stroke-width="3" opacity="1"/><path id="path5504" fill="#3b3b3b" fill-opacity="1" fill-rule="evenodd" stroke="none" stroke-dasharray="none" stroke-dashoffset="0" stroke-linecap="round" stroke-linejoin="miter" stroke-miterlimit="4" stroke-opacity="1" stroke-width="3" d="m 897.29645,369.54797 22.12492,0 0,14.75 -22.12492,0 c -4.08575,0 -7.375,-3.28925 -7.375,-7.375 0,-4.08575 3.28925,-7.375 7.375,-7.375 z" opacity="1"/><rect id="rect5506" width="19.982" height="8.958" x="895.29" y="372.54" fill="#d5d5d5" fill-opacity="1" fill-rule="evenodd" stroke="none" stroke-dasharray="none" stroke-dashoffset="0" stroke-linecap="round" stroke-linejoin="miter" stroke-miterlimit="4" stroke-opacity="1" stroke-width="3" opacity="1" ry="4.479"/></g></g></g></g></svg>