<svg xmlns="http://www.w3.org/2000/svg" xmlns:xlink="http://www.w3.org/1999/xlink" width="48" height="48" viewBox="0 0 48 48"><linearGradient id="a" x1="42.683" x2="741.21" y1="976.725" y2="416.402" gradientUnits="userSpaceOnUse"><stop offset="0" stop-color="#2980b9"/><stop offset="1" stop-color="#ba174e" stop-opacity=".996"/></linearGradient><g transform="matrix(.09787234 0 0 .09787234 -1.055319 -54.71465)"><rect width="449.565" height="347.391" x="31.217" y="630.563" fill="url(#a)" rx="19.437"/><path d="m323.24048 912.32949h-30.75068v32.69327h30.75068zm-46.126 0h-30.75068v32.69327h30.75068zm-46.12602 0h-30.75068v32.69327h30.75068z" opacity=".3"/><path fill="#fff" d="m317.50135 906.59037h-30.75068v32.69325h30.75068zm-46.126 0h-30.75068v32.69325h30.75068zm-46.12602 0h-30.75068v32.69325h30.75068z"/><path d="m31.217391 920.76005v38.87018c0 7.13491 6.755377 18.32467 19.43682 18.32467h410.691579c11.07043 0 19.43682-8.33413 19.43682-19.95143v-37.24342c0 19.92045-8.66872 35.96062-19.43682 35.96062h-410.691579c-10.7681 0-19.43682-16.04017-19.43682-35.96062z" opacity=".3"/><path fill="#fff" d="m50.654211 630.56187c-11.129491 0-19.43682 8.09026-19.43682 20.88783v13.4641c0-13.65425 8.66872-24.64878 19.43682-24.64878h410.691579c10.7681 0 19.43682 10.99453 19.43682 24.64878v-14.26442c0-13.65423-8.66872-20.08751-19.43682-20.08751z" opacity=".3"/></g></svg>