<svg xmlns="http://www.w3.org/2000/svg" xmlns:xlink="http://www.w3.org/1999/xlink" viewBox="0 0 48 48"><linearGradient id="a" x1="471.348" x2="471.348" y1="468.462" y2="429.462" gradientUnits="userSpaceOnUse"><stop offset="0" stop-color="#3889e9"/><stop offset="1" stop-color="#5ea5fb"/></linearGradient><linearGradient id="b" x1="473.387" x2="473.146" y1="469.447" y2="429.046" gradientUnits="userSpaceOnUse"><stop offset="0" stop-color="#404552"/><stop offset="1" stop-color="#4d4d4d"/></linearGradient><linearGradient id="c" x1="486.794" x2="486.794" y1="448.508" y2="442.652" gradientUnits="userSpaceOnUse"><stop offset="0" stop-color="#5894db"/><stop offset="1" stop-color="#669fe7"/></linearGradient><linearGradient id="d" x1="471.007" x2="471.303" y1="452.659" y2="440.651" gradientUnits="userSpaceOnUse"><stop offset="0" stop-color="#5894db"/><stop offset="1" stop-color="#80b3ff"/></linearGradient><g transform="matrix(1.0931221 0 0 1.0931221 -492.531184 -466.636039)"><circle cx="472.741" cy="448.962" r="0" fill="url(#a)"/><circle cx="472.528" cy="448.839" r="20.126" fill="url(#b)"/><path fill="url(#c)" stroke-width=".839" d="m485.93411 448.35936c0-1.01432.12969-1.03415.75542-1.42091.71528-.44206.72189-.61142-.11442-.89823-.4982-.17087-.7305-.31872-1.08158-1.53471.44058 3.85385 0 0 .44058 3.85385z"/><path fill="#fff" stroke-width=".839" d="m477.18638 438.84181c-1.47582-.0513-3.16385.19044-4.15849.65517-4.07981 1.70025-6.13515 8.86924-10.44781 8.44964-1.50058-.17772-2.66459-.96201-3.55576-2.39617-1.40074.44922-1.20629 3.88574-.3374 5.67186 3.49527 7.18497 9.98291 10.28839 17.31202 8.53317 5.66571-1.69446 9.44505-5.9881 9.93517-11.39612.22698-1.73697.18999-2.10804-.44058-3.85385-1.92617-3.87292-5.20934-5.53785-8.30715-5.6637zm2.13411 3.92427c.6947 0 1.25787.56317 1.25787 1.25787s-.56317 1.25786-1.25787 1.25786-1.25786-.56316-1.25786-1.25786.56316-1.25787 1.25786-1.25787zm.42748.50118c-.23157 0-.41929.18773-.41929.41929 0 .23157.18772.41929.41929.41929s.41929-.18772.41929-.41929c0-.23156-.18772-.41929-.41929-.41929z"/><path fill="url(#d)" stroke-width=".917" d="m468.6518 453.01226c-.95126-.0902-3.13719-.54421-3.75742-.78041l-.54097-.20601 1.49679-.72835c1.25118-.60883 1.63508-.90807 2.33957-1.82362.93133-1.21032 1.76487-1.61497 2.89137-1.40363.87769.16465 1.80461 1.16712 1.91153 2.06736.10429.87804-.49802 2.01575-1.30831 2.4713-.57832.32514-1.94305.50666-3.03256.40336z"/></g></svg>