<svg xmlns="http://www.w3.org/2000/svg" xmlns:xlink="http://www.w3.org/1999/xlink" width="48" height="48"><linearGradient id="a" x1="399.571" x2="399.571" y1="545.798" y2="517.798" gradientUnits="userSpaceOnUse"><stop offset="0" stop-color="#3889e9"/><stop offset="1" stop-color="#5ea5fb"/></linearGradient><linearGradient id="b" x1="399.994" x2="399.994" y1="545.139" y2="518.139" gradientUnits="userSpaceOnUse"><stop offset="0" stop-color="#4469b9"/><stop offset="1" stop-color="#5d91ff"/></linearGradient><g stroke-width="1.3" transform="matrix(1.571433279788 0 0 1.571433279788 -605.471198616592 -811.684938439713)"><circle cx="400.571" cy="531.798" r="14" fill="url(#b)"/><circle cx="400.571" cy="531.798" r="0" fill="url(#a)"/></g><path fill-opacity=".235" stroke="#eaeff9" stroke-width="1.428" d="m488.74468 507.9142a9.6458426 9.6458426 0 0 0 -9.35125 7.31488 9.6458426 9.6458426 0 0 0 -7.30974 9.34612v9.64584h9.64584a9.6458426 9.6458426 0 0 0 9.35126-7.31488 9.6458426 9.6458426 0 0 0 7.30974-9.34612v-9.64584zm0 1.37872h8.26713v8.26712a8.2678703 8.2678703 0 0 1 -5.67754 7.84068 9.6458426 9.6458426 0 0 0 .0411-.82552 9.6458426 9.6458426 0 0 0 -9.64584-9.64584 9.6458426 9.6458426 0 0 0 -.83066.0411 8.2678703 8.2678703 0 0 1 7.84581-5.67755zm-7.01515 7.01515a8.2678703 8.2678703 0 0 1 8.26713 8.26713 8.2678703 8.2678703 0 0 1 -.0925 1.1612 8.2678703 8.2678703 0 0 1 -1.15949.0908 8.2678703 8.2678703 0 0 1 -8.26712-8.26713 8.2678703 8.2678703 0 0 1 .0925-1.1612 8.2678703 8.2678703 0 0 1 1.15949-.0908zm-2.58957.42646a9.6458426 9.6458426 0 0 0 -.0411.82551 9.6458426 9.6458426 0 0 0 9.64585 9.64585 9.6458426 9.6458426 0 0 0 .83065-.0411 8.2678703 8.2678703 0 0 1 -7.84581 5.67755h-8.26712v-8.26713a8.2678703 8.2678703 0 0 1 5.67754-7.84067z" transform="matrix(.865323407632 0 0 .865323407632 -395.887026326241 -426.892012493324)"/></svg>