<svg xmlns="http://www.w3.org/2000/svg" xmlns:xlink="http://www.w3.org/1999/xlink" width="48" height="48" viewBox="0 0 48 48"><filter id="a" width="1.056" height="1.099" x="-.028" y="-.05" color-interpolation-filters="sRGB"><feGaussianBlur stdDeviation="5.9"/></filter><linearGradient id="b" x1="13.921" x2="13.525" y1="39.852" y2="8.305" gradientUnits="userSpaceOnUse"><stop offset="0" stop-color="#197cf1"/><stop offset="1" stop-color="#20bcfa"/></linearGradient><linearGradient id="c"><stop offset="0" stop-color="#ccc"/><stop offset="1" stop-color="#e6e6e6"/></linearGradient><linearGradient id="d" x1="22.099" x2="22.004" y1="39.568" y2="11.944" gradientUnits="userSpaceOnUse" xlink:href="#c"/><linearGradient id="e" x1="-33.889" x2="-34.502" y1="37.609" y2="2.823" gradientTransform="matrix(.82970355 0 0 .87402304 44.868948 7.045139)" gradientUnits="userSpaceOnUse"><stop offset="0" stop-color="#ccc"/><stop offset="1" stop-color="#f5f2f5"/></linearGradient><linearGradient id="f" x1="-27.458" x2="-26.624" y1="36.069" y2="3.758" gradientTransform="matrix(.85071011 0 0 .87172595 45.339098 8.461861)" gradientUnits="userSpaceOnUse"><stop offset="0" stop-color="#2a97ff"/><stop offset="1" stop-color="#20bcfa"/></linearGradient><linearGradient id="g" x1="18.025" x2="17.594" y1="39.754" y2="9.648" gradientUnits="userSpaceOnUse" xlink:href="#c"/><path fill="url(#d)" d="m6.5439662 11.656278c-.7351528 0-1.3263212.592871-1.3263212 1.328021v25.543597c0 .735152.5911684 1.328023 1.3263212 1.328023h17.2064738 1.205593 17.206474c.735152 0 1.326322-.592871 1.326322-1.328023v-25.543597c0-.73515-.59117-1.328021-1.326322-1.328021h-17.206474-1.205593z"/><path fill="url(#b)" d="m18.474468 8.0205511c-.102628-.00269-.226588.00157-.387735.00157h-12.1689132c-.3815126 0-.6891325.3097891-.6891325.6938416v4.2289813c-.0005648.016-.00471.03095-.00471.04709v25.576381c0 .736091.5935103 1.329602 1.3296009 1.329602h35.6983098c.736093 0 1.328033-.593511 1.328033-1.329602v-25.576378c0-.736092-.59194-1.329602-1.328033-1.329602h-21.316008c-.01268-.0169-.02114-.02595-.03454-.04395-.491861-.662668-1.234682-2.4492081-1.718902-3.0956048-.2915-.4244578-.400085-.4942592-.707971-.5023288z"/><path fill="url(#g)" d="m7.499159 9.4566879h9.738435c.277 0 .5.223.5.5v1.1090001c0 .277-.223.5-.5.5h-9.738435c-.2770001 0-.5-.223-.5-.5v-1.1090001c0-.277.2229999-.5.5-.5z"/><path fill="url(#e)" d="m5.5804566 12.850769c-.6383882 0-1.1951591.543892-1.1517441 1.21482l1.5120334 23.366264c.043421.670931.5133569 1.214822 1.1517441 1.214822h14.94167 4.377195 14.941671c.638388 0 1.108331-.543891 1.151746-1.214822l1.512033-23.366264c.0434-.670928-.513358-1.21482-1.151744-1.21482h-16.453706-4.377195z"/><path fill-rule="evenodd" d="m28.241425 148.07206c-12.87594 0-23.24141 9.6069-23.24141 21.54052l16 244.76159v7.4003c0 6.06398 5.26673 10.94526 11.80953 10.94526h446.379045c6.54281 0 11.81139-4.88128 11.81139-10.94526l15.998-252.16189c0-11.93362-10.36547-21.54052-23.24141-21.54052h-455.515295z" filter="url(#a)" opacity=".3" transform="matrix(.07561882 0 0 .07969348 4.839513 2.856494)"/><path fill="url(#f)" d="m5.1236901 14.591215c-.6545516 0-1.2143558.541818-1.1809047 1.211627l1.1469427 22.96587c.033451.669811.526354 1.211629 1.1809047 1.211629h15.6555402 4.488019l16.039057-.04794c.654549-.002 1.154618-.541498 1.180906-1.211629l.89902-22.917931c.02629-.670129-.526354-1.211627-1.180904-1.211627h-16.870282-4.488019z"/><g fill="#fff" stroke="#fff" stroke-width="26.218" opacity=".99"><path fill="#fff" stroke="#fff" stroke-width="26.218" d="m587.572 186.881c-32.266-75.225-87.096-129.934-162.949-162.285-37.912-16.169-77.631-24.428-119.126-24.428-41.488 0-80.914 8.181-118.784 24.428-75.225 32.265-130.298 86.939-162.621 162.285-16.197 37.748-24.092 77.295-24.092 118.783 0 41.496 7.895 81.371 24.092 119.127 32.323 75.346 87.403 130.348 162.621 162.621 37.877 16.247 77.295 24.42 118.784 24.42s81.214-8.259 119.12-24.42c75.853-32.352 130.683-87.403 162.956-162.621 16.246-37.877 24.427-77.631 24.427-119.127 0-41.488-8.174-80.907-24.428-118.783zm-48.848 253.972c-24.021 41.195-56.929 73.876-98.375 98.039-41.195 24.021-86.332 36.135-134.845 36.135-36.47 0-71.27-7.024-104.4-21.415-33.129-14.384-61.733-33.294-85.661-57.215-23.928-23.928-42.973-52.811-57.214-85.997-14.199-33.065-21.08-68.258-21.08-104.735 0-48.52 11.921-93.428 35.807-134.509 23.971-41.231 56.886-73.947 98.039-98.04 41.146-24.092 85.99-36.142 134.502-36.142 48.52 0 93.649 12.121 134.845 36.142 41.446 24.164 74.283 56.879 98.375 98.039 24.092 41.153 36.135 85.99 36.135 134.509 0 48.521-11.964 93.735-36.128 135.189z" transform="matrix(.02506992 0 0 .02508299 16.566322 19.610383)"/><path fill="#fff" stroke="#fff" stroke-width="26.218" d="m324.906 302.988v-173.329c0-10.372-9.037-18.738-19.41-18.738-9.701 0-18.403 8.366-18.403 18.738v176.005c0 .336.671 1.678.671 2.678-.671 6.024 1.007 11.043 5.019 15.062l100.053 100.046c6.695 6.695 19.073 6.695 25.763 0 7.694-7.695 7.188-18.86 0-26.099z" transform="matrix(.02506992 0 0 .02508299 16.566322 19.610383)"/></g></svg>