<svg xmlns="http://www.w3.org/2000/svg" viewBox="0 0 22 22"><defs id="defs3051"><style id="current-color-scheme" type="text/css">.ColorScheme-Text{color:#f2f2f2}</style></defs><path fill="currentColor" fill-opacity="1" stroke="none" d="m 12,1034.3622 h 0.5 c 0.277,0 0.5,0.223 0.5,0.5 v 15 c 0,0.277 -0.223,0.5 -0.5,0.5 H 12 c -0.277,0 -0.5,-0.223 -0.5,-0.5 v -15 c 0,-0.277 0.223,-0.5 0.5,-0.5 z" class="ColorScheme-Text" transform="matrix(1 0 0 -1 1 1053.3622)"/><path fill="currentColor" fill-opacity="1" stroke="none" d="m 2.5,1034.3622 h 7 c 0.277,0 0.5,0.223 0.5,0.5 v 5 c 0,0.277 -0.223,0.5 -0.5,0.5 h -7 c -0.277,0 -0.5,-0.223 -0.5,-0.5 v -5 c 0,-0.277 0.223,-0.5 0.5,-0.5 z" class="ColorScheme-Text" transform="matrix(1 0 0 -1 1 1053.3622)"/><path fill="currentColor" fill-opacity="1" stroke="none" d="m 2.5,1044.3622 h 5 c 0.277,0 0.5,0.223 0.5,0.5 v 5 c 0,0.277 -0.223,0.5 -0.5,0.5 h -5 c -0.277,0 -0.5,-0.223 -0.5,-0.5 v -5 c 0,-0.277 0.223,-0.5 0.5,-0.5 z" class="ColorScheme-Text" transform="matrix(1 0 0 -1 1 1053.3622)"/><path fill="currentColor" fill-opacity="1" stroke="none" d="m 15.5,1044.3622 h 2 c 0.277,0 0.5,0.223 0.5,0.5 v 5 c 0,0.277 -0.223,0.5 -0.5,0.5 h -2 c -0.277,0 -0.5,-0.223 -0.5,-0.5 v -5 c 0,-0.277 0.223,-0.5 0.5,-0.5 z" class="ColorScheme-Text" transform="matrix(1 0 0 -1 1 1053.3622)"/></svg>