<svg xmlns="http://www.w3.org/2000/svg" viewBox="0 0 22 22"><defs id="defs3051"><style id="current-color-scheme" type="text/css">.ColorScheme-Text{color:#f2f2f2}</style></defs><path fill="currentColor" fill-opacity=".8" stroke="none" d="m14 9a4.9999981 4.9999981 0 0 0 -5 5 4.9999981 4.9999981 0 0 0 5 5 4.9999981 4.9999981 0 0 0 5-5 4.9999981 4.9999981 0 0 0 -5-5z" class="ColorScheme-Text"/><path fill="currentColor" fill-opacity=".4" stroke="none" d="m8 9a4.9999981 4.9999981 0 0 0 -5 5 4.9999981 4.9999981 0 0 0 5 5 4.9999981 4.9999981 0 0 0 5-5 4.9999981 4.9999981 0 0 0 -5-5z" class="ColorScheme-Text"/><path fill="currentColor" fill-opacity=".6" stroke="none" d="m11 3a4.9999981 4.9999981 0 0 0 -5 5 4.9999981 4.9999981 0 0 0 5 5 4.9999981 4.9999981 0 0 0 5-5 4.9999981 4.9999981 0 0 0 -5-5z" class="ColorScheme-Text"/></svg>