<svg xmlns="http://www.w3.org/2000/svg" xmlns:xlink="http://www.w3.org/1999/xlink" viewBox="0 0 22 22"><linearGradient id="a" x1="10.097" x2="10.097" y1="1050.001" y2="1034.531" gradientUnits="userSpaceOnUse"><stop offset="0" stop-color="#1d99f3"/><stop offset="1" stop-color="#c0dcf0"/></linearGradient><rect width="15.226" height="15.226" x="2.387" y="1034.749" fill="url(#a)" fill-rule="evenodd" ry=".483" transform="translate(1 -1031.3622)"/><path fill="#f2f2f2" d="m2.8710938 1034.3613c-.4754035 0-.8710938.3957-.8710938.8711v14.2598c0 .4754.3956903.8691.8710938.8691h14.2578122c.475404 0 .871094-.3937.871094-.8691v-14.2598c0-.4754-.39569-.8711-.871094-.8711zm0 .7735h14.2578122c.06026 0 .09766.037.09766.098v14.2598c0 .06-.0374.096-.09766.096h-14.2578122c-.060256 0-.097656-.035-.097656-.096v-14.2598c0-.06.0374-.098.097656-.098z" transform="translate(1 -1031.3622)"/></svg>