<svg xmlns="http://www.w3.org/2000/svg" xmlns:svg="http://www.w3.org/2000/svg" id="svg2" version="1.1" viewBox="0 0 16 16"><metadata id="metadata10"/><defs id="defs3051"><style id="current-color-scheme" type="text/css"/><style id="current-color-scheme-3" type="text/css"/><style id="current-color-scheme-7" type="text/css"/></defs><g id="g3205" fill="#f2f2f2" fill-opacity="1" transform="matrix(0.75,0,0,0.75,-0.25,-0.25)"><path id="path3233" fill="#f2f2f2" fill-opacity="1" stroke="none" d="M 7,3 C 6.4482907,3 6,3.4482577 6,4 l 0,2 1,0 0,-2 8,0 0,2 1,0 0,-2 C 16,3.4482577 15.552831,3 15,3 L 7,3 Z"/><path id="path3231" fill="#f2f2f2" fill-opacity="1" stroke="none" d="M 4,7 C 3.4482907,7 3,7.4482247 3,8 l 0,5 c 0,0.552798 0.4482577,1 1,1 l 2,0 0,4 c 0,0.552798 0.4482577,1 1,1 l 8,0 c 0.552831,0 1,-0.447202 1,-1 l 0,-4 2,0 c 0.552633,0 1,-0.447202 1,-1 L 19,8 C 19,7.4482247 18.5526,7 18,7 L 4,7 Z m 13,1 c 0.552831,0 1,0.4482577 1,1 3.3e-5,0.5527316 -0.447169,1 -1,1 -0.552798,0 -1,-0.4472354 -1,-1 0,-0.5517094 0.447202,-1 1,-1 z m -10,5 8,0 0,5 -8,0 0,-5 z"/></g></svg>