<svg xmlns="http://www.w3.org/2000/svg" xmlns:svg="http://www.w3.org/2000/svg" id="svg6" version="1.1" viewBox="0 0 16 16"><metadata id="metadata10"/><defs id="defs3051"><style id="current-color-scheme" type="text/css">.ColorScheme-Text{color:#4d4d4d}</style></defs><path id="path4" fill="#bebebe" fill-opacity="1" stroke="none" stroke-width=".75" d="M 3.6363631,2 A 0.54545455,0.54545455 0 0 0 3.0909086,2.5454545 V 4.727273 A 0.54545455,0.54545455 0 0 0 3.6363631,5.272727 H 12.363636 A 0.54545455,0.54545455 0 0 0 12.909091,4.727273 V 2.5454545 A 0.54545455,0.54545455 0 0 0 12.363636,2 Z M 4.1818177,3.0909091 H 5.2727268 V 4.1818182 H 4.1818177 Z m 2.1818182,0 H 6.9090904 V 4.1818182 H 6.3636359 Z M 3.6363631,6.3636365 A 0.54545455,0.54545455 0 0 0 3.0909086,6.9090913 V 9.090909 A 0.54545455,0.54545455 0 0 0 3.6363631,9.636364 H 12.363636 A 0.54545455,0.54545455 0 0 0 12.909091,9.090909 V 6.9090913 A 0.54545455,0.54545455 0 0 0 12.363636,6.3636365 Z M 4.1818177,7.4545453 H 5.2727268 V 8.545455 H 4.1818177 Z m 2.1818182,0 H 6.9090904 V 8.545455 H 6.3636359 Z M 3.6363631,10.727273 a 0.54545455,0.54545455 0 0 0 -0.5454545,0.545454 v 2.181818 A 0.54545455,0.54545455 0 0 0 3.6363631,14 h 8.7272729 a 0.54545455,0.54545455 0 0 0 0.545455,-0.545455 v -2.181818 a 0.54545455,0.54545455 0 0 0 -0.545455,-0.545454 z m 0.5454546,1.090909 h 1.0909091 v 1.090909 H 4.1818177 Z m 2.1818182,0 h 0.5454545 v 1.090909 H 6.3636359 Z" class="ColorScheme-Text" color="#4d4d4d"/></svg>