<svg xmlns="http://www.w3.org/2000/svg" xmlns:svg="http://www.w3.org/2000/svg" id="svg6" version="1.1" viewBox="0 0 16 16"><metadata id="metadata10"/><defs id="defs3051"><style id="current-color-scheme" type="text/css">.ColorScheme-Text{color:#4d4d4d}</style></defs><path id="path4" fill="#bebebe" fill-opacity="1" stroke="none" stroke-width=".923" d="m 10.307692,2.0000001 c -0.5113935,0 -0.9230766,0.4116831 -0.9230766,0.9230769 v 1.8461539 c 0,0.5113939 0.4116831,0.9230769 0.9230766,0.9230769 h 0.432693 C 9.9060338,8.0524863 8.0524862,9.906034 5.6923077,10.740385 v -0.432693 c 0,-0.5113842 -0.4116923,-0.9230765 -0.9230769,-0.9230765 H 2.9230769 C 2.4116923,9.3846155 2,9.7963078 2,10.307692 v 1.846154 0.923077 C 2,13.588308 2.3913108,14 2.8942308,14 h 0.028846 C 9.03092,14 13.984215,9.0560555 14,2.9519232 V 2.8942309 C 14,2.3941447 13.59872,2.0000001 13.105769,2.0000001 h -0.02885 -0.02885 -0.894231 -0.923077 z" class="ColorScheme-Text" color="#4d4d4d"/></svg>