<svg xmlns="http://www.w3.org/2000/svg" xmlns:svg="http://www.w3.org/2000/svg" id="svg6" version="1.1" viewBox="0 0 16 16"><metadata id="metadata10"/><defs id="defs3051"><style id="current-color-scheme" type="text/css"/><filter id="filter7554" color-interpolation-filters="sRGB"><feBlend id="feBlend7556" in2="BackgroundImage" mode="darken"/></filter></defs><g id="g4539" transform="matrix(1.0834067,0,0,1.0834067,13.158255,-0.45685759)"><g id="g4543"><path id="path841-6" fill="#bebebe" fill-opacity=".667" stroke-width=".709" d="m -7.4316406,3.34375 v 8.794922 c -6e-6,0.172483 0.20128,0.310547 0.453125,0.310547 h 4.4335937 c 0.251844,0 0.453125,-0.138064 0.453125,-0.310547 l 0.00195,-8.794922 z m 1.2304687,0.4648438 c 0.4142136,0 0.75,0.3357864 0.75,0.75 0,0.4142136 -0.3357864,0.75 -0.75,0.75 -0.4142136,0 -0.75,-0.3357864 -0.75,-0.75 0,-0.4142136 0.3357864,-0.75 0.75,-0.75 z m 2.3868964,0.5174956 -1.2460938,2.9414063 2.0800781,1.1035156 v 0.017578 L -5.8943536,11.562418 -4.6482599,8.6210113 -6.7302912,7.5155425 Z" enable-background="new"/><path id="path854-3" fill="#bebebe" fill-opacity="1" stroke-width=".857" d="m -8.2709101,12.82631 c 0,0.285873 0.232549,0.517578 0.517578,0.517578 h 5.984377 c 0.286305,0 0.517577,-0.231705 0.517577,-0.517578 V 2.7852929 c 0,-0.28628 -0.231702,-0.517578 -0.517577,-0.517578 -5.984377,0 0,0 -5.984377,0 -0.285029,0 -0.517578,0.231275 -0.517578,0.517578 z m 0.839843,-0.830078 V 3.8868559 c 0,-0.251831 0.201294,-0.457033 0.453125,-0.457032 h 4.433595 c 0.251829,0 0.453125,0.205201 0.453125,0.457032 v 8.1093761 c 0,0.251831 -0.201296,0.453124 -0.453125,0.453125 h -4.433595 c -0.251831,0 -0.453125,-0.201294 -0.453125,-0.453125 z" enable-background="new"/></g></g></svg>