<svg xmlns="http://www.w3.org/2000/svg" xmlns:svg="http://www.w3.org/2000/svg" id="svg12" version="1.1" viewBox="0 0 16 16"><metadata id="metadata18"/><path id="path847" fill="#bebebe" fill-opacity="1" stroke-width=".583" d="M 13.853268,10.976698 V 5.1433645 H 4.5199346 v 5.8333335 h 9.3333334 m 0,-7.0000002 a 1.1666667,1.1666667 0 0 1 1.166666,1.1666667 v 5.8333335 c 0,0.6475 -0.524999,1.166666 -1.166666,1.166666 h -3.5 v 1.166668 h 1.166667 v 1.166666 H 6.853268 v -1.166666 h 1.1666666 v -1.166668 h -3.5 c -0.6475,0 -1.1666666,-0.519166 -1.1666666,-1.166666 V 5.1433645 A 1.1666667,1.1666667 0 0 1 4.5199346,3.9766978 H 13.853268 M 2.1866014,2.8100312 V 9.810031 H 1.0199344 V 2.8100312 A 1.1666667,1.1666667 0 0 1 2.1866014,1.6433645 H 12.686601 v 1.1666667 z"/></svg>