<svg xmlns="http://www.w3.org/2000/svg" xmlns:osb="http://www.openswatchbook.org/uri/2009/osb" xmlns:svg="http://www.w3.org/2000/svg" id="svg7384" width="16" height="16" enable-background="new" version="1.1"><metadata id="metadata90"/><title id="title8473">Paper Symbolic Icon Theme</title><defs id="defs7386"><linearGradient id="linearGradient5606" osb:paint="solid"><stop id="stop5608" offset="0" stop-color="#000" stop-opacity="1"/></linearGradient><filter id="filter7554" color-interpolation-filters="sRGB"><feBlend id="feBlend7556" in2="BackgroundImage" mode="darken"/></filter></defs><g id="layer9" display="inline" transform="translate(-445.0004,435.00336)"><path id="path10910" fill="#f2f2f2" fill-opacity="1" stroke="none" stroke-dasharray="none" stroke-miterlimit="4" stroke-opacity="1" stroke-width="31" d="m 449.5004,-431 c -2.48528,0 -4.5,2.01472 -4.5,4.5 0,2.48528 2.01472,4.5 4.5,4.5 1.90471,-0.003 3.60143,-1.20422 4.23633,-3 l 3.26367,-0.004 0,2 3,0 0,-2.00391 1,0.004 0,-3 -7.26367,0.004 c -0.6349,-1.79578 -2.33162,-2.99733 -4.23633,-3 z m 0,3 c 0.82843,0 1.5,0.67157 1.5,1.5 0,0.82843 -0.67157,1.5 -1.5,1.5 -0.82843,0 -1.5,-0.67157 -1.5,-1.5 0,-0.82843 0.67157,-1.5 1.5,-1.5 z" display="inline" enable-background="new" opacity="1"/></g></svg>