<svg xmlns="http://www.w3.org/2000/svg" xmlns:svg="http://www.w3.org/2000/svg" id="svg7384" width="16" height="16" enable-background="new" version="1.1"><metadata id="metadata90"/><title id="title8473">Paper Symbolic Icon Theme</title><defs id="defs7386"><filter id="filter7554" color-interpolation-filters="sRGB"><feBlend id="feBlend7556" in2="BackgroundImage" mode="darken"/></filter></defs><g id="g4250" fill="#fff" fill-opacity="1" transform="matrix(0.52112417,0,0,0.52112417,20.767536,5.3452696)"><path id="path7-4-0-7-3-8-0-1-9-3" fill="#d33636" fill-opacity="1" d="m -12.22523,0.87170715 -0.909758,0 0,-2.47448235 c 0,-0.6381117 -0.518742,-1.1587503 -1.1597,-1.1587503 l -22.479049,0 c -0.64,0 -1.15875,0.5206386 -1.15875,1.1587503 l 0,13.3940252 c 0,0.640964 0.51875,1.158751 1.15875,1.158751 l 22.479049,0 c 0.640908,0 1.158739,-0.518751 1.158739,-1.158751 l 0,-2.3767664 0.909709,0 c 0.64093,0 1.15875,-0.5159432 1.15875,-1.1587508 l 0,-6.2243097 c 10e-4,-0.640921 -0.516819,-1.15971595 -1.15774,-1.15971595 z"/></g></svg>