<svg xmlns="http://www.w3.org/2000/svg" xmlns:svg="http://www.w3.org/2000/svg" xmlns:xlink="http://www.w3.org/1999/xlink" id="svg3815" width="24" height="24" version="1.1"><defs id="defs12"><linearGradient id="linearGradient2398" x1="14" x2="14" y1="3" y2="21" gradientTransform="translate(-1.0001235,-5)" gradientUnits="userSpaceOnUse" xlink:href="#linearGradient3587-6-5-3"/><linearGradient id="linearGradient3587-6-5-3"><stop id="stop3589-9-2-0" offset="0" stop-color="#000" stop-opacity="1"/><stop id="stop3591-7-4-7" offset="1" stop-color="#363636" stop-opacity="1"/></linearGradient><linearGradient id="linearGradient2395" x1="66.097" x2="66.097" y1="9.364" y2="27.364" gradientTransform="translate(-52.096803,-11.363826)" gradientUnits="userSpaceOnUse" xlink:href="#linearGradient3587-6-5-3"/><linearGradient id="linearGradient7390" x1="4.955" x2="4.955" y1="2.684" y2="13.496" gradientUnits="userSpaceOnUse" xlink:href="#linearGradient3587-6-5-3"/><linearGradient id="linearGradient7392" x1="7.911" x2="7.911" y1="4.576" y2="11.649" gradientUnits="userSpaceOnUse" xlink:href="#linearGradient3587-6-5-3"/><linearGradient id="linearGradient7394" x1="10.187" x2="10.187" y1="2.774" y2="13.317" gradientUnits="userSpaceOnUse" xlink:href="#linearGradient3587-6-5-3"/><linearGradient id="linearGradient7396" x1="13.917" x2="13.917" y1=".882" y2="15.183" gradientUnits="userSpaceOnUse" xlink:href="#linearGradient3587-6-5-3"/><linearGradient id="linearGradient5263"><stop id="stop5265" offset="0" stop-color="#a0d5ff" stop-opacity="1"/><stop id="stop5267" offset="1" stop-color="#a0d5ff" stop-opacity="1"/></linearGradient></defs><metadata id="metadata3820"/><g id="g4189" fill="#000" fill-opacity="1" transform="translate(1.137745,0.2)"><g id="g3" fill="#4d4d4d" fill-opacity="1" transform="matrix(0.15,0,0,0.15,0.7,5.8)"><path id="path5-4" fill="#4d4d4d" fill-opacity="1" d="m 64,48 0,0 -8,0 0,-16 8,0 C 72.836,32 80,24.836 80,16 80,7.164 72.836,0 64,0 55.163,0 48,7.164 48,16 l 0,8 -16,0 0,-8 C 32,7.164 24.836,0 16,0 7.164,0 0,7.164 0,16 0,24.836 7.164,32 16,32 l 8,0 0,16 -8,0 0,0 0,0 C 7.164,48 0,55.164 0,64 c 0,8.836 7.164,16 16,16 8.837,0 16,-7.164 16,-16 l 0,0 0,-8 16,0 0,7.98 c 0,0.008 -10e-4,0.014 -10e-4,0.02 0,8.836 7.164,16 16,16 8.836,0 16,-7.164 16,-16 C 79.999,55.164 72.836,48.002 64,48 Z M 64,8 c 4.418,0 8,3.582 8,8 0,4.418 -3.582,8 -8,8 l -8,0 0,-8 c 0,-4.418 3.582,-8 8,-8 z M 8,16 c 0,-4.418 3.582,-8 8,-8 4.418,0 8,3.582 8,8 l 0,8 -8,0 C 11.582,24 8,20.417 8,16 Z m 8,56 c -4.418,0 -8,-3.582 -8,-8 0,-4.418 3.582,-8 8,-8 l 0,0 8,0 0,8 c 0,4.418 -3.582,8 -8,8 z m 16,-24 0,-16 16,0 0,16 -16,0 z m 32,24 c -4.418,0 -8,-3.582 -8,-8 l 0,0 0,-8 7.999,0 c 4.418,0 8,3.582 8,8 0,4.418 -3.581,8 -7.999,8 z"/></g><path id="rect4150" fill="#4d4d4d" fill-opacity="1" fill-rule="evenodd" stroke="none" stroke-dasharray="none" stroke-dashoffset="0" stroke-linecap="round" stroke-linejoin="round" stroke-miterlimit="4" stroke-opacity="1" stroke-width="17.5" d="m 16.160214,6.9659018 0,0.3663868 -0.99655,0 c -0.256987,0 -0.466664,0.2089169 -0.466664,0.4670531 l 0,9.0529943 c 0,0.257747 0.209677,0.466664 0.466664,0.466664 l 5.394182,0 c 0.258136,0 0.466664,-0.208917 0.466664,-0.466664 l 0,-9.0529943 c 0,-0.2581185 -0.208917,-0.4666642 -0.466664,-0.4666642 l -0.957195,0 0,-0.3663691 c 0,-0.2581185 -0.207786,-0.4666641 -0.466665,-0.4666641 l -2.506719,0 c -0.258119,-4.067e-4 -0.467053,0.2081389 -0.467053,0.4662575 z" opacity="1"/></g></svg>