<svg xmlns="http://www.w3.org/2000/svg" xmlns:svg="http://www.w3.org/2000/svg" xmlns:xlink="http://www.w3.org/1999/xlink" id="svg3205" width="16" height="16" version="1.0"><metadata id="metadata13"/><defs id="defs3207"><linearGradient id="linearGradient2398" x1="14" x2="14" y1="3" y2="21" gradientTransform="translate(-1.0001235,-5)" gradientUnits="userSpaceOnUse" xlink:href="#linearGradient3587-6-5-3"/><linearGradient id="linearGradient3587-6-5-3"><stop id="stop3589-9-2-0" offset="0" stop-color="#000" stop-opacity="1"/><stop id="stop3591-7-4-7" offset="1" stop-color="#363636" stop-opacity="1"/></linearGradient><linearGradient id="linearGradient2395" x1="66.097" x2="66.097" y1="9.364" y2="27.364" gradientTransform="translate(-52.096803,-11.363826)" gradientUnits="userSpaceOnUse" xlink:href="#linearGradient3587-6-5-3"/><linearGradient id="linearGradient7390" x1="4.955" x2="4.955" y1="2.684" y2="13.496" gradientUnits="userSpaceOnUse" xlink:href="#linearGradient3587-6-5-3"/><linearGradient id="linearGradient7392" x1="7.911" x2="7.911" y1="4.576" y2="11.649" gradientUnits="userSpaceOnUse" xlink:href="#linearGradient3587-6-5-3"/><linearGradient id="linearGradient7394" x1="10.187" x2="10.187" y1="2.774" y2="13.317" gradientUnits="userSpaceOnUse" xlink:href="#linearGradient3587-6-5-3"/><linearGradient id="linearGradient7396" x1="13.917" x2="13.917" y1=".882" y2="15.183" gradientUnits="userSpaceOnUse" xlink:href="#linearGradient3587-6-5-3"/><linearGradient id="linearGradient5263"><stop id="stop5265" offset="0" stop-color="#a0d5ff" stop-opacity="1"/><stop id="stop5267" offset="1" stop-color="#a0d5ff" stop-opacity="1"/></linearGradient></defs><path id="path6686-8-1-8-7" fill="#4d4d4d" fill-opacity="1" fill-rule="evenodd" stroke="none" d="m 8.490585,4.666706 -2.4241711,3.63629 1.2120525,0 0,3.030298 2.4241712,-3.636402 -1.2120526,0 z M 7.9831943,1.5503968e-4 C 6.9335137,0.02410104 5.7512547,0.08575504 4.7588685,0.74615764 a 0.37179013,0.35752043 0 0 0 -0.072728,0.058281 C 3.6552048,1.9617493 3.8423927,3.4968807 3.6800528,4.6743262 a 0.37179013,0.35752043 0 0 0 -0.012104,0.023313 C 3.4814968,7.715153 3.4918064,10.774848 3.9709855,13.789541 a 0.37179013,0.35752043 0 0 0 0,0.01164 c 0.1558608,0.798159 0.6726423,1.645339 1.6242853,1.865007 0.00926,0.0022 0.014888,0.0096 0.02424,0.01164 l 0,-0.01164 c 1.4439085,0.425688 3.0031133,0.425803 4.4486012,0.104906 0.748669,-0.166452 1.524373,-0.612419 1.793986,-1.422067 0.0012,-0.0033 -0.0012,-0.0082 0,-0.01164 0.351901,-0.967293 0.345087,-1.963073 0.448497,-2.867448 a 0.37179013,0.35752043 0 0 0 0.0121,-0.01164 C 12.515387,8.557283 12.502202,5.6284962 12.116629,2.7277433 12.063245,2.3163643 11.976663,1.8635592 11.765105,1.4455516 11.555838,1.032076 11.213577,0.65806774 10.710532,0.45476694 c -0.0023,-7.703e-4 0.0023,-0.010744 0,-0.011638 -0.0035,-0.00148 -0.0085,0.00148 -0.0121,0 C 9.8189396,0.06348824 8.8581625,0.03271914 8.0074479,1.9003968e-4 a 0.37179013,0.35752043 0 0 0 -0.02424,0 z" color="#7b7c7e"/></svg>