<svg xmlns="http://www.w3.org/2000/svg" xmlns:xlink="http://www.w3.org/1999/xlink" width="64" height="64"><linearGradient id="a" x1="407.571" x2="407.571" y1="540.798" y2="504.798" gradientUnits="userSpaceOnUse"><stop offset="0" stop-color="#63984b"/><stop offset="1" stop-color="#8fc278"/></linearGradient><linearGradient id="b" x1="408.571" x2="408.571" y1="535.798" y2="511.798" gradientUnits="userSpaceOnUse"><stop offset="0" stop-color="#2a2c2f"/><stop offset="1" stop-color="#424649"/></linearGradient><g transform="translate(-376.57144 -491.79797)"><rect width="58" height="38" x="379.571" y="504.798" fill="url(#a)" fill-rule="evenodd" ry="1.5"/><rect width="26" height="26" x="395.571" y="510.798" fill="url(#b)" fill-rule="evenodd" ry="1"/><path fill="#e0e0e0" d="m399.48055 515.61616v3.63634h-1.81819v3.63638h-1.81818v1.81818h1.81818v3.63638h1.81819v1.81816h1.81816v-3.63635h1.81818v-1.81819h3.63637v1.81819h1.81819v1.81819h1.81817v1.81816h1.81818v3.63637h1.81818v-1.81819h1.81819v-3.63634h1.81819v-1.81819h1.81816v-1.81819h1.81818v-1.81818h-1.81818v-1.81819h-1.81816v-1.81819h-1.81819v-3.63634h-1.81819v-1.81819h-1.81818v3.63637h-1.81818v1.81816h-1.81817v1.81819h-1.81819v1.81819h-3.63637v-1.81819h-1.81818v-5.45453z"/><path fill="#e6ed6e" d="m379.57144 540.6958h58v1.002175h-58z"/></g></svg>