<svg xmlns="http://www.w3.org/2000/svg" xmlns:xlink="http://www.w3.org/1999/xlink" width="64" height="64"><linearGradient id="a" x1="457.105" x2="457.105" y1="552.065" y2="429.398" gradientUnits="userSpaceOnUse"><stop offset="0" stop-color="#bfc1c1"/><stop offset="1" stop-color="#f1f2f3"/></linearGradient><linearGradient id="b"><stop offset="0" stop-color="#18222a"/><stop offset="1" stop-color="#566069"/></linearGradient><linearGradient id="c" x1="414.08" x2="414.205" y1="533.589" y2="514.004" gradientUnits="userSpaceOnUse"><stop offset="0" stop-color="#08f"/><stop offset="1" stop-color="#02c3ff"/></linearGradient><linearGradient id="d" x1="408.524" x2="409.266" y1="506.485" y2="533.195" gradientTransform="matrix(-1 0 0 -1 823.84266 1043.6233)" gradientUnits="userSpaceOnUse"><stop offset="0" stop-color="#222c35"/><stop offset="1" stop-color="#545e67"/></linearGradient><linearGradient id="e" x1="407.205" x2="424.071" y1="515.759" y2="532.625" gradientUnits="userSpaceOnUse" xlink:href="#b"/><linearGradient id="f" x1="453.28" x2="451.853" y1="553.434" y2="429.909" gradientUnits="userSpaceOnUse"><stop offset="0" stop-color="#222c35"/><stop offset="1" stop-color="#555f68"/></linearGradient><g stroke-width="5.897" transform="matrix(.423913064034 0 0 .423913064034 -160.472693879546 -176.244092251345)"><rect width="122.667" height="122.667" x="392.705" y="429.398" fill="url(#a)" ry="61.333"/><rect width="122.667" height="122.667" x="392.705" y="429.909" fill="none" stroke="url(#f)" stroke-width="5.897" ry="61.333"/></g><g transform="matrix(1.071430872823 0 0 1.073801964387 -413.134395078007 -530.484640956346)"><path fill="url(#d)" d="m401.27124 523.8253a13.999973 13.999973 0 0 1 13.99997-13.99997 13.999973 13.999973 0 0 1 13.99997 13.99997 13.999973 13.999973 0 0 1 -13.99997 13.99998 13.999973 13.999973 0 0 1 -13.99997-13.99998z"/><circle cx="415.271" cy="523.825" r="11" fill="url(#e)"/><circle cx="415.271" cy="523.825" r="10" fill="url(#c)"/></g></svg>