<svg xmlns="http://www.w3.org/2000/svg" xmlns:xlink="http://www.w3.org/1999/xlink" width="48" height="48"><linearGradient id="a"><stop offset="0" stop-color="#2971c3"/><stop offset="1" stop-color="#83bbff"/></linearGradient><linearGradient id="b" x1="407.026" x2="405.398" y1="544.332" y2="505.273" gradientUnits="userSpaceOnUse" xlink:href="#a"/><linearGradient id="c" x1="-42" x2="-6" y1="-24" y2="-24" gradientTransform="matrix(0 -.65097834 -.65097834 0 389.77473 509.17926)" gradientUnits="userSpaceOnUse"><stop offset="0" stop-color="#d0d0d0"/><stop offset="1" stop-color="#f1eeee"/></linearGradient><clipPath id="d"><rect width="47" height="47" x=".5" y=".5" ry="1.356"/></clipPath><linearGradient id="e" x1="25.808" x2="24" y1="45.692" y2="2.308" gradientUnits="userSpaceOnUse" xlink:href="#a"/><g transform="matrix(1.1107542 0 0 1.1107542 -426.297764 -558.926847)"><rect width="42.314" height="42.314" x="384.241" y="503.646" fill="url(#b)" fill-rule="evenodd" ry="1.221"/><g fill="#fff" fill-opacity=".776"><path d="m420.45208 542.62327v.81372h-.81372v-.81372h.81372zm-.81372.81372v.81373h-.81372v-.81373h.81372zm-.81372 0h-.81373v-.81372h.81373v.81372zm-.81373 0v .81373h-.81372v-.81373h.81372zm-.81372 0h-.81372v-.81372h.81372v.81372zm-.81372 0v .81373h-.81373v-.81373h.81373zm-.81373 0h-.81372v-.81372h.81372v.81372zm-.81372 0v .81373h-.81372v-.81373h.81372zm-.81372 0h-.81372v-.81372h.81372v.81372zm-.81372 0v .81373h-.81373v-.81373h.81373zm-.81373 0h-.81372v-.81372h.81372v.81372zm-.81372 0v .81373h-.81372v-.81373h.81372zm-.81372 0h-.81373v-.81372h.81373v.81372zm-.81373 0v .81373h-.81372v-.81373h.81372zm-.81372 0h-.81372v-.81372h.81372v.81372zm-.81372 0v .81373h-.81373v-.81373h.81373z"/><path fill-rule="evenodd" d="m423.70697 542.62327-1.62744 1.62745h1.62744z"/><path d="m387.90316 542.62327v.81372h.81373v-.81372h-.81373zm.81373.81372v.81373h.81372v-.81373h-.81372zm.81372 0h .81372v-.81372h-.81372v.81372zm.81372 0v .81373h.81373v-.81373h-.81373zm.81373 0h .81372v-.81372h-.81372v.81372zm.81372 0v .81373h.81372v-.81373h-.81372zm.81372 0h .81373v-.81372h-.81373v.81372zm.81373 0v .81373h.81372v-.81373h-.81372zm.81372 0h .81372v-.81372h-.81372v.81372zm.81372 0v .81373h.81372v-.81373h-.81372zm.81372 0h .81373v-.81372h-.81373v.81372zm.81373 0v .81373h.81372v-.81373h-.81372zm.81372 0h .81372v-.81372h-.81372v.81372zm.81372 0v .81373h.81373v-.81373h-.81373zm.81373 0h .81372v-.81372h-.81372v.81372zm.81372 0v .81373h.81372v-.81373h-.81372z"/><path d="m424.5207 524.72137h-.81373v-.81373h.81373v.81373zm-.81373-.81373h-.81372v-.81372h.81372v.81372zm0-.81372v-.81372h.81373v.81372h-.81373zm0-.81372h-.81372v-.81372h.81372v.81372zm0-.81372v-.81373h.81373v.81373h-.81373zm0-.81373h-.81372v-.81372h.81372v.81372zm0-.81372v-.81372h.81373v.81372h-.81373zm0-.81372h-.81372v-.81373h.81372v.81373zm0-.81373v-.81372h.81373v.81372h-.81373zm0-.81372h-.81372v-.81372h.81372v.81372zm0-.81372v-.81372h.81373v.81372h-.81373zm0-.81372h-.81372v-.81373h.81372v.81373zm0-.81373v-.81372h.81373v.81372h-.81373zm0-.81372h-.81372v-.81372h.81372v.81372zm0-.81372v-.81373h.81373v.81373h-.81373zm0-.81373h-.81372v-.81372h.81372v.81372z"/><path d="m422.89326 532.8586v.81372h.81372v-.81372zm.81372.81372v.81372h.81372v-.81372zm0 .81372h-.81372v.81373h.81372zm0 .81373v.81372h.81372v-.81372zm0 .81372h-.81372v.81372h.81372zm0 .81372v.81372h.81372v-.81372zm0 .81372h-.81372v.81373h.81372zm0 .81373v.81372h.81372v-.81372zm0 .81372h-.81372v.81372h.81372z"/></g><circle cx="-566.947" cy="321.786" r="0" fill="#04a" transform="matrix(-.06432928 -.99792873 .99792873 -.06432928 0 0)"/><path fill-opacity=".078" d="m12.611328 10.984375c-.90131 0-1.626953.579724-1.626953 1.300781v23.427735c0 .308756.132551.591535.355469.814453l70.710937 70.710936c.297671.29768.756117.48828 1.271485.48828h22.777344c.90132 0 1.62695-.58167 1.62695-1.30273v-23.427736c0-.308335-.1331-.590127-.35547-.8125l-70.710934-70.710938c-.297649-.297649-.755583-.488281-1.271484-.488281z" clip-path="url(#d)" transform="matrix(.90028919 0 0 .90028919 383.79127 503.1958)"/><path fill="url(#c)" d="m395.14511 513.08491c-.81144 0-1.46473.52192-1.46473 1.17108v21.09174c0 .64916.65329 1.17284 1.46473 1.17284h20.5062c.81145 0 1.46473-.52368 1.46473-1.17284v-21.09174c0-.64916-.65328-1.17108-1.46473-1.17108zm10.13881 3.91767c.69059 0 1.24669.5561 1.24669 1.24669s-.5561 1.24669-1.24669 1.24669-1.24669-.5561-1.24669-1.24669.5561-1.24669 1.24669-1.24669zm-.004 4.98676h.007c.68843 0 1.24317.553 1.24317 1.24141v8.73386c0 .68847-.55474 1.24317-1.24317 1.24317h-.007c-.68843 0-1.24318-.5547-1.24318-1.24317v-8.73386c0-.68841.55475-1.24141 1.24318-1.24141z"/></g></svg>