<svg xmlns="http://www.w3.org/2000/svg" xmlns:xlink="http://www.w3.org/1999/xlink" width="64" height="64"><linearGradient id="a" x1="409.571" x2="409.571" y1="540.798" y2="506.798" gradientTransform="matrix(1.5292812 0 0 1.529412 -592.82053 -769.10295)" gradientUnits="userSpaceOnUse"><stop offset="0" stop-color="#d1d7df"/><stop offset="1" stop-color="#e0e5e7"/></linearGradient><linearGradient id="b" x1="31.839" x2="32" y1="40.485" y2="24" gradientUnits="userSpaceOnUse"><stop offset="0" stop-color="#3d434a"/><stop offset="1" stop-color="#5f6974"/></linearGradient><path fill="url(#a)" d="m32 6c-14.40275 0-25.9980469 11.59602-25.9980469 26s11.5952969 26 25.9980469 26 25.998047-11.59602 25.998047-26-11.595297-26-25.998047-26zm0 23c1.662 0 3 1.338 3 3s-1.338 3-3 3-3-1.338-3-3 1.338-3 3-3z"/><path fill="url(#b)" d="m32 23c-4.986 0-9 4.014-9 9s4.014 9 9 9 9-4.014 9-9-4.014-9-9-9zm0 1a8 8 0 0 1 8 8 8 8 0 0 1 -8 8 8 8 0 0 1 -8-8 8 8 0 0 1 8-8zm0 1a7 7 0 0 0 -7 7 7 7 0 0 0 7 7 7 7 0 0 0 7-7 7 7 0 0 0 -7-7zm0 4c1.662 0 3 1.338 3 3s-1.338 3-3 3-3-1.338-3-3 1.338-3 3-3z" opacity=".791"/></svg>