<svg xmlns="http://www.w3.org/2000/svg" xmlns:xlink="http://www.w3.org/1999/xlink" width="64" height="64"><linearGradient id="a"><stop offset="0" stop-color="#ff3069"/><stop offset="1" stop-color="#ffa548"/></linearGradient><linearGradient id="b" x1="169.501" x2="159.237" y1="624.716" y2="63.269" gradientTransform="matrix(.93022459 0 0 .91890978 14.81504 32.586917)" gradientUnits="userSpaceOnUse" xlink:href="#a"/><linearGradient id="c" x1="8.167" x2="8.115" y1="1050.466" y2="1038.352" gradientUnits="userSpaceOnUse"><stop offset="0" stop-color="#141414"/><stop offset="1" stop-color="#2d2d2f"/></linearGradient><linearGradient id="d" x1="159.463" x2="160.663" y1="668.026" y2="596.966" gradientUnits="userSpaceOnUse" xlink:href="#a"/><linearGradient id="e" x1="159.463" x2="160.663" y1="668.026" y2="596.966" gradientUnits="userSpaceOnUse" xlink:href="#a"/><g transform="matrix(.086412203383 0 0 .07516574 18.05806492458 6.230717986722)"><rect width="292.693" height="525.809" x="18.553" y="87.912" fill="url(#b)" fill-rule="evenodd" ry="9.302"/><path fill="url(#c)" d="m11.403509 1037.3622h-6.807018c-.310036 0-.561404.2514-.561404.5614v12.8772c0 .31.251368.5614.561404.5614h6.807018c.310035 0 .561404-.2514.561404-.5614v-12.8772c0-.31-.251369-.5614-.561404-.5614zm-.08154 11.7777h-6.643931v-9.5554h6.643931z" transform="matrix(42.98335 0 0 49.41461 -182.5246 -51263.918)"/><ellipse cx="161.342" cy="637.978" fill="url(#d)" fill-rule="evenodd" stroke="url(#e)" stroke-linecap="round" stroke-width="7.411" rx="25.226" ry="29"/></g></svg>