<svg xmlns="http://www.w3.org/2000/svg" xmlns:xlink="http://www.w3.org/1999/xlink" width="64" height="64"><linearGradient id="a"><stop offset="0" stop-color="#141414"/><stop offset="1" stop-color="#2d2d2f"/></linearGradient><linearGradient id="b"><stop offset="0" stop-color="#08f"/><stop offset="1" stop-color="#02c3ff"/></linearGradient><linearGradient id="c" x1="169.501" x2="159.237" y1="624.716" y2="63.269" gradientTransform="matrix(.93022459 0 0 .91890978 -17.300742 32.586917)" gradientUnits="userSpaceOnUse" xlink:href="#b"/><linearGradient id="d" x1="-564.937" x2="-563.836" y1="524.756" y2="459.557" gradientTransform="matrix(.89345856 0 0 1.1220651 635.99074 79.547898)" gradientUnits="userSpaceOnUse" xlink:href="#b"/><linearGradient x1="184.707" x2="187.277" y1="448.413" y2="70.326" gradientUnits="userSpaceOnUse" xlink:href="#a"/><linearGradient id="e" x1="159.463" x2="160.663" y1="668.026" y2="596.966" gradientTransform="matrix(.81976031 0 0 1.0295099 .521817 -19.381076)" gradientUnits="userSpaceOnUse" xlink:href="#b"/><linearGradient id="f" x1="8.167" x2="8.115" y1="1050.466" y2="1038.352" gradientUnits="userSpaceOnUse" xlink:href="#a"/><g transform="matrix(.103807386062 0 0 .07516574 18.216065749917 6.230749856995)"><rect width="292.693" height="525.809" x="-13.563" y="87.912" fill="url(#c)" fill-rule="evenodd" ry="9.302"/><path fill="url(#f)" d="m11.403509 1037.3622h-6.807018c-.310036 0-.561404.2514-.561404.5614v12.8772c0 .31.251368.5614.561404.5614h6.807018c.310035 0 .561404-.2514.561404-.5614v-12.8772c0-.31-.251369-.5614-.561404-.5614zm-.08154 11.7777h-6.643931v-9.5554h6.643931z" transform="matrix(42.98335 0 0 49.41461 -211.08305 -51263.918)"/><ellipse cx="132.784" cy="637.424" fill="url(#e)" fill-rule="evenodd" stroke="url(#d)" stroke-linecap="round" stroke-width="6.808" rx="20.679" ry="29.856"/></g></svg>