<svg xmlns="http://www.w3.org/2000/svg" xmlns:svg="http://www.w3.org/2000/svg" xmlns:xlink="http://www.w3.org/1999/xlink" id="svg7384" width="16" height="16" enable-background="new" version="1.1"><metadata id="metadata90"/><title id="title8473">Paper Symbolic Icon Theme</title><defs id="defs7386"><filter id="filter7554" color-interpolation-filters="sRGB"><feBlend id="feBlend7556" in2="BackgroundImage" mode="darken"/></filter><linearGradient id="linearGradient2868" x1="8.925" x2="8.925" y1="6" y2="19" gradientTransform="translate(-1,-2)" gradientUnits="userSpaceOnUse" xlink:href="#linearGradient3678"/><linearGradient id="linearGradient3678"><stop id="stop3680" offset="0" stop-color="#fff" stop-opacity="1"/><stop id="stop3682" offset="1" stop-color="#e6e6e6" stop-opacity="1"/></linearGradient><linearGradient id="linearGradient2393" x1="9" x2="9" y1="3" y2="21" gradientTransform="translate(-2,-1)" gradientUnits="userSpaceOnUse" xlink:href="#linearGradient3678"/><linearGradient id="linearGradient2398" x1="14" x2="14" y1="3" y2="21" gradientTransform="translate(-1.0001235,-5)" gradientUnits="userSpaceOnUse" xlink:href="#linearGradient3587-6-5-3"/><linearGradient id="linearGradient3587-6-5-3"><stop id="stop3589-9-2-0" offset="0" stop-color="#000" stop-opacity="1"/><stop id="stop3591-7-4-7" offset="1" stop-color="#363636" stop-opacity="1"/></linearGradient><linearGradient id="linearGradient2395" x1="66.097" x2="66.097" y1="9.364" y2="27.364" gradientTransform="translate(-52.096803,-11.363826)" gradientUnits="userSpaceOnUse" xlink:href="#linearGradient3587-6-5-3"/><linearGradient id="linearGradient7390" x1="4.955" x2="4.955" y1="2.684" y2="13.496" gradientUnits="userSpaceOnUse" xlink:href="#linearGradient3587-6-5-3"/><linearGradient id="linearGradient7392" x1="7.911" x2="7.911" y1="4.576" y2="11.649" gradientUnits="userSpaceOnUse" xlink:href="#linearGradient3587-6-5-3"/><linearGradient id="linearGradient7394" x1="10.187" x2="10.187" y1="2.774" y2="13.317" gradientUnits="userSpaceOnUse" xlink:href="#linearGradient3587-6-5-3"/><linearGradient id="linearGradient7396" x1="13.917" x2="13.917" y1=".882" y2="15.183" gradientUnits="userSpaceOnUse" xlink:href="#linearGradient3587-6-5-3"/><linearGradient id="linearGradient5263"><stop id="stop5265" offset="0" stop-color="#a0d5ff" stop-opacity="1"/><stop id="stop5267" offset="1" stop-color="#a0d5ff" stop-opacity="1"/></linearGradient><filter id="filter7554-5" color-interpolation-filters="sRGB"><feBlend id="feBlend7556-7" in2="BackgroundImage" mode="darken"/></filter></defs><path id="path5550" fill="#f2f2f2" fill-opacity="1" d="m 8.0000003,2.0000007 c -0.1710254,0 -0.3190375,0.06262 -0.4440362,0.1874981 l -3.286183,3.286183 -2.5854875,0 c -0.1711465,0 -0.3191586,0.062621 -0.4441573,0.1874981 C 1.1151376,5.7861786 1.0526382,5.9343118 1.0526382,6.1053372 l 0,3.7893271 c 0,0.1710257 0.062499,0.3191587 0.1874981,0.4440367 0.1251199,0.124998 0.2731319,0.187619 0.4441573,0.187619 l 2.5853664,0 3.286183,3.286183 c 0.1249987,0.124877 0.2730108,0.187498 0.4440362,0.187498 0.1711465,0 0.3191586,-0.06262 0.4441573,-0.187498 0.1249988,-0.124878 0.1874981,-0.273011 0.1874981,-0.444036 l 0,-10.7368108 c 0,-0.1710254 -0.062499,-0.3191586 -0.1873769,-0.4441574 C 8.3190378,2.0626212 8.1711468,2.0000007 8.0000003,2.0000007 l 0,0 z"/><path id="path5552" fill="#f2f2f2" fill-opacity="1" d="m 12.001535,9.3961229 c 0.279672,-0.4308339 0.419448,-0.8961877 0.419448,-1.3961827 0,-0.4999949 -0.139776,-0.967529 -0.419448,-1.4017543 -0.279794,-0.4342252 -0.649582,-0.7400603 -1.110212,-0.9177475 -0.06577,-0.032824 -0.148133,-0.049297 -0.246727,-0.049297 -0.171026,0 -0.319159,0.060925 -0.444036,0.1825321 -0.124878,0.1217284 -0.18762,0.2714362 -0.18762,0.4490023 0,0.1382011 0.03949,0.2549635 0.11858,0.3504083 0.07897,0.095445 0.174295,0.1776871 0.286213,0.2467271 0.111675,0.06904 0.223592,0.1447418 0.33551,0.2269842 0.111917,0.082242 0.207241,0.1990047 0.286213,0.3502871 0.07873,0.1514035 0.118337,0.3389017 0.118337,0.5626155 0,0.2237138 -0.03949,0.4112119 -0.118337,0.5626154 -0.07897,0.1514035 -0.174296,0.2680448 -0.286213,0.3504083 -0.111918,0.082242 -0.223835,0.1579442 -0.33551,0.2269842 -0.111918,0.068919 -0.207241,0.1512824 -0.286213,0.246606 -0.07897,0.095566 -0.11858,0.2122072 -0.11858,0.3504083 0,0.1776872 0.06274,0.3272738 0.18762,0.4490018 0.124877,0.121729 0.27301,0.182654 0.444036,0.182654 0.09859,0 0.180957,-0.01647 0.246727,-0.04918 0.46063,-0.18447 0.830539,-0.4921222 1.110212,-0.9230771 l 0,0 z"/><path id="path5554" fill="#f2f2f2" fill-opacity=".4" d="m 14.108466,10.787703 c 0.559224,-0.8518569 0.838896,-1.7811111 0.838896,-2.7877628 0,-1.0066516 -0.279672,-1.9357847 -0.838896,-2.7881259 -0.559224,-0.8518568 -1.299527,-1.4718844 -2.220423,-1.860083 -0.08539,-0.032824 -0.171026,-0.049297 -0.256417,-0.049297 -0.171026,0 -0.319159,0.062499 -0.444279,0.1874981 -0.124878,0.1249987 -0.187377,0.2730108 -0.187377,0.4440362 0,0.2566593 0.128269,0.450698 0.384928,0.5823585 0.368335,0.1907684 0.618332,0.3355102 0.749872,0.4341041 0.486913,0.3553744 0.866755,0.8009852 1.139765,1.3371959 0.273011,0.5362106 0.409517,1.1069413 0.409517,1.712192 0,0.6052507 -0.136506,1.1759814 -0.409517,1.712192 -0.27301,0.5363319 -0.652973,0.9818219 -1.139765,1.3370749 -0.13154,0.09871 -0.381537,0.243457 -0.749872,0.434225 -0.256659,0.131661 -0.384928,0.325699 -0.384928,0.582359 0,0.171025 0.0625,0.319158 0.187377,0.444036 0.12512,0.12512 0.276281,0.187619 0.453968,0.187619 0.07897,0 0.161336,-0.01659 0.246728,-0.0493 0.920896,-0.38832 1.661199,-1.008347 2.220423,-1.860325 l 0,0 z"/></svg>