<svg xmlns="http://www.w3.org/2000/svg" xmlns:svg="http://www.w3.org/2000/svg" id="svg2" width="22" height="22" version="1.1" viewBox="0 0 22 22"><metadata id="metadata10"/><path id="path4" fill="#f2f2f2" fill-opacity="1" d="m 15,9.4 -8,0 0,-1.6 8,0 m 0,4.8 -8,0 0,-1.6 8,0 m -2.4,4.8 -5.6,0 0,-1.6 5.6,0 M 11,4.6 A 0.8,0.8 0 0 1 11.8,5.4 0.8,0.8 0 0 1 11,6.2 0.8,0.8 0 0 1 10.2,5.4 0.8,0.8 0 0 1 11,4.6 m 5.6,0 -3.344,0 C 12.92,3.672 12.04,3 11,3 9.96,3 9.08,3.672 8.744,4.6 L 5.4,4.6 A 1.6,1.6 0 0 0 3.8,6.2 l 0,11.2 A 1.6,1.6 0 0 0 5.4,19 l 11.2,0 a 1.6,1.6 0 0 0 1.6,-1.6 l 0,-11.2 A 1.6,1.6 0 0 0 16.6,4.6 Z"/></svg>