<svg xmlns="http://www.w3.org/2000/svg" xmlns:osb="http://www.openswatchbook.org/uri/2009/osb" xmlns:svg="http://www.w3.org/2000/svg" xmlns:xlink="http://www.w3.org/1999/xlink" id="svg7384" width="16.001" height="16.001" enable-background="new" version="1.1"><metadata id="metadata90"/><title id="title8473">Paper Symbolic Icon Theme</title><defs id="defs7386"><filter id="filter7554" color-interpolation-filters="sRGB"><feBlend id="feBlend7556" in2="BackgroundImage" mode="darken"/></filter><linearGradient id="linearGradient4207" osb:paint="gradient"><stop id="stop3371" offset="0" stop-color="#3498db" stop-opacity="1"/><stop id="stop3373" offset="1" stop-color="#3498db" stop-opacity="0"/></linearGradient><filter id="filter7554-0" color-interpolation-filters="sRGB"><feBlend id="feBlend7556-75" in2="BackgroundImage" mode="darken"/></filter><linearGradient id="linearGradient2868" x1="8.925" x2="8.925" y1="6" y2="19" gradientTransform="translate(-1,-2)" gradientUnits="userSpaceOnUse" xlink:href="#linearGradient3678"/><linearGradient id="linearGradient3678"><stop id="stop3680" offset="0" stop-color="#fff" stop-opacity="1"/><stop id="stop3682" offset="1" stop-color="#e6e6e6" stop-opacity="1"/></linearGradient><linearGradient id="linearGradient2393" x1="9" x2="9" y1="3" y2="21" gradientTransform="translate(-2,-1)" gradientUnits="userSpaceOnUse" xlink:href="#linearGradient3678"/><linearGradient id="linearGradient2398" x1="14" x2="14" y1="3" y2="21" gradientTransform="translate(-1.0001235,-5)" gradientUnits="userSpaceOnUse" xlink:href="#linearGradient3587-6-5-3"/><linearGradient id="linearGradient3587-6-5-3"><stop id="stop3589-9-2-0" offset="0" stop-color="#000" stop-opacity="1"/><stop id="stop3591-7-4-7" offset="1" stop-color="#363636" stop-opacity="1"/></linearGradient><linearGradient id="linearGradient2395" x1="66.097" x2="66.097" y1="9.364" y2="27.364" gradientTransform="translate(-52.096803,-11.363826)" gradientUnits="userSpaceOnUse" xlink:href="#linearGradient3587-6-5-3"/><linearGradient id="linearGradient7390" x1="4.955" x2="4.955" y1="2.684" y2="13.496" gradientUnits="userSpaceOnUse" xlink:href="#linearGradient3587-6-5-3"/><linearGradient id="linearGradient7392" x1="7.911" x2="7.911" y1="4.576" y2="11.649" gradientUnits="userSpaceOnUse" xlink:href="#linearGradient3587-6-5-3"/><linearGradient id="linearGradient7394" x1="10.187" x2="10.187" y1="2.774" y2="13.317" gradientUnits="userSpaceOnUse" xlink:href="#linearGradient3587-6-5-3"/><linearGradient id="linearGradient7396" x1="13.917" x2="13.917" y1=".882" y2="15.183" gradientUnits="userSpaceOnUse" xlink:href="#linearGradient3587-6-5-3"/><linearGradient id="linearGradient5263"><stop id="stop5265" offset="0" stop-color="#a0d5ff" stop-opacity="1"/><stop id="stop5267" offset="1" stop-color="#a0d5ff" stop-opacity="1"/></linearGradient><filter id="filter7554-5" color-interpolation-filters="sRGB"><feBlend id="feBlend7556-7" in2="BackgroundImage" mode="darken"/></filter></defs><g id="layer1" transform="matrix(0.74999999,0,0,0.74999999,2.0005002,-775.27112)"><g id="layer1-4" transform="translate(-412.88298,512.00351)"><g id="g4240" transform="translate(341.79698,500.25245)"><g id="layer1-1" transform="translate(-392.98822,-511.27795)"><g id="layer1-5-4" fill="#f2f2f2" fill-opacity="1" transform="matrix(0.71733438,0,0,0.71733438,181.16816,163.89609)"><g id="layer1-5-5" fill="#f2f2f2" fill-opacity="1" transform="matrix(2.0802722,0,0,2.0802722,350.91598,-1637.5069)"><g id="microphone28" fill="#f2f2f2" fill-opacity="1" transform="matrix(0.07908756,0,0,0.07908756,22.539801,1036.0878)"><g id="g4987" fill="#f2f2f2" fill-opacity="1"><path id="path4989" fill="#565656" fill-opacity=".349" d="m 47,94.07 c 7.17,0 13.307,-2.553 18.412,-7.657 C 70.517,81.309 73.07,75.17 73.07,68 l 0,-41.714 C 73.07,19.116 70.519,12.979 65.412,7.873 60.307,2.768 54.17,0.214 47,0.214 c -7.17,0 -13.307,2.554 -18.413,7.659 -5.106,5.105 -7.659,11.243 -7.659,18.413 l 0,41.714 c 0,7.17 2.554,13.309 7.659,18.413 C 33.692,91.517 39.83,94.07 47,94.07 l 0,0 z"/><path id="path4991" fill="#565656" fill-opacity=".349" d="m 92.38,53.905 c -1.03,-1.032 -2.254,-1.548 -3.666,-1.548 -1.412,0 -2.634,0.516 -3.666,1.548 -1.032,1.032 -1.548,2.254 -1.548,3.666 L 83.5,68 C 83.5,78.049 79.928,86.643 72.786,93.786 65.645,100.929 57.049,104.5 47,104.5 36.951,104.5 28.356,100.929 21.213,93.786 14.071,86.645 10.5,78.049 10.5,68 l 0,-10.429 C 10.5,56.159 9.984,54.937 8.952,53.905 7.92,52.873 6.699,52.357 5.286,52.357 c -1.413,0 -2.635,0.516 -3.667,1.548 -1.032,1.032 -1.548,2.254 -1.548,3.666 l 0,10.429 c 0,12.004 4.006,22.446 12.017,31.326 8.011,8.88 17.91,13.972 29.697,15.275 l 0,10.756 -20.857,0 c -1.412,0 -2.634,0.516 -3.666,1.548 -1.032,1.032 -1.548,2.254 -1.548,3.666 0,1.411 0.516,2.635 1.548,3.666 1.032,1.032 2.254,1.549 3.666,1.549 l 52.142,0 c 1.412,0 2.636,-0.517 3.666,-1.549 1.033,-1.031 1.55,-2.255 1.55,-3.666 0,-1.412 -0.517,-2.634 -1.55,-3.666 -1.03,-1.032 -2.254,-1.548 -3.666,-1.548 l -20.855,0 0,-10.756 C 64,113.298 73.899,108.206 81.911,99.326 89.923,90.446 93.93,80.004 93.93,68 l 0,-10.429 c 0,-1.412 -0.517,-2.633 -1.55,-3.666 l 0,0 z"/></g></g></g></g></g></g></g></g></svg>