<svg xmlns="http://www.w3.org/2000/svg" xmlns:osb="http://www.openswatchbook.org/uri/2009/osb" xmlns:svg="http://www.w3.org/2000/svg" id="svg5453" width="22" height="22" version="1.1"><defs id="defs5455"><linearGradient id="linearGradient4422"><stop id="stop4424" offset="0" stop-color="#197ff1" stop-opacity="1"/><stop id="stop4426" offset="1" stop-color="#21c6fb" stop-opacity="1"/></linearGradient><linearGradient id="linearGradient4232"><stop id="stop4234-0" offset="0" stop-color="#3889e9" stop-opacity="1"/><stop id="stop4236" offset="1" stop-color="#5ea5fb" stop-opacity="1"/></linearGradient><linearGradient id="linearGradient3257"><stop id="stop3259" offset="0" stop-color="#a50000" stop-opacity="1"/><stop id="stop3261" offset="1" stop-color="#e73800" stop-opacity="1"/></linearGradient><clipPath id="clipPath4210" clipPathUnits="userSpaceOnUse"><rect id="rect4212" width="34" height="34" x="-7" y="1024.362" fill="#00f" fill-opacity=".514" stroke="none" stroke-opacity="1" opacity="1"/></clipPath><clipPath id="clipPath4160" clipPathUnits="userSpaceOnUse"><rect id="rect4162" width="32" height="32" x="-6" y="1028.362" fill="#aade87" fill-opacity=".472" stroke="none" stroke-opacity="1" opacity="1"/></clipPath><clipPath id="clipPath4458-7-5-5-0"><path id="use4460-2-5-75-4" d="m 69.626,12.145 -0.052,0 c -22.727,-0.292 -46.472,4.077 -46.709,4.122 -2.424,0.451 -4.946,2.974 -5.397,5.397 -0.044,0.237 -4.414,23.983 -4.122,46.71 -0.292,22.777 4.078,46.523 4.122,46.761 0.451,2.423 2.974,4.945 5.398,5.398 0.237,0.044 23.982,4.413 46.709,4.121 22.779,0.292 46.524,-4.077 46.761,-4.121 2.423,-0.452 4.946,-2.976 5.398,-5.399 0.044,-0.236 4.413,-23.981 4.121,-46.709 0.292,-22.777 -4.077,-46.523 -4.121,-46.761 -0.453,-2.423 -2.976,-4.946 -5.398,-5.397 -0.238,-0.045 -23.984,-4.414 -46.71,-4.122 z"/></clipPath><filter id="filter7554" color-interpolation-filters="sRGB"><feBlend id="feBlend7556" in2="BackgroundImage" mode="darken"/></filter><linearGradient id="linearGradient4207" osb:paint="gradient"><stop id="stop3371" offset="0" stop-color="#3498db" stop-opacity="1"/><stop id="stop3373" offset="1" stop-color="#3498db" stop-opacity="0"/></linearGradient></defs><metadata id="metadata5458"/><g id="layer1" transform="translate(-384.57143,-525.798)"><path id="path3495" fill="#f2f2f2" fill-opacity="1" d="m 395.57093,532.33086 a 4.3635,4.3635 0 0 1 4.3635,4.3635 c 0,1.48359 -0.74179,2.7864 -1.87007,3.57807 l 0,1.40878 a 0.62335714,0.62335714 0 0 1 -0.62336,0.62336 l -3.74014,0 a 0.62335714,0.62335714 0 0 1 -0.62336,-0.62336 l 0,-1.40878 c -1.12828,-0.79167 -1.87007,-2.09448 -1.87007,-3.57807 a 4.3635,4.3635 0 0 1 4.3635,-4.3635 m -1.87007,11.84378 0,-0.62335 3.74014,0 0,0.62335 a 0.62335714,0.62335714 0 0 1 -0.62336,0.62336 l -2.49342,0 a 0.62335714,0.62335714 0 0 1 -0.62336,-0.62336 m 1.87007,-10.59707 a 3.1167857,3.1167857 0 0 0 -3.11679,3.11679 c 0,1.27788 0.76673,2.37499 1.87008,2.85497 l 0,1.50853 2.49342,0 0,-1.50853 c 1.10335,-0.47998 1.87008,-1.57709 1.87008,-2.85497 a 3.1167857,3.1167857 0 0 0 -3.11679,-3.11679 z"/></g></svg>