<svg xmlns="http://www.w3.org/2000/svg" xmlns:osb="http://www.openswatchbook.org/uri/2009/osb" xmlns:svg="http://www.w3.org/2000/svg" id="svg5453" width="22" height="22" version="1.1"><defs id="defs5455"><linearGradient id="linearGradient4422"><stop id="stop4424" offset="0" stop-color="#197ff1" stop-opacity="1"/><stop id="stop4426" offset="1" stop-color="#21c6fb" stop-opacity="1"/></linearGradient><linearGradient id="linearGradient4232"><stop id="stop4234-0" offset="0" stop-color="#3889e9" stop-opacity="1"/><stop id="stop4236" offset="1" stop-color="#5ea5fb" stop-opacity="1"/></linearGradient><linearGradient id="linearGradient3257"><stop id="stop3259" offset="0" stop-color="#a50000" stop-opacity="1"/><stop id="stop3261" offset="1" stop-color="#e73800" stop-opacity="1"/></linearGradient><clipPath id="clipPath4210" clipPathUnits="userSpaceOnUse"><rect id="rect4212" width="34" height="34" x="-7" y="1024.362" fill="#00f" fill-opacity=".514" stroke="none" stroke-opacity="1" opacity="1"/></clipPath><clipPath id="clipPath4160" clipPathUnits="userSpaceOnUse"><rect id="rect4162" width="32" height="32" x="-6" y="1028.362" fill="#aade87" fill-opacity=".472" stroke="none" stroke-opacity="1" opacity="1"/></clipPath><clipPath id="clipPath4458-7-5-5-0"><path id="use4460-2-5-75-4" d="m 69.626,12.145 -0.052,0 c -22.727,-0.292 -46.472,4.077 -46.709,4.122 -2.424,0.451 -4.946,2.974 -5.397,5.397 -0.044,0.237 -4.414,23.983 -4.122,46.71 -0.292,22.777 4.078,46.523 4.122,46.761 0.451,2.423 2.974,4.945 5.398,5.398 0.237,0.044 23.982,4.413 46.709,4.121 22.779,0.292 46.524,-4.077 46.761,-4.121 2.423,-0.452 4.946,-2.976 5.398,-5.399 0.044,-0.236 4.413,-23.981 4.121,-46.709 0.292,-22.777 -4.077,-46.523 -4.121,-46.761 -0.453,-2.423 -2.976,-4.946 -5.398,-5.397 -0.238,-0.045 -23.984,-4.414 -46.71,-4.122 z"/></clipPath><filter id="filter7554" color-interpolation-filters="sRGB"><feBlend id="feBlend7556" in2="BackgroundImage" mode="darken"/></filter><linearGradient id="linearGradient4207" osb:paint="gradient"><stop id="stop3371" offset="0" stop-color="#3498db" stop-opacity="1"/><stop id="stop3373" offset="1" stop-color="#3498db" stop-opacity="0"/></linearGradient></defs><metadata id="metadata5458"/><g id="layer1" transform="translate(-384.57143,-525.798)"><path id="path3393" fill="#f2f2f2" fill-opacity="1" d="m 395.57143,532.43436 a 4.3636364,4.3636364 0 0 1 4.36364,4.36364 c 0,1.61455 -0.88,3.02545 -2.18182,3.78182 l 0,1.30909 a 0.72727273,0.72727273 0 0 1 -0.72727,0.72727 l -2.9091,0 a 0.72727273,0.72727273 0 0 1 -0.72727,-0.72727 l 0,-1.30909 c -1.30182,-0.75637 -2.18182,-2.16727 -2.18182,-3.78182 a 4.3636364,4.3636364 0 0 1 4.36364,-4.36364 m 1.45455,10.90909 0,0.72728 a 0.72727273,0.72727273 0 0 1 -0.72728,0.72727 l -1.45454,0 a 0.72727273,0.72727273 0 0 1 -0.72728,-0.72727 l 0,-0.72728 2.9091,0 m 4.36363,-7.27272 2.18182,0 0,1.45454 -2.18182,0 0,-1.45454 m -13.81818,0 2.18182,0 0,1.45454 -2.18182,0 0,-1.45454 m 8.72727,-7.27273 0,2.18182 -1.45454,0 0,-2.18182 1.45454,0 m -5.87636,1.81818 1.54909,1.55637 -1.03273,1.02545 -1.54909,-1.54182 1.03273,-1.04 m 8.74909,1.54909 1.54182,-1.54909 1.04,1.04 -1.54909,1.54182 -1.03273,-1.03273 z"/></g></svg>