<svg xmlns="http://www.w3.org/2000/svg" xmlns:svg="http://www.w3.org/2000/svg" xmlns:xlink="http://www.w3.org/1999/xlink" id="svg7384" width="16" height="16" enable-background="new" version="1.1"><metadata id="metadata90"/><title id="title8473">Paper Symbolic Icon Theme</title><defs id="defs7386"><linearGradient id="linearGradient4195"><stop id="stop4197" offset="0" stop-color="#fc0" stop-opacity="1"/><stop id="stop4199" offset="1" stop-color="#fd5" stop-opacity="1"/></linearGradient><filter id="filter7554" color-interpolation-filters="sRGB"><feBlend id="feBlend7556" in2="BackgroundImage" mode="darken"/></filter><linearGradient id="linearGradient4201" x1="312.923" x2="313.039" y1="-195.486" y2="-210.712" gradientTransform="translate(10.111379,1.1507845)" gradientUnits="userSpaceOnUse" xlink:href="#linearGradient4195"/></defs><g id="g4138" fill="#ccc" transform="matrix(0.875,0,0,0.91943998,-265.875,194.65245)"><path id="path4140" fill="#ccc" d="m 313,-210.61 -2.1187,5.495 -5.8812,0.31706 4.5715,3.7134 -1.5158,5.6912 4.9443,-3.2001 4.9437,3.2001 -1.5153,-5.6912 4.5715,-3.7134 -5.8812,-0.31706 z" color="#000" enable-background="accumulate" opacity=".35" style="text-indent:0;text-transform:none;block-progression:tb"/><path id="path4142" fill="#ccc" d="m 313,-210.62 -2.125,5.5 -5.875,0.3125 4.5625,3.7188 -1.5,5.6875 4.9375,-3.1875 0,-12.031 z" color="#000" enable-background="accumulate" style="text-indent:0;text-transform:none;block-progression:tb"/></g><g id="layer9" fill="#fc0" transform="matrix(0.875,0,0,0.91943998,-274.72246,193.6016)"><path id="path4158" fill="none" d="m 8.0001,12.40656 0,0 4.9437,3.2001 L 11.4285,9.91546 16,6.20206 10.1188,5.885 8,0.39 l 0,0 -0.1114492,0.28905199" color="#000" enable-background="accumulate" opacity=".35" transform="translate(305,-211)" style="text-indent:0;text-transform:none;block-progression:tb"/><path id="path5823" fill="none" d="M 7.8885508,0.67905199 5.8813,5.885 1e-4,6.20206 l 4.5715,3.7134 -1.5158,5.6912 4.9443,-3.2001" color="#000" enable-background="accumulate" opacity=".35" transform="translate(305,-211)" style="text-indent:0;text-transform:none;block-progression:tb"/><path style="text-indent:0;text-transform:none;block-progression:tb" id="path5833" fill="url(#linearGradient4201)" fill-opacity="1" d="m 323.11138,-209.46922 -2.125,5.5 -5.875,0.3125 4.5625,3.7188 -1.5,5.6875 4.9375,-3.1875 0,-12.031 z" color="#000" enable-background="accumulate"/></g></svg>