<svg xmlns="http://www.w3.org/2000/svg" xmlns:xlink="http://www.w3.org/1999/xlink" width="24" height="24" viewBox="0 0 24 24"><linearGradient id="a"><stop offset="0" stop-color="#3889e9"/><stop offset="1" stop-color="#5ea5fb"/></linearGradient><linearGradient id="b" x1="399.571" x2="399.571" y1="545.798" y2="517.798" gradientUnits="userSpaceOnUse" xlink:href="#a"/><linearGradient id="c"><stop offset="0" stop-color="#fff"/><stop offset="1" stop-color="#ececec"/></linearGradient><linearGradient id="d" x1="390.244" x2="390.244" y1="545.068" y2="524.201" gradientUnits="userSpaceOnUse" xlink:href="#a"/><linearGradient id="e" x1="396.794" x2="396.605" y1="545.398" y2="525.638" gradientUnits="userSpaceOnUse"><stop offset="0" stop-color="#197dec"/><stop offset="1" stop-color="#3fcffb"/></linearGradient><linearGradient id="f" x1="396.804" x2="396.615" y1="545.397" y2="525.618" gradientUnits="userSpaceOnUse" xlink:href="#c"/><g transform="translate(-384.57143 -523.798)"><circle cx="400.571" cy="531.798" r="0" fill="url(#b)"/><g transform="matrix(1.0508504 0 0 1.0508504 -20.353166 -26.940048)"><circle cx="400.571" cy="531.798" r="0" fill="url(#b)" transform="matrix(1.107847951126 0 0 1.107847951126 -75.956589139314 -53.669281798788)"/><circle cx="390.989" cy="534.634" r="0" fill="url(#d)"/><circle cx="396.739" cy="535.518" r="10.022" fill="url(#e)"/><path fill="#f44a4a" d="m401.68339 530.59724-6.00676 4.00879.97222.98239z"/><path fill="#f32d2c" d="m397.63086 536.54492-.97177-.98251 5.03454-4.99119z"/><path fill="#f6f6f6" d="m391.64145 540.54962 5.03453-4.99135-.00033-.00033c-.3985-.4028-.79717-.80576-.97191-.98238l-4.06229 5.97405z"/><path fill="#e0e0e0" d="m396.66795 535.55213-5.03453 4.99134 6.00613-4.00915c-.39851-.40279-.79718-.80575-.97192-.98237l.00034.00019z"/><circle cx="396.75" cy="535.507" r="10.032" fill="none" stroke="url(#f)" stroke-linecap="round" stroke-linejoin="round" stroke-width=".872"/></g></g></svg>