<svg xmlns="http://www.w3.org/2000/svg" xmlns:xlink="http://www.w3.org/1999/xlink" width="64" height="64"><linearGradient id="a" x1="31.889" x2="32.24" y1="58.761" y2="5.71" gradientUnits="userSpaceOnUse"><stop offset="0" stop-color="#1365f4"/><stop offset="1" stop-color="#05b2fc"/></linearGradient><linearGradient id="b" x1="30.211" x2="30.211" y1="55.407" y2="8.441" gradientUnits="userSpaceOnUse"><stop offset="0" stop-color="#3889e9"/><stop offset="1" stop-color="#5ea5fb"/></linearGradient><circle cx="31.888" cy="31.924" r="0" fill="url(#b)" stroke-width="1.677"/><path fill="url(#a)" d="m58.242989 32a26.242989 26.242989 0 0 1 -26.242989 26.242988 26.242989 26.242989 0 0 1 -26.242989-26.242988 26.242989 26.242989 0 0 1 26.242989-26.2429885 26.242989 26.242989 0 0 1 26.242989 26.2429885"/><circle cx="32" cy="32" r="26.243" fill="none" stroke-width="1.875"/><path fill-opacity=".941" d="m23.466669 16c-4.266667 0-4.266667 4.266667-4.266667 4.266667v23.466666c0 4.266667 4.038976 4.258923 4.266667 4.266667h17.066669s4.26666-.0085 4.26666-4.266667v-23.466666c0-4.266667-4.26666-4.266667-4.26666-4.266667zm8.533329 4.266667c1.18202 0 2.13334.958826 2.13334 2.133333 0 1.174699-.95132 2.133334-2.13334 2.133334-1.18237 0-2.13333-.958635-2.13333-2.133334 0-1.174507.95096-2.133333 2.13333-2.133333zm0 6.4c4.71284 0 8.53334 3.820501 8.53334 8.533333s-3.8205 8.533333-8.53334 8.533333c-4.712828 0-8.533329-3.820501-8.533329-8.533333s3.820501-8.533333 8.533329-8.533333zm0 4.266667c-2.35641 0-4.266663 1.910251-4.266663 4.266666 0 2.356416 1.910253 4.266667 4.266663 4.266667 2.35642 0 4.26667-1.910251 4.26667-4.266667 0-2.356415-1.91025-4.266666-4.26667-4.266666z"/></svg>