<svg xmlns="http://www.w3.org/2000/svg" xmlns:xlink="http://www.w3.org/1999/xlink" width="64" height="64"><linearGradient id="a"><stop offset="0" stop-color="#1e1e1e"/><stop offset="1" stop-color="#6b6969"/></linearGradient><linearGradient id="b" x1="391.571" x2="391.571" y1="531.798" y2="501.699" gradientTransform="matrix(1.0833321 0 0 1.3356131 -34.047105 -170.45106)" gradientUnits="userSpaceOnUse"><stop offset="0" stop-color="#bfc1c1"/><stop offset="1" stop-color="#f1f2f3"/></linearGradient><linearGradient id="c" x1="414.08" x2="414.205" y1="533.589" y2="514.004" gradientUnits="userSpaceOnUse"><stop offset="0" stop-color="#08f"/><stop offset="1" stop-color="#02c3ff"/></linearGradient><linearGradient id="d" x1="408.524" x2="409.266" y1="506.485" y2="533.195" gradientTransform="matrix(-1 0 0 -1 823.84266 1043.6233)" gradientUnits="userSpaceOnUse" xlink:href="#a"/><linearGradient id="e" x1="407.205" x2="424.071" y1="515.759" y2="532.625" gradientUnits="userSpaceOnUse"><stop offset="0" stop-color="#18222a"/><stop offset="1" stop-color="#566069"/></linearGradient><linearGradient id="f" x1="390.562" x2="390.562" y1="509.104" y2="504.104" gradientUnits="userSpaceOnUse" xlink:href="#a"/><g transform="matrix(1.153846157715 0 0 1.156399635461 -439.428591850343 -572.756003475464)"><rect width="6" height="3" x="386.562" y="506.104" fill="url(#f)" ry="1"/><rect width="52" height="32.055" x="382.571" y="507.771" fill="url(#b)" ry="1.5"/><path fill="url(#d)" d="m401.27124 523.8253a13.999973 13.999973 0 0 1 13.99997-13.99997 13.999973 13.999973 0 0 1 13.99997 13.99997 13.999973 13.999973 0 0 1 -13.99997 13.99998 13.999973 13.999973 0 0 1 -13.99997-13.99998z"/><circle cx="415.271" cy="523.825" r="11" fill="url(#e)"/><circle cx="415.271" cy="523.825" r="10" fill="url(#c)"/></g></svg>