<svg xmlns="http://www.w3.org/2000/svg" xmlns:xlink="http://www.w3.org/1999/xlink" width="64" height="64"><linearGradient id="a" x1="469.571" x2="469.571" y1="555.798" y2="502.798" gradientUnits="userSpaceOnUse"><stop offset="0" stop-color="#4e4e4f"/><stop offset=".497" stop-color="#3f3f40"/><stop offset="1" stop-color="#5a5a5c"/></linearGradient><linearGradient id="b" x1="466.821" x2="466.821" y1="545.298" y2="533.298" gradientUnits="userSpaceOnUse" xlink:href="#f"/><linearGradient id="c" x1="467.071" x2="467.071" y1="533.798" y2="521.798" gradientUnits="userSpaceOnUse"><stop offset="0" stop-color="#08f"/><stop offset="1" stop-color="#02c3ff"/></linearGradient><linearGradient id="d" x1="481.24" x2="481.24" y1="531.048" y2="509.148" gradientUnits="userSpaceOnUse"><stop offset="0" stop-color="#f0a23a"/><stop offset="1" stop-color="#fde46a"/></linearGradient><linearGradient id="e" x1="450.884" x2="450.884" y1="530.798" y2="509.798" gradientUnits="userSpaceOnUse" xlink:href="#f"/><linearGradient id="f"><stop offset="0" stop-color="#bfc1c1"/><stop offset="1" stop-color="#f1f2f3"/></linearGradient><g><g fill-rule="evenodd" transform="translate(-435.185193 -496.42697)"><circle cx="467.071" cy="540.298" r="5" fill="url(#b)"/><circle cx="467.321" cy="528.798" r="5" fill="url(#c)"/><circle cx="481.696" cy="521.923" r="9.125" fill="url(#d)"/><circle cx="451.321" cy="522.048" r="8.75" fill="url(#e)"/></g><path fill="url(#a)" d="m493.63423 518.79364c-1.8491-7.73513-5.19775-9.77128-8.89746-9.43115h-6.06622c-.0506-6.25711-5.17413-6.93552-11.48615-6.93552-6.31586 0-11.43578.67841-11.48638 6.93552 0 0-5.82497 0-7.84646 0-3.00502 0-5.57033 2.96151-7.11536 9.43115-2.09327 8.7417-1.47989 21.43937 2.78063 22.4607 2.63045.62874 6.03354-3.34783 8.74553-8.5365l7.00148 2.61068c2.06232 10.05338 4.84842 19.09845 7.92056 19.09845 3.08458 0 5.88324-9.13266 7.94755-19.24315l6.91458-2.57811c2.7227 5.24462 6.15835 9.28272 8.80695 8.64863 4.26051-1.02133 4.87401-13.719 2.78075-22.4607zm-10.66676-3.30164c1.15069 0 2.08047.93164 2.08047 2.0814 0 1.14975-.92978 2.0814-2.08047 2.0814s-2.0807-.93165-2.0807-2.0814c0-1.14976.93001-2.0814 2.0807-2.0814zm-12.2753 13.37224c0 1.84095-1.49268 3.33247-3.33422 3.33247-1.84002 0-3.33247-1.49152-3.33247-3.33247 0-1.84073 1.49245-3.33341 3.33247-3.33341 1.84166.00012 3.33422 1.49268 3.33422 3.33341zm-12.9373-5.63373c0 .45494-.3691.82311-.82311.82311h-2.8495v2.84856c0 .45495-.36909.82323-.82334.82323h-2.73166c-.45413 0-.82311-.36828-.82311-.82323v-2.84856h-1.85259-.99691c-.45401 0-.82311-.36817-.82311-.82311v-2.73178c0-.45494.36898-.82311.82311-.82311h.99691 1.85259v-2.84949c0-.45495.3691-.82324.82311-.82324h2.73177c.45425 0 .82335.36829.82335.82324v2.84949h2.84949c.45402 0 .82312.36817.82312.82311v2.73178zm12.47421 16.74926c0 1.58493-1.28457 2.86927-2.87113 2.86927-1.58492 0-2.86926-1.28434-2.86926-2.86927 0-.93257.45215-1.75313 1.14149-2.27775.48112-.36631 1.07636-.59245 1.72777-.59245.54278 0 1.04577.15914 1.47814.42075.83219.50276 1.39299 1.4073 1.39299 2.44945zm8.44705-16.03375c-1.15069 0-2.08059-.93258-2.08059-2.08233 0-1.14789.93002-2.08047 2.08059-2.08047s2.08047.93258 2.08047 2.08047c-.00012 1.14975-.9299 2.08233-2.08047 2.08233zm2.21064 2.20994c0-1.14975.93001-2.0814 2.0807-2.0814s2.08047.93165 2.08047 2.0814-.92978 2.0814-2.08047 2.0814-2.0807-.93165-2.0807-2.0814zm6.37192-2.20994c-.41423 0-.77623-.15099-1.10008-.35909-.57709-.36992-.98062-.9869-.98062-1.72324 0-.73552.40353-1.35146.98062-1.72138.32385-.20798.68585-.35897 1.10008-.35897 1.15069 0 2.08047.93257 2.08047 2.08047 0 1.14963-.92978 2.08221-2.08047 2.08221z" transform="translate(-435.185193 -496.42697)"/></g></svg>