<svg xmlns="http://www.w3.org/2000/svg" xmlns:xlink="http://www.w3.org/1999/xlink" width="64" height="64"><linearGradient id="a" x1="416.054" x2="415.934" y1="556.869" y2="506.141" gradientTransform="matrix(1.0271756 0 0 .99998598 -18.40745 -7.992763)" gradientUnits="userSpaceOnUse"><stop offset="0" stop-color="#151515"/><stop offset="1" stop-color="#3f3f3f"/></linearGradient><linearGradient id="b" x1="408.571" x2="408.571" y1="518.775" y2="505.648" gradientTransform="matrix(.99305459 0 0 .75338885 3.055693 124.76103)" gradientUnits="userSpaceOnUse"><stop offset="0" stop-color="red"/><stop offset="1" stop-color="#f55"/></linearGradient><linearGradient id="c" x1="388.805" x2="388.845" y1="518.997" y2="512.092" gradientTransform="matrix(1 0 0 .99998598 0 -1.392837)" gradientUnits="userSpaceOnUse"><stop offset="0" stop-color="#e4bd27"/><stop offset="1" stop-color="#fff360"/></linearGradient><linearGradient id="d" x1="407.525" x2="407.438" y1="546.599" y2="506.141" gradientTransform="matrix(.98795181 0 0 .99998598 5.183591 .007143)" gradientUnits="userSpaceOnUse"><stop offset="0" stop-color="#bfc1c1"/><stop offset="1" stop-color="#f1f2f3"/></linearGradient><g transform="translate(-376.57144 -491.79797)"><path fill="url(#c)" d="m388.57144 509.39797c-.554 0-1 .446-1 .99999v6.9999c0 .55399.446.99999 1 .99999h2v-8.99988z"/><path fill="url(#a)" d="m387.57144 499.9071v11.89084h2v12.99982h-1.51226s-.46183-.009-.48774.61307v21.78573c.0795 2.49606 2.192 2.60085 2.192 2.60085h37.4674s2.3406.0954 2.3406-2.19616v-27.61732c-.001-.20274-.20013-.1861-.20013-.1861h-.79987v-4.99993h.69755s.30915.003.30245-.3079v-9.39496c.008-.31882-.18801-.48501-.18801-.48501l-6.66758-6.66748c-.11113-.15531-.38964-.14441-.38964-.14441h-32.76277s-1.992.0669-1.992 2.10896z"/><rect width="35.749" height="37.929" x="390.915" y="505.836" fill="url(#d)" fill-rule="evenodd" ry="1.3"/><path fill="url(#b)" d="m392.21014 505.82319c-.7173 0-1.29495.57763-1.29495 1.29493v5.69734c0 .0114.004.0219.004.0332h-.004v1.34768h35.749v-1.34768h-.004c.00029-.0113.004-.0218.004-.0332v-5.69734c0-.7173-.57765-1.29493-1.29496-1.29493z"/><path fill="#edefef" fill-rule="evenodd" d="m424.18256 512.07493-1.45308-4.00229-1.45304 4.00229z"/><rect width="15.6" height="15.6" x="400.772" y="518.898" fill="#abb9be" ry="7.8"/></g></svg>