<svg xmlns="http://www.w3.org/2000/svg" width="51.2" height="51.2"><g fill="none" stroke="#f2f2f2" stroke-linecap="square" stroke-width="3.114"><path stroke-miterlimit="2.013" d="m14.1733 7.08663c0-3.91384-3.1728-7.08663-7.08667-7.08663-3.91384 0-7.08663 3.17279-7.08663 7.08663 0 3.91387 3.17279 7.08667 7.08663 7.08667 3.91387 0 7.08667-3.1728 7.08667-7.08667" transform="translate(3.98314 14.5281)"/><path stroke-miterlimit="2" d="m14.6095 7.30477c0-4.03432-3.2704-7.30477-7.30473-7.30477-4.03432 0-7.30477 3.27045-7.30477 7.30477 0 4.03433 3.27045 7.30473 7.30477 7.30473 4.03433 0 7.30473-3.2704 7.30473-7.30473z" transform="translate(29.5762 14.0826)"/><path stroke-miterlimit="2" d="m0 0 22.9063.0607595" transform="translate(12.4557 28.6785)"/></g></svg>