<svg xmlns="http://www.w3.org/2000/svg" xmlns:xlink="http://www.w3.org/1999/xlink" width="64" height="64"><linearGradient id="a"><stop offset="0" stop-color="#2a2c2f"/><stop offset="1" stop-color="#424649"/></linearGradient><linearGradient id="b" x1="346.571" x2="346.571" y1="547.798" y2="511.798" gradientTransform="matrix(1 0 0 .96869497 60.999998 10.210781)" gradientUnits="userSpaceOnUse"><stop offset="0" stop-color="#63984b"/><stop offset="1" stop-color="#8fc278"/></linearGradient><linearGradient id="c" x1="428.571" x2="428.571" y1="527.798" y2="518.798" gradientTransform="matrix(.85714287 0 0 .8888889 60.653035 68.644314)" gradientUnits="userSpaceOnUse" xlink:href="#a"/><linearGradient id="d" x1="428.571" x2="428.571" y1="527.798" y2="518.798" gradientTransform="matrix(.85714287 0 0 .8888889 52.653035 68.644314)" gradientUnits="userSpaceOnUse" xlink:href="#a"/><linearGradient id="e" x1="428.571" x2="428.571" y1="527.798" y2="518.798" gradientTransform="matrix(.85714287 0 0 .8888889 44.653035 68.644314)" gradientUnits="userSpaceOnUse" xlink:href="#a"/><g transform="matrix(1 0 0 .7369863 -376.571441 -354.474006)"><rect width="58" height="36.81" x="379.571" y="505.987" fill="url(#b)" fill-rule="evenodd" ry="1.453"/><path fill="#e6ed6e" d="m379.57144 538.82123h58v2.6876c-.0301 1.29236-1.47366 1.28855-1.47366 1.28855h-54.58476s-1.94072.23064-1.94158-1.39369z"/></g><g transform="matrix(1.5000003 0 0 1.5000003 -588.047286 -769.999556)"><rect width="6" height="8" x="424.571" y="529.798" fill="url(#c)" ry=".5"/><rect width="6" height="8" x="416.571" y="529.798" fill="url(#d)" ry=".5"/><rect width="6" height="8" x="408.571" y="529.798" fill="url(#e)" ry=".5"/></g></svg>