<svg xmlns="http://www.w3.org/2000/svg" width="24" height="24" viewBox="0 0 24 24"><g fill="#f2f2f2"><path fill-opacity=".4" d="m345.441 248.292-194.287 194.281c-12.359 12.365-32.397 12.365-44.75 0-12.354-12.354-12.354-32.391 0-44.744l171.914-171.909-171.909-171.903c-12.354-12.359-12.354-32.394 0-44.748 12.354-12.359 32.391-12.359 44.75 0l194.287 194.284c6.177 6.18 9.262 14.271 9.262 22.366 0 8.099-3.091 16.196-9.267 22.373z" transform="matrix(-.023231742588 -.000096018239 -.000083993581 .026557636495 8.259462226283 6.012378284906)"/><path fill-opacity=".4" d="m345.441 248.292-194.287 194.281c-12.359 12.365-32.397 12.365-44.75 0-12.354-12.354-12.354-32.391 0-44.744l171.914-171.909-171.909-171.903c-12.354-12.359-12.354-32.394 0-44.748 12.354-12.359 32.391-12.359 44.75 0l194.287 194.284c6.177 6.18 9.262 14.271 9.262 22.366 0 8.099-3.091 16.196-9.267 22.373z" transform="matrix(.023231742588 .000096018239 .000083993581 -.026557636495 15.740537773717 17.987621715094)"/><circle cx="7" cy="12" r="1.5" fill-opacity=".4"/><circle cx="17" cy="12" r="1.5" fill-opacity=".4"/></g><circle cx="-29.36" cy="-13.082" r="0" fill="#04a" transform="matrix(-.06432929 -.99792873 .99792873 -.06432929 0 0)"/><path fill="#f2f2f2" d="m12.101209 4.7690172h.0068c.594752 0 1.07356.4787931 1.07356 1.0735283v7.5452195c0 .594789-.478808 1.073582-1.07356 1.073582h-.0068c-.594752 0-1.073559-.478793-1.073559-1.073582v-7.5452195c0-.5947352.478807-1.0735283 1.073559-1.0735283z"/><rect width="2.154" height="2.154" x="11.028" y="16.615" fill="#f2f2f2" rx="9.476" ry="8.748"/></svg>