<svg xmlns="http://www.w3.org/2000/svg" xmlns:osb="http://www.openswatchbook.org/uri/2009/osb" xmlns:svg="http://www.w3.org/2000/svg" id="svg2" width="16" height="16" version="1.1" viewBox="0 0 16 16"><metadata id="metadata10"/><defs id="defs8"><linearGradient id="linearGradient5606" osb:paint="solid"><stop id="stop5608"/></linearGradient></defs><g id="g4183" transform="matrix(0.59444819,0,0,0.59112155,0.82586218,0.99532595)"><path id="path4" fill="#bebebe" fill-opacity="1" d="M 12,20 C 8.1340068,20 5,16.865993 5,13 5,9.1340068 8.1340068,6 12,6 c 3.865993,0 7,3.1340068 7,7 0,3.865993 -3.134007,7 -7,7 M 12,4 c -4.9705627,0 -9,4.0294373 -9,9 0,4.970563 4.0294373,9 9,9 4.970563,0 9,-4.029437 9,-9 0,-4.9705627 -4.029437,-9 -9,-9"/><path id="path13" fill="#bebebe" fill-opacity="1" d="M 15.855016,14.987549 13.143353,13.3131 c -0.05617,-0.317043 -0.227808,-0.590518 -0.468739,-0.784211 L 12.798493,9.126452 C 12.813706,8.691831 12.474625,8.3270205 12.040529,8.3107483 11.607481,8.290726 11.241097,8.63409 11.224825,9.068713 l -0.124401,3.406111 c -0.336463,0.237258 -0.557973,0.627789 -0.557973,1.071334 0,0.724893 0.587369,1.311739 1.312265,1.311739 0.206287,0 0.398926,-0.05196 0.572145,-0.136473 l 2.600908,1.60726 c 0.129125,0.07873 0.272427,0.117052 0.413101,0.117052 0.264027,0 0.521232,-0.132269 0.670829,-0.373208 0.228859,-0.371108 0.113387,-0.856121 -0.256679,-1.084979 z"/><rect id="rect4179" width="6.002" height="2.549" x="-2.107" y="5.196" fill="#bebebe" fill-opacity="1" stroke="none" stroke-dasharray="none" stroke-miterlimit="4" stroke-opacity="1" stroke-width="2" opacity="1" rx=".845" ry=".577" transform="matrix(0.76860246,-0.6397267,0.6397267,0.76860246,0,0)"/><rect id="rect4181" width="6.002" height="2.549" x="14.847" y="-9.705" fill="#bebebe" fill-opacity="1" stroke="none" stroke-dasharray="none" stroke-miterlimit="4" stroke-opacity="1" stroke-width="2" opacity="1" rx=".845" ry=".577" transform="matrix(0.79069112,0.61221528,-0.61221528,0.79069112,0,0)"/></g></svg>