<svg xmlns="http://www.w3.org/2000/svg" xmlns:svg="http://www.w3.org/2000/svg" id="svg7384" width="16" height="16" enable-background="new" version="1.1"><metadata id="metadata90"/><title id="title8473">Paper Symbolic Icon Theme</title><defs id="defs7386"><filter id="filter7554" color-interpolation-filters="sRGB"><feBlend id="feBlend7556" in2="BackgroundImage" mode="darken"/></filter></defs><g id="g5067"><g id="g5061"><path id="path10478" fill="#bebebe" fill-opacity=".157" stroke-width=".857" d="M 4 5.3300781 L 4 10.669922 L 11.457031 10.669922 C 11.708862 10.669922 11.914062 10.468626 11.914062 10.216797 L 11.914062 5.7832031 C 11.914063 5.5313721 11.708862 5.3300781 11.457031 5.3300781 L 4 5.3300781 z" enable-background="new"/><path id="path841-6" fill="#d33636" fill-opacity=".667" stroke-width=".709" d="m 4,5.328125 -0.794922,0.0019 c -0.172474,0 -0.310547,0.201293 -0.310547,0.453125 v 4.433594 c 0,0.251832 0.138073,0.453131 0.310547,0.453125 H 4 Z" enable-background="new"/></g><path id="path854-3" fill="#bebebe" fill-opacity="1" stroke-width=".857" d="M 2.517578,4.489469 C 2.231705,4.489469 2,4.722017 2,5.007047 v 5.984376 C 2,11.277728 2.231705,11.509 2.517578,11.509 h 10.041017 c 0.28628,0 0.517578,-0.231702 0.517578,-0.517577 V 9.928922 h 0.40625 c 0.286289,0 0.517579,-0.23045 0.517579,-0.517578 V 6.632047 C 14.000448,6.345762 13.76871,6.112516 13.482423,6.112516 h -0.40625 V 5.007047 c 0,-0.28503 -0.231275,-0.517578 -0.517578,-0.517578 z m 0.830078,0.839843 h 8.109376 c 0.251831,0 0.457033,0.201294 0.457032,0.453125 v 4.433595 c 0,0.251829 -0.205201,0.453125 -0.457032,0.453125 H 3.347656 c -0.251831,0 -0.453124,-0.201296 -0.453125,-0.453125 V 5.782437 c 0,-0.251831 0.201294,-0.453125 0.453125,-0.453125 z" enable-background="new"/></g></svg>