<svg xmlns="http://www.w3.org/2000/svg" xmlns:svg="http://www.w3.org/2000/svg" id="svg7384" width="16" height="16" enable-background="new" version="1.1"><metadata id="metadata90"/><title id="title8473">Paper Symbolic Icon Theme</title><defs id="defs7386"><filter id="filter7554" color-interpolation-filters="sRGB"><feBlend id="feBlend7556" in2="BackgroundImage" mode="darken"/></filter><filter id="filter7554-5" color-interpolation-filters="sRGB"><feBlend id="feBlend7556-6" in2="BackgroundImage" mode="darken"/></filter></defs><g id="g10476"><g id="g7341"><path id="path10474" fill="#bebebe" fill-opacity=".157" stroke-width=".857" d="m 3.3476551,5.3300778 h 8.1093759 c 0.251831,0 0.457032,0.201294 0.457031,0.4531251 v 4.4335941 c 0,0.25183 -0.2052,0.453125 -0.457031,0.453125 H 3.3476551 c -0.2518312,0 -0.4531243,-0.201295 -0.4531252,-0.453125 V 5.7832029 c 0,-0.2518311 0.201294,-0.4531251 0.4531252,-0.4531251 z" enable-background="new"/><g id="g7329"><g id="g10462"><path id="path841-6" fill="#bebebe" fill-opacity=".667" stroke-width=".709" d="m 7.1796857,6.2195155 h 0.01758 l 1.103516,2.080078 2.9414073,-1.246094 -3.1894543,2.916016 -1.105469,-2.082031 -2.9414057,1.246093 z" enable-background="new"/><path id="path854-3-1" fill="#bebebe" fill-opacity="1" stroke-width=".857" d="m 2.5175771,4.4902341 c -0.2858733,0 -0.5175781,0.2325481 -0.5175781,0.5175781 v 5.9843758 c 0,0.286305 0.2317048,0.517578 0.5175781,0.517578 H 12.558594 c 0.286279,0 0.517578,-0.231703 0.517578,-0.517578 V 9.9296873 h 0.40625 C 13.768711,9.9296873 14,9.6992373 14,9.4121093 V 6.6328125 C 14.000446,6.3465273 13.768708,6.1132812 13.482422,6.1132812 h -0.40625 v -1.105469 c 0,-0.28503 -0.231276,-0.5175781 -0.517578,-0.5175781 z m 0.830078,0.8398437 h 8.1093759 c 0.251831,0 0.457032,0.201294 0.457031,0.4531251 v 4.4335941 c 0,0.25183 -0.2052,0.453125 -0.457031,0.453125 H 3.3476551 c -0.2518312,0 -0.4531243,-0.201295 -0.4531252,-0.453125 V 5.7832029 c 0,-0.2518311 0.201294,-0.4531251 0.4531252,-0.4531251 z" enable-background="new"/></g><path id="path10464" fill="#bebebe" fill-opacity=".667" stroke-width=".709" d="m 7.1796857,6.2195155 h 0.01758 l 1.103516,2.080078 2.9414073,-1.246094 -3.1894543,2.916016 -1.105469,-2.082031 -2.9414057,1.246093 z" enable-background="new"/></g></g></g></svg>