<svg xmlns="http://www.w3.org/2000/svg" xmlns:svg="http://www.w3.org/2000/svg" id="svg7384" width="16" height="16" enable-background="new" version="1.1"><metadata id="metadata90"/><title id="title8473">Paper Symbolic Icon Theme</title><defs id="defs7386"><filter id="filter7554" color-interpolation-filters="sRGB"><feBlend id="feBlend7556" in2="BackgroundImage" mode="darken"/></filter></defs><g id="g4250" fill="#fff" fill-opacity="1" transform="matrix(0.44667783,0,0,0.44667783,18.943601,5.7245885)"><g id="g7302"><g id="g7296"><path id="path4508" fill="#bebebe" fill-opacity=".157" stroke-width=".857" d="M 5 5.3300781 L 5 10.669922 L 11.457031 10.669922 C 11.708862 10.669922 11.914062 10.468627 11.914062 10.216797 L 11.914062 5.7832031 C 11.914063 5.531372 11.708862 5.3300781 11.457031 5.3300781 L 5 5.3300781 z" enable-background="new" transform="matrix(2.23875,0,0,2.23875,-42.409987,-12.815923)"/><path id="path4510" fill="#bebebe" fill-opacity=".667" stroke-width="1.588" d="m -35.235387,-0.88539005 4.01915,-6.8319e-4 V 11.069751 l -4.01915,6.83e-4 c -0.386127,6.6e-5 -0.695622,-0.451896 -0.695622,-1.015683 V 0.13029395 c 0,-0.563787 0.309495,-1.015684 0.695622,-1.015684 z" enable-background="new"/></g><path id="path854-3" fill="#bebebe" fill-opacity="1" stroke-width="1.919" d="m -36.773759,-2.765126 c -0.639999,0 -1.158728,0.520617 -1.158728,1.158728 v 13.397522 c 0,0.640965 0.518729,1.158727 1.158728,1.158727 h 22.479327 c 0.640907,0 1.158727,-0.518725 1.158727,-1.158727 V 9.41245 h 0.909493 c 0.640929,0 1.158727,-0.51592 1.158727,-1.1587278 V 2.0315715 c 10e-4,-0.640921 -0.517805,-1.16310085 -1.158727,-1.16310085 h -0.909493 V -1.606398 c 0,-0.638111 -0.517769,-1.158728 -1.158727,-1.158728 z m 1.858337,1.88019995 h 18.154865 c 0.563787,0 1.023181,0.450647 1.023179,1.014434 V 10.055217 c 0,0.563784 -0.459392,1.014434 -1.023179,1.014434 h -18.154865 c -0.563787,0 -1.014432,-0.45065 -1.014434,-1.014434 V 0.12950795 c 0,-0.563787 0.450647,-1.014434 1.014434,-1.014434 z" enable-background="new"/></g></g></svg>