<svg xmlns="http://www.w3.org/2000/svg" xmlns:svg="http://www.w3.org/2000/svg" id="svg7384" width="16" height="16" enable-background="new" version="1.1"><metadata id="metadata90"/><title id="title8473">Paper Symbolic Icon Theme</title><defs id="defs7386"><filter id="filter7554" color-interpolation-filters="sRGB"><feBlend id="feBlend7556" in2="BackgroundImage" mode="darken"/></filter></defs><path id="path841-6" fill="#bebebe" fill-opacity=".667" stroke-width=".709" d="m 7.1796857,6.2195155 h 0.01758 l 1.103516,2.080078 2.9414073,-1.246094 -3.1894543,2.916016 -1.105469,-2.082031 -2.9414057,1.246093 z" enable-background="new"/><path id="path854-3" fill="#bebebe" fill-opacity="1" stroke-width=".857" d="m 2.5175766,4.4902343 c -0.2858733,0 -0.5175781,0.232548 -0.5175781,0.517578 v 5.9843767 c 0,0.286305 0.2317048,0.517577 0.5175781,0.517577 H 12.558594 c 0.28628,0 0.517578,-0.231702 0.517578,-0.517577 V 9.9296873 h 0.40625 c 0.286289,0 0.517579,-0.23045 0.517579,-0.517578 v -2.779297 c 4.46e-4,-0.286285 -0.231292,-0.519531 -0.517579,-0.519531 h -0.40625 v -1.105469 c 0,-0.28503 -0.231275,-0.517578 -0.517578,-0.517578 z m 0.8300779,0.839843 h 8.1093765 c 0.251831,0 0.457033,0.201294 0.457032,0.453125 v 4.4335947 c 0,0.251829 -0.205201,0.453125 -0.457032,0.453125 H 3.3476545 c -0.2518311,0 -0.4531242,-0.201296 -0.4531251,-0.453125 V 5.7832023 c 0,-0.251831 0.201294,-0.453125 0.4531251,-0.453125 z" enable-background="new"/><path id="path10483" fill="#bebebe" fill-opacity=".353" stroke-width=".948" d="M 2.9486291,5.0080443 H 11.75899 c 0.273599,0 0.49654,0.2268511 0.496539,0.5106555 v 4.9964982 c 0,0.283802 -0.22294,0.510656 -0.496539,0.510656 H 2.9486291 c -0.2735997,0 -0.4922929,-0.226854 -0.4922938,-0.510656 V 5.5186998 c 0,-0.2838044 0.2186941,-0.5106555 0.4922938,-0.5106555 z" enable-background="new"/></svg>