<svg xmlns="http://www.w3.org/2000/svg" xmlns:svg="http://www.w3.org/2000/svg" id="svg7384" width="16" height="16" enable-background="new" version="1.1"><metadata id="metadata90"/><title id="title8473">Paper Symbolic Icon Theme</title><defs id="defs7386"><filter id="filter7554" color-interpolation-filters="sRGB"><feBlend id="feBlend7556" in2="BackgroundImage" mode="darken"/></filter></defs><g id="g4552"><path id="path841-6" fill="#bebebe" fill-opacity=".667" stroke-width=".709" d="M 12 5.328125 L 3.2050781 5.3300781 C 3.0326037 5.3300781 2.8945312 5.5313711 2.8945312 5.7832031 L 2.8945312 10.216797 C 2.8945313 10.468629 3.0326037 10.669928 3.2050781 10.669922 L 12 10.669922 L 12 5.328125 z M 7.1796875 6.21875 L 7.1972656 6.21875 L 8.3007812 8.2988281 L 11.242188 7.0527344 L 8.0527344 9.96875 L 6.9472656 7.8867188 L 4.0058594 9.1328125 L 7.1796875 6.21875 z" enable-background="new"/><path id="path854-3" fill="#bebebe" fill-opacity="1" stroke-width=".857" d="M 2.5175781,4.489469 C 2.2317048,4.489469 2,4.722017 2,5.007047 v 5.984376 C 2,11.277728 2.2317048,11.509 2.5175781,11.509 H 12.558595 c 0.28628,0 0.517578,-0.231702 0.517578,-0.517577 V 9.928922 h 0.40625 c 0.286289,0 0.517579,-0.23045 0.517579,-0.517578 V 6.632047 C 14.000448,6.345762 13.76871,6.112516 13.482423,6.112516 h -0.40625 V 5.007047 c 0,-0.28503 -0.231275,-0.517578 -0.517578,-0.517578 z M 3.347656,5.329312 h 8.109376 c 0.251831,0 0.457033,0.201294 0.457032,0.453125 v 4.433595 c 0,0.251829 -0.205201,0.453125 -0.457032,0.453125 H 3.347656 c -0.2518311,0 -0.4531242,-0.201296 -0.4531251,-0.453125 V 5.782437 c 0,-0.251831 0.201294,-0.453125 0.4531251,-0.453125 z" enable-background="new"/></g></svg>