<svg xmlns="http://www.w3.org/2000/svg" xmlns:svg="http://www.w3.org/2000/svg" id="svg7384" width="16" height="16" enable-background="new" version="1.1"><metadata id="metadata90"/><title id="title8473">Paper Symbolic Icon Theme</title><defs id="defs7386"><filter id="filter7554" color-interpolation-filters="sRGB"><feBlend id="feBlend7556" in2="BackgroundImage" mode="darken"/></filter></defs><g id="g1403" transform="translate(-2.9830495,-10.238054)"><g id="g7312"><path id="path854-3" fill="#bebebe" fill-opacity="1" stroke-width=".857" d="m 5.5006276,14.727523 c -0.2858733,0 -0.5175781,0.232548 -0.5175781,0.517578 v 5.984376 c 0,0.286305 0.2317048,0.517577 0.5175781,0.517577 H 15.541645 c 0.28628,0 0.517578,-0.231702 0.517578,-0.517577 v -1.062501 h 0.40625 c 0.286289,0 0.517579,-0.23045 0.517579,-0.517578 V 16.870101 C 16.983498,16.583816 16.75176,16.35057 16.465473,16.35057 h -0.40625 v -1.105469 c 0,-0.28503 -0.231275,-0.517578 -0.517578,-0.517578 z m 0.8300779,0.839843 h 8.1093765 c 0.251831,0 0.457033,0.201294 0.457032,0.453125 v 4.433595 c 0,0.251829 -0.205201,0.453125 -0.457032,0.453125 H 6.3307055 c -0.2518311,0 -0.4531242,-0.201296 -0.4531251,-0.453125 v -4.433595 c 0,-0.251831 0.201294,-0.453125 0.4531251,-0.453125 z" enable-background="new"/><g id="g7306"><path id="path1390" fill="#bebebe" fill-opacity=".667" stroke-width=".709" d="m 11.98305,15.566406 -5.79555,0.002 c -0.1724744,0 -0.3105469,0.201293 -0.3105469,0.453125 v 4.433594 c 1e-7,0.251832 0.1380725,0.453131 0.3105469,0.453125 h 5.79555 z" enable-background="new"/><path id="path10439" fill="#bebebe" fill-opacity=".157" stroke-width=".709" d="M 9 5.3300781 L 9 10.669922 L 11.607422 10.669922 C 11.7799 10.669928 11.917969 10.468624 11.917969 10.216797 L 11.917969 5.7832031 C 11.917969 5.5313741 11.779894 5.3300781 11.607422 5.3300781 L 9 5.3300781 z" enable-background="new" transform="translate(2.9830495,10.238054)"/></g></g><path id="path10432" fill="#bebebe" fill-opacity=".667" stroke-width=".709" d="M 5.8125 5.328125 L 5.8125 5.3300781 L 7.40625 5.328125 L 5.8125 5.328125 z" enable-background="new" transform="translate(2.9830495,10.238054)"/></g></svg>