<svg xmlns="http://www.w3.org/2000/svg" xmlns:osb="http://www.openswatchbook.org/uri/2009/osb" xmlns:svg="http://www.w3.org/2000/svg" id="svg7384" width="16" height="16" enable-background="new" version="1.1"><metadata id="metadata90"/><title id="title8473">Paper Symbolic Icon Theme</title><defs id="defs7386"><linearGradient id="linearGradient5606" osb:paint="solid"><stop id="stop5608" offset="0" stop-color="#000" stop-opacity="1"/></linearGradient><filter id="filter7554" color-interpolation-filters="sRGB"><feBlend id="feBlend7556" in2="BackgroundImage" mode="darken"/></filter><clipPath id="clipPath16" clipPathUnits="userSpaceOnUse"><path id="path18" d="m 0,706.465 1490.926,0 L 1490.926,0 0,0 0,706.465 Z"/></clipPath><clipPath id="clipPath24" clipPathUnits="userSpaceOnUse"><path id="path26" d="m 22.1953,686.117 1447.7347,0 0,-667.1902 -1447.7347,0 0,667.1902 z"/></clipPath><clipPath id="clipPath4534" clipPathUnits="userSpaceOnUse"><rect id="rect4536" width="32" height="32" x="8" y="8" fill="url(#linearGradient4538)" fill-opacity="1" stroke="none" ry="16"/></clipPath><clipPath id="clipPath4584" clipPathUnits="userSpaceOnUse"><rect id="rect4586" width="32" height="32" x="392.571" y="507.798" fill="url(#linearGradient4588)" fill-opacity="1" stroke="none" ry="16"/></clipPath><clipPath id="clipPath4550" clipPathUnits="userSpaceOnUse"><rect id="rect4552" width="32" height="32" x="392.571" y="507.798" fill="url(#linearGradient4554)" fill-opacity="1" stroke="none" ry="16"/></clipPath><clipPath id="clipPath4568" clipPathUnits="userSpaceOnUse"><rect id="rect4570" width="32" height="32" x="392.571" y="507.798" fill="url(#linearGradient4572)" fill-opacity="1" stroke="none" ry="16"/></clipPath><clipPath id="clipPath4528" clipPathUnits="userSpaceOnUse"><rect id="rect4530" width="32" height="32" x="8" y="8" fill="url(#linearGradient4532)" fill-opacity="1" stroke="none" ry="16"/></clipPath><clipPath id="clipPath4578" clipPathUnits="userSpaceOnUse"><rect id="rect4580" width="32" height="32" x="392.571" y="507.798" fill="url(#linearGradient4582)" fill-opacity="1" stroke="none" ry="16"/></clipPath><clipPath id="clipPath4562" clipPathUnits="userSpaceOnUse"><rect id="rect4564" width="32" height="32" x="392.571" y="507.798" fill="url(#linearGradient4566)" fill-opacity="1" stroke="none" ry="16"/></clipPath><clipPath id="clipPath4544" clipPathUnits="userSpaceOnUse"><rect id="rect4546" width="32" height="32" x="392.571" y="507.798" fill="url(#linearGradient4548)" fill-opacity="1" stroke="none" ry="16"/></clipPath><clipPath id="clipPath4390" clipPathUnits="userSpaceOnUse"><rect id="rect4392" width="32" height="32" x="8" y="8" fill="url(#linearGradient4532)" fill-opacity="1" stroke="none" ry="16"/></clipPath><clipPath id="clipPath4407" clipPathUnits="userSpaceOnUse"><rect id="rect4409" width="32" height="32" x="392.571" y="507.798" fill="url(#linearGradient4582)" fill-opacity="1" stroke="none" ry="16"/></clipPath><clipPath id="clipPath4424" clipPathUnits="userSpaceOnUse"><rect id="rect4426" width="32" height="32" x="392.571" y="507.798" fill="url(#linearGradient4566)" fill-opacity="1" stroke="none" ry="16"/></clipPath><clipPath id="clipPath4441" clipPathUnits="userSpaceOnUse"><rect id="rect4443" width="32" height="32" x="392.571" y="507.798" fill="url(#linearGradient4548)" fill-opacity="1" stroke="none" ry="16"/></clipPath><clipPath id="clipPath4528-1" clipPathUnits="userSpaceOnUse"><rect id="rect4530-7" width="32" height="32" x="8" y="8" fill="url(#linearGradient4532)" fill-opacity="1" stroke="none" ry="16"/></clipPath><clipPath id="clipPath4578-8" clipPathUnits="userSpaceOnUse"><rect id="rect4580-7" width="32" height="32" x="392.571" y="507.798" fill="url(#linearGradient4582)" fill-opacity="1" stroke="none" ry="16"/></clipPath><clipPath id="clipPath4562-8" clipPathUnits="userSpaceOnUse"><rect id="rect4564-8" width="32" height="32" x="392.571" y="507.798" fill="url(#linearGradient4566)" fill-opacity="1" stroke="none" ry="16"/></clipPath><clipPath id="clipPath4544-1" clipPathUnits="userSpaceOnUse"><rect id="rect4546-1" width="32" height="32" x="392.571" y="507.798" fill="url(#linearGradient4548)" fill-opacity="1" stroke="none" ry="16"/></clipPath><linearGradient id="linearGradient4207" osb:paint="gradient"><stop id="stop3371" offset="0" stop-color="#3498db" stop-opacity="1"/><stop id="stop3373" offset="1" stop-color="#3498db" stop-opacity="0"/></linearGradient></defs><g id="layer9" display="inline" transform="translate(-364.99759,251)"><g id="layer1-99" fill="#bebebe" fill-opacity="1" transform="matrix(0.75000002,0,0,0.75000002,120.24758,-652.02166)"><g id="layer1-40" fill="#bebebe" fill-opacity="1" transform="matrix(1.3333333,0,0,1.3333333,-197.09522,-163.70178)"><g id="layer1-21" fill="#bebebe" fill-opacity="1" transform="matrix(0.75183331,0,0,0.75183331,392.28045,-251.06566)"><g id="layer1-6" fill="#bebebe" fill-opacity="1" transform="translate(-0.00514745,3.5754049e-6)"><g id="layer1-1-11" fill="#bebebe" fill-opacity="1" transform="matrix(1.2511145,0,0,1.2511145,1.1229837,-264.94606)"><g id="g4207" fill="#bebebe" fill-opacity="1" transform="matrix(0.03390116,0,0,0.03390116,1.5421219,1037.6656)"><path id="path4248" fill="#bebebe" fill-opacity="1" d="m 299.022,161.265 -185.845,0 0,-46.285 c 0,-41.344 33.635,-74.979 74.979,-74.979 33.758,0 63.513,22.716 72.359,55.241 2.898,10.657 13.888,16.946 24.547,14.05 10.659,-2.898 16.949,-13.889 14.05,-24.548 C 285.542,34.848 239.916,0 188.156,0 124.756,0 73.177,51.58 73.177,114.979 l 0,46.715 c -9.061,1.902 -15.888,9.952 -15.888,19.571 l 0,175.047 c 0,11.028 8.972,20 20,20 l 221.733,0 c 11.028,0 20,-8.972 20,-20 l 0,-175.047 c 0,-11.029 -8.972,-20 -20,-20 z"/><path id="path4246" fill="#bebebe" fill-opacity="1" d="m 215.018,310.912 c 0.408,2.162 -1.058,3.931 -3.258,3.931 l -46.677,0 c -2.2,0 -3.666,-1.769 -3.258,-3.931 l 7.432,-39.387 c -5.626,-5.131 -9.157,-12.52 -9.157,-20.734 0,-15.495 12.561,-28.056 28.056,-28.056 15.495,0 28.056,12.561 28.056,28.056 0,7.991 -3.346,15.195 -8.707,20.305 z"/></g></g></g></g></g></g></g></svg>