<svg xmlns="http://www.w3.org/2000/svg" xmlns:osb="http://www.openswatchbook.org/uri/2009/osb" xmlns:svg="http://www.w3.org/2000/svg" id="svg7384" width="16" height="16" enable-background="new" version="1.1"><metadata id="metadata90"/><title id="title8473">Paper Symbolic Icon Theme</title><defs id="defs7386"><linearGradient id="linearGradient5606" osb:paint="solid"><stop id="stop5608" offset="0" stop-color="#000" stop-opacity="1"/></linearGradient><filter id="filter7554" color-interpolation-filters="sRGB"><feBlend id="feBlend7556" in2="BackgroundImage" mode="darken"/></filter></defs><g id="layer9" display="inline" transform="translate(-365.0004,291.00336)"><path id="rect3762" fill="#bebebe" fill-opacity="1" stroke="none" d="m 373.0002,-290.28125 c -0.76797,0.75782 -1.50067,1.62777 -2.28125,2.37225 l -2.62775,0 0,2.62775 c -0.74462,0.78061 -1.61433,1.51326 -2.37225,2.28125 0.75788,0.76803 1.62768,1.53183 2.37225,2.3125 l 0,2.59675 2.62775,0 c 0.78061,0.74462 1.51326,1.61408 2.28125,2.372 0.76803,-0.75788 1.53183,-1.62743 2.3125,-2.372 l 2.5965,-5e-4 0,-2.59675 c 0.74462,-0.78062 1.61433,-1.54401 2.37225,-2.312 -0.75788,-0.76803 -1.62768,-1.50109 -2.37225,-2.28175 l 0,-2.62775 -2.5965,5e-4 c -0.78062,-0.74462 -1.54451,-1.61433 -2.3125,-2.37225 z m 0,3.28125 c 2.20914,0 4,1.79086 4,4 0,2.20914 -1.79086,4 -4,4 -2.20914,0 -4,-1.79086 -4,-4 0,-2.20914 1.79086,-4 4,-4 z m 0,1 c -1.65685,0 -3,1.34315 -3,3 0,1.65685 1.34315,3 3,3 z"/></g></svg>