<svg xmlns="http://www.w3.org/2000/svg" xmlns:osb="http://www.openswatchbook.org/uri/2009/osb" xmlns:svg="http://www.w3.org/2000/svg" xmlns:xlink="http://www.w3.org/1999/xlink" id="svg7384" width="16.001" height="16.001" enable-background="new" version="1.1"><metadata id="metadata90"/><title id="title8473">Paper Symbolic Icon Theme</title><defs id="defs7386"><filter id="filter7554" color-interpolation-filters="sRGB"><feBlend id="feBlend7556" in2="BackgroundImage" mode="darken"/></filter><linearGradient id="linearGradient4207" osb:paint="gradient"><stop id="stop3371" offset="0" stop-color="#3498db" stop-opacity="1"/><stop id="stop3373" offset="1" stop-color="#3498db" stop-opacity="0"/></linearGradient><filter id="filter7554-0" color-interpolation-filters="sRGB"><feBlend id="feBlend7556-75" in2="BackgroundImage" mode="darken"/></filter><linearGradient id="linearGradient2868" x1="8.925" x2="8.925" y1="6" y2="19" gradientTransform="translate(-1,-2)" gradientUnits="userSpaceOnUse" xlink:href="#linearGradient3678"/><linearGradient id="linearGradient3678"><stop id="stop3680" offset="0" stop-color="#fff" stop-opacity="1"/><stop id="stop3682" offset="1" stop-color="#e6e6e6" stop-opacity="1"/></linearGradient><linearGradient id="linearGradient2393" x1="9" x2="9" y1="3" y2="21" gradientTransform="translate(-2,-1)" gradientUnits="userSpaceOnUse" xlink:href="#linearGradient3678"/><linearGradient id="linearGradient2398" x1="14" x2="14" y1="3" y2="21" gradientTransform="translate(-1.0001235,-5)" gradientUnits="userSpaceOnUse" xlink:href="#linearGradient3587-6-5-3"/><linearGradient id="linearGradient3587-6-5-3"><stop id="stop3589-9-2-0" offset="0" stop-color="#000" stop-opacity="1"/><stop id="stop3591-7-4-7" offset="1" stop-color="#363636" stop-opacity="1"/></linearGradient><linearGradient id="linearGradient2395" x1="66.097" x2="66.097" y1="9.364" y2="27.364" gradientTransform="translate(-52.096803,-11.363826)" gradientUnits="userSpaceOnUse" xlink:href="#linearGradient3587-6-5-3"/><linearGradient id="linearGradient7390" x1="4.955" x2="4.955" y1="2.684" y2="13.496" gradientUnits="userSpaceOnUse" xlink:href="#linearGradient3587-6-5-3"/><linearGradient id="linearGradient7392" x1="7.911" x2="7.911" y1="4.576" y2="11.649" gradientUnits="userSpaceOnUse" xlink:href="#linearGradient3587-6-5-3"/><linearGradient id="linearGradient7394" x1="10.187" x2="10.187" y1="2.774" y2="13.317" gradientUnits="userSpaceOnUse" xlink:href="#linearGradient3587-6-5-3"/><linearGradient id="linearGradient7396" x1="13.917" x2="13.917" y1=".882" y2="15.183" gradientUnits="userSpaceOnUse" xlink:href="#linearGradient3587-6-5-3"/><linearGradient id="linearGradient5263"><stop id="stop5265" offset="0" stop-color="#a0d5ff" stop-opacity="1"/><stop id="stop5267" offset="1" stop-color="#a0d5ff" stop-opacity="1"/></linearGradient><filter id="filter7554-5" color-interpolation-filters="sRGB"><feBlend id="feBlend7556-7" in2="BackgroundImage" mode="darken"/></filter></defs><g id="layer1" transform="matrix(0.74997133,0,0,0.74997133,2.0007294,-775.24096)"><g id="layer1-4" transform="translate(-412.88298,512.00351)"><g id="g4240" transform="translate(341.79698,500.25245)"><g id="layer1-1" transform="translate(-392.98822,-511.27795)"><g id="layer1-5-4" fill="#bebebe" fill-opacity="1" transform="matrix(0.71733438,0,0,0.71733438,181.16816,163.89609)"><g id="layer1-5-5" fill="#bebebe" fill-opacity="1" transform="matrix(2.0802722,0,0,2.0802722,350.91598,-1637.5069)"><g id="microphone28" fill="#bebebe" fill-opacity="1" transform="matrix(0.07908756,0,0,0.07908756,22.539801,1036.0878)"><g id="g4987" fill="#bebebe" fill-opacity="1"><path id="path4989" fill="#bebebe" fill-opacity="1" d="M 8,1.5 C 7.3124687,1.5 6.7239894,1.7448565 6.234375,2.234375 5.7447606,2.7238935 5.5,3.3124687 5.5,4 l 0,4 C 5.5,8.6875313 5.7448565,9.2762024 6.234375,9.765625 6.7238935,10.255048 7.3124687,10.5 8,10.5 8.6875313,10.5 9.2761065,10.255048 9.765625,9.765625 10.255143,9.2762024 10.5,8.6875313 10.5,8 l 0,-4 C 10.5,3.3124687 10.255335,2.7239894 9.765625,2.234375 9.2761065,1.7448565 8.6875313,1.5 8,1.5 Z m 0,0.7753906 c 0.4633855,0 0.861478,0.1545861 1.1914062,0.4628906 0.3300572,0.3083651 0.4941407,0.6802659 0.4941407,1.1132813 l 0,4.3613281 c 0,0.4330155 -0.1642131,0.8030843 -0.4941407,1.1113282 C 8.8614779,9.6324619 8.4633855,9.7871094 8,9.7871094 7.5366144,9.7871094 7.1404748,9.6324619 6.8105469,9.3242188 6.4806188,9.0159749 6.3164062,8.6459061 6.3164062,8.2128906 l 0,-4.3613281 c 0,-0.4330154 0.164148,-0.8049766 0.4941407,-1.1132813 C 7.1405395,2.4299767 7.5366144,2.2753906 8,2.2753906 Z" transform="matrix(10.428615,0,0,10.428615,-36.433635,-15.434102)"/><path id="path4991" fill="#bebebe" fill-opacity="1" d="m 92.38,53.905 c -1.03,-1.032 -2.254,-1.548 -3.666,-1.548 -1.412,0 -2.634,0.516 -3.666,1.548 -1.032,1.032 -1.548,2.254 -1.548,3.666 L 83.5,68 C 83.5,78.049 79.928,86.643 72.786,93.786 65.645,100.929 57.049,104.5 47,104.5 36.951,104.5 28.356,100.929 21.213,93.786 14.071,86.645 10.5,78.049 10.5,68 l 0,-10.429 C 10.5,56.159 9.984,54.937 8.952,53.905 7.92,52.873 6.699,52.357 5.286,52.357 c -1.413,0 -2.635,0.516 -3.667,1.548 -1.032,1.032 -1.548,2.254 -1.548,3.666 l 0,10.429 c 0,12.004 4.006,22.446 12.017,31.326 8.011,8.88 17.91,13.972 29.697,15.275 l 0,10.756 -20.857,0 c -1.412,0 -2.634,0.516 -3.666,1.548 -1.032,1.032 -1.548,2.254 -1.548,3.666 0,1.411 0.516,2.635 1.548,3.666 1.032,1.032 2.254,1.549 3.666,1.549 l 52.142,0 c 1.412,0 2.636,-0.517 3.666,-1.549 1.033,-1.031 1.55,-2.255 1.55,-3.666 0,-1.412 -0.517,-2.634 -1.55,-3.666 -1.03,-1.032 -2.254,-1.548 -3.666,-1.548 l -20.855,0 0,-10.756 C 64,113.298 73.899,108.206 81.911,99.326 89.923,90.446 93.93,80.004 93.93,68 l 0,-10.429 c 0,-1.412 -0.517,-2.633 -1.55,-3.666 l 0,0 z"/></g></g></g></g></g></g></g></g></svg>