<svg xmlns="http://www.w3.org/2000/svg" xmlns:svg="http://www.w3.org/2000/svg" id="svg7384" width="16" height="16" version="1.1"><metadata id="metadata90"/><title id="title9167">Gnome Symbolic Icon Theme</title><defs id="defs7386"><style id="current-color-scheme" type="text/css"/><style id="current-color-scheme-3" type="text/css"/><style id="current-color-scheme-35" type="text/css"/></defs><g id="layer11" display="inline" transform="translate(-283.00021,-629)"><path id="path3300" fill="#bebebe" fill-opacity="1" d="m 295.66688,637 -1.33334,0 0,-2 1.33334,0 z m 0,-3.33333 -10.66667,0 0,6.66666 c 0,1.47276 1.19391,2.66667 2.66667,2.66667 l 4,0 c 1.47274,0 2.66666,-1.19391 2.66666,-2.66667 l 0,-2 1.33334,0 c 0.73637,0 1.33333,-0.59696 1.33333,-1.33333 l 0,-2 c 0,-0.74 -0.6,-1.33333 -1.33333,-1.33333 z"/><g id="layer2" display="none" transform="translate(270.44776,648.38616)"><path id="path6309" fill="#bebebe" fill-opacity="1" fill-rule="nonzero" stroke="none" stroke-width="1.7" d="m 6.555174,3.6689621 c -1.97865,-0.004 -4.74917,0.59448 -4.36893,1.9299 0.27853,0.9782 2.7468,1.37112 4.2822,1.34057 2.39093,-0.0476 3.99564,-0.15186 4.49936,-1.16589 0.66845,-1.34563 -2.32411,-2.10075 -4.41263,-2.10458 z" baseline-shift="baseline" color="#000" direction="ltr" display="inline" enable-background="accumulate" font-family="Sans" font-size="medium" font-stretch="normal" font-style="normal" font-variant="normal" font-weight="normal" letter-spacing="normal" overflow="visible" text-anchor="start" text-decoration="none" visibility="visible" word-spacing="normal" writing-mode="lr-tb" style="line-height:normal;-inkscape-font-specification:Sans;text-indent:0;text-align:start;text-decoration-line:none;text-transform:none;block-progression:tb;marker:none"/></g><path id="path4114" fill="#bebebe" fill-opacity="1" fill-rule="nonzero" stroke="none" stroke-dasharray="none" stroke-dashoffset="0" stroke-linecap="butt" stroke-linejoin="miter" stroke-miterlimit="4" stroke-opacity="1" stroke-width="1.3" d="m 286.60282,630.482 c 0,0 -0.1458,0.10908 -0.2912,0.27273 -0.14524,0.16348 -0.31893,0.38933 -0.32139,0.69986 -0.002,0.30445 0.15695,0.51985 0.26266,0.6772 0.1057,0.15735 0.16404,0.25422 0.15944,0.38182 -0.009,0.24106 -0.36504,0.47832 -0.36504,0.47832 l 0.26769,0.49007 c 0,0 0.63208,-0.30182 0.65539,-0.94825 0.0114,-0.31566 -0.1435,-0.54965 -0.25343,-0.71329 -0.10993,-0.16364 -0.16942,-0.26 -0.16867,-0.36168 3.3e-4,-0.0661 0.0767,-0.21546 0.18126,-0.33314 0.10456,-0.11769 0.20811,-0.19637 0.20811,-0.19637 l -0.33482,-0.44727 z" baseline-shift="baseline" clip-rule="nonzero" color="#000" color-interpolation="sRGB" color-interpolation-filters="linearRGB" color-rendering="auto" direction="ltr" display="inline" enable-background="accumulate" font-family="sans-serif" font-size="medium" font-stretch="normal" font-style="normal" font-variant="normal" font-weight="normal" image-rendering="auto" letter-spacing="normal" opacity="1" overflow="visible" shape-rendering="auto" text-anchor="start" text-decoration="none" text-rendering="auto" visibility="visible" word-spacing="normal" writing-mode="lr-tb" style="line-height:normal;text-indent:0;text-align:start;text-decoration-line:none;text-decoration-style:solid;text-decoration-color:#000;text-transform:none;block-progression:tb;white-space:normal;isolation:auto;mix-blend-mode:normal;solid-color:#000;solid-opacity:1"/><path display="inline" style="line-height:normal;text-indent:0;text-align:start;text-decoration-line:none;text-decoration-style:solid;text-decoration-color:#000;text-transform:none;block-progression:tb;white-space:normal;isolation:auto;mix-blend-mode:normal;solid-color:#000;solid-opacity:1" id="path3290" fill="#bebebe" fill-opacity="1" fill-rule="nonzero" stroke="none" stroke-dasharray="none" stroke-dashoffset="0" stroke-linecap="butt" stroke-linejoin="miter" stroke-miterlimit="4" stroke-opacity="1" stroke-width="1.3" d="m 288.60282,630.482 c 0,0 -0.1458,0.10908 -0.2912,0.27273 -0.14524,0.16348 -0.31893,0.38933 -0.32139,0.69986 -0.002,0.30445 0.15695,0.51985 0.26266,0.6772 0.1057,0.15735 0.16404,0.25422 0.15944,0.38182 -0.009,0.24106 -0.36504,0.47832 -0.36504,0.47832 l 0.26769,0.49007 c 0,0 0.63208,-0.30182 0.65539,-0.94825 0.0114,-0.31566 -0.1435,-0.54965 -0.25343,-0.71329 -0.10993,-0.16364 -0.16942,-0.26 -0.16867,-0.36168 3.3e-4,-0.0661 0.0767,-0.21546 0.18126,-0.33314 0.10456,-0.11769 0.20811,-0.19637 0.20811,-0.19637 l -0.33482,-0.44727 z" baseline-shift="baseline" clip-rule="nonzero" color="#000" color-interpolation="sRGB" color-interpolation-filters="linearRGB" color-rendering="auto" direction="ltr" enable-background="accumulate" font-family="sans-serif" font-size="medium" font-stretch="normal" font-style="normal" font-variant="normal" font-weight="normal" image-rendering="auto" letter-spacing="normal" opacity="1" overflow="visible" shape-rendering="auto" text-anchor="start" text-decoration="none" text-rendering="auto" visibility="visible" word-spacing="normal" writing-mode="lr-tb"/><path id="path3292" fill="#bebebe" fill-opacity="1" fill-rule="nonzero" stroke="none" stroke-dasharray="none" stroke-dashoffset="0" stroke-linecap="butt" stroke-linejoin="miter" stroke-miterlimit="4" stroke-opacity="1" stroke-width="1.3" d="m 290.60282,630.482 c 0,0 -0.1458,0.10908 -0.2912,0.27273 -0.14524,0.16348 -0.31893,0.38933 -0.32139,0.69986 -0.002,0.30445 0.15695,0.51985 0.26266,0.6772 0.1057,0.15735 0.16404,0.25422 0.15944,0.38182 -0.009,0.24106 -0.36504,0.47832 -0.36504,0.47832 l 0.26769,0.49007 c 0,0 0.63208,-0.30182 0.65539,-0.94825 0.0114,-0.31566 -0.1435,-0.54965 -0.25343,-0.71329 -0.10993,-0.16364 -0.16942,-0.26 -0.16867,-0.36168 3.3e-4,-0.0661 0.0767,-0.21546 0.18126,-0.33314 0.10456,-0.11769 0.20811,-0.19637 0.20811,-0.19637 l -0.33482,-0.44727 z" baseline-shift="baseline" clip-rule="nonzero" color="#000" color-interpolation="sRGB" color-interpolation-filters="linearRGB" color-rendering="auto" direction="ltr" display="inline" enable-background="accumulate" font-family="sans-serif" font-size="medium" font-stretch="normal" font-style="normal" font-variant="normal" font-weight="normal" image-rendering="auto" letter-spacing="normal" opacity="1" overflow="visible" shape-rendering="auto" text-anchor="start" text-decoration="none" text-rendering="auto" visibility="visible" word-spacing="normal" writing-mode="lr-tb" style="line-height:normal;text-indent:0;text-align:start;text-decoration-line:none;text-decoration-style:solid;text-decoration-color:#000;text-transform:none;block-progression:tb;white-space:normal;isolation:auto;mix-blend-mode:normal;solid-color:#000;solid-opacity:1"/><path display="inline" style="line-height:normal;text-indent:0;text-align:start;text-decoration-line:none;text-decoration-style:solid;text-decoration-color:#000;text-transform:none;block-progression:tb;white-space:normal;isolation:auto;mix-blend-mode:normal;solid-color:#000;solid-opacity:1" id="path3294" fill="#bebebe" fill-opacity="1" fill-rule="nonzero" stroke="none" stroke-dasharray="none" stroke-dashoffset="0" stroke-linecap="butt" stroke-linejoin="miter" stroke-miterlimit="4" stroke-opacity="1" stroke-width="1.3" d="m 292.60282,630.482 c 0,0 -0.1458,0.10908 -0.2912,0.27273 -0.14524,0.16348 -0.31893,0.38933 -0.32139,0.69986 -0.002,0.30445 0.15695,0.51985 0.26266,0.6772 0.1057,0.15735 0.16404,0.25422 0.15944,0.38182 -0.009,0.24106 -0.36504,0.47832 -0.36504,0.47832 l 0.26769,0.49007 c 0,0 0.63208,-0.30182 0.65539,-0.94825 0.0114,-0.31566 -0.1435,-0.54965 -0.25343,-0.71329 -0.10993,-0.16364 -0.16942,-0.26 -0.16867,-0.36168 3.3e-4,-0.0661 0.0767,-0.21546 0.18126,-0.33314 0.10456,-0.11769 0.20811,-0.19637 0.20811,-0.19637 l -0.33482,-0.44727 z" baseline-shift="baseline" clip-rule="nonzero" color="#000" color-interpolation="sRGB" color-interpolation-filters="linearRGB" color-rendering="auto" direction="ltr" enable-background="accumulate" font-family="sans-serif" font-size="medium" font-stretch="normal" font-style="normal" font-variant="normal" font-weight="normal" image-rendering="auto" letter-spacing="normal" opacity="1" overflow="visible" shape-rendering="auto" text-anchor="start" text-decoration="none" text-rendering="auto" visibility="visible" word-spacing="normal" writing-mode="lr-tb"/></g></svg>