<svg xmlns="http://www.w3.org/2000/svg" xmlns:osb="http://www.openswatchbook.org/uri/2009/osb" xmlns:svg="http://www.w3.org/2000/svg" id="svg7384" width="16" height="16" enable-background="new" version="1.1"><metadata id="metadata90"/><title id="title8473">Paper Symbolic Icon Theme</title><defs id="defs7386"><linearGradient id="linearGradient5606" osb:paint="solid"><stop id="stop5608" offset="0" stop-color="#000" stop-opacity="1"/></linearGradient><filter id="filter7554" color-interpolation-filters="sRGB"><feBlend id="feBlend7556" in2="BackgroundImage" mode="darken"/></filter></defs><g id="layer9" display="inline" transform="translate(-445.0004,435.00336)"><path id="path10910" fill="#bebebe" fill-opacity="1" stroke="none" stroke-dasharray="none" stroke-miterlimit="4" stroke-opacity="1" stroke-width="31" d="m 450.3754,-430.37836 c -1.86396,0 -3.375,1.51104 -3.375,3.375 0,1.86396 1.51104,3.375 3.375,3.375 1.42853,-0.002 2.70107,-0.90316 3.17725,-2.25 l 2.44775,-0.003 0,1.5 2.25,0 0,-1.50293 0.75,0.003 0,-2.25 -5.44775,0.003 c -0.47618,-1.34684 -1.74872,-2.248 -3.17725,-2.25 z m 0,2.25 c 0.62132,0 1.125,0.50368 1.125,1.125 0,0.62132 -0.50368,1.125 -1.125,1.125 -0.62132,0 -1.125,-0.50368 -1.125,-1.125 0,-0.62132 0.50368,-1.125 1.125,-1.125 z" display="inline" enable-background="new" opacity="1"/></g></svg>