<svg xmlns="http://www.w3.org/2000/svg" xmlns:osb="http://www.openswatchbook.org/uri/2009/osb" xmlns:svg="http://www.w3.org/2000/svg" id="svg2" width="16" height="16" enable-background="new" version="1.1"><metadata id="metadata90"/><defs id="defs7386"><linearGradient id="linearGradient5606" osb:paint="solid"><stop id="stop5608"/></linearGradient></defs><g id="layer9" transform="translate(-281.0002,283)"><g id="layer9-4" fill="#bebebe" transform="matrix(0.85714286,0,0,0.85714286,229.85751,-484.99998)"><path id="rect7011-24" d="m 2.9998,0.99998 c 0,0 -2,0 -2,2.0625 l 0,9.9375 c 0,2 2,2 2,2 l 10,0 c 2,0 2,-2 2,-2 l 0,-10 c 0,0 0,-2 -2,-2 z M 6,3 11.9998,2.99998 12,5 6,5 l 0,2 4,0 0,2 -4,0 0,2 6,0 0,2 -6,0 C 6,13 4,13 4,11 L 4,5 C 4,3 6,3 6,3 Z" color="#bebebe" transform="translate(61,237)"/></g></g></svg>