<svg xmlns="http://www.w3.org/2000/svg" xmlns:osb="http://www.openswatchbook.org/uri/2009/osb" xmlns:svg="http://www.w3.org/2000/svg" id="svg5245" width="16" height="16" enable-background="new" version="1.1"><metadata id="metadata90"/><defs id="defs7386"><linearGradient id="linearGradient5606" osb:paint="solid"><stop id="stop5608"/></linearGradient></defs><g id="layer9" transform="translate(-341.0002,283)"><path id="rect7011-8" fill="#bebebe" d="m 344.71449,-281 c 0,0 -1.71429,0 -1.71429,1.76786 l 0,8.51785 c 0,1.71429 1.71429,1.71429 1.71429,1.71429 l 8.57142,0 c 1.71429,0 1.71429,-1.71429 1.71429,-1.71429 l 0,-8.57142 c 0,0 0,-1.71429 -1.71429,-1.71429 z m 2.5716,1.7143 3.42857,0 c 1.71428,0 1.75904,2.01551 1.71428,1.71429 l 0,0.85714 -1.71428,0 0,-0.85714 -3.42857,0 0,5.14286 3.42857,0 0,-0.85715 1.71428,0 0,0.85715 c 0,0 0,1.71428 -1.71428,1.71428 l -3.42857,0 c 0,0 -1.71429,0 -1.71429,-1.71428 l 0,-5.14286 c 0,-1.71429 1.71429,-1.71429 1.71429,-1.71429 z" color="#555"/></g></svg>