<svg xmlns="http://www.w3.org/2000/svg" xmlns:svg="http://www.w3.org/2000/svg" id="svg7384" width="16" height="16" enable-background="new" version="1.1"><metadata id="metadata90"/><title id="title8473">Paper Symbolic Icon Theme</title><defs id="defs7386"><filter id="filter7554" color-interpolation-filters="sRGB"><feBlend id="feBlend7556" in2="BackgroundImage" mode="darken"/></filter></defs><g id="layer9" transform="matrix(0.85714286,0,0,0.85714286,-328.85714,305.42857)"><path id="path5688" fill="#bebebe" d="m 400,-354 -14,14 14,0 0,-14 z m -3,6 c 1.1046,0 2,0.89543 2,2 0,1.10457 -0.89543,2 -2,2 l 0,1 -1,0 0,-2 1,0 c 0.55229,0 1,-0.44772 1,-1 0,-0.55228 -0.44771,-1 -1,-1 -0.55228,0 -1,0.44772 -1,1 l -1,0 c 0,-1.1046 0.89543,-2 2,-2 z m -1,6 1,0 0,1 -1,0 0,-1 z"/></g></svg>