<svg xmlns="http://www.w3.org/2000/svg" xmlns:osb="http://www.openswatchbook.org/uri/2009/osb" xmlns:svg="http://www.w3.org/2000/svg" id="svg4141" width="16" height="16" enable-background="new" version="1.1"><metadata id="metadata90"/><defs id="defs7386"><linearGradient id="linearGradient5606" osb:paint="solid"><stop id="stop5608"/></linearGradient></defs><g id="layer9" transform="translate(-261.0002,283)"><g id="layer9-8" fill="#bebebe" transform="matrix(0.86428572,0,0,0.86428572,209.41466,-486.79998)"><path id="rect7011" d="m 2.9998,0.99998 c 0,0 -2,0 -2,2.0625 l 0,9.9375 c 0,2 2,2 2,2 l 10,0 c 2,0 2,-2 2,-2 l 0,-10 c 0,0 0,-2 -2,-2 z M 6,3 10,3 c 2,0 2.052216,2.3514242 2,2 l 0,1 -2,0 0,-1 -4,0 0,6 4,0 0,-1 -2,0 C 8,10 8,10 8,9 8,8 8,8 8,8 l 4,0 c 0,0 0,1 0,1.03125 L 12,11 c 0,0 0,2 -2,2 L 6,13 C 6,13 4,13 4,11 L 4,5 C 4,3 6,3 6,3 Z" color="#bebebe" transform="translate(61,237)"/></g></g></svg>