<svg xmlns="http://www.w3.org/2000/svg" xmlns:osb="http://www.openswatchbook.org/uri/2009/osb" xmlns:svg="http://www.w3.org/2000/svg" id="svg4694" width="16" height="16" enable-background="new" version="1.1"><metadata id="metadata90"/><defs id="defs7386"><linearGradient id="linearGradient5606" osb:paint="solid"><stop id="stop5608"/></linearGradient></defs><g id="layer9" transform="translate(-361.0002,283)"><g id="layer9-0" fill="#bebebe" transform="matrix(0.85714286,0,0,0.85714286,309.85751,-484.99998)"><path id="rect7011-2" d="m 2.9998,0.99998 c 0,0 -2,0 -2,2.0625 l 0,9.9375 c 0,2 2,2 2,2 l 10,0 c 2,0 2,-2 2,-2 l 0,-10 c 0,0 0,-2 -2,-2 z m 3,2 L 6,7 l 4,0 -2e-4,-4.00002 2,0 L 12,13 9.9998,12.99998 10,9 6,9 5.9998,12.99998 4,13 3.9998,2.99998 Z" color="#bebebe" transform="translate(61,237)"/></g></g></svg>