<svg xmlns="http://www.w3.org/2000/svg" xmlns:osb="http://www.openswatchbook.org/uri/2009/osb" xmlns:svg="http://www.w3.org/2000/svg" id="svg7384" width="16" height="16" enable-background="new" version="1.1"><metadata id="metadata90"/><title id="title8473">Paper Symbolic Icon Theme</title><defs id="defs7386"><linearGradient id="linearGradient5606" osb:paint="solid"><stop id="stop5608" offset="0" stop-color="#000" stop-opacity="1"/></linearGradient><filter id="filter7554" color-interpolation-filters="sRGB"><feBlend id="feBlend7556" in2="BackgroundImage" mode="darken"/></filter></defs><g id="layer9" display="inline" transform="translate(-465.0004,435.00336)"><path id="path5810" fill="#bebebe" fill-opacity="1" stroke="none" stroke-dasharray="none" stroke-miterlimit="4" stroke-opacity="1" stroke-width="31" d="m 470.15102,-430.50336 c -0.89601,0 -1.70821,0.31961 -2.35721,0.83333 l 4.71934,0 c -0.65692,-0.52121 -1.47978,-0.8321 -2.36213,-0.83333 z m -3.15062,5.83333 c 0.68048,1.00426 1.83624,1.66667 3.15062,1.66667 1.28203,-0.002 2.44393,-0.64718 3.1358,-1.66667 l -6.28642,0 z m 9.4716,0 0,0.83008 2.5284,0 0,-0.83008 -2.5284,0 z" display="inline" enable-background="new" opacity=".35"/><path id="path6383" fill="#bebebe" fill-opacity="1" fill-rule="nonzero" stroke="none" stroke-width="1" d="m 468.5004,-428.53175 c -0.831,0 -1.5,0.669 -1.5,1.5 0,0.831 0.669,1.49999 1.5,1.49999 0.831,0 1.5,-0.66899 1.5,-1.49999 0,-0.831 -0.669,-1.5 -1.5,-1.5 z" color="#000" display="inline" enable-background="new" overflow="visible" visibility="visible" style="marker:none"/><path id="path6381" fill="#bebebe" fill-opacity="1" fill-rule="nonzero" stroke="none" stroke-width="1" d="m 473.0004,-428.53175 c -0.831,0 -1.5,0.669 -1.5,1.5 0,0.831 0.669,1.49999 1.5,1.49999 0.831,0 1.5,-0.66899 1.5,-1.49999 0,-0.831 -0.669,-1.5 -1.5,-1.5 z" color="#000" display="inline" enable-background="new" overflow="visible" visibility="visible" style="marker:none"/><path id="rect8040-5-9-7" fill="#bebebe" fill-opacity="1" fill-rule="nonzero" stroke="none" stroke-width="1" d="m 477.5004,-428.53176 c -0.831,0 -1.5,0.669 -1.5,1.5 0,0.831 0.669,1.5 1.5,1.5 0.831,0 1.5,-0.669 1.5,-1.5 0,-0.831 -0.669,-1.5 -1.5,-1.5 z" color="#000" display="inline" enable-background="new" overflow="visible" visibility="visible" style="marker:none"/></g></svg>