<svg xmlns="http://www.w3.org/2000/svg" xmlns:osb="http://www.openswatchbook.org/uri/2009/osb" xmlns:svg="http://www.w3.org/2000/svg" id="svg6341" width="16" height="16" enable-background="new" version="1.1"><metadata id="metadata90"/><defs id="defs7386"><linearGradient id="linearGradient5606" osb:paint="solid"><stop id="stop5608"/></linearGradient></defs><g id="layer9" transform="translate(-381.0002,283)"><g id="g16124" fill="#bebebe" transform="matrix(0.85714286,0,0,0.85714286,329.85751,-484.99998)"><path id="path16126" d="m -77.0002,20.99998 c 0,0 -2,0 -2,2.0625 l 0,9.9375 c 0,2 2,2 2,2 l 10,0 c 2,0 2,-2 2,-2 l 0,-10 c 0,0 1.3e-5,-2 -2,-2 z M -76,23 l 2,0 0,8 4,0 0,-8 2,0 0,8 c 0,0 0,2 -2,2 l -4,0 c 0,0 -2,0 -2,-2 z" color="#bebebe" transform="translate(141,217)"/></g></g></svg>