<svg xmlns="http://www.w3.org/2000/svg" xmlns:svg="http://www.w3.org/2000/svg" id="svg2" width="16" height="16" version="1.1" viewBox="0 0 16 16"><metadata id="metadata10"/><defs id="defs8"><filter id="filter7554" color-interpolation-filters="sRGB"><feBlend id="feBlend7556" in2="BackgroundImage" mode="darken"/></filter><linearGradient id="linearGradient3257"><stop id="stop3259" offset="0" stop-color="#a50000" stop-opacity="1"/><stop id="stop3261" offset="1" stop-color="#e73800" stop-opacity="1"/></linearGradient><clipPath id="clipPath4210" clipPathUnits="userSpaceOnUse"><rect id="rect4212" width="34" height="34" x="-7" y="1024.362" fill="#00f" fill-opacity=".514" stroke="none" stroke-opacity="1" opacity="1"/></clipPath><clipPath id="clipPath4160" clipPathUnits="userSpaceOnUse"><rect id="rect4162" width="32" height="32" x="-6" y="1028.362" fill="#aade87" fill-opacity=".472" stroke="none" stroke-opacity="1" opacity="1"/></clipPath></defs><path id="rect4356" fill="#bebebe" fill-opacity=".667" stroke="none" stroke-dasharray="none" stroke-miterlimit="4" stroke-opacity="1" stroke-width="2" d="m 5.083339,7.4166617 c -0.483249,0 -0.5833332,0.261167 -0.5833332,0.5833331 0,0.3221662 0.1000842,0.5833332 0.5833332,0.5833332 0.03084,-1.785e-4 0.061645,-0.00146 0.092285,-0.00379 0.022708,8.167e-4 0.044127,0.00379 0.06722,0.00379 l 5.514321,0 c 0.02232,0 0.04299,-0.00303 0.06494,-0.00379 0.03139,0.00239 0.06296,0.00367 0.09456,0.00379 0.483249,0 0.583334,-0.261167 0.583334,-0.5833332 0,-0.3221661 -0.100085,-0.5833331 -0.583334,-0.5833331 -0.03084,1.785e-4 -0.06164,0.00146 -0.09228,0.00379 -0.02271,-8.254e-4 -0.04413,-0.00379 -0.06722,-0.00379 l -5.514321,0 c -0.022317,0 -0.042985,0.00303 -0.064941,0.00379 -0.031396,-0.0024 -0.062963,-0.00367 -0.094564,-0.00379 z" opacity="1"/><g id="layer1" fill="#bebebe" fill-opacity=".667" transform="matrix(0.38271043,0,0,0.43749988,-126.22342,-230.5959)"><g id="layer1-9" fill="#bebebe" fill-opacity=".667" transform="matrix(0,-1.082475,-1.082475,0,1464.6747,557.15411)"><g id="g3" fill="#bebebe" fill-opacity=".667" transform="matrix(1.1827033e-4,0.03271224,-0.03271224,1.1827033e-4,18.268695,1034.3501)"><path id="path5" fill="#bebebe" fill-opacity=".667" d="M 345.441,248.292 151.154,442.573 c -12.359,12.365 -32.397,12.365 -44.75,0 -12.354,-12.354 -12.354,-32.391 0,-44.744 L 278.318,225.92 106.409,54.017 c -12.354,-12.359 -12.354,-32.394 0,-44.748 12.354,-12.359 32.391,-12.359 44.75,0 l 194.287,194.284 c 6.177,6.18 9.262,14.271 9.262,22.366 0,8.099 -3.091,16.196 -9.267,22.373 z"/></g></g></g><g id="g4290" fill="#bebebe" fill-opacity=".667" transform="matrix(-0.38271043,0,0,-0.43749988,142.22343,246.59589)"><g id="g4292" fill="#bebebe" fill-opacity=".667" transform="matrix(0,-1.082475,-1.082475,0,1464.6747,557.15411)"><g id="g4294" fill="#bebebe" fill-opacity=".667" transform="matrix(1.1827033e-4,0.03271224,-0.03271224,1.1827033e-4,18.268695,1034.3501)"><path id="path4296" fill="#bebebe" fill-opacity=".667" d="M 345.441,248.292 151.154,442.573 c -12.359,12.365 -32.397,12.365 -44.75,0 -12.354,-12.354 -12.354,-32.391 0,-44.744 L 278.318,225.92 106.409,54.017 c -12.354,-12.359 -12.354,-32.394 0,-44.748 12.354,-12.359 32.391,-12.359 44.75,0 l 194.287,194.284 c 6.177,6.18 9.262,14.271 9.262,22.366 0,8.099 -3.091,16.196 -9.267,22.373 z"/></g></g></g></svg>