<svg xmlns="http://www.w3.org/2000/svg" xmlns:svg="http://www.w3.org/2000/svg" id="svg3197" width="16" height="16" version="1.0"><metadata id="metadata12"/><path id="rect3022" fill="#bebebe" fill-opacity="1" fill-rule="nonzero" stroke="none" stroke-dasharray="none" stroke-dashoffset="0" stroke-linecap="butt" stroke-linejoin="miter" stroke-miterlimit="4" stroke-opacity="1" stroke-width="1" d="m 7.999857,2.0000001 c -0.474857,0 -0.857143,0.3822857 -0.857143,0.8571429 0,0.00931 -2.91e-4,0.017548 0,0.026786 -1.4811369,0.3840618 -2.5714283,1.7255383 -2.5714283,3.3482141 0,0.01825 -2.744e-4,0.03539 0,0.05357 0,1.718777 5.922e-4,5.1428569 -1.5267857,5.1428569 -0.1017551,0 -0.1875,0.09557 -0.1875,0.214286 l 0,0.428572 c 0,0.118714 0.085745,0.214285 0.1875,0.214285 l 1.5267857,0 6.8571433,0 1.526785,0 c 0.101755,0 0.1875,-0.09557 0.1875,-0.214285 l 0,-0.428572 c 0,-0.118714 -0.08574,-0.214286 -0.1875,-0.214286 -1.533354,0 -1.526785,-3.4243899 -1.526785,-5.1428569 2.74e-4,-0.01818 0,-0.03532 0,-0.05357 0,-1.6226758 -1.090292,-2.9641523 -2.571429,-3.3482141 2.91e-4,-0.00924 0,-0.017475 0,-0.026786 0,-0.4748572 -0.382286,-0.8571429 -0.857143,-0.8571429 z M 6.3927143,13.142857 C 6.6269183,13.643789 7.251955,14 7.999857,14 8.74776,14 9.372797,13.643789 9.6069997,13.142857 l -3.2142854,0 z" clip-rule="nonzero" color="#bebebe" color-interpolation="sRGB" color-interpolation-filters="linearRGB" color-rendering="auto" display="inline" enable-background="accumulate" image-rendering="auto" opacity="1" overflow="visible" shape-rendering="auto" text-rendering="auto" visibility="visible" style="isolation:auto;mix-blend-mode:normal;solid-color:#000;solid-opacity:1;marker:none"/></svg>