<svg xmlns="http://www.w3.org/2000/svg" xmlns:osb="http://www.openswatchbook.org/uri/2009/osb" xmlns:svg="http://www.w3.org/2000/svg" id="svg7384" width="16" height="16" enable-background="new" version="1.1"><metadata id="metadata90"/><title id="title8473">Paper Symbolic Icon Theme</title><defs id="defs7386"><linearGradient id="linearGradient5606" osb:paint="solid"><stop id="stop5608" offset="0" stop-color="#000" stop-opacity="1"/></linearGradient></defs><path id="path6775" fill="#bebebe" fill-opacity="1" stroke="none" d="m 7.9999997,0.9999997 c -0.738306,0.728548 -1.442704,1.5656639 -2.1931326,2.2813872 l -2.5254799,0 0,2.5254799 C 2.5655293,6.5573245 1.7286441,7.2616747 1,7.9999999 1.7286057,8.7383635 2.5655774,9.4726605 3.2813872,10.223176 l 0,2.497321 2.5254799,0 C 6.5573247,13.436355 7.2616747,14.271356 7.9999997,15 c 0.738364,-0.728606 1.472661,-1.563693 2.2231763,-2.279503 l 2.495437,-0.0019 0,-2.495437 C 13.434471,9.4726701 14.271356,8.7382866 15,7.9999614 14.271395,7.2615978 13.434423,6.5573341 12.718613,5.8068283 l 0,-2.5273642 -2.495437,0.00192 C 9.4727087,2.565529 8.7383247,1.7286438 7.9999997,0.9999997 Z m 0,3.3009621 2.4635203,3.6952791 -0.06009,0 -1.4420603,0 0,3.9055791 -1.922747,-0.03 0,-3.8755361 -1.4420601,0 -0.060086,0 C 6.6575535,6.3596371 7.6949425,4.7700927 7.9999955,4.3010098 Z" display="inline" enable-background="new"/></svg>