<svg xmlns="http://www.w3.org/2000/svg" xmlns:svg="http://www.w3.org/2000/svg" id="svg7384" width="16" height="16" enable-background="new" version="1.1"><metadata id="metadata90"/><title id="title8473">Paper Symbolic Icon Theme</title><defs id="defs7386"><filter id="filter7554" color-interpolation-filters="sRGB"><feBlend id="feBlend7556" in2="BackgroundImage" mode="darken"/></filter></defs><circle id="path4136-1" cx="-13.67" cy="12.54" r="0" fill="#bebebe" fill-opacity="1" enable-background="new" opacity="1" transform="matrix(-0.06432929,-0.99792873,0.99792873,-0.06432929,0,0)"/><path id="path6435" fill="#bebebe" fill-opacity="1" stroke="none" d="m 2.75,4.999715 c -0.41378,0 -0.75,0.33617 -0.75,0.75 l 0,3.75 c 0,0.4146 0.33619,0.75 0.75,0.75 l 1.5,0 0,3.000002 c 0,0.414599 0.33619,0.75 0.75,0.75 l 6,0 c 0.41462,0 0.75,-0.335401 0.75,-0.75 l 0,-3.000002 1.5,0 c 0.41447,0 0.75,-0.3354 0.75,-0.75 l 0,-3.75 c 0,-0.41383 -0.33555,-0.75 -0.75,-0.75 z m 9.75,0.75 c 0.41462,0 0.75,0.33619 0.75,0.75 2e-5,0.41455 -0.33538,0.75 -0.75,0.75 -0.4146,0 -0.75,-0.33543 -0.75,-0.75 0,-0.41378 0.3354,-0.75 0.75,-0.75 z m -7.5,3.75 5.80257,0 0,3.750002 -5.80257,0 z m 0,-7.5 c -0.41378,0 -0.75,0.33619 -0.75,0.75 l 0,1.5 0.75,0 0,-1.5 6,0 0,1.5 0.75,0 0,-1.5 c 0,-0.41381 -0.33538,-0.75 -0.75,-0.75 l -6,0 z" enable-background="new"/><path id="path4219" fill="#f67d42" fill-opacity="1" fill-rule="evenodd" stroke="none" stroke-dasharray="none" stroke-dashoffset="0" stroke-linecap="round" stroke-linejoin="round" stroke-miterlimit="4" stroke-opacity="1" stroke-width="1" d="m 11.35188,14.559 a 3.4999984,3.4999984 0 0 1 -3.5,-3.500005 3.4999984,3.4999984 0 0 1 3.5,-3.5 3.4999984,3.4999984 0 0 1 3.5,3.5 3.4999984,3.4999984 0 0 1 -3.5,3.500005 z m -0.0872,-1.53126 a 0.4374998,0.4374998 0 0 0 0.4375,-0.43749 0.4374998,0.4374998 0 0 0 -0.4375,-0.4375 0.4374998,0.4374998 0 0 0 -0.4375,0.4375 0.4374998,0.4374998 0 0 0 0.4375,0.43749 z m -0.047,-1.31249 0.0932,0 c 0.15581,0 0.28198,-0.12532 0.28198,-0.28113 l 0,-2.062755 c 0,-0.15581 -0.12617,-0.28112 -0.28198,-0.28112 l -0.0932,0 c -0.15581,0 -0.28113,0.12531 -0.28113,0.28112 l 0,2.062755 c 0,0.15581 0.12532,0.28113 0.28113,0.28113 z" enable-background="new" opacity="1"/></svg>