<svg xmlns="http://www.w3.org/2000/svg" xmlns:osb="http://www.openswatchbook.org/uri/2009/osb" xmlns:svg="http://www.w3.org/2000/svg" id="svg7384" width="16" height="16" enable-background="new" version="1.1"><metadata id="metadata90"/><title id="title8473">Paper Symbolic Icon Theme</title><defs id="defs7386"><linearGradient id="linearGradient5606" osb:paint="solid"><stop id="stop5608" offset="0" stop-color="#000" stop-opacity="1"/></linearGradient><filter id="filter7554" color-interpolation-filters="sRGB"><feBlend id="feBlend7556" in2="BackgroundImage" mode="darken"/></filter></defs><g id="layer9" display="inline" transform="translate(-485.00137,234.99797)"><path id="path6718" fill="#bebebe" fill-opacity="1" fill-rule="nonzero" stroke="none" stroke-width=".843" d="m 492.89656,-232.99678 c -1.15515,0.0228 -2.3143,0.38246 -3.33401,1.09579 -2.71923,1.90228 -3.37649,5.62744 -1.47247,8.34418 1.90404,2.71675 5.6309,3.37341 8.35014,1.47112 1.95548,-1.36799 2.84386,-3.67355 2.48206,-5.87946 -0.0843,-0.51541 -0.24472,-0.9951 -0.45281,-1.45938 l -5.45384,6.22629 -0.59033,0.69703 -0.67082,-0.64342 -2.57598,-2.57362 c -0.32319,-0.32285 -0.32316,-0.91032 0,-1.23319 0.32317,-0.32287 0.91118,-0.32289 1.23433,0 l 1.93198,1.93022 5.17208,-5.91298 c -0.92461,-1.06487 -2.15457,-1.74178 -3.47154,-1.97379 -0.37872,-0.0667 -0.76374,-0.0964 -1.14879,-0.0888 z" color="#000" display="inline" enable-background="accumulate" overflow="visible" visibility="visible" style="marker:none"/></g></svg>