<svg xmlns="http://www.w3.org/2000/svg" xmlns:osb="http://www.openswatchbook.org/uri/2009/osb" xmlns:svg="http://www.w3.org/2000/svg" id="svg7384" width="16" height="16" enable-background="new" version="1.1"><metadata id="metadata90"/><title id="title8473">Paper Symbolic Icon Theme</title><defs id="defs7386"><linearGradient id="linearGradient5606" osb:paint="solid"><stop id="stop5608" offset="0" stop-color="#000" stop-opacity="1"/></linearGradient><filter id="filter7554" color-interpolation-filters="sRGB"><feBlend id="feBlend7556" in2="BackgroundImage" mode="darken"/></filter></defs><g id="layer9" display="inline" transform="translate(-525.021,275.00336)"><path id="path10457" fill="#bebebe" fill-opacity="1" stroke="none" stroke-opacity="1" d="m 533.02342,-272.98581 c -2.38376,-0.0303 -4.67155,1.52539 -5.55369,3.73409 -0.90443,2.12109 -0.41023,4.736 1.19905,6.38576 1.10739,1.17583 2.7071,1.8674 4.32288,1.86257 0,-0.57107 0,-1.14213 0,-1.7132 -1.96817,0.0297 -3.81045,-1.48148 -4.17314,-3.41474 -0.43154,-1.93494 0.70373,-4.05249 2.53524,-4.80024 1.78596,-0.8001 4.0606,-0.15536 5.16577,1.46083 0.51327,0.7177 0.79289,1.59808 0.78942,2.48032 0.56938,-0.003 1.14773,0.004 1.71153,-0.003 0.0327,-2.35558 -1.48132,-4.62733 -3.65865,-5.51962 -0.73676,-0.31383 -1.54103,-0.4705 -2.33841,-0.47243 z" opacity="1"/></g></svg>