<svg xmlns="http://www.w3.org/2000/svg" xmlns:osb="http://www.openswatchbook.org/uri/2009/osb" xmlns:svg="http://www.w3.org/2000/svg" id="svg4701" width="16" height="16" enable-background="new" version="1.1"><metadata id="metadata90"/><defs id="defs7386"><linearGradient id="linearGradient5606" osb:paint="solid"><stop id="stop5608"/></linearGradient></defs><g id="layer9" transform="translate(-560.0002,181)"><path id="path9587" fill="#bebebe" d="m 568.0002,-179 c -3.30662,0 -6,2.69338 -6,6 0,3.30662 2.69338,6 6,6 3.30662,0 6,-2.69337 6,-6 0,-3.30663 -2.69339,-6 -6,-6 z m 0,0.85714 c 2.84032,0 5.14286,2.30254 5.14286,5.14286 0,2.84032 -2.30254,5.14286 -5.14286,5.14286 -2.84032,0 -5.14286,-2.30254 -5.14286,-5.14286 0,-2.84032 2.30254,-5.14286 5.14286,-5.14286 z m -3.42857,4.28572 0,1.71428 6.85714,0 0,-1.71428 -6.85714,0 z" color="#bebebe"/></g></svg>