<svg xmlns="http://www.w3.org/2000/svg" xmlns:osb="http://www.openswatchbook.org/uri/2009/osb" xmlns:svg="http://www.w3.org/2000/svg" id="svg4148" width="16" height="16" enable-background="new" version="1.1"><metadata id="metadata90"/><defs id="defs7386"><linearGradient id="linearGradient5606" osb:paint="solid"><stop id="stop5608"/></linearGradient></defs><g id="layer9" transform="translate(-560.0002,201)"><path id="path9555" fill="#bebebe" stroke-width="1.781" d="m 568.0002,-195.57143 c -1.41904,0 -2.57143,1.15238 -2.57143,2.57143 0,1.41904 1.15239,2.57143 2.57143,2.57143 1.41904,0 2.57143,-1.15239 2.57143,-2.57143 0,-1.41905 -1.15239,-2.57143 -2.57143,-2.57143 z" color="#bebebe"/><path id="path9557" fill="#bebebe" d="m 568.0002,-199 c -3.30662,0 -6,2.69338 -6,6 0,3.30662 2.69338,6 6,6 3.30662,0 6,-2.69337 6,-6 0,-3.30663 -2.69339,-6 -6,-6 z m 0,0.85714 c 2.84257,0 5.14286,2.30029 5.14286,5.14286 0,2.84257 -2.3003,5.14286 -5.14286,5.14286 -2.84258,0 -5.14286,-2.30028 -5.14286,-5.14286 0,-2.84258 2.30028,-5.14286 5.14286,-5.14286 z" color="#bebebe"/></g></svg>