<svg xmlns="http://www.w3.org/2000/svg" xmlns:osb="http://www.openswatchbook.org/uri/2009/osb" xmlns:svg="http://www.w3.org/2000/svg" id="svg7384" width="16" height="16" enable-background="new" version="1.1"><metadata id="metadata90"/><title id="title8473">Paper Symbolic Icon Theme</title><defs id="defs7386"><linearGradient id="linearGradient5606" osb:paint="solid"><stop id="stop5608" offset="0" stop-color="#000" stop-opacity="1"/></linearGradient></defs><path id="path4701" fill="#bebebe" fill-opacity="1" d="M 5.9502,12.67797 C 4.221,11.85304 2.98358,10.171421 2.79322,8.1831005 l -0.79322,0 C 2.26441,11.44056 4.99306,14 8.31927,14 L 8.66828,13.9841 6.65352,11.96405 5.9502,12.67794 M 7.40972,2.2339605 c -0.31199,-0.312 -0.81437,-0.312 -1.12108,0 l -3.36322,3.36322 c -0.312,0.312 -0.312,0.81437 0,1.12107 L 9.2817,13.07454 c 0.312,0.312 0.81437,0.312 1.12108,0 L 13.766,9.7113205 c 0.312,-0.312 0.312,-0.81437 0,-1.12108 -2.11877,-2.11875 -4.23753,-4.23751 -6.35628,-6.35628 z m 5.43087,6.91682 -2.99835,2.9983495 -5.9914,-5.9914095 2.99834,-2.99835 c 1.99324,2.00103 3.99252,3.99602 5.99141,5.99141 z" display="inline" enable-background="new"/></svg>