<svg xmlns="http://www.w3.org/2000/svg" xmlns:svg="http://www.w3.org/2000/svg" id="svg7384" width="16" height="16" enable-background="new" version="1.1"><metadata id="metadata90"/><title id="title8473">Paper Symbolic Icon Theme</title><defs id="defs7386"><filter id="filter7554" color-interpolation-filters="sRGB"><feBlend id="feBlend7556" in2="BackgroundImage" mode="darken"/></filter></defs><g id="layer9" transform="matrix(0.8,0,0,0.8,-402.4,318)"><path style="text-indent:0;text-decoration-line:none;text-transform:none;block-progression:tb" id="path10649" fill="#bebebe" d="m 513,-395 -6,1.9902 0,7 c 0,2.0716 1.5749,3.5218 2.9375,4.4688 1.3626,0.94693 3.0625,1.541 3.0625,1.541 0,0 1.7043,-0.61672 3.0625,-1.5723 1.3582,-0.95555 2.9375,-2.3932 2.9375,-4.4375 l 0,-7 -6,-1.9902 z m 0,2.1074 4,1.3262 0,5.5566 c 0,1.0143 -0.90506,1.9706 -2.0879,2.8027 -0.77536,0.54551 -1.4322,0.77757 -1.9238,0.98242 -0.49007,-0.19878 -1.1373,-0.42191 -1.9102,-0.95898 -1.1698,-0.813 -2.0781,-1.7682 -2.0781,-2.8262 l 0,-5.5566 4,-1.3262 z" color="#bebebe" enable-background="accumulate" opacity=".35" text-decoration="none"/></g></svg>