<svg xmlns="http://www.w3.org/2000/svg" xmlns:svg="http://www.w3.org/2000/svg" id="svg7384" width="16" height="16" enable-background="new" version="1.1"><metadata id="metadata90"/><title id="title8473">Paper Symbolic Icon Theme</title><defs id="defs7386"><filter id="filter7554" color-interpolation-filters="sRGB"><feBlend id="feBlend7556" in2="BackgroundImage" mode="darken"/></filter></defs><path id="path10637" fill="#bebebe" d="m 8,2 -4.8,1.59216 0,5.6 c 0,1.65728 1.25992,2.81744 2.35,3.57504 C 6.64008,13.524744 8,14 8,14 c 0,0 1.36344,-0.493376 2.45,-1.25784 1.08656,-0.76444 2.35,-1.91456 2.35,-3.55 l 0,-5.6 L 8,2 Z m 0,1.68592 3.2,1.06096 0,4.44528 c 0,0.81144 -0.724048,1.57648 -1.67032,2.24216 C 8.909392,11.870728 8.38392,12.056376 7.99064,12.220256 7.598584,12.061232 7.0808,11.882728 6.46248,11.453072 5.52664,10.802672 4.8,10.038512 4.8,9.192112 l 0,-4.44528 3.2,-1.06096 z" color="#bebebe" enable-background="accumulate" text-decoration="none" style="text-indent:0;text-decoration-line:none;text-transform:none;block-progression:tb"/><path style="text-indent:0;text-decoration-line:none;text-transform:none;block-progression:tb" id="path5239" fill="#bebebe" d="m 8,3.68592 3.2,1.06096 0,4.44528 c 0,0.81144 -0.724048,1.57648 -1.67032,2.24216 C 8.909392,11.870728 8.38392,12.056376 7.99064,12.220256 7.598584,12.061232 7.0808,11.882728 6.46248,11.453072 5.52664,10.802672 4.8,10.038512 4.8,9.192112 l 0,-4.44528 3.2,-1.06096 z" color="#bebebe" enable-background="accumulate" opacity=".35" text-decoration="none"/></svg>