<svg xmlns="http://www.w3.org/2000/svg" xmlns:osb="http://www.openswatchbook.org/uri/2009/osb" xmlns:svg="http://www.w3.org/2000/svg" id="svg7384" width="16" height="16" enable-background="new" version="1.1"><metadata id="metadata90"/><title id="title8473">Paper Symbolic Icon Theme</title><defs id="defs7386"><linearGradient id="linearGradient5606" osb:paint="solid"><stop id="stop5608" offset="0" stop-color="#000" stop-opacity="1"/></linearGradient></defs><path id="path6775" fill="#bebebe" fill-opacity="1" stroke="none" d="M 8,2 C 7.36717,2.62447 6.7634,3.342 6.12017,3.95547 l -2.1647,0 0,2.1647 C 3.34188,6.76342 2.62455,7.36715 2,8 2.62452,8.63288 3.34192,9.26228 3.95547,9.90558 l 0,2.14056 2.1647,0 C 6.76342,12.65973 7.36715,13.37545 8,14 8.63288,13.37548 9.26228,12.65969 9.90558,12.04614 l 2.13895,-0.002 0,-2.13894 C 12.65812,9.26194 13.37545,8.63247 14,7.99962 13.37548,7.36673 12.65808,6.76308 12.04453,6.11979 l 0,-2.16631 -2.13895,0.002 C 9.26232,3.34189 8.63285,2.62456 8,2.00001 Z m 0,2.8294 2.11159,3.16738 -0.0515,0 -1.23606,0 0,3.34764 -1.64806,-0.0257 0,-3.32189 -1.23606,0 -0.0515,0 C 6.84933,6.59398 7.73853,5.23152 8,4.82945 Z" display="inline" enable-background="new"/></svg>