<svg xmlns="http://www.w3.org/2000/svg" xmlns:osb="http://www.openswatchbook.org/uri/2009/osb" xmlns:svg="http://www.w3.org/2000/svg" id="svg7384" width="16" height="16" version="1.1"><title id="title9167">elementary Symbolic Icon Theme</title><metadata id="metadata90"/><defs id="defs7386"><linearGradient id="linearGradient5606" osb:paint="solid"><stop id="stop5608" offset="0" stop-color="#000" stop-opacity="1"/></linearGradient><style id="current-color-scheme" type="text/css"/><style id="current-color-scheme-1" type="text/css"/></defs><g id="layer12" display="inline" transform="matrix(0.91666667,0,0,0.92307692,-308.25037,-21.076923)"><path id="path40326" fill="#bebebe" fill-opacity="1" fill-rule="nonzero" stroke="none" stroke-width="1" d="m 345.0004,25 c -0.554,0 -1,0.446 -1,1 l 0,4 c 0,0.554 0.446,1 1,1 0.554,0 1,-0.446 1,-1 l 0,-4 c 0,-0.554 -0.446,-1 -1,-1 z m -3,2 c -0.23384,0 -0.45573,0.084 -0.625,0.21875 -0.16288,0.13731 -0.21487,0.18641 -0.28125,0.25 -1.27878,1.0966 -2.09375,2.71205 -2.09375,4.53125 0,3.31371 2.68629,6 6,6 3.31371,0 6,-2.68629 6,-6 0,-1.8192 -0.81497,-3.43465 -2.09375,-4.53125 -0.0664,-0.0636 -0.11837,-0.11269 -0.28125,-0.25 C 348.45613,27.08404 348.23424,27 348.0004,27 c -0.55229,0 -1,0.44772 -1,1 0,0.31104 0.14829,0.57085 0.375,0.75 0.0403,0.0378 0.0534,0.0594 0.125,0.125 0.9241,0.72905 1.5,1.85348 1.5,3.125 0,2.20914 -1.79086,4 -4,4 -2.20914,0 -4,-1.79086 -4,-4 0,-1.27152 0.5759,-2.39595 1.5,-3.125 0.0716,-0.0656 0.0847,-0.0872 0.125,-0.125 0.22671,-0.17915 0.375,-0.43896 0.375,-0.75 0,-0.55228 -0.44772,-1 -1,-1 z" color="#000" display="inline" enable-background="accumulate" overflow="visible" visibility="visible" style="marker:none"/></g></svg>