<svg xmlns="http://www.w3.org/2000/svg" xmlns:osb="http://www.openswatchbook.org/uri/2009/osb" xmlns:svg="http://www.w3.org/2000/svg" id="svg7384" width="16" height="16.003" enable-background="new" version="1.1"><metadata id="metadata90"/><title id="title8473">Paper Symbolic Icon Theme</title><defs id="defs7386"><linearGradient id="linearGradient5606" osb:paint="solid"><stop id="stop5608" offset="0" stop-color="#000" stop-opacity="1"/></linearGradient><filter id="filter7554" color-interpolation-filters="sRGB"><feBlend id="feBlend7556" in2="BackgroundImage" mode="darken"/></filter><filter id="filter7554-3" color-interpolation-filters="sRGB"><feBlend id="feBlend7556-5" in2="BackgroundImage" mode="darken"/></filter></defs><g id="layer9" display="inline" transform="translate(-385.03166,235.00328)"><circle id="path4136-1" cx="197.241" cy="394.255" r="0" fill="#bebebe" fill-opacity="1" enable-background="new" opacity="1" transform="matrix(-0.06432929,-0.99792873,0.99792873,-0.06432929,0,0)"/><path id="path4767" fill="#bebebe" fill-opacity="1" d="m 396.03166,-228.2 -6,0 0,-1.2 6,0 m 0,3.6 -6,0 0,-1.2 6,0 m -1.8,3.6 -4.2,0 0,-1.2 4.2,0 m -1.2,-7.2 a 0.6,0.6 0 0 1 0.6,0.6 0.6,0.6 0 0 1 -0.6,0.6 0.6,0.6 0 0 1 -0.6,-0.6 0.6,0.6 0 0 1 0.6,-0.6 m 4.2,0 -2.508,0 c -0.252,-0.696 -0.912,-1.2 -1.692,-1.2 -0.78,0 -1.44,0.504 -1.692,1.2 l -2.508,0 a 1.2,1.2 0 0 0 -1.2,1.2 l 0,8.4 a 1.2,1.2 0 0 0 1.2,1.2 l 8.4,0 a 1.2,1.2 0 0 0 1.2,-1.2 l 0,-8.4 a 1.2,1.2 0 0 0 -1.2,-1.2 z"/><path id="path4219" fill="#f67d42" fill-opacity="1" fill-rule="evenodd" stroke="none" stroke-dasharray="none" stroke-dashoffset="0" stroke-linecap="round" stroke-linejoin="round" stroke-miterlimit="4" stroke-opacity="1" stroke-width="1" d="m 396.45359,-219.46874 a 3.4999984,3.4999984 0 0 1 -3.5,-3.5 3.4999984,3.4999984 0 0 1 3.5,-3.5 3.4999984,3.4999984 0 0 1 3.5,3.5 3.4999984,3.4999984 0 0 1 -3.5,3.5 z M 396.36639,-221 a 0.4374998,0.4374998 0 0 0 0.4375,-0.43749 0.4374998,0.4374998 0 0 0 -0.4375,-0.4375 0.4374998,0.4374998 0 0 0 -0.4375,0.4375 0.4374998,0.4374998 0 0 0 0.4375,0.43749 z m -0.047,-1.31249 0.0932,0 c 0.15581,0 0.28198,-0.12532 0.28198,-0.28113 l 0,-2.06275 c 0,-0.15581 -0.12617,-0.28112 -0.28198,-0.28112 l -0.0932,0 c -0.15581,0 -0.28113,0.12531 -0.28113,0.28112 l 0,2.06275 c 0,0.15581 0.12532,0.28113 0.28113,0.28113 z" enable-background="new" opacity="1"/></g></svg>