<svg xmlns="http://www.w3.org/2000/svg" xmlns:svg="http://www.w3.org/2000/svg" id="svg7384" width="16" height="16" enable-background="new" version="1.1"><metadata id="metadata90"/><title id="title8473">Paper Symbolic Icon Theme</title><defs id="defs7386"><filter id="filter7554" color-interpolation-filters="sRGB"><feBlend id="feBlend7556" in2="BackgroundImage" mode="darken"/></filter></defs><g id="layer9" transform="matrix(0.75,0,0,0.75,-286.75,222.5)"><path id="path10471" fill="#bebebe" d="m 386,-293 c -0.9998,0 -1,1 -1,1 l 0,11 c 0,0 0,1 1,1 l 9,0 0,-2 -2,0 0,-3 5,0 2,0 0,-7 c 0,-1 -1,-1 -1,-1 l -13,0 z m 1,2 11,0 0,5 -11,0 0,-5 z m 0,6 5,0 0,3 -5,0 0,-3 z" opacity=".35"/><path id="path2987-7-9-8-5-1-5" fill="#bebebe" d="m 396,-284 0,1 c 0,0.27614 0.10029,0.53779 0.28125,0.71875 l 0.78125,0.78125 -0.78125,0.78125 C 396.10029,-280.53779 396,-280.27614 396,-280 l 0,1 1,0 c 0.27614,0 0.53779,-0.10029 0.71875,-0.28125 l 0.78125,-0.78125 0.78125,0.78125 C 399.46221,-279.10029 399.72386,-279 400,-279 l 1,0 0,-1 c 0,-0.27614 -0.10029,-0.53779 -0.28125,-0.71875 l -0.78125,-0.78125 0.78125,-0.78125 C 400.89971,-282.46221 401,-282.72386 401,-283 l 0,-1 -1,0 c -0.27614,0 -0.53779,0.10029 -0.71875,0.28125 l -0.78125,0.78125 -0.78125,-0.78125 C 397.53779,-283.89971 397.27614,-284 397,-284 l -1,0 z" enable-background="new"/></g></svg>