<svg xmlns="http://www.w3.org/2000/svg" xmlns:svg="http://www.w3.org/2000/svg" id="svg7384" width="16" height="16" enable-background="new" version="1.1"><metadata id="metadata90"/><title id="title8473">Paper Symbolic Icon Theme</title><defs id="defs7386"><filter id="filter7554" color-interpolation-filters="sRGB"><feBlend id="feBlend7556" in2="BackgroundImage" mode="darken"/></filter><filter id="filter7554-3" color-interpolation-filters="sRGB"><feBlend id="feBlend7556-5" in2="BackgroundImage" mode="darken"/></filter></defs><path id="path3003" fill="#bebebe" d="m 3.7142855,2.5000003 c 0,0 -1.7142855,0 -1.7142855,1.6918677 l 0,5.075604 c 0,1.691867 1.7142855,1.691867 1.7142855,1.691867 L 7.9998284,10.959322 9.7141141,13.5 11.4284,10.959322 l 0.857314,1.7e-5 C 13.235428,10.959356 14,10.204766 14,9.267472 L 14,8.421538 14,6.72967 14,4.191868 C 14,2.5000003 12.312457,2.5000003 12.312457,2.5000003 Z m 3.6857143,0.8459339 1.4571428,0 0,2.5378018 0,1.691868 -1.7142857,0 -1.7142857,0 -0.8571429,0 0,-1.375599 0.8571429,0 1.9714286,0 z" opacity=".35"/></svg>