<svg xmlns="http://www.w3.org/2000/svg" xmlns:svg="http://www.w3.org/2000/svg" id="svg7384" width="16" height="16" enable-background="new" version="1.1"><metadata id="metadata90"/><title id="title8473">Paper Symbolic Icon Theme</title><defs id="defs7386"><filter id="filter7554" color-interpolation-filters="sRGB"><feBlend id="feBlend7556" in2="BackgroundImage" mode="darken"/></filter></defs><path id="path3003-1" fill="#bebebe" d="m 12.285714,2.5 c 0,0 1.714286,0 1.714286,1.6923077 l -12,0 C 2,2.5 3.6875429,2.5 3.6875429,2.5 Z M 14,9.26923 c 0,1.692308 -1.714286,1.692308 -1.714286,1.692308 l -0.857143,0 L 9.7142857,13.5 8,10.961538 l -4.2857142,0 C 2.7645714,10.961538 2,10.206768 2,9.26923 Z" opacity=".35"/><path id="rect8040-5-8" fill="#bebebe" d="M 3.7142858,5.0714286 C 2.7645714,5.0714286 2,5.836 2,6.7857142 2,7.7354286 2.7645714,8.5 3.7142858,8.5 4.664,8.5 5.4285714,7.7354286 5.4285714,6.7857142 5.4285714,5.836 4.664,5.0714286 3.7142858,5.0714286 Z M 8,5.0714286 C 7.0502857,5.0714286 6.2857142,5.836 6.2857142,6.7857142 6.2857142,7.7354286 7.0502857,8.5 8,8.5 8.9497143,8.5 9.7142854,7.7354286 9.7142854,6.7857142 9.7142854,5.836 8.9497143,5.0714286 8,5.0714286 Z m 4.285714,0 C 11.336,5.0714286 10.571428,5.836 10.571428,6.7857142 10.571428,7.7354286 11.336,8.5 12.285714,8.5 13.235428,8.5 14,7.7354286 14,6.7857142 14,5.836 13.235428,5.0714286 12.285714,5.0714286 Z" color="#000" enable-background="new"/></svg>