<svg xmlns="http://www.w3.org/2000/svg" xmlns:osb="http://www.openswatchbook.org/uri/2009/osb" xmlns:svg="http://www.w3.org/2000/svg" id="svg8541" width="16" height="16" enable-background="new" version="1.1"><metadata id="metadata90"/><defs id="defs7386"><linearGradient id="linearGradient5606" osb:paint="solid"><stop id="stop5608"/></linearGradient></defs><g id="layer9" transform="translate(-361.0002,223)"><g id="g6217" transform="matrix(0,0.85714286,0.85714286,0,125.57148,-256.99996)"><g id="g6219"><g id="g6221" fill="#bebebe" transform="translate(2e-4,0)"><path id="path6223" d="m 106,165 c -1.6447,0 -3,1.3553 -3,3 l 0,1 0,0.65625 0,3.34375 0,3 c 0,1.6447 1.3553,3 3,3 l 3,0 0,-2 -3,0 c -0.5713,0 -1,-0.4287 -1,-1 l 0,-3 0,-3.34375 0,-0.65625 0,-1 c 0,-0.5713 0.4287,-1 1,-1 l 4,0 c 0.5713,0 1,0.4287 1,1 l 0,3 2,0 0,-3 c 0,-1.6447 -1.3553,-3 -3,-3 l -4,0 z" color="#000" transform="matrix(0,-1,1,0,-123.00025,393)"/></g><path id="path6225" fill="#bebebe" d="m 51.0002,281 -4,-3 0,6 z"/></g></g></g></svg>