<svg xmlns="http://www.w3.org/2000/svg" xmlns:svg="http://www.w3.org/2000/svg" id="svg7384" width="16" height="16" enable-background="new" version="1.1"><metadata id="metadata90"/><title id="title8473">Paper Symbolic Icon Theme</title><defs id="defs7386"><filter id="filter7554" color-interpolation-filters="sRGB"><feBlend id="feBlend7556" in2="BackgroundImage" mode="darken"/></filter></defs><g id="layer9" transform="matrix(0.75,0,0,0.75,-211.75,190.625)"><path id="path5072" fill="#bebebe" d="m 289,-243 c -1.6568,0 -3,1.3432 -3,3 0,1.6568 1.3432,3 3,3 1.5587,0 2.8224,-1.1984 2.9688,-2.7188 0.29974,-0.17924 0.65661,-0.28125 1.0312,-0.28125 0.37464,0 0.73151,0.10201 1.0312,0.28125 0.14632,1.5203 1.4101,2.7188 2.9688,2.7188 1.6568,0 3,-1.3432 3,-3 0,-1.6568 -1.3432,-3 -3,-3 -1.3911,0 -2.5354,0.96568 -2.875,2.25 -0.35167,-0.1447 -0.72114,-0.25 -1.125,-0.25 -0.40386,0 -0.77333,0.1053 -1.125,0.25 -0.33956,-1.2843 -1.4839,-2.25 -2.875,-2.25 z m 0,1.25 c 0.9665,0 1.75,0.7835 1.75,1.75 0,0.9665 -0.7835,1.75 -1.75,1.75 -0.9665,0 -1.75,-0.7835 -1.75,-1.75 0,-0.9665 0.7835,-1.75 1.75,-1.75 z m 8,0 c 0.9665,0 1.75,0.7835 1.75,1.75 0,0.9665 -0.7835,1.75 -1.75,1.75 -0.9665,0 -1.75,-0.7835 -1.75,-1.75 0,-0.9665 0.7835,-1.75 1.75,-1.75 z"/><path id="path5868" fill="#bebebe" d="m 289,-250 -0.75,3 9.5,0 -0.75,-3 -4,0.5 z m -1,4 -3,2 16,0 -3,-2 z"/></g></svg>