<svg xmlns="http://www.w3.org/2000/svg" xmlns:osb="http://www.openswatchbook.org/uri/2009/osb" xmlns:svg="http://www.w3.org/2000/svg" id="svg7384" width="16" height="16" enable-background="new" version="1.1"><metadata id="metadata90"/><title id="title8473">Paper Symbolic Icon Theme</title><defs id="defs7386"><linearGradient id="linearGradient5606" osb:paint="solid"><stop id="stop5608" offset="0" stop-color="#000" stop-opacity="1"/></linearGradient><filter id="filter7554-8" color-interpolation-filters="sRGB"><feBlend id="feBlend7556-7" in2="BackgroundImage" mode="darken"/></filter><filter id="filter7554-8-1" color-interpolation-filters="sRGB"><feBlend id="feBlend7556-7-9" in2="BackgroundImage" mode="darken"/></filter></defs><path id="path10066" fill="#bebebe" fill-opacity="1" d="m 6.2124588,9.8823298 c 0.2890909,0.07636 0.4636363,0.3763642 0.3872727,0.6654552 L 5.8906406,13.18233 C 5.8142766,13.476876 5.5142769,13.645966 5.225186,13.569603 4.9306406,13.493243 4.7615497,13.193239 4.8488224,12.904148 L 5.5470042,10.269603 C 5.6233682,9.9750568 5.9233679,9.8059658 6.2124588,9.8823298"/><path id="path10064" fill="#bebebe" fill-opacity="1" d="m 8.3942769,9.8823298 c 0.289091,0.07636 0.4636364,0.3763642 0.3872728,0.6654552 l -1.1290909,4.216363 c -0.076364,0.3 -0.3763637,0.463637 -0.6709091,0.387273 C 6.6924588,15.064151 6.5179133,14.775057 6.594277,14.480512 L 7.7288224,10.269603 C 7.8051864,9.9750568 8.105186,9.8059658 8.3942769,9.8823298"/><path id="path10062" fill="#bebebe" fill-opacity="1" d="m 10.576095,9.8823298 c 0.289091,0.07636 0.463637,0.3763642 0.387273,0.6654552 L 10.254277,13.18233 C 10.177917,13.476876 9.8779128,13.645966 9.5888224,13.569603 9.2942769,13.493243 9.125186,13.193239 9.2124588,12.904148 l 0.698182,-2.634545 C 9.9870008,9.9750568 10.287004,9.8059658 10.576095,9.8823298"/><path id="path10031" fill="#bebebe" fill-opacity="1" d="m 10.727273,8.7090701 0,-0.588634 A 2.7272727,2.9431699 0 0 0 8,5.1772671 c -1.3636363,0 -2.4818182,1.071313 -2.6945456,2.466375 -0.1799999,-0.07063 -0.3763635,-0.111839 -0.5781817,-0.111839 a 1.6363636,1.7659019 0 0 0 -1.6363636,1.765902 c 0,0.653384 0.3272727,1.2243579 0.8181818,1.5304469 l 0,-0.006 c 0.2727273,0.164818 0.3490909,0.535658 0.2018182,0.80643 -0.1527273,0.276657 -0.4745455,0.376725 -0.7472727,0.211908 l 0,0.006 C 2.5454545,11.340264 2,10.386677 2,9.2977051 a 2.7272727,2.9431699 0 0 1 2.7272727,-2.94317 c 0.5454546,-1.383289 1.8,-2.354536 3.2727273,-2.354536 1.870909,0 3.403636,1.565767 3.545454,3.549464 l 0.272728,-0.01765 A 2.1818181,2.3545359 0 0 1 14,9.8863491 c 0,0.8829519 -0.436363,1.6305169 -1.090909,2.0366739 l 0,0 c -0.272728,0.158928 -0.594546,0.06474 -0.747273,-0.217799 -0.147273,-0.282545 -0.07091,-0.64161 0.201818,-0.806428 l 0,0.006 c 0.327273,-0.200202 0.545455,-0.582815 0.545455,-1.0184029 a 1.0909091,1.177268 0 0 0 -1.090909,-1.177323 l -1.090909,0 z"/></svg>