<svg xmlns="http://www.w3.org/2000/svg" xmlns:osb="http://www.openswatchbook.org/uri/2009/osb" xmlns:svg="http://www.w3.org/2000/svg" id="svg7384" width="16" height="16" enable-background="new" version="1.1"><metadata id="metadata90"/><title id="title8473">Paper Symbolic Icon Theme</title><defs id="defs7386"><linearGradient id="linearGradient5606" osb:paint="solid"><stop id="stop5608" offset="0" stop-color="#000" stop-opacity="1"/></linearGradient><filter id="filter7554-8" color-interpolation-filters="sRGB"><feBlend id="feBlend7556-7" in2="BackgroundImage" mode="darken"/></filter></defs><path id="path9903" fill="#bebebe" fill-opacity="1" d="m 7.6680848,12.312695 -0.718762,-1.243813 -0.718761,1.243813 c -0.32306,0.508486 -0.40271,1.024617 0,1.432425 C 6.4395638,13.964317 6.6944438,14 6.9493228,14 c 0.25488,0 0.50976,-0.03568 0.718762,-0.25488 0.40271,-0.407808 0.368917,-0.861821 0,-1.432425 z" display="inline" enable-background="new"/><path id="path9931" fill="#bebebe" fill-opacity="1" d="M 4.727273,10.857143 A 0.54545455,0.57142856 0 0 1 5.272727,11.428571 0.54545455,0.57142856 0 0 1 4.727273,12 2.7272727,2.8571428 0 0 1 2,9.142857 2.7272727,2.8571428 0 0 1 4.727273,6.2857143 C 5.272727,4.9428571 6.527273,4 8,4 9.8709091,4 11.403637,5.52 11.545455,7.4457142 L 11.818182,7.428571 A 2.1818182,2.2857143 0 0 1 14,9.714285 2.1818182,2.2857143 0 0 1 11.818182,11.999999 l -0.545455,0 a 0.54545455,0.57142856 0 0 1 -0.545454,-0.571428 0.54545455,0.57142856 0 0 1 0.545454,-0.571428 l 0.545455,0 A 1.0909091,1.1428571 0 0 0 12.909091,9.714286 1.0909091,1.1428571 0 0 0 11.818182,8.5714284 l -1.090909,0 0,-0.5714285 A 2.7272727,2.8571428 0 0 0 8,5.1428571 c -1.363636,0 -2.481818,1.0399999 -2.694545,2.3942856 -0.18,-0.068572 -0.376364,-0.1085713 -0.578182,-0.1085713 A 1.6363636,1.7142856 0 0 0 3.090909,9.142857 1.6363636,1.7142856 0 0 0 4.727273,10.857143" display="inline" enable-background="new"/><path id="path9979" fill="#bebebe" fill-opacity="1" d="M 9.6680849,10.875195 8.9493228,9.6313818 8.2305618,10.875195 c -0.32306,0.508486 -0.40271,1.024617 0,1.432425 0.209002,0.219197 0.463882,0.25488 0.718761,0.25488 0.2548801,0 0.5097601,-0.03568 0.7187621,-0.25488 0.4027101,-0.407808 0.3689171,-0.861821 0,-1.432425 z" display="inline" enable-background="new"/></svg>