<svg xmlns="http://www.w3.org/2000/svg" xmlns:osb="http://www.openswatchbook.org/uri/2009/osb" xmlns:svg="http://www.w3.org/2000/svg" id="svg4140" width="16" height="16" enable-background="new" version="1.1"><metadata id="metadata90"/><defs id="defs7386"><linearGradient id="linearGradient5606" osb:paint="solid"><stop id="stop5608"/></linearGradient></defs><g id="layer9" transform="translate(-361.0002,243)"><path id="path9701" fill="#bebebe" fill-opacity="1" d="m 369.0032,-238 c 1.65685,0 3,1.34315 3,3 0,1.65685 -1.34315,3 -3,3 -1.65685,0 -3,-1.34315 -3,-3 0,-1.65685 1.34315,-3 3,-3 m 0,-3 1.434,2.052 c -0.444,-0.162 -0.93,-0.252 -1.434,-0.252 -0.504,0 -0.99,0.09 -1.434,0.252 l 1.434,-2.052 m -5.196,3 2.496,-0.21 c -0.36,0.306 -0.684,0.678 -0.936,1.11 -0.264,0.444 -0.414,0.9 -0.498,1.374 l -1.062,-2.274 m 0.012,6 1.056,-2.262 c 0.084,0.462 0.246,0.93 0.498,1.362 0.252,0.444 0.576,0.816 0.93,1.122 l -2.484,-0.222 m 10.374,-6 -1.062,2.274 c -0.084,-0.474 -0.246,-0.936 -0.498,-1.374 -0.252,-0.432 -0.57,-0.81 -0.93,-1.116 l 2.49,0.216 m -0.006,6 -2.484,0.216 c 0.354,-0.306 0.672,-0.684 0.924,-1.116 0.252,-0.438 0.414,-0.9 0.498,-1.374 l 1.062,2.274 m -5.184,3 -1.446,-2.064 c 0.444,0.162 0.93,0.264 1.446,0.264 0.492,0 0.978,-0.102 1.422,-0.264 z"/></g></svg>