<svg xmlns="http://www.w3.org/2000/svg" xmlns:osb="http://www.openswatchbook.org/uri/2009/osb" xmlns:svg="http://www.w3.org/2000/svg" id="svg7384" width="16" height="16" enable-background="new" version="1.1"><metadata id="metadata90"/><title id="title8473">Paper Symbolic Icon Theme</title><defs id="defs7386"><linearGradient id="linearGradient5606" osb:paint="solid"><stop id="stop5608" offset="0" stop-color="#000" stop-opacity="1"/></linearGradient></defs><path id="path6240" fill="#bebebe" fill-opacity="1" fill-rule="nonzero" stroke="none" stroke-width="1" d="M 7.3999134,2.0276843 C 5.1896604,2.1088181 3.1528976,3.4710246 2.3498471,5.676866 1.3387699,8.454115 2.6447869,11.535209 5.2998859,12.725286 5.2253249,12.455379 5.1823803,12.159877 5.1998846,11.875476 5.2220448,11.074656 5.6670667,10.365919 6.299899,9.900919 5.0463785,8.514678 4.5914046,6.5045124 5.2748855,4.6271014 5.6862189,3.4972348 6.454453,2.6208633 7.3999134,2.0276843 Z M 7.5499153,10.92569 c -0.3336523,0.137417 -0.6063759,0.38908 -0.7000091,0.749832 -0.2121388,0.659827 0.2684835,1.403317 0.9500124,1.499663 1.4368351,-0.05919 2.7996454,-0.64835 3.8000504,-1.674625 l 0,-0.124971 C 10.575227,11.675194 9.4545806,11.693461 8.3749261,11.300646 8.0853223,11.195261 7.8079267,11.074584 7.5499153,10.92573 Z" color="#bebebe" display="inline" enable-background="accumulate" overflow="visible" visibility="visible" style="marker:none"/><ellipse id="path6317" cx="9.741" cy="4.542" fill="#8c5f5f" fill-opacity="1" fill-rule="nonzero" stroke="none" stroke-width="1" color="#bebebe" display="inline" enable-background="accumulate" opacity="0" overflow="visible" rx="5.6" ry="5.599" transform="matrix(0.9397187,0.34194848,-0.34209182,0.93966653,0,0)" visibility="visible" style="marker:none"/><path id="path6258" fill="#bebebe" fill-opacity="1" stroke="none" d="m 9.9999477,8.401256 c -1.049358,0 -1.9238815,0.68659 -2.2500298,1.624635 C 6.765241,10.15064 5.999895,10.982132 5.999895,12.000449 5.999895,13.104768 6.8953388,14 7.9999212,14 l 4.4000578,0 C 13.283647,14 14,13.283817 14,12.400359 14,11.5169 13.283647,10.800717 12.399979,10.800717 c 0,-1.325182 -1.074534,-2.399461 -2.4000313,-2.399461 z" display="inline" enable-background="new"/></svg>