<svg xmlns="http://www.w3.org/2000/svg" xmlns:osb="http://www.openswatchbook.org/uri/2009/osb" xmlns:svg="http://www.w3.org/2000/svg" xmlns:xlink="http://www.w3.org/1999/xlink" id="svg7384" width="16" height="16" enable-background="new" version="1.1"><metadata id="metadata90"/><title id="title8473">Paper Symbolic Icon Theme</title><defs id="defs7386"><linearGradient id="linearGradient5606" osb:paint="solid"><stop id="stop5608" offset="0" stop-color="#000" stop-opacity="1"/></linearGradient><filter id="filter7554" color-interpolation-filters="sRGB"><feBlend id="feBlend7556" in2="BackgroundImage" mode="darken"/></filter><style id="current-color-scheme" type="text/css"/><linearGradient id="linearGradient4160-4" x1="2" x2="46.54" y1="1028.362" y2="1031.081" gradientTransform="matrix(0.27272723,0,0,0.27272723,307.78168,210.77577)" gradientUnits="userSpaceOnUse" xlink:href="#linearGradient5118"/><linearGradient id="linearGradient5118"><stop id="stop5120" offset="0" stop-color="red" stop-opacity="1"/><stop id="stop5122" offset="1" stop-color="#ff2a2a" stop-opacity="1"/></linearGradient><filter id="filter7554-3" color-interpolation-filters="sRGB"><feBlend id="feBlend7556-6" in2="BackgroundImage" mode="darken"/></filter></defs><g id="layer9" display="inline" transform="translate(-465.0002,331.00299)"><g id="g9890" transform="translate(465.0002,-333.2795)"><path id="path6051" fill="#bebebe" d="M 8,4 C 6.42596,4 5.11424,5.030116 4.625,6.43744 3.14804,6.624604 2,7.87216 2,9.4 c 0,1.65684 1.34316,3 3,3 l 6.6,0 C 12.92552,12.4 14,11.325484 14,10 14,8.674516 12.925484,7.6 11.6,7.6 11.6,5.61184 9.98816,4 8,4 Z"/></g><g id="g9897" transform="matrix(0.58333334,0,0,0.58333334,198.94066,-119.24273)"><ellipse id="path4136-2" cx="314.327" cy="491.238" fill="url(#linearGradient4160-4)" fill-opacity="1" opacity="1" rx="6" ry="6" transform="matrix(-0.06432929,-0.99792873,0.99792873,-0.06432929,0,0)"/><path id="rect4217" fill="#fff" fill-opacity="1" d="m 469.99822,-348.54912 c -0.30124,0 -0.54297,0.2418 -0.54297,0.543 l 0,3.8223 c 0,0.3013 0.24173,0.5429 0.54297,0.5429 l 0.004,0 c 0.30123,0 0.54297,-0.2416 0.54297,-0.5429 l 0,-3.8223 c 0,-0.3012 -0.24174,-0.543 -0.54297,-0.543 l -0.004,0 z m 0.002,6 c -0.30219,0 -0.54492,0.2428 -0.54492,0.545 0,0.3021 0.24273,0.5449 0.54492,0.5449 0.30218,0 0.54492,-0.2428 0.54492,-0.5449 0,-0.3022 -0.24274,-0.545 -0.54492,-0.545 z" opacity="1"/></g></g></svg>