<svg xmlns="http://www.w3.org/2000/svg" xmlns:osb="http://www.openswatchbook.org/uri/2009/osb" xmlns:svg="http://www.w3.org/2000/svg" id="svg5793" width="16" height="16" enable-background="new" version="1.1"><metadata id="metadata90"/><defs id="defs7386"><linearGradient id="linearGradient5606" osb:paint="solid"><stop id="stop5608"/></linearGradient></defs><g id="layer9" transform="translate(-561.0002,243)"><path id="path9832" fill="#bebebe" fill-opacity="1" d="m 564.09111,-233.33338 5.45454,0 a 0.54545455,0.5555517 0 0 1 0.54546,0.55555 0.54545455,0.5555517 0 0 1 -0.54546,0.55555 l -5.45454,0 a 0.54545455,0.5555517 0 0 1 -0.54546,-0.55555 0.54545455,0.5555517 0 0 1 0.54546,-0.55555" opacity=".35"/><path id="path9830" fill="#bebebe" fill-opacity="1" d="m 571.18202,-233.33338 2.72727,0 a 0.54545455,0.5555517 0 0 1 0.54546,0.55555 0.54545455,0.5555517 0 0 1 -0.54546,0.55555 l -2.72727,0 a 0.54545455,0.5555517 0 0 1 -0.54546,-0.55555 0.54545455,0.5555517 0 0 1 0.54546,-0.55555" opacity=".35"/><path id="path9828" fill="#bebebe" fill-opacity="1" d="m 563.0002,-235.00004 a 2.7272727,2.7777585 0 0 1 2.72727,-2.77776 c 0.54546,-1.30555 1.8,-2.22221 3.27273,-2.22221 1.87091,0 3.40363,1.47778 3.54545,3.34999 l 0.27273,-0.0166 c 1.19455,0 2.16545,0.97778 2.18182,2.22221 l -1.09091,0 a 1.0909091,1.1111034 0 0 0 -1.09091,-1.11111 l -1.09091,0 0,-0.55555 a 2.7272727,2.7777585 0 0 0 -2.72727,-2.77775 c -1.36364,0 -2.48182,1.01109 -2.69455,2.32775 -0.18,-0.0667 -0.37636,-0.10555 -0.57818,-0.10555 a 1.6363636,1.6666551 0 0 0 -1.63636,1.66666 c 0,0.19444 0.0327,0.38332 0.0927,0.55555 l -1.12908,0 -0.0545,-0.55555" opacity=".35"/><path id="path9826" fill="#bebebe" fill-opacity="1" d="m 564.09114,-231.1111 1.09091,0 a 0.54545455,0.5555517 0 0 1 0.54545,0.55555 0.54545455,0.5555517 0 0 1 -0.54545,0.55555 l -1.09091,0 a 0.54545455,0.5555517 0 0 1 -0.54546,-0.55555 0.54545455,0.5555517 0 0 1 0.54546,-0.55555" opacity=".35"/><path id="path9815" fill="#bebebe" fill-opacity="1" d="m 566.81841,-231.1111 7.09091,0 a 0.54545455,0.5555517 0 0 1 0.54546,0.55555 0.54545455,0.5555517 0 0 1 -0.54546,0.55555 l -7.09091,0 a 0.54545455,0.5555517 0 0 1 -0.54545,-0.55555 0.54545455,0.5555517 0 0 1 0.54545,-0.55555 z" opacity=".35"/></g></svg>