<svg xmlns="http://www.w3.org/2000/svg" xmlns:osb="http://www.openswatchbook.org/uri/2009/osb" xmlns:svg="http://www.w3.org/2000/svg" id="svg7384" width="16" height="16" enable-background="new" version="1.1"><metadata id="metadata90"/><title id="title8473">Paper Symbolic Icon Theme</title><defs id="defs7386"><linearGradient id="linearGradient5606" osb:paint="solid"><stop id="stop5608" offset="0" stop-color="#000" stop-opacity="1"/></linearGradient><filter id="filter7554-8" color-interpolation-filters="sRGB"><feBlend id="feBlend7556-7" in2="BackgroundImage" mode="darken"/></filter></defs><path id="path10093" fill="#bebebe" fill-opacity="1" d="m 7.73749,8 1.63636,0 -1.0909,2.18182 1.0909,0 L 7.32839,14 l 0.4091,-2.72726 -1.36364,0 L 7.73749,8 Z" display="inline" enable-background="new"/><path id="path9931" fill="#bebebe" fill-opacity="1" d="M 4.72727,8.85714 A 0.54545455,0.57142856 0 0 1 5.27273,9.42857 0.54545455,0.57142856 0 0 1 4.72727,10 2.7272727,2.8571428 0 0 1 2,7.14286 2.7272727,2.8571428 0 0 1 4.72727,4.2857103 c 0.54546,-1.34285 1.8,-2.28571 3.27273,-2.28571 1.87091,0 3.40364,1.52 3.54545,3.44571 l 0.27273,-0.0171 A 2.1818182,2.2857143 0 0 1 14,7.71433 2.1818182,2.2857143 0 0 1 11.81818,10.00004 l -0.54545,0 A 0.54545455,0.57142856 0 0 1 10.72727,9.42861 0.54545455,0.57142856 0 0 1 11.27273,8.85718 l 0.54545,0 A 1.0909091,1.1428571 0 0 0 12.90909,7.71433 1.0909091,1.1428571 0 0 0 11.81818,6.57147 l -1.09091,0 0,-0.57143 A 2.7272727,2.8571428 0 0 0 8,3.1429003 c -1.36364,0 -2.48182,1.04 -2.69455,2.39428 -0.18,-0.0686 -0.37636,-0.10857 -0.57818,-0.10857 A 1.6363636,1.7142856 0 0 0 3.09091,7.1429 1.6363636,1.7142856 0 0 0 4.72727,8.85718" display="inline" enable-background="new"/></svg>