<svg xmlns="http://www.w3.org/2000/svg" xmlns:xlink="http://www.w3.org/1999/xlink" viewBox="0 0 22 22"><linearGradient id="a" x1="8.686" x2="12.661" y1="9.229" y2="13.144" gradientUnits="userSpaceOnUse"><stop offset="0" stop-color="#fff" stop-opacity=".459"/><stop offset="1" stop-color="#fff" stop-opacity=".053"/></linearGradient><path fill="#4d4d4d" d="m15.40625 3-4 4-1.09375 1.09375-3.3125 3.28125v.03125l-.6875.6875-3.3125 3.28125v1.625l2 2h1.625l3.96875-4 1.125-1.125 3.28125-3.28125.71875-.71875 3.28125-3.28125v-1.59375l-2-2z"/><path fill="url(#a)" d="m15.40625 3-4 4-1.09375 1.09375-3.3125 3.28125v.03125l-.6875.6875-3.3125 3.28125v1.625l2 2h1.625l3.96875-4 1.125-1.125 3.28125-3.28125.71875-.71875 3.28125-3.28125v-1.59375l-2-2z"/></svg>