<svg xmlns="http://www.w3.org/2000/svg" viewBox="0 0 22 22"><defs id="defs3051"><style id="current-color-scheme" type="text/css">.ColorScheme-Text{color:#4d4d4d}</style></defs><path fill="currentColor" fill-opacity="1" stroke="none" d="m18.662109 3.6308594-10.662109 9.7734376v.595703h.8300781l10.5078129-9.6308594z"/><path d="m4 3v14h-1v1h1v1h1v-1h14v-1h-14v-14zm7.478516 1v1h1v-1zm1 1v1h1v-1zm0 1h-1v1h1zm-1 0v-1h-1v1zm5.521484 2v1h1v-1zm1 1v1h1v-1zm0 1h-1v1h1zm-1 0v-1h-1v1zm-4 1v1h1v-1zm1 1v1h1v-1zm0 1h-1v1h1zm-1 0v-1h-1v1zm-6 0v1h1v-1zm1 1v1h1v-1zm0 1h-1v1h1zm-1 0v-1h-1v1z" class="ColorScheme-Text"/></svg>