<svg xmlns="http://www.w3.org/2000/svg" xmlns:svg="http://www.w3.org/2000/svg" id="svg7384" width="16" height="16.02" enable-background="new" version="1.1"><metadata id="metadata90"/><title id="title8473">Paper Symbolic Icon Theme</title><defs id="defs7386"><filter id="filter7554" color-interpolation-filters="sRGB"><feBlend id="feBlend7556" in2="BackgroundImage" mode="darken"/></filter></defs><g id="g3" fill="#f2f2f2" fill-opacity="1" opacity="1" transform="matrix(0.03333333,0,0,0.03333333,2.0000006,2.0100008)"><path id="path5" fill="#f2f2f2" fill-opacity="1" d="M 8 2.0097656 C 5.7906669 2.0097656 4 3.8005325 4 6.0097656 L 4 10.009766 C 4 12.218999 5.7906669 14.009766 8 14.009766 C 10.209133 14.009766 12 12.218999 12 10.009766 L 12 6.0097656 C 12 3.8005325 10.209133 2.0097656 8 2.0097656 z M 7.7285156 3.9492188 C 7.7984823 3.9572396 7.8666948 3.9834969 7.9238281 4.0292969 L 10.3125 5.9453125 C 10.402667 6.0175792 10.455078 6.1266542 10.455078 6.2421875 C 10.455078 6.3577208 10.402667 6.4667625 10.3125 6.5390625 L 8.4765625 8.0097656 L 10.3125 9.4804688 C 10.402667 9.5527354 10.455078 9.6617771 10.455078 9.7773438 C 10.455078 9.8929104 10.402667 10.003872 10.3125 10.076172 L 7.9238281 11.990234 C 7.8549281 12.045468 7.7705802 12.074219 7.6855469 12.074219 C 7.6295469 12.074219 7.5739177 12.06029 7.5214844 12.035156 C 7.3894511 11.97179 7.3046875 11.839826 7.3046875 11.693359 L 7.3046875 8.9589844 L 6.1660156 9.8789062 C 6.095549 9.9358729 6.0098812 9.9648437 5.9257812 9.9648438 C 5.8147479 9.9648438 5.7041729 9.9153656 5.6289062 9.8222656 C 5.4966729 9.658699 5.5239333 9.4193427 5.6875 9.2871094 L 7.265625 8.0097656 L 5.6875 6.734375 C 5.5239333 6.6021417 5.4966729 6.3608323 5.6289062 6.1972656 C 5.7611396 6.0336656 6.0024823 6.008425 6.1660156 6.140625 L 7.3046875 7.0625 L 7.3046875 4.328125 C 7.3046875 4.1816583 7.3894511 4.0477417 7.5214844 3.984375 C 7.5875177 3.9526917 7.658549 3.9411979 7.7285156 3.9492188 z M 8.0664062 5.1210938 L 8.0664062 7.3632812 L 9.4648438 6.2421875 L 8.0664062 5.1210938 z M 8.0664062 8.65625 L 8.0664062 10.898438 L 9.4648438 9.7773438 L 8.0664062 8.65625 z" transform="matrix(30.000003,0,0,30.000003,-60.000024,-60.30003)"/></g></svg>