<svg xmlns="http://www.w3.org/2000/svg" xmlns:svg="http://www.w3.org/2000/svg" id="svg3773" width="16" height="16" version="1.1"><metadata id="metadata3778"/><g id="g3848"><g id="g3840" fill="#f2f2f2" fill-opacity=".4"><path id="path8-8-0" fill="#f2f2f2" fill-opacity=".4" d="m 15.339389,6.0844076 c -1.83187,-2.1798173 -4.507113,-3.429545 -7.3393922,-3.429545 -2.8322796,0 -5.5070813,1.2497277 -7.33941703,3.429545 -0.24338658,0.2894903 -0.20593495,0.7214341 0.0840211,0.9647961 0.12828655,0.107747 0.28400006,0.1607381 0.43968906,0.1607381 0.19542,0 0.389492,-0.083114 0.5250826,-0.2442934 1.5707138,-1.868856 3.8637684,-2.940958 6.2905998,-2.940958 2.4268317,0 4.7198857,1.072102 6.2905747,2.9405168 0.135615,0.1611793 0.329663,0.2442934 0.525108,0.2442934 0.155713,0 0.311868,-0.052525 0.440154,-0.160738 0.28949,-0.2429454 0.326966,-0.6753304 0.08358,-0.964355 z"/></g><g id="g3843"><path id="path8-15" fill="#f2f2f2" fill-opacity="1" d="m 8.0000044,8.5689277 c -1.2145554,0 -2.3610949,0.5355976 -3.1455203,1.4693393 -0.2433866,0.28949 -0.205935,0.721434 0.084021,0.964796 0.1282866,0.107747 0.2844412,0.160714 0.4401547,0.160714 0.1954201,0 0.3894921,-0.08309 0.5246415,-0.244269 0.5237346,-0.623271 1.2880616,-0.9808016 2.0967031,-0.9808016 0.8086415,0 1.5729931,0.3575306 2.0967036,0.9808016 0.135615,0.161645 0.329662,0.244269 0.524641,0.244269 0.155713,0 0.311868,-0.0525 0.440155,-0.160714 0.289956,-0.243386 0.327383,-0.67533 0.08402,-0.964796 C 10.361075,9.1045253 9.2145353,8.5689277 8.0000044,8.5689277 Z"/><path id="path8-4-43" fill="#f2f2f2" fill-opacity="1" d="m 7.9997635,5.5559185 c -2.023197,0 -3.9336223,0.892638 -5.2422235,2.4492092 -0.2433621,0.2894903 -0.205935,0.7214341 0.084021,0.9647962 0.1282865,0.107747 0.2844412,0.1607381 0.4401547,0.1607381 0.19542,0 0.389492,-0.083114 0.5246415,-0.2442935 1.0469789,-1.2460511 2.575682,-1.9606468 4.1934307,-1.9606468 1.6177487,0 3.146427,0.7145957 4.193872,1.9606468 0.135615,0.161645 0.329663,0.2442935 0.524617,0.2442935 0.155713,0 0.311868,-0.052525 0.440179,-0.1607381 0.289932,-0.2433621 0.327359,-0.675747 0.08402,-0.9647962 C 11.933386,6.448581 10.02296,5.5559185 7.9997635,5.5559185 Z"/><path id="path8-1-37" fill="#f2f2f2" fill-opacity="1" d="m 6.8719235,12.21706 c 0,0.622706 0.5053904,1.128077 1.1280758,1.128077 0.6226851,0 1.1280757,-0.505371 1.1280757,-1.128077 -0.1905788,-1.601155 -2.2198579,-1.192838 -2.2561515,0 z"/></g></g></svg>